<svg version="1.1" xmlns="http://www.w3.org/2000/svg" xmlns:xlink="http://www.w3.org/1999/xlink" x="0px" y="0px" viewBox="0 0 909.8 909.8" xml:space="preserve">
<g fill="#f1718c">
	<path d="M823.6,684.9c0.1,3-1,4.8-3.4,6.5c-34.9,24.6-69.7,49.3-104.6,74c-8.8,6.2-17.2,12.8-26.4,18.3c-1.6,0-3.3,0-4.9,0
		c-2.6-1.2-4.8-3-7-4.7c-36.2-28-72.4-56.1-108.6-84.1c-1.8-1.4-2.5-2.8-2.5-5.1c0-25,0.2-50-0.2-75c-0.3-20.5-0.2-41.1-0.3-61.6
		c0-0.9,0.4-2-0.4-2.6c-1-0.7-1.9,0.4-2.6,0.9c-32.9,20.2-65.9,40.3-98.8,60.5c-5.8,3.6-11.6,3.6-17.5,0
		c-32.9-20.2-65.8-40.4-98.8-60.5c-0.7-0.5-1.5-1.4-2.4-1c-1.1,0.5-0.6,1.8-0.6,2.7c-0.2,23.7-0.1,47.4-0.4,71.2
		c-0.3,21.5-0.1,43.1,0,64.6c0,2.8-0.9,4.6-3.1,6.4c-31.9,24.6-63.7,49.3-95.5,73.9c-6.4,4.9-12.5,10.2-19.5,14.4
		c-1.6,0-3.3,0-4.9,0c-2.3-1.5-4.6-2.9-6.9-4.4c-23.1-16.3-46.2-32.6-69.2-49c-18.5-13.1-37.1-26.3-55.6-39.4
		c-1.9-1.3-2.8-2.8-2.7-5.2c0.2-4.4-0.2-415.9,0-443.9c0.1-11.3,2.7-9.9,10.6-16.6c0.2-0.2,0.4-0.4,0.6-0.5
		c18.4-15.9,36.7-31.7,55.1-47.6c17.8-15.4,35.7-30.7,53.5-46.1c4.2-3.7,5-3.8,9.7-0.9c0.4,0.2,0.8,0.5,1.1,0.7
		c29.2,19.9,185.6,126.4,234.6,159.9c1.6,1.1,2.8,1,4.4,0c21.3-14.6,229.8-156.6,236.4-161c3.7-2.4,4.9-2.2,8.2,0.6
		c3.8,3.3,7.5,6.6,11.3,9.9c21.4,18.4,42.9,36.8,64.3,55.3c13.6,11.7,27.1,23.4,40.7,35c2.2,1.9,6.5,5,6.5,7.9 M105.7,469.4
		c0.3,31.4-0.7,66.4-0.6,101.4c0,7.1-0.3,14.2-0.4,21.3c-0.2,28.5-0.4,57.1-0.6,85.6c0,1.8,0.6,3.1,2.1,4.1
		c5.4,3.5,10.8,7,16.1,10.7c28.9,20.4,57.7,40.8,86.6,61.3c0.7,0.5,1.4,1.6,2.3,1.2c1.1-0.5,0.5-1.8,0.5-2.7
		c0-12.2-0.1-24.4-0.3-36.5c-0.6-36-0.1-72-0.5-108c-0.5-46.8-0.5-93.6-0.8-140.4c0-1.5-0.1-3.1,0.1-4.6c0.7-5.5,5.3-8.8,10.8-7.8
		c2.6,0.5,5,1.5,7.3,2.9c12.7,7.8,25.4,15.6,38.2,23.3c61.9,37.9,123.8,75.7,185.6,113.6c2.2,1.4,3.9,1.4,6.1,0
		c32.4-19.9,64.8-39.7,97.2-59.5c42-25.7,84.1-51.4,126.1-77.1c2.4-1.5,4.9-2.7,7.7-3.2c5.1-0.9,9.6,1.9,10.6,7
		c0.3,1.5,0.3,3.1,0.3,4.6c-0.1,13.2-0.2,26.4-0.3,39.5c-0.4,36.3-0.1,72.5-0.5,108.8c-0.5,45.8-0.5,91.6-0.7,137.4
		c0,0.9-0.5,2.2,0.5,2.7c0.9,0.4,1.6-0.6,2.3-1.2c23.6-16.7,47.2-33.3,70.8-50.1c10.1-7.2,20.5-14.2,30.2-22c2.6-2.1,4-4.3,3.8-7.8
		c-0.3-9-0.3-18-0.4-27c-0.3-21.3,0-42.5-0.5-63.8c-0.5-21.3,0-42.5-0.5-63.8c-0.5-21.8-0.1-43.6-0.6-65.4c-0.5-21,0-42-0.5-63
		c-0.5-21-0.1-42-0.5-63c-0.4-17-0.2-34-0.3-51c-0.1-7.7-0.3-15.4-0.4-23.2c-0.1-2.6-0.4-2.8-2.6-1.4c-0.3,0.2-0.6,0.4-0.9,0.6
		c-57.4,37.2-114.9,74.5-172.3,111.7C572.3,399.7,518,435,463.6,470.2c-5.5,3.5-11.2,3.5-16.7,0c-13-8.3-26-16.8-38.9-25.2
		c-46.8-30.4-93.7-60.7-140.5-91.1c-32.4-21-64.8-42-97.2-63.1c-19.8-12.8-39.5-25.6-59.3-38.4c-0.8-0.5-1.6-1.6-2.6-0.9
		c-0.8,0.5-0.5,1.7-0.5,2.6c-0.2,7.6-0.4,15.3-0.4,22.9c-0.2,20.2,0,40.4-0.5,60.5c-0.5,22.5-0.1,45.1-0.6,67.6
		C105.9,425.4,106.4,445.6,105.7,469.4z"/>
</g>
</svg>