<svg version="1.1" xmlns="http://www.w3.org/2000/svg" width="32" height="32" viewBox="0 0 32 32"><path d="M16 29.333q-2.767 0-5.2-1.050t-4.233-2.85-2.85-4.233-1.050-5.2 1.050-5.2 2.85-4.233 4.233-2.85 5.2-1.050 5.2 1.050 4.233 2.85 2.85 4.233 1.050 5.2v1.933q0 1.967-1.35 3.35t-3.317 1.383q-1.167 0-2.2-0.5t-1.733-1.433q-0.967 0.967-2.183 1.45t-2.55 0.483q-2.767 0-4.717-1.95t-1.95-4.717 1.95-4.717 4.717-1.95 4.717 1.95 1.95 4.717v1.933q0 0.867 0.567 1.467t1.433 0.6 1.433-0.6 0.567-1.467v-1.933q0-4.467-3.1-7.567t-7.567-3.1-7.567 3.1-3.1 7.567 3.1 7.567 7.567 3.1h6.667v2.667h-6.667zM16 20q1.667 0 2.833-1.167t1.167-2.833-1.167-2.833-2.833-1.167-2.833 1.167-1.167 2.833 1.167 2.833 2.833 1.167z"></path></svg>
