<svg version="1.1" xmlns="http://www.w3.org/2000/svg" width="32" height="32" viewBox="0 0 32 32"><path d="M9.017 13.381c0 0.395 0.043 0.713 0.117 0.947 0.085 0.235 0.192 0.491 0.341 0.768 0.053 0.084 0.075 0.169 0.075 0.244 0 0.107-0.064 0.213-0.203 0.32l-0.671 0.447c-0.077 0.056-0.173 0.091-0.276 0.096l-0.001 0c-0.107 0-0.213-0.053-0.319-0.149-0.138-0.148-0.264-0.312-0.375-0.486l-0.008-0.014c-0.098-0.162-0.208-0.368-0.309-0.579l-0.021-0.049c-0.829 0.979-1.873 1.468-3.129 1.468-0.893 0-1.607-0.255-2.128-0.765-0.521-0.512-0.787-1.192-0.787-2.044 0-0.904 0.319-1.64 0.968-2.192 0.649-0.553 1.511-0.831 2.607-0.831 0.363 0 0.735 0.032 1.128 0.085 0.395 0.053 0.8 0.139 1.224 0.235v-0.777c0-0.809-0.169-1.373-0.5-1.703-0.34-0.331-0.915-0.489-1.733-0.489-0.373 0-0.757 0.041-1.151 0.137s-0.777 0.213-1.149 0.363c-0.101 0.047-0.224 0.094-0.352 0.133l-0.022 0.006c-0.050 0.017-0.108 0.028-0.168 0.031l-0.002 0c-0.149 0-0.224-0.107-0.224-0.329v-0.521c0-0.171 0.021-0.299 0.075-0.373 0.080-0.095 0.18-0.171 0.294-0.221l0.005-0.002c0.372-0.192 0.819-0.352 1.34-0.48 0.48-0.128 1.032-0.202 1.601-0.202 0.021 0 0.043 0 0.064 0l-0.003-0c1.267 0 2.192 0.288 2.788 0.863 0.585 0.573 0.883 1.447 0.883 2.617zM4.697 15c0.351 0 0.712-0.064 1.096-0.192 0.383-0.128 0.724-0.361 1.011-0.68 0.171-0.203 0.299-0.427 0.363-0.683 0.063-0.255 0.107-0.564 0.107-0.925v-0.447c-0.264-0.069-0.597-0.132-0.935-0.177l-0.045-0.005c-0.3-0.040-0.647-0.063-0.999-0.064h-0.001c-0.713 0-1.235 0.139-1.587 0.427-0.351 0.287-0.52 0.691-0.52 1.223 0 0.5 0.127 0.873 0.393 1.128 0.255 0.267 0.627 0.395 1.117 0.395zM13.244 16.149c-0.192 0-0.32-0.032-0.405-0.107-0.085-0.064-0.16-0.213-0.224-0.415l-2.5-8.228c-0.045-0.124-0.079-0.269-0.095-0.418l-0.001-0.008c0-0.171 0.085-0.267 0.255-0.267h1.044c0.201 0 0.34 0.033 0.413 0.107 0.087 0.064 0.151 0.213 0.213 0.416l1.789 7.045 1.66-7.045c0.053-0.213 0.117-0.352 0.201-0.416 0.109-0.068 0.241-0.108 0.383-0.108 0.015 0 0.031 0 0.046 0.001l-0.002-0h0.851c0.203 0 0.341 0.033 0.427 0.107 0.084 0.064 0.16 0.213 0.201 0.416l1.681 7.131 1.841-7.131c0.064-0.213 0.139-0.352 0.213-0.416 0.105-0.068 0.234-0.108 0.372-0.108 0.015 0 0.030 0 0.045 0.001l-0.002-0h0.991c0.169 0 0.267 0.087 0.267 0.267 0 0.053-0.012 0.107-0.023 0.171-0.019 0.102-0.045 0.191-0.078 0.277l0.004-0.010-2.564 8.227c-0.064 0.213-0.139 0.351-0.224 0.415-0.104 0.067-0.231 0.108-0.367 0.108-0.013 0-0.026-0-0.039-0.001l0.002 0h-0.916c-0.201 0-0.34-0.032-0.427-0.107-0.084-0.075-0.159-0.213-0.2-0.427l-1.651-6.864-1.64 6.853c-0.053 0.213-0.116 0.352-0.2 0.427-0.087 0.075-0.236 0.107-0.427 0.107zM26.919 16.436c-0.553 0-1.107-0.064-1.639-0.191-0.532-0.128-0.947-0.267-1.224-0.427-0.171-0.095-0.287-0.201-0.329-0.297-0.040-0.088-0.063-0.19-0.064-0.298v-0.543c0-0.223 0.085-0.329 0.244-0.329 0.064 0 0.128 0.011 0.192 0.032s0.16 0.064 0.267 0.107c0.361 0.16 0.755 0.287 1.171 0.372 0.425 0.085 0.84 0.128 1.267 0.128 0.669 0 1.192-0.117 1.553-0.352 0.334-0.204 0.554-0.567 0.554-0.981 0-0.010-0-0.021-0-0.031l0 0.002c0-0.009 0-0.019 0-0.030 0-0.278-0.109-0.53-0.287-0.716l0 0c-0.192-0.201-0.555-0.383-1.076-0.553l-1.543-0.48c-0.777-0.244-1.352-0.605-1.703-1.084-0.33-0.422-0.53-0.959-0.533-1.543v-0.001c0-0.447 0.097-0.84 0.288-1.181 0.192-0.34 0.447-0.639 0.767-0.872 0.32-0.245 0.68-0.427 1.107-0.553 0.427-0.128 0.873-0.181 1.341-0.181 0.233 0 0.479 0.011 0.713 0.043 0.244 0.032 0.467 0.075 0.691 0.117 0.213 0.053 0.416 0.107 0.607 0.169 0.192 0.064 0.341 0.128 0.448 0.192 0.128 0.065 0.235 0.155 0.318 0.264l0.002 0.002c0.060 0.089 0.096 0.199 0.096 0.317 0 0.012-0 0.024-0.001 0.035l0-0.002v0.5c0 0.224-0.085 0.341-0.245 0.341-0.151-0.018-0.287-0.063-0.41-0.131l0.006 0.003c-0.579-0.262-1.255-0.415-1.968-0.415-0.026 0-0.053 0-0.079 0.001l0.004-0c-0.607 0-1.087 0.095-1.416 0.297-0.331 0.203-0.5 0.511-0.5 0.947 0 0.299 0.107 0.555 0.32 0.756 0.212 0.203 0.605 0.405 1.169 0.587l1.512 0.477c0.765 0.245 1.32 0.587 1.649 1.023s0.489 0.936 0.489 1.489c0 0.457-0.096 0.873-0.276 1.235-0.192 0.363-0.448 0.681-0.777 0.937-0.331 0.267-0.724 0.457-1.181 0.596-0.48 0.148-0.979 0.223-1.523 0.223zM28.931 21.609c-3.501 2.587-8.589 3.959-12.963 3.959-6.131 0-11.653-2.267-15.827-6.035-0.329-0.297-0.032-0.703 0.363-0.468 4.512 2.617 10.079 4.204 15.836 4.204 3.885 0 8.152-0.809 12.080-2.469 0.585-0.267 1.085 0.383 0.511 0.809zM30.389 19.948c-0.448-0.573-2.96-0.276-4.099-0.137-0.34 0.043-0.393-0.256-0.084-0.48 2-1.404 5.289-1 5.672-0.532 0.383 0.48-0.107 3.768-1.98 5.343-0.287 0.245-0.564 0.117-0.436-0.201 0.427-1.053 1.373-3.427 0.927-3.992z"></path></svg>
