<svg version="1.1" xmlns="http://www.w3.org/2000/svg" width="32" height="32" viewBox="0 0 32 32"><path fill="#e00" d="M14.156 15.297l6.248 4.927-4.136-10.216zM16 0c-8.839 0-16 7.161-16 16s7.161 16 16 16 16-7.161 16-16-7.161-16-16-16zM23.729 23.073c-0.015 0.628-0.537 1.123-1.167 1.107-0.315 0-0.555-0.12-0.885-0.391l-8.253-6.667-2.772 6.937h-2.397l6.996-16.807c0.165-0.419 0.569-0.693 1.019-0.675 0.435-0.019 0.84 0.252 0.989 0.675l6.365 15.325c0.060 0.148 0.107 0.312 0.107 0.464-0.001 0.012-0.001 0.012-0.001 0.031z"></path></svg>
