<svg version="1.1" xmlns="http://www.w3.org/2000/svg" width="32" height="32" viewBox="0 0 32 32"><path fill="#d22128" d="M21.101 0c-0.199 0-0.385 0.057-0.543 0.155l0.004-0.003c-0.501 0.296-1.336 1.135-2.331 2.351l-0.208 0.256c-0.264 0.328-0.537 0.683-0.819 1.057-0.847 1.117-1.733 2.409-2.561 3.741l-0.127 0.22-0.088 0.144c-0.677 1.075-1.435 2.42-2.136 3.798l-0.143 0.31c-0.462 0.895-0.956 2.020-1.389 3.174l-0.078 0.235c-0.121 0.335-0.232 0.657-0.333 0.968-0.083 0.265-0.163 0.531-0.237 0.795-0.177 0.623-0.331 1.245-0.456 1.864l0.001 0.003-0.017 0.081c-0.135 0.634-0.245 1.406-0.307 2.191l-0.004 0.065-0.007 0.079c-0.373-0.599-1.372-1.181-1.371-1.176 0.716 1.037 1.259 2.067 1.339 3.077-0.383 0.079-0.908-0.035-1.515-0.259 0.632 0.581 1.107 0.741 1.292 0.784-0.581 0.036-1.185 0.436-1.795 0.895 0.891-0.364 1.611-0.507 2.127-0.391-0.51 1.269-1.347 3.791-2.129 6.338l-0.329 1.246c0.232-0.067 0.412-0.243 0.484-0.467l0.001-0.005c0.147-0.492 1.116-3.715 2.636-7.952l0.131-0.364 0.037-0.101c0.16-0.444 0.327-0.897 0.499-1.36l0.119-0.316 0.003-0.007-0.805-1.591 0.805 1.589c0.159-0.423 0.32-0.851 0.487-1.284l0.069-0.181 0.071-0.183 0.055-0.139-0.055 0.14-0.071 0.181-0.069 0.181c-0.167 0.433-0.328 0.861-0.487 1.284l0.141 0.277 0.125-0.013 0.013-0.037c0.204-0.556 0.405-1.099 0.605-1.627l0.007-0.019c0.111-0.4-0.096 0.144-0.299 0.69l-0.312 0.955-0.013 0.037-0.089 0.244c-0.157 0.433-0.316 0.873-0.475 1.324l-0.007 0.020-0.068 0.191c-0.107 0.304-0.2 0.577-0.412 1.199 0.351 0.16 0.632 0.581 0.899 1.059-0.027-0.524-0.261-0.988-0.62-1.317l-0.001-0.001c1.728 0.077 3.217-0.359 3.988-1.623 0.069-0.113 0.132-0.231 0.188-0.357-0.349 0.444-0.784 0.632-1.6 0.585 1.203-0.539 1.805-1.055 2.339-1.911 0.111-0.176 0.236-0.395 0.351-0.62l0.023-0.050c-1.052 1.080-2.269 1.387-3.553 1.153h-0.003l-0.055-0.009c1.151-0.143 2.68-1.003 3.669-2.064 0.456-0.489 0.869-1.067 1.252-1.741 0.285-0.503 0.552-1.060 0.807-1.677 0.223-0.539 0.436-1.123 0.643-1.756-0.313 0.164-0.676 0.286-1.060 0.345l-0.020 0.003c-0.022 0.005-0.085 0.015-0.147 0.025l-0.037 0.005 0.003-0.001 0.004-0.001c0.060-0.009 0.119-0.017 0.177-0.028 0.060-0.011 0.12-0.021 0.179-0.035l-0.177 0.032-0.176 0.031c1.069-0.413 1.744-1.209 2.235-2.183-0.369 0.254-0.8 0.449-1.265 0.56l-0.026 0.005c-0.048 0.011-0.126 0.026-0.204 0.038l-0.024 0.003-0.057 0.008 0.001-0.001 0.012-0.001 0.043-0.007c0.094-0.014 0.165-0.028 0.235-0.043l-0.026 0.005 0.019-0.004-0.021 0.004-0.259 0.044c0.371-0.156 0.684-0.329 0.956-0.535 0.203-0.159 0.382-0.33 0.544-0.517l0.004-0.005c0.107-0.127 0.207-0.264 0.3-0.413l0.085-0.139 0.103-0.203c0.152-0.294 0.317-0.669 0.463-1.052l0.028-0.083 0.041-0.117c0.037-0.113 0.069-0.215 0.093-0.303 0.036-0.132 0.059-0.237 0.071-0.315-0.037 0.030-0.078 0.058-0.121 0.083l-0.005 0.002c-0.324 0.193-0.88 0.369-1.328 0.452l-0.132 0.015-0.001 0.001-3.023 0.332-0.016 0.032-0.103 0.211-0.313 0.651c0.105-0.221 0.209-0.439 0.313-0.651l0.103-0.211c0.005-0.012 0.012-0.023 0.016-0.035l-0.112 0.012-0.089-0.176c0.019-0.074-0.149 0.26-0.315 0.595l-0.189 0.423-0.272 0.565c-0.257 0.473-0.745 1.528-1.214 2.593l-0.242 0.615c-0.157 0.263-0.643 1.407-1.113 2.559l-0.329 0.911 0.115-0.288c0.755-1.943 1.202-2.992 1.662-4.034l-0.335 0.852c0.715-1.69 1.204-2.745 1.71-3.79l-0.254 0.581 0.272-0.565c0.157-0.325 0.316-0.647 0.477-0.965l0.027-0.051c0.255-0.504 0.512-1 0.772-1.488 0.277-0.52 0.56-1.028 0.844-1.521 0.4-0.703 0.697-1.191 1.003-1.671l-0.107 0.179 0.053-0.085c0.299-0.472 0.6-0.927 0.903-1.361 0.654-0.945 1.321-1.771 2.042-2.546l-0.013 0.014-0.077 0.083c-0.213 0.235-0.859 0.988-1.833 2.484 0.939-0.047 2.38-0.239 3.556-0.44 0.349-1.96-0.343-2.856-0.343-2.856s-0.592-0.959-1.381-0.968zM18.904 10.009c0.88-0.405 1.275-0.772 1.656-1.301 0.101-0.147 0.204-0.299 0.305-0.457 0.311-0.484 0.615-1.019 0.887-1.549 0.263-0.512 0.495-1.020 0.672-1.479 0.086-0.208 0.177-0.474 0.254-0.746l0.013-0.054c0.055-0.209 0.099-0.409 0.132-0.599-1.177 0.2-2.619 0.393-3.557 0.439-0.224 0.331-0.531 0.819-0.827 1.315l-0.101 0.181c-0.272 0.46-0.563 0.964-0.867 1.516-0.38 0.651-0.911 1.656-1.416 2.675l-0.175 0.391zM23.741 2.931v0.088h0.208v0.585h0.096v-0.585h0.209v-0.088zM24.359 2.931v0.675h0.088v-0.535l0.229 0.464h0.061l0.229-0.464v0.535h0.088v-0.675h-0.116l-0.232 0.471-0.233-0.471zM19.015 9.999l-0.136 0.021 0.001-0.001zM18.895 10.015l-0.007 0.003zM15.241 11.671l-0.141 0.303-0.177 0.383c-0.158 0.273-0.57 1.188-0.969 2.109l-0.259 0.671c-0.151 0.259-0.6 1.335-1.034 2.418l-0.298 0.843c-0.197 0.504-0.397 1.020-0.599 1.551l-0.007 0.019c1.205-3.273 2.272-5.784 3.433-8.243l-0.268 0.631 0.177-0.383z"></path></svg>
