<svg version="1.1" xmlns="http://www.w3.org/2000/svg" width="32" height="32" viewBox="0 0 32 32"><path fill="#007a88" d="M16.044 14.284c-0.921 0-1.684 0.752-1.684 1.673 0 0.92 0.763 1.683 1.684 1.683 0.927 0 1.678-0.751 1.678-1.678s-0.751-1.678-1.678-1.678v0zM16.044 15.347c0.344 0 0.609 0.267 0.609 0.611s-0.267 0.611-0.609 0.611c-0.345 0-0.611-0.267-0.611-0.611s0.265-0.611 0.611-0.611zM0.867 0.001c-0.097 0-0.141 0.016-0.467 0.053-0.329 0.039-0.436 0.431-0.36 0.843 0.073 0.413 0.096 0.273 0.261 0.512 0.165 0.24 5.637 5.525 8.469 8.288l-5.020 5.148c-1.667 1.709-2.547 4.335-3.061 7.244-0.516 2.908-0.649 6.125-0.689 9.044 0.004 0.425 0.323 0.775 0.735 0.826l0.004 0c0.024 0.002 0.051 0.003 0.079 0.003s0.055-0.001 0.082-0.003l-0.004 0c0.202-0.019 0.381-0.109 0.512-0.245l0-0h0.009l8.279-8.493c5.361 4.961 5.493 6.773 12.392 8.089 2.909 0.515 6.127 0.649 9.045 0.689 0.423-0.001 0.772-0.316 0.826-0.724l0-0.004 0.011-0.011c0-0.009 0-0.019 0-0.029 0-0.052-0.004-0.104-0.012-0.154l0.001 0.006c-0.022-0.194-0.108-0.365-0.236-0.493l0 0v-0.011l-8.504-8.277 4.843-4.969c0.061-0.057 0.119-0.117 0.177-0.177l0.009-0.011c1.667-1.708 2.557-4.325 3.072-7.235 0.513-2.909 0.639-6.127 0.679-9.044-0.001-0.423-0.316-0.771-0.724-0.826l-0.004-0-0.011-0.013c-0.011-0-0.023-0.001-0.035-0.001-0.050 0-0.099 0.004-0.147 0.012l0.005-0.001c-0.194 0.021-0.364 0.108-0.492 0.237l-0 0h-0.009l-8.279 8.493-5.148-5.020c-1.708-1.665-4.333-2.556-7.244-3.069-3.005-0.332-6.023-0.633-9.045-0.677zM1.507 1.115c2.719 0.051 5.617 0.16 8.219 0.62 2.807 0.496 5.236 1.373 6.683 2.785h0.011l0.137 0.147c0.031 0.031 0.065 0.071 0.099 0.109 0.003 0.004 0.007 0.005 0.009 0.011l0.031 0.031c0 0.003-0.003 0.011 0 0.011 0.003 0.004 0.007 0.005 0.009 0.011 0.171 0.235 0.472 0.693 0.56 0.885 0.065 0.135 0.124 0.277 0.179 0.433 0.239 0.692 0.357 1.555 0.275 2.647v0.011c-0.019 0.241-0.051 0.493-0.088 0.759-0.019 0.127-0.044 0.267-0.069 0.413-0.070 0.382-0.135 0.67-0.208 0.955l0.022-0.099c-0.037 0.153-0.075 0.309-0.119 0.463v0.011c-0.173 0.624-0.4 1.301-0.68 2.027-0.069 0.184-0.137 0.363-0.215 0.552-0.061 0.148-0.132 0.3-0.197 0.453l-0.344 0.068c-1.167-2.207-2.441-3.733-3.584-4.607-0.576-0.44-1.116-0.72-1.633-0.836h-0.009c-0.516-0.112-1.067-0.036-1.427 0.335l0.051 0.1 0.427-0.319zM30.888 1.499c-0.051 2.72-0.16 5.624-0.62 8.227-0.496 2.807-1.375 5.237-2.787 6.684l-0.147 0.137c-0.040 0.035-0.083 0.079-0.128 0.117l-0.020 0.021h-0.009c-0.232 0.168-0.703 0.48-0.896 0.571-0.135 0.063-0.28 0.133-0.433 0.187h-0.009c-0.688 0.236-1.555 0.347-2.639 0.267-0.244-0.021-0.5-0.041-0.768-0.080l-0.403-0.069h-0.011c-0.383-0.071-0.672-0.135-0.957-0.209l0.101 0.022h-0.009c-0.156-0.040-0.312-0.087-0.463-0.128-0.84-0.231-1.515-0.46-2.173-0.72l0.145 0.051c-0.181-0.069-0.372-0.148-0.561-0.227-0.325-0.126-0.464-0.185-0.603-0.246l0.18 0.070c0.012-0.084-0.105 0.128 0 0 0.001-0.011 0.001-0.025 0.001-0.038 0-0.125-0.026-0.244-0.072-0.352l0.002 0.006c2.184-1.16 3.707-2.419 4.577-3.553 0.441-0.577 0.731-1.125 0.847-1.644 0.116-0.515 0.036-1.075-0.335-1.436l0.009 0.011 0.147 0.468zM18.533 6.596l3.416 3.328c0.051 0.051 0.104 0.147 0.040 0.443-0.029 0.127-0.195 0.352-0.276 0.521-0.109 0.221-0.155 0.4-0.365 0.669-0.728 0.933-2.155 2.088-4.183 3.169 0.061-0.143 0.12-0.284 0.177-0.423 0.080-0.196 0.153-0.392 0.227-0.581 0.291-0.757 0.533-1.471 0.717-2.136 0.107-0.357 0.22-0.835 0.31-1.32l0.015-0.097v-0.009c0.025-0.143 0.057-0.283 0.079-0.432 0.034-0.22 0.066-0.507 0.087-0.798l0.002-0.039c0.067-0.903-0.093-1.595-0.247-2.295zM10.365 10.013c2.123 0.96 3.512 3.232 4.369 4.823-0.144-0.063-0.289-0.119-0.432-0.177-0.196-0.080-0.392-0.153-0.581-0.227-0.536-0.222-1.242-0.467-1.964-0.678l-0.163-0.041h-0.008c-0.167-0.045-0.325-0.089-0.483-0.128-0.32-0.079-0.635-0.141-0.935-0.197-0.144-0.024-0.293-0.045-0.443-0.068v-0.013c-0.211-0.032-0.499-0.064-0.789-0.086l-0.048-0.003c-0.907-0.068-1.603 0.092-2.303 0.247l3.337-3.416c0.048-0.052 0.147-0.107 0.441-0.035zM8.809 14.284c0.24 0.016 0.491 0.051 0.759 0.089h0.009c0.128 0.020 0.259 0.045 0.404 0.069 0.273 0.051 0.557 0.113 0.856 0.187l0.236 0.059c0.076 0.020 0.151 0.036 0.227 0.059h0.009c0.627 0.173 1.299 0.399 2.028 0.68 0.183 0.071 0.373 0.139 0.56 0.216 0.16 0.065 0.32 0.137 0.484 0.207l0.019 0.355c-2.187 1.16-3.716 2.427-4.587 3.563-0.443 0.577-0.731 1.116-0.847 1.633v0.011c-0.116 0.516-0.036 1.067 0.335 1.427h-0.008l-0.251-0.447-7.92 8.095c0.053-2.716 0.152-5.611 0.611-8.208 0.496-2.807 1.375-5.237 2.787-6.683v-0.011c0.032-0.036 0.071-0.064 0.107-0.099l0.040-0.040c0.037-0.036 0.076-0.071 0.115-0.105l0.003-0.003h0.009c0.008-0.005 0.013-0.016 0.020-0.021 0.228-0.167 0.711-0.489 0.907-0.58 0.112-0.054 0.258-0.114 0.407-0.167l0.034-0.011c0.692-0.24 1.555-0.359 2.647-0.275zM15.68 14.551c-0.553 0.176-0.931 0.56-1.112 1.112l0.587-0.653zM16.408 14.591l0.24 0.431 0.195 0.127 0.54 0.417c-0.197-0.464-0.496-0.804-0.975-0.975zM16.024 15.28c0.416 0 0.739 0.323 0.739 0.737 0 0.003 0 0.006 0 0.009 0 0.403-0.327 0.729-0.729 0.729-0.003 0-0.007-0-0.010-0h0c-0.002 0-0.005 0-0.008 0-0.403 0-0.729-0.327-0.729-0.729 0-0.003 0-0.007 0-0.010v0c0-0.413 0.323-0.739 0.737-0.737zM14.627 16.431c0.187 0.484 0.508 0.813 0.995 0.995l-0.321-0.368-0.271-0.312zM17.373 16.481l-0.376 0.155-0.083 0.237-0.379 0.436c0.387-0.189 0.664-0.432 0.837-0.828zM17.275 17.161c0.141 0.060 0.284 0.128 0.424 0.187 0.196 0.080 0.389 0.153 0.58 0.227 0.755 0.289 1.464 0.525 2.127 0.707 0.171 0.052 0.337 0.089 0.492 0.129 0.32 0.079 0.635 0.152 0.935 0.207 0.143 0.025 0.293 0.045 0.443 0.068 0.288 0.040 0.568 0.077 0.837 0.099 0.907 0.069 1.603-0.091 2.303-0.245l-3.336 3.416c-0.049 0.051-0.153 0.099-0.433 0.040h-0.011c-0.288-0.067-0.708-0.272-1.191-0.649-0.933-0.729-2.089-2.157-3.169-4.184zM14.835 17.279l-0.179 0.423c-0.080 0.196-0.153 0.392-0.227 0.581-0.22 0.536-0.462 1.243-0.669 1.965l-0.039 0.161c-0.048 0.171-0.089 0.335-0.128 0.493-0.080 0.32-0.152 0.633-0.207 0.933-0.012 0.052-0.036 0.203-0.059 0.355l-0.011 0.090c-0.034 0.211-0.069 0.498-0.094 0.788l-0.003 0.049c-0.069 0.907 0.091 1.603 0.245 2.303l-3.376-3.299-0.020-0.031-0.020-0.011v-0.011c-0.053-0.053-0.104-0.135-0.040-0.423 0.003-0.005 0-0.003 0-0.011 0.067-0.288 0.275-0.709 0.651-1.191 0.728-0.933 2.151-2.089 4.175-3.165zM16.221 17.623c1.155 2.168 2.413 3.701 3.544 4.568 0.577 0.443 1.115 0.731 1.633 0.845h0.011c0.516 0.113 1.065 0.036 1.427-0.333l-0.047-0.095-0.405 0.36 8.12 7.923c-2.72-0.053-5.627-0.163-8.229-0.623-2.807-0.496-5.237-1.373-6.683-2.785h-0.011l-0.029-0.031-0.040-0.040c-0.011-0.011-0.017-0.025-0.029-0.040l-0.040-0.040c-0.031-0.036-0.071-0.076-0.107-0.119v-0.011c-0.004-0.005-0.016-0.013-0.020-0.020-0.194-0.26-0.386-0.555-0.559-0.863l-0.022-0.042c-0.055-0.114-0.115-0.26-0.167-0.41l-0.010-0.033c-0.24-0.692-0.359-1.555-0.275-2.648 0.017-0.24 0.049-0.491 0.088-0.757v-0.011c0.019-0.125 0.044-0.261 0.069-0.404 0.049-0.273 0.113-0.559 0.187-0.856v-0.011l0.059-0.227 0.060-0.227v-0.011c0.173-0.627 0.397-1.297 0.68-2.027 0.069-0.183 0.148-0.373 0.225-0.56 0.063-0.153 0.129-0.308 0.197-0.464z"></path></svg>
