<svg version="1.1" xmlns="http://www.w3.org/2000/svg" width="32" height="32" viewBox="0 0 32 32"><path fill="#e8e8e8" d="M24.727 0.727h-17.453l-7.273 11.637 2.909 18.909h5.181l-0.364-4.364h2.545l0.364 4.364h10.727l0.364-4.364h2.545l-0.364 4.364h5.181l2.911-18.909zM24.727 24h-17.453l-1.455-11.636 2.909-5.819h4.675l-0.312 2.181h5.819l-0.312-2.181h4.675l2.909 5.819zM20.727 14.727c0.401 0 0.727 1.211 0.727 2.705s-0.325 2.705-0.727 2.705-0.727-1.211-0.727-2.705c0-1.493 0.325-2.705 0.727-2.705zM11.545 14.953c0.401 0 0.727 1.211 0.727 2.705s-0.325 2.705-0.727 2.705-0.727-1.211-0.727-2.705 0.325-2.705 0.727-2.705z"></path></svg>
