<svg xmlns="http://www.w3.org/2000/svg" viewBox="0 0 145.69 66.53"><defs><style>.cls-1{fill:#404041;}</style></defs><g id="Layer_2" data-name="Layer 2"><g id="Layer_1-2" data-name="Layer 1"><path class="cls-1" d="M45.89,49.55V19.72c0-6.88-5.44-7.78-5.44-7.78V0S56.24,1,57.16,20.1V49.55Z"/><path class="cls-1" d="M64.6,33.55A16.4,16.4,0,0,1,66,26.75a18.42,18.42,0,0,1,4.23-5.85,19.65,19.65,0,0,1,6.18-3.85,19.89,19.89,0,0,1,7.25-1.34,20.49,20.49,0,0,1,7.37,1.34,19.16,19.16,0,0,1,6.17,3.85,17.6,17.6,0,0,1,4.14,5.78,17.3,17.3,0,0,1,0,13.73,17.5,17.5,0,0,1-4.14,5.78A19,19,0,0,1,91.07,50a20.49,20.49,0,0,1-7.37,1.34A19.89,19.89,0,0,1,76.45,50a19.47,19.47,0,0,1-6.18-3.85A18.42,18.42,0,0,1,66,40.34,16.36,16.36,0,0,1,64.6,33.55Zm11.46-.07A7.6,7.6,0,0,0,78.3,39a7.29,7.29,0,0,0,5.39,2.28,7.78,7.78,0,0,0,7.76-7.8,7.8,7.8,0,0,0-7.76-7.81A7.27,7.27,0,0,0,78.3,28,7.58,7.58,0,0,0,76.06,33.48Z"/><path class="cls-1" d="M33.5,21.1c-2.5-2.88-6.67-5.39-10.67-5.25-4.68.15-8.65,1-11.64,3.57h-.14V1H0V49.19H11.05V46.85h.14a16,16,0,0,0,10,3.13c4.87,0,9.34-1.38,12.26-4.67s4.36-6.39,4.36-11.82A19.31,19.31,0,0,0,33.5,21.1ZM24,39.07a7.46,7.46,0,0,1-5.48,2.28,7.27,7.27,0,0,1-5.38-2.28,7.93,7.93,0,0,1,0-11,7.27,7.27,0,0,1,5.38-2.28,7.78,7.78,0,0,1,7.76,7.81A7.52,7.52,0,0,1,24,39.07Z"/><path class="cls-1" d="M134.72,16.05v2.63h-.15c-2.67-2.43-5.4-3.48-9.73-3.48-4.84,0-9.07,1.61-12,5.08s-4.46,8.12-4.46,14q0,7.86,4,12.54a14.26,14.26,0,0,0,11.14,4.79c4.88,0,8.57-1.26,11.08-4.74h.15v2.25c0,5.82-6.18,8.78-10.67,8.33V66.2c5.38.77,11.78.47,16.26-3.8,3.78-3.58,5.38-8.74,5.38-17.21V16.05Zm-2.12,23a7.46,7.46,0,0,1-5.48,2.28,7.26,7.26,0,0,1-5.38-2.28,7.93,7.93,0,0,1,0-11,7.26,7.26,0,0,1,5.38-2.28,7.78,7.78,0,0,1,7.76,7.81A7.52,7.52,0,0,1,132.6,39.07Z"/></g></g></svg>