<svg version="1.1" xmlns="http://www.w3.org/2000/svg" width="32" height="32" viewBox="0 0 32 32"><path fill="#0052cc" d="M25.747 31.943h-4.8c-0.056 0.007-0.12 0.010-0.185 0.010-0.707 0-1.312-0.437-1.56-1.055l-0.004-0.011c-1.776-3.553-3.707-7.051-5.316-10.728-1.191-2.508-1.887-5.45-1.887-8.555 0-3.978 1.142-7.689 3.117-10.823l-0.050 0.084c0.221-0.375 0.693-0.833 1.055-0.833s0.791 0.5 0.987 0.888q7.259 14.52 14.531 29.051c0.723 1.388 0.389 1.957-1.207 1.972zM6.316 31.943h-4.929c-1.388 0-1.693-0.556-1.083-1.777q3.733-7.384 7.399-14.74c0.667-1.388 1.193-1.388 2.123-0.236 2.437 2.831 3.922 6.544 3.922 10.603 0 1.526-0.21 3.004-0.602 4.405l0.027-0.115c-0.459 1.763-0.709 1.873-2.485 1.873z"></path></svg>
