<svg version="1.1" xmlns="http://www.w3.org/2000/svg" width="32" height="32" viewBox="0 0 32 32"><path d="M6.8 21.4q-0.733-1.267-1.1-2.6t-0.367-2.733q0-4.467 3.1-7.6t7.567-3.133h0.233l-2.133-2.133 1.867-1.867 5.333 5.333-5.333 5.333-1.867-1.867 2.133-2.133h-0.233q-3.333 0-5.667 2.35t-2.333 5.717q0 0.867 0.2 1.7t0.6 1.633l-2 2zM16.033 30.667l-5.333-5.333 5.333-5.333 1.867 1.867-2.133 2.133h0.233q3.333 0 5.667-2.35t2.333-5.717q0-0.867-0.2-1.7t-0.6-1.633l2-2q0.733 1.267 1.1 2.6t0.367 2.733q0 4.467-3.1 7.6t-7.567 3.133h-0.233l2.133 2.133-1.867 1.867z"></path></svg>
