<svg version="1.1" xmlns="http://www.w3.org/2000/svg" width="32" height="32" viewBox="0 0 32 32"><path fill="#cb2e6d" d="M6.933 0c-0.736 0-1.333 0.573-1.333 1.277v14.056h20.8v-14.056c0-0.705-0.597-1.277-1.333-1.277zM11.2 3.067h3.2c0.441 0 0.8 0.343 0.8 0.767-0.010 0.426-0.357 0.767-0.784 0.767-0.006 0-0.011-0-0.017-0h-3.199c-0.005 0-0.011 0-0.016 0-0.427 0-0.774-0.341-0.784-0.766l-0-0.001c0-0.424 0.359-0.767 0.8-0.767zM1.419 16c-0.784 0-1.419 0.597-1.419 1.333v13.333c0 0.736 0.635 1.333 1.419 1.333h10.315c-0.736 0-1.333-0.597-1.333-1.333v0-10.667h-4c-0.442 0-0.801-0.358-0.801-0.801s0.358-0.801 0.801-0.801h4v-2.399zM30.667 16h-19.601v14.667c0 0.736 0.636 1.333 1.419 1.333h18.183c0.736 0 1.333-0.597 1.333-1.333v0-13.333c0-0.736-0.597-1.333-1.333-1.333v0zM17.6 29.6h-4.8v-1.6h4.8zM20.8 27.2h-8v-1.6h8zM20 20h-3.2c-0.442 0-0.801-0.358-0.801-0.801s0.358-0.801 0.801-0.801h3.2c0.418 0.030 0.746 0.377 0.746 0.801s-0.328 0.77-0.743 0.8l-0.003 0z"></path></svg>
