<svg version="1.1" xmlns="http://www.w3.org/2000/svg" width="32" height="32" viewBox="0 0 32 32"><path fill="#2560e0" d="M2.4 24h-2.4v8h8v-2.4h-5.6zM30.667 0h-11.907c-0.003 0-0.005 0-0.008 0-0.921 0-1.733 0.467-2.212 1.177l-0.006 0.009-4.533 6.8h-10.667c-0.736 0-1.333 0.597-1.333 1.333v0 7.333l4.667 4.813 1.6-1.72 2 2-1.6 1.627 1.973 1.973 1.627-1.627 2 2.013-1.6 1.6 4.667 4.667h7.333c0.736 0 1.333-0.597 1.333-1.333v0-10.667l6.813-4.533c0.72-0.485 1.187-1.297 1.187-2.218 0-0.008-0-0.015-0-0.023v0.001-11.893c0-0.736-0.597-1.333-1.333-1.333v0zM24 12c-2.209 0-4-1.791-4-4s1.791-4 4-4v0c2.209 0 4 1.791 4 4s-1.791 4-4 4v0z"></path></svg>
