<svg version="1.1" xmlns="http://www.w3.org/2000/svg" width="32" height="32" viewBox="0 0 32 32"><path fill="#f9dc3e" d="M21.912 10.763l-0.007-0.068-0.112 0.009 0.007 0.069zM22.661 12.565l0.003 0.037 0.077-0.007c0.001-0.040 0.010-0.077 0.025-0.111l-0.001 0.002-0.007-0.068c-0.033 0.003-0.067 0.052-0.097 0.147zM19.737 14.835c-0.005-0.064-0.204-0.313-0.597-0.752-0.007-0.080 0.128-0.2 0.405-0.36l0.792-0.691c0.177-0.225 0.281-0.589 0.313-1.097l-0.009-0.116c-0.032-0.351-0.285-0.633-0.767-0.849-0.284-0.192-0.796-0.299-1.536-0.317-0.613 0.052-1.411 0.271-2.396 0.656-0.261 0.189-0.563 0.382-0.875 0.559l-0.049 0.025 0.005 0.059c0.036-0.006 0.067-0.020 0.094-0.040l-0.001 0c0.040-0.004 0.063 0.013 0.067 0.053l0.059-0.032 0.027-0.003 0.004 0.027c0.003 0.031-0.211 0.2-0.643 0.5l0.033 0.061-0.028 0.003-0.072-0.027c0.003 0.023-0.028 0.036-0.088 0.040l0.003 0.027 0.069 0.085c-0.036-0.001-0.071-0.009-0.102-0.023l0.002 0.001c-0.118 0.018-0.22 0.076-0.293 0.159l-0 0.001 0.040-0.175c0.145-0.624 0.244-1.176 0.296-1.655l-0.007-0.031c-0.111-0.075-0.206-0.164-0.285-0.265l-0.002-0.003c0.002-0.019 0.002-0.041 0.002-0.063s-0.001-0.044-0.003-0.066l0 0.003-0.007-0.027-0.028 0.008c-0.313 0.469-0.916 1.271-1.809 2.404-0.68 0.807-1.032 1.255-1.053 1.345-0.277 0.287-0.409 0.46-0.396 0.52-0.073 0.047-0.104 0.093-0.093 0.147-0.020 0.004-0.035-0.003-0.040-0.024-0.117 0.188-0.303 0.323-0.523 0.368l-0.005 0.001-0.247 0.057c-0.033 0.007-0.049 0.031-0.047 0.071l0.007 0.031 0.092-0.021 0.007 0.027-0.209 0.080-0.369 0.085-0.195 0.013c-0.028 0.027 0.155-0.004 0.083 0.013l-0.241 0.057c-0.147 0.033-0.227 0.021-0.241-0.039l-0.029 0.007c0.005 0.027 0.007 0.045 0.003 0.063l-0.013-0.060-0.195 0.045c-0.013-0.091-0.277-0.417-0.787-0.981-0.011-0.109 0.169-0.268 0.537-0.475l1.039-0.913c0.232-0.299 0.369-0.777 0.415-1.436l-0.013-0.155c-0.040-0.465-0.377-0.84-1.011-1.128-0.375-0.253-1.048-0.389-2.020-0.411-0.807 0.068-1.86 0.356-3.155 0.856-0.346 0.252-0.743 0.506-1.155 0.737l-0.061 0.031 0.007 0.080c0.045-0.008 0.086-0.024 0.121-0.047l-0.001 0.001c0.053-0.005 0.081 0.019 0.087 0.067l0.080-0.045 0.040-0.003 0.003 0.039c0.003 0.037-0.28 0.257-0.851 0.661l0.045 0.071-0.040 0.003-0.088-0.031c0.003 0.024-0.039 0.040-0.12 0.047l0.004 0.043 0.095 0.105c-0.046-0.001-0.090-0.010-0.13-0.028l0.002 0.001c-0.185 0.017-0.365 0.149-0.543 0.4l0.045 0.072c0.153-0.143 0.244-0.213 0.269-0.216l0.009 0.116c-0.045 0.010-0.085 0.027-0.122 0.049l0.002-0.001 0.097 0.147c0.181-0.196 0.384-0.368 0.606-0.512l0.012-0.008c0.111 0.029 0.171 0.065 0.173 0.103l0.085-0.007c0.611-0.453 1.216-0.78 1.816-0.981l0.007 0.080c-0.112 0.167-0.187 0.252-0.227 0.256 0.004 0.057 0.023 0.107 0.059 0.149 0.009 0.103-0.264 0.789-0.816 2.061-1.253 2.955-2.307 5.14-3.164 6.553 0.003 0.029 0.020 0.067 0.051 0.115 0.211-0.051 0.344-0.103 0.4-0.152l0.045-0.005 0.007 0.080 0.079-0.007 0.080-0.044c0.003 0.023 0.029 0.035 0.084 0.031l0.007 0.080c0.007 0.079-0.039 0.197-0.133 0.36-0.085 0.097-0.177 0.301-0.275 0.613l0.003 0.037 0.079-0.008c0.341-0.381 0.6-0.756 0.777-1.12 0.996-0.293 1.755-0.58 2.28-0.861 0.529-0.045 0.933-0.185 1.208-0.416l-0.005-0.043-0.2 0.060-0.044 0.005-0.005-0.044c0.388-0.059 0.656-0.144 0.805-0.263 0.757-0.583 1.328-0.996 1.715-1.24 0.795-0.584 1.312-1.152 1.547-1.705l0.133-0.031c0.111-0.004 0.173-0.007 0.189-0.012-0.005-0.021 0.005-0.033 0.027-0.037 0.177-0.019 0.092 0.012 0.205-0.013l0.299-0.069c-0.019 0.004-0.027 0.013-0.021 0.032l0.045-0.027c-0.009 0-0.017-0.004-0.024-0.005l0.049-0.013-0.023 0.015c0.011 0.001 0.024 0.002 0.036 0.002 0.025 0 0.050-0.003 0.074-0.009l-0.002 0 0.021 0.088-1.359 2.16-0.301 0.377-0.147 0.493 0.028-0.008 0.147-0.061-0.047 0.192 0.013 0.057 0.041 0.049c-0.019 0.005-0.027 0.017-0.021 0.039l0.007 0.031 0.061-0.013c0.091-0.080 0.128-0.151 0.115-0.215 0.040 0.010 0.087 0.016 0.135 0.016 0.021 0 0.041-0.001 0.061-0.003l-0.002 0 0.007 0.032c-0.059 0.013-0.089 0.061-0.093 0.143l0.005 0.031 0.033-0.008c0.493-0.537 1.703-2.38 2.673-3.629-0.032-0.136 0.473-0.323 1.517-0.565l0.033-0.007c0.037 0.164-0.043 0.56-0.243 1.188-0.128 0.38-0.189 0.588-0.18 0.621-0.165 0.505-0.244 0.777-0.235 0.82l-0.369 1.213c-0.24 0.62-0.423 1.272-0.551 1.96 0.009-0.001 0.020-0.002 0.030-0.002 0.026 0 0.051 0.004 0.074 0.012l-0.002-0 0.052-0.045c0.005 0.021 0.019 0.028 0.040 0.024l-0.021-0.088 0.16-0.004c0.048-0.013 0.089-0.072 0.121-0.181-0.007-0.163 0.027-0.251 0.1-0.269 0.1-0.389 0.161-0.584 0.183-0.591 0.093-0.387 0.161-0.608 0.207-0.661 0.14-0.503 0.241-0.761 0.308-0.779l0.013 0.063-0.101 0.263c-0.177 0.789-0.357 1.413-0.54 1.871l0.052 0.227 0.033-0.005c0.44-0.949 1.076-2.827 1.904-5.635 0.019-0.244 0.155-0.452 0.35-0.572l0.003-0.002-0.048-0.051-0.007-0.027c0.095-0.020 0.161-0.059 0.2-0.111-0.005-0.021-0.088-0.052-0.249-0.095l0.413-1.769c0.045-0.048 0.097-0.089 0.154-0.121l0.003-0.002 0.007 0.089c-0.035 0.007-0.066 0.021-0.093 0.040l0.001-0 0.079 0.112c0.141-0.153 0.296-0.287 0.464-0.399 0.085 0.024 0.128 0.053 0.133 0.080l0.061-0.004c0.396-0.303 0.854-0.553 1.348-0.729l0.035-0.011 0.005 0.060c-0.083 0.125-0.14 0.189-0.171 0.192 0.004 0.042 0.017 0.081 0.038 0.114l-0.001-0.001c0.007 0.079-0.196 0.6-0.613 1.568-0.953 2.24-1.752 3.899-2.403 4.975 0.008 0.034 0.023 0.063 0.043 0.088l-0-0c0.16-0.039 0.261-0.079 0.301-0.116l0.028-0.003 0.005 0.059 0.067-0.004 0.060-0.031c0.003 0.016 0.023 0.023 0.064 0.021l0.005 0.064c0.005 0.056-0.029 0.147-0.103 0.269-0.068 0.073-0.14 0.228-0.216 0.463l0.003 0.031 0.063-0.004c0.227-0.247 0.424-0.527 0.579-0.832l0.010-0.021c0.757-0.224 1.333-0.44 1.732-0.653 0.405-0.035 0.711-0.14 0.92-0.315l-0.003-0.031-0.155 0.044-0.033 0.003-0.003-0.031c0.293-0.043 0.5-0.109 0.612-0.196 0.573-0.441 1.008-0.757 1.301-0.941 0.916-0.667 1.343-1.307 1.291-1.921zM19.58 14.875l0.021 0.24c-0.027 0.059-0.059 0.089-0.087 0.093l-0.036-0.409c0.067 0.024 0.1 0.048 0.101 0.076zM1.627 12.947l-0.040 0.001-0.007-0.073 0.164-0.013 0.003 0.037c-0.045 0.008-0.086 0.025-0.121 0.049l0.001-0.001zM0.827 20.94c-0.066-0.034-0.145-0.054-0.228-0.054-0.009 0-0.018 0-0.027 0.001l0.001-0-0.008-0.116c-0.005-0.044 0.021-0.075 0.077-0.087 0.053-0.005 0.083 0.033 0.088 0.108 0.137-0.168 0.213-0.253 0.227-0.256l0.089 0.036c-0.029 0.237-0.103 0.359-0.22 0.368zM9.367 12.007c-0.040 0.005-0.12-0.12-0.237-0.369l-0.007-0.073c0.076-0.008 0.155 0.116 0.237 0.369zM9.253 11.123l-0.033 0.079-1.16-0.484c0.773 0.027 1.172 0.16 1.193 0.405zM4.356 15.327l-0.164 0.013-0.007-0.072 0.164-0.015zM4.223 12.801l0.040-0.003 0.011 0.116c-0.039 0.003-0.088 0.060-0.149 0.169l-0.007-0.080c0.073-0.089 0.111-0.155 0.105-0.203zM3.88 13.612l0.013 0.155-0.040 0.003-0.013-0.155zM3.699 13.901l0.080-0.007c-0.008 0.128-0.044 0.197-0.107 0.201l-0.041 0.003c0.049-0.085 0.073-0.152 0.068-0.197zM3.565 14.305l0.044-0.005 0.003 0.037-0.073 0.124-0.079 0.007-0.003-0.037c0.079-0.008 0.115-0.048 0.108-0.125zM3.432 14.668l-0.024 0.195-0.040 0.001-0.017-0.192zM2.101 18.449c-0.053 0.267-0.109 0.4-0.168 0.405l-0.003-0.037c-0.015-0.131 0.043-0.253 0.171-0.368zM1.857 18.979l0.003 0.037c0.005 0.053-0.020 0.084-0.072 0.085l-0.003-0.037c-0.005-0.045 0.020-0.073 0.072-0.085zM1.785 20.076l0.124-0.012 0.005 0.043c-0.046 0.008-0.087 0.025-0.123 0.049l0.001-0.001-0.079 0.007c-0.005-0.040 0.021-0.071 0.071-0.085zM5.295 18.993c-0.692 0.341-1.1 0.573-1.221 0.693-0.749 0.261-1.12 0.423-1.113 0.487-0.667 0.264-1.107 0.457-1.316 0.579-0.079-0.001-0.153-0.022-0.218-0.057l0.002 0.001c-0.013-0.136 0.049-0.245 0.18-0.333 0.018-0.002 0.038-0.003 0.059-0.003 0.099 0 0.193 0.021 0.279 0.058l-0.005-0.002c0.184-0.085 0.399-0.158 0.624-0.208l0.022-0.004-0.007-0.080-0.247 0.021c0.031-0.043 0.268-0.155 0.715-0.333l0.123-0.013 0.003 0.039c-0.211 0.019-0.327 0.080-0.353 0.192 0.005 0.049 0.033 0.071 0.085 0.067 0.16-0.1 0.237-0.16 0.235-0.176 0.301-0.057 1.133-0.493 2.497-1.307l0.007 0.073c0.003 0.036-0.113 0.136-0.349 0.307zM3.204 19.68c0.201-0.016 0.38-0.104 0.512-0.237l0-0c0.057-0.004 0.088 0.017 0.089 0.067-0.096 0.009-0.284 0.091-0.556 0.247l-0.040 0.003zM6.577 17.089l-1.045 0.827c-0.777 0.511-1.195 0.767-1.253 0.771-1.239 0.68-2.009 1.035-2.308 1.060l-0.045 0.005c0.039-0.14 0.588-1.267 1.655-3.387 0.471-0.040 1.209-0.259 2.217-0.657l0.247-0.021c0.511-0.044 0.892 0.055 1.143 0.293l0.015 0.153c-0.189 0.545-0.399 0.863-0.624 0.956zM4.533 15.937l0.169-0.013 0.003 0.037-0.169 0.013zM6.899 15.537l0.123-0.013c0.113 0.055 0.173 0.103 0.177 0.145l0.003 0.037c-0.108 0.011-0.211-0.047-0.303-0.169zM7.232 13.632c-0.109 0.131-0.408 0.353-0.896 0.667-0.16 0.013-0.76 0.247-1.8 0.701-0.039-0.018-0.085-0.028-0.133-0.028-0.011 0-0.023 0.001-0.034 0.002l0.001-0-0.007-0.075c-0.013-0.149 0.053-0.337 0.2-0.564 0.081-0.427 0.169-0.672 0.267-0.731l0.867-1.947c-0.011-0.12 0.173-0.213 0.553-0.277l0.124-0.013 0.009 0.112c0.373-0.056 0.604-0.089 0.693-0.096 0.689-0.060 1.047 0.080 1.076 0.413l0.077-0.005-0.016-0.197 0.085-0.007c0.2 0.111 0.311 0.247 0.324 0.405 0.009 0.109-0.049 0.244-0.175 0.405-0.053 0.004-0.083-0.033-0.088-0.109l-0.085 0.007-0.019 0.237c-0.349 0.521-0.603 0.789-0.76 0.804-0.141 0.197-0.229 0.293-0.265 0.296zM7.764 14.996c-0.072-0.048-0.128-0.069-0.171-0.067l-0.009-0.116 0.077-0.007 0.173 0.101c0.007 0.055-0.016 0.083-0.071 0.088zM8.313 15.648c0.076 0.031 0.121 0.064 0.131 0.095l-0.037 0.009 0.003 0.003c-0.009 0.001-0.017 0.003-0.025 0.006l0.001-0-0.057 0.044zM8.367 15.975l-0.008-0.031 0.1-0.023 0.007 0.031zM8.605 16.243c0.101-0.016 0.152-0.023 0.341-0.067l0.007 0.032-0.36 0.083c0.004-0.013 0.008-0.029 0.012-0.046l0-0.002zM8.956 16.392c-0.152 0.015-0.119-0.004-0.36 0.051l-0.007-0.031 0.301-0.097 0.144-0.033 0.013 0.057c-0.063 0.013-0.016 0.013-0.092 0.053zM9.276 16.317c-0.035 0.009-0.064-0.008-0.080-0.048l0.093-0.021c0.040-0.009 0.065 0.007 0.075 0.048zM10.144 15.383l-0.007-0.031 0.149-0.036 0.013 0.057zM11.072 21.068c0.006-0.019 0.009-0.040 0.009-0.062 0-0.011-0.001-0.022-0.002-0.032l0 0.001 0.032-0.008c0.040-0.009 0.064 0.005 0.075 0.043l0.007 0.031zM11.721 15.627l-0.067-0.012c-0.075 0.033-0.165 0.064-0.258 0.088l-0.013 0.003-0.061 0.013c-0.036 0.009-0.064-0.004-0.079-0.043l0.435-0.099 0.143-0.067 0.047 0.053c-0.056 0.009-0.106 0.031-0.147 0.063l0.001-0.001zM12.055 15.52l-0.005-0.031c0.032-0.011 0.059-0.029 0.080-0.053l0-0 0.308-0.071 0.007 0.031c-0.163 0.040-0.293 0.080-0.389 0.124zM12.103 14.896c-0.033 0.013-0.062 0.031-0.085 0.053l0-0c-0.005-0.023-0.047-0.023-0.128-0.003-0.013-0.060 0.213-0.143 0.685-0.252l0.067-0.013 0.013 0.056c-0.331 0.097-0.516 0.152-0.552 0.159zM12.933 14c-0.033 0.377-0.167 0.591-0.4 0.645l-0.008-0.031-0.208 0.080-0.093 0.021c-0.018 0.005-0.038 0.008-0.059 0.008-0.024 0-0.048-0.004-0.070-0.011l0.002 0-0.019-0.083c-0.007-0.031 0.293-0.448 0.907-1.249l0.071 0.012c0.027 0.108-0.015 0.311-0.121 0.607zM14.4 12.743l-0.027 0.003-0.007-0.059 0.124-0.013 0.003 0.032c-0.035 0.009-0.066 0.022-0.095 0.038l0.002-0.001zM13.796 18.816c-0.051-0.027-0.111-0.043-0.175-0.043-0.005 0-0.010 0-0.015 0l0.001-0-0.007-0.091c-0.003-0.031 0.016-0.052 0.056-0.064 0.040-0.004 0.064 0.024 0.069 0.085 0.050-0.074 0.106-0.138 0.17-0.195l0.001-0.001 0.064 0.027c-0.024 0.18-0.079 0.275-0.164 0.281zM20.279 12.035c-0.031 0.001-0.089-0.093-0.183-0.285l-0.005-0.059c0.060-0.005 0.121 0.088 0.183 0.277zM20.193 11.356l-0.028 0.061-0.877-0.367c0.587 0.019 0.889 0.12 0.905 0.305zM16.473 14.551l-0.124 0.011-0.005-0.059 0.124-0.009zM16.371 12.631l0.033-0.001 0.007 0.091c-0.031 0.001-0.068 0.044-0.113 0.128l-0.005-0.060c0.053-0.068 0.080-0.12 0.079-0.157zM16.113 13.248l0.009 0.116-0.033 0.003-0.009-0.116zM15.973 13.469l0.061-0.005c-0.007 0.1-0.033 0.152-0.079 0.156l-0.033 0.003c0.028-0.043 0.047-0.096 0.051-0.152l0-0.001zM15.873 13.772l0.028-0.003 0.003 0.032-0.053 0.093-0.063 0.005-0.003-0.031c0.064-0.004 0.093-0.037 0.088-0.097zM15.773 14.048l-0.021 0.151-0.028 0.003-0.013-0.149zM14.76 16.924c-0.040 0.2-0.081 0.301-0.127 0.307l-0.003-0.027c-0.007-0.1 0.036-0.195 0.129-0.28zM14.573 17.324l0.003 0.027c0.005 0.043-0.013 0.067-0.056 0.068l-0.003-0.031c-0.003-0.031 0.016-0.052 0.056-0.064zM14.521 18.159l0.095-0.007 0.003 0.031c-0.035 0.007-0.067 0.019-0.095 0.037l0.001-0.001-0.060 0.004c-0.003-0.032 0.016-0.053 0.056-0.064zM17.184 17.336c-0.52 0.259-0.832 0.435-0.929 0.524-0.569 0.2-0.851 0.323-0.847 0.373-0.504 0.2-0.836 0.347-0.993 0.437-0.060-0.002-0.117-0.018-0.166-0.045l0.002 0.001c-0.009-0.103 0.039-0.185 0.139-0.247 0.015-0.002 0.033-0.002 0.051-0.002 0.073 0 0.143 0.015 0.206 0.041l-0.004-0.001c0.095-0.047 0.259-0.099 0.491-0.159l-0.005-0.059-0.195 0.013c0.024-0.033 0.207-0.119 0.547-0.256l0.093-0.007 0.003 0.027c-0.16 0.013-0.251 0.061-0.269 0.147 0.003 0.037 0.027 0.056 0.067 0.052 0.117-0.079 0.175-0.124 0.175-0.137 0.227-0.040 0.859-0.373 1.895-0.993l0.005 0.059c0.003 0.027-0.085 0.101-0.264 0.232zM15.596 17.857c0.154-0.012 0.291-0.078 0.393-0.177l-0 0c0.040-0.004 0.064 0.013 0.067 0.053-0.071 0.007-0.211 0.065-0.423 0.179l-0.033 0.003zM18.161 15.888l-0.789 0.635c-0.591 0.387-0.911 0.581-0.96 0.587-0.94 0.516-1.523 0.784-1.753 0.803l-0.033 0.003c0.029-0.107 0.449-0.963 1.26-2.571 0.353-0.031 0.913-0.199 1.68-0.503l0.193-0.016c0.387-0.033 0.676 0.043 0.865 0.225l0.009 0.116c-0.145 0.408-0.301 0.648-0.472 0.721zM16.611 15.015l0.124-0.012 0.003 0.031zM18.405 14.708l0.095-0.007c0.088 0.043 0.133 0.080 0.136 0.112l0.003 0.027c-0.083 0.007-0.161-0.036-0.233-0.132zM18.655 13.265c-0.083 0.099-0.308 0.269-0.676 0.507-0.123 0.013-0.579 0.187-1.365 0.529-0.031-0.011-0.067-0.018-0.105-0.018-0.007 0-0.015 0-0.022 0.001l0.001-0-0.005-0.059c-0.009-0.113 0.040-0.256 0.149-0.429 0.061-0.327 0.129-0.509 0.2-0.552l0.663-1.48c-0.007-0.088 0.133-0.16 0.417-0.213l0.095-0.007 0.007 0.089c0.28-0.045 0.455-0.071 0.527-0.079 0.521-0.044 0.795 0.060 0.816 0.316l0.061-0.005-0.013-0.141 0.063-0.005c0.152 0.083 0.232 0.183 0.241 0.301 0.007 0.085-0.035 0.189-0.125 0.311-0.040 0.005-0.064-0.024-0.068-0.085l-0.063 0.004-0.019 0.179c-0.263 0.4-0.455 0.607-0.576 0.616-0.107 0.145-0.173 0.219-0.203 0.221zM18.932 14.252l-0.007-0.091 0.061-0.005 0.133 0.080c0.003 0.040-0.017 0.060-0.057 0.065-0.056-0.036-0.099-0.053-0.131-0.049zM7.895 20.012l-0.063 0.013-0.052 0.045c0.009 0.037 0.033 0.052 0.073 0.043s0.057-0.033 0.041-0.101zM7.659 19.544l0.007 0.031c0.040-0.009 0.057-0.033 0.048-0.071l-0.007-0.031c-0.037 0.009-0.053 0.033-0.048 0.071zM9.328 15.572l0.072-0.016-0.013-0.063-0.072 0.017zM30.845 17.379c-0.72 0.161-0.811 0.133-0.963 0.145l0.005 0.059 0.067-0.004 0.035-0.003-0.009-0.008 0.080-0.031c0.712-0.077 0.796-0.049 0.785-0.159zM26.964 17.893l0.005 0.060h0.009zM26.517 16.331l-0.064-0.021c-0.033 0.071-0.059 0.154-0.075 0.24l-0.001 0.007 0.003 0.027c0.051-0.003 0.096-0.088 0.137-0.252zM30.992 17.367l0.005 0.060 0.104 0.019-0.005-0.059zM26.085 17.967l-0.16-0.019-0.029 0.061 0.003 0.031 0.96-0.080-0.004-0.059zM25.649 15.864l-0.003-0.031-0.032 0.003-0.060 0.037 0.033 0.057c0.045-0.005 0.067-0.027 0.061-0.067zM31.448 16.931l0.045-0.004c0.027-0.003 0.037-0.024 0.035-0.063l-0.027-0.056c-0.002 0-0.003-0-0.005-0-0.135 0-0.261 0.035-0.371 0.095l0.004-0.002-0.003-0.029-0.196 0.019c-0.005-0.060-0.021-0.091-0.048-0.088l-0.101 0.009c-0.12 0.009-0.176 0.005-0.235 0.051-0.003-0.023-0.009-0.032-0.021-0.032l-0.115 0.009-0.067 0.039c-0.003-0.021-0.009-0.031-0.021-0.031l-0.040 0.035-0.003-0.031-0.159-0.012-0.037 0.003 0.005 0.060 0.080 0.021 0.076-0.005c0.027 0.017 0.053 0.021 0.088 0.019l0.067-0.033 0.003 0.027c-0.373 0.093-0.371 0.076-0.627 0.119-0.028-0.019-0.049-0.028-0.064-0.027l-0.005 0.005c-0.028-0.003-0.045-0.021-0.048-0.053l0.133-0.016c0.009 0 0.016 0.011 0.091 0.024 0.107-0.052 0.111-0.073 0.168-0.077l-0.005-0.060c-0.365 0.071-0.219 0.024-0.676 0.064l-0.021 0.003-0.005-0.060c0.588-0.071 0.392-0.031 0.593-0.087 0.003 0.021 0.009 0.031 0.021 0.031 0.021-0.021 0.048-0.036 0.079-0.040l0.001-0 0.040-0.003c0.207-0.017 0.276 0.023 0.684-0.091l0.003 0.027 0.067-0.033 0.061-0.005c-0.005-0.059 0.085-0.068 0.116-0.071l-0.005-0.064c-0.716 0.144-0.904 0.104-1.103 0.16l-0.003-0.025c-0.187 0.033-0.195 0.019-0.243 0.021-0.024 0.007-0.043 0.021-0.059 0.038l-0 0c-0.003-0.021-0.009-0.031-0.024-0.031l-0.012 0.001-0.607 0.1c-0.003-0.016-0.009-0.027-0.024-0.024-0.316 0.067-0.231 0.079-0.653 0.116-0.029 0.006-0.055 0.018-0.078 0.034l0.001-0c-0.003-0.016-0.012-0.027-0.033-0.024l-0.259 0.021-0.173 0.044c-0.001-0.017-0.011-0.027-0.032-0.024-0.097 0.027-0.183 0.043-0.252 0.047h-0.005c-0.043 0.005 0.021-0.012-0.012-0.027l-0.052 0.032c-0.076 0.007-0.036-0.005-0.296-0.003-0.457 0.057-0.408 0.064-0.457 0.067l-0.172-0.012c0.003 0.016-0.007 0.028-0.027 0.028-0.193-0.027-0.293-0.056-0.295-0.093 0.027-0.184 0.071-0.279 0.133-0.283l0.035-0.003-0.029 0.061 0.033-0.003c0.063-0.033 0.091-0.064 0.088-0.093l-0.005-0.063-0.061 0.004-0.005-0.059c-0.001-0.008-0.002-0.018-0.002-0.028 0-0.033 0.008-0.064 0.021-0.092l-0.001 0.001 0.14-0.225 0.005 0.060 0.067-0.005-0.005-0.060-0.039-0.053c0.051-0.043 0.088-0.067 0.12-0.069l-0.004-0.031-0.089 0.007-0.007-0.089c0.18-0.375 0.265-0.593 0.26-0.655l0.064 0.027c0.040-0.004 0.060-0.027 0.057-0.069l-0.061 0.004-0.003-0.027c-0.001-0.006-0.001-0.013-0.001-0.021 0-0.038 0.009-0.073 0.026-0.105l-0.001 0.001c0.097-0.103 0.141-0.204 0.133-0.311 0.017-0.003 0.027 0.007 0.029 0.027 0.084-0.047 0.147-0.172 0.195-0.38 0.147-0.267 0.356-0.797 0.629-1.592 0.52-1.404 0.5-1.553 0.573-1.885l-0.061 0.005c0.001 0.006 0.001 0.013 0.001 0.020 0 0.037-0.009 0.071-0.026 0.101l0.001-0.001c-0.029-0.014-0.064-0.022-0.1-0.023h-0l-0.003-0.027c-0.009-0.12 0.040-0.265 0.155-0.436l0.028-0.003 0.053 0.204 0.060-0.004c-0.003-0.015 0.015-0.096 0.048-0.245-0.003-0.031-0.027-0.049-0.073-0.052l-0.060 0.039c-0.002-0.036-0.002-0.077-0.002-0.119 0-0.075 0.003-0.15 0.008-0.224l-0.001 0.010-0.031 0.004c-0.052-0.053-0.077-0.096-0.080-0.131l-0.34 0.033c-0.007-0.040-0.020-0.075-0.038-0.107l0.001 0.002c-0.003-0.031 0.073-0.061 0.229-0.092l0.069 0.027 0.064-0.039c0.003 0.021 0.013 0.031 0.039 0.029l0.064-0.039c0.003 0.021 0.013 0.031 0.037 0.028l0.031-0.001-0.005-0.069c-0.047 0.005-0.173 0.005-0.373-0.003l-0.063 0.043-0.003-0.037c-1.591 0.131-2.495 0.204-2.711 0.225-0.028 0.003-0.14 0-0.336-0.005 0.003 0.027-0.021 0.040-0.069 0.045l-0.069-0.031-0.232 0.059c-0.053 0.005-0.147 0.003-0.275-0.012-0.036 0.029-0.081 0.047-0.13 0.051l-0.001 0c-0.028 0.003 0.339-0.019 0.68-0.043-0.047 0.031-0.104 0.051-0.165 0.052h-0c-0.009 0.001-0.019 0.002-0.029 0.002-0.038 0-0.075-0.010-0.106-0.027l0.001 0.001c-0.137 0.045-0.307 0.086-0.48 0.115l-0.023 0.003-0.069-0.027-1.109 0.171c-0.034-0.016-0.073-0.025-0.115-0.025-0.012 0-0.024 0.001-0.036 0.002l0.001-0c-0.060 0.004-0.16 0.027-0.297 0.064l-0.536 0.223 0.040 0.067c0.041-0.007 0.078-0.022 0.11-0.043l-0.001 0.001 0.191 0.016-0.024 0.179c-0.176 0.077-0.277 0.193-0.307 0.341-0.263 0.116-0.393 0.199-0.393 0.248l0.003 0.031 0.040-0.001 0.072-0.039 0.083 0.1 0.012 0.137c0.005 0.043-0.439 0.975-1.325 2.796-0.768 1.755-1.172 2.715-1.209 2.888-0.264 0.073-0.415 0.18-0.46 0.323 0.005 0.045 0.083 0.076 0.235 0.088l0.007 0.068-0.069 0.115 0.013 0.137c0.005 0.071 0.199 0.125 0.575 0.163-0.003-0.023 0.009-0.037 0.036-0.040 0.007 0.085-0.016 0.252-0.071 0.499l0.040-0.003c0.156-0.213 0.231-0.36 0.223-0.44l0.033-0.004c0.037-0.003 0.079 0.040 0.125 0.133-0.047 0.019-0.213 0.396-0.497 1.133l0.040 0.067 0.040-0.003c0.349-0.883 0.567-1.371 0.657-1.463 0.457-0.040 1.249-0.121 2.373-0.243l0.072-0.043c0.003 0.024 0.016 0.036 0.043 0.033l0.073-0.007 0.071-0.043c0.003 0.024 0.016 0.036 0.043 0.033l0.851-0.073c0.227-0.020 0.333-0.088 0.323-0.204-0.003-0.031 0.131-0.067 0.399-0.105 0 0 0 0 0 0 0.042 0 0.081 0.008 0.118 0.022l-0.002-0.001c-0.003-0.021 0.133-0.043 0.403-0.067 0.007-0.141 0.053-0.217 0.133-0.224l-0.007-0.069c-0.097 0.011-0.186 0.032-0.27 0.063l0.008-0.003c-0.121-0.001-0.237-0.016-0.349-0.042l0.011 0.002c-0.031 0.020-0.068 0.034-0.107 0.041l-0.002 0-0.592 0.020-0.072 0.037c-0.003-0.021-0.016-0.031-0.043-0.028l-0.033 0.001-0.075 0.039c-0.003-0.021-0.064-0.039-0.188-0.055l-0.076 0.045-0.147 0.012-0.003-0.039c0.764-0.083 1.14-0.187 1.131-0.311 0.051-0.004 0.076 0.020 0.080 0.069l0.224-0.057-0.007-0.068-1.828 0.049c0.003 0.024-0.009 0.037-0.036 0.040l-0.223-0.019c-0.054 0.003-0.103 0.021-0.143 0.050l0.001-0.001-0.083-0.031c-0.231 0.019-0.4 0.048-0.515 0.083-0.063-0.004-0.137-0.007-0.211-0.007-0.109 0-0.217 0.005-0.324 0.016l0.013-0.001-0.411 0.035-0.189-0.021c-0.009-0.12 0.225-0.716 0.708-1.783 0.14-0.36 0.268-0.587 0.392-0.671 0.042 0.001 0.082 0.011 0.118 0.029l-0.002-0.001 0.292-0.1 0.149 0.024c0.251-0.021 0.543-0.093 0.877-0.216 0.017-0.003 0.038-0.004 0.058-0.004 0.047 0 0.092 0.008 0.134 0.022l-0.003-0.001 0.223-0.053 0.664-0.056c0.283-0.024 0.588-0.085 0.92-0.187l-0.007-0.069c-0.123 0.012-0.187-0.009-0.192-0.060-0.007-0.092-0.097-0.129-0.271-0.116l-0.007-0.068 0.183-0.053 0.48-0.040-0.007-0.068c-0.015 0-0.033 0-0.051 0-0.087 0-0.173-0.003-0.258-0.008l0.012 0.001-0.007-0.075 0.185-0.016c0.049-0.005 0.071-0.028 0.067-0.076-0.249 0.007-0.375-0.005-0.377-0.037-1.736 0.085-2.605 0.101-2.611 0.047-0.042 0.009-0.078 0.026-0.11 0.049l0.001-0.001-0.045-0.072c0.46-0.976 0.731-1.469 0.809-1.477-0.006 0.068-0.027 0.131-0.061 0.184l0.001-0.002 0.003 0.031 0.073-0.007c0.183-0.436 0.337-0.661 0.465-0.671 0.545-0.048-0.076-0.083 1.091-0.267 0.048 0.023 0.080 0.032 0.104 0.029 0.457-0.093 1.096-0.189 1.913-0.289l-0.005-0.069-0.436 0.040-0.005-0.067c0.050-0.004 0.095-0.022 0.131-0.051l-0 0 0.003 0.037c0.038-0.009 0.072-0.025 0.101-0.047l-0.001 0c0.076-0.008 0.133 0 0.173 0.021 0.102-0.030 0.225-0.056 0.351-0.072l0.013-0.001 0.273-0.027c0.067-0.043 0.097-0.080 0.095-0.116l-0.003-0.031c-0.022 0.002-0.047 0.003-0.073 0.003-0.059 0-0.117-0.006-0.173-0.017l0.006 0.001c-0.003-0.040 0.017-0.065 0.063-0.077l0.507-0.047 0.233-0.060c0.003 0.027 0.013 0.036 0.032 0.036 0.038-0.009 0.072-0.026 0.101-0.048l-0.001 0 0.039 0.005c-0.031 0.064-0.067 0.156-0.103 0.277l-0.067 0.005c-0.004-0.045-0.017-0.086-0.038-0.123l0.001 0.001-0.033 0.003c-0.616 1.716-0.892 2.516-1.461 3.833-0.104 0.337-0.192 0.524-0.267 0.565 0.003 0.037 0.027 0.056 0.067 0.052 0.002 0.019 0.002 0.040 0.002 0.062 0 0.158-0.045 0.306-0.122 0.432l0.002-0.004c-0.263 0.759-0.439 1.173-0.528 1.249l0.059 0.359c0.003 0.037-0.016 0.059-0.057 0.064l-0.063 0.004c-0.009-0.099-0.045-0.147-0.109-0.14l-0.033 0.003c-0.080 0.125-0.141 0.271-0.183 0.44l0.063-0.005c0.083-0.055 0.12-0.12 0.113-0.193l0.124-0.011 0.071 0.027c-0.057 0.089-0.083 0.16-0.079 0.215l0.033 0.057-0.080 0.189 0.003 0.031c0.004-0 0.009-0 0.015-0 0.081 0 0.157 0.025 0.219 0.068l-0.001-0.001c0.071-0.010 0.134-0.037 0.188-0.077l-0.001 0.001c0.072-0.007 0.337-0.009 0.795-0.009l0.231-0.079c0.28-0.003 0.324 0.005 0.567-0.016l0.099-0.009 0.053-0.036 0.003 0.031c0.253-0.021 0.269-0.005 0.469 0.019l0.003 0.031-0.14 0.013 0.005 0.059c0.042-0.003 0.080-0.019 0.111-0.043l-0 0c0.036-0.003 0.057 0.016 0.060 0.059-0.071 0.007-0.136 0.022-0.198 0.044l0.006-0.002-0.061-0.021c-0.097 0.027-0.076 0.033-0.143 0.039l-0.097-0.020c0.003 0.017-0.007 0.029-0.024 0.029 0.003 0.037 0.024 0.056 0.060 0.053l0.099-0.008 0.52-0.045 0.196-0.043c0.003 0.016 0.009 0.027 0.027 0.024l0.095-0.036 0.179-0.013c0.137-0.013 0.133-0.023 0.433-0.069-0.003-0.020 0.005-0.027 0.019-0.029l0.003 0.027c0.487-0.083 0.517-0.088 0.596-0.115l0.007 0.015c0.12-0.028 0.052-0.021 0.085-0.045 0.003 0.021 0.009 0.031 0.021 0.031l0.085-0.007-0.005-0.064-0.173-0.003-0.003-0.004-0.019 0.004h-0.024v0.005c-0.116 0.024-0.12 0.007-0.195 0.013l-0.435 0.024-0.003-0.031 0.243-0.033 0.088-0.007 0.049-0.036 0.003 0.032c0.341-0.029 0.463 0.056 2.041-0.28 0.085-0.008 0.079-0.079 0.133-0.227-0.004 0-0.008 0.001-0.012 0.001-0.026 0-0.050-0.007-0.071-0.018l0.001 0c-0.131 0.049-0.2 0.027-0.451 0.067-0.021 0.001-0.039-0.017-0.045-0.056l-0.003-0.027 0.241 0.008c0.045-0.004 0.133-0.012 0.264-0.085 0 0.021-0.048 0.033-0.013 0.031zM19.772 17.117l-0.112 0.011c-0.005-0.045 0.055-0.216 0.177-0.507l0.075-0.008c0.003 0.068-0.043 0.237-0.14 0.504zM19.907 16.577l-0.003-0.031c-0.003-0.037 0.021-0.064 0.073-0.076l0.003 0.031c0.003 0.045-0.021 0.072-0.073 0.076zM21.389 17.724l0.003 0.029-0.187 0.017-0.001-0.031zM21.165 17.704c0.003 0.037-0.053 0.080-0.177 0.123l-0.227-0.016-0.075 0.007-0.007-0.068zM22.664 10.805l-0.111 0.011-0.003-0.039c-0.003-0.037 0.019-0.064 0.067-0.076l0.040-0.003 0.076 0.031c0.003 0.045-0.020 0.072-0.069 0.076zM24.36 10.473l0.036-0.001 0.005 0.068-0.103 0.009c-0.003-0.037 0.017-0.064 0.061-0.076zM23.933 10.623l-0.168-0.019-0.003-0.031c0.22-0.019 0.293-0.043 0.428-0.080 0.003 0.027 0.027 0.035 0.069 0.031l0.005 0.068-0.067 0.008c-0.009 0.001-0.019 0.002-0.029 0.002-0.038 0-0.075-0.010-0.106-0.027l0.001 0.001c-0.037 0.025-0.081 0.042-0.129 0.047l-0.001 0zM24.144 11.237l-0.003-0.031 0.273-0.027 0.003 0.032zM24.436 11l-0.003-0.037 0.133-0.013 0.001 0.040zM24.467 10.536l-0.036 0.001 0.031-0.073 0.304-0.028 0.003 0.037c-0.114 0.014-0.216 0.036-0.314 0.066l0.013-0.003zM24.621 11.189l-0.005-0.068 0.133-0.012c0.044-0.005 0.067 0.017 0.069 0.064zM25.424 10.095l-0.171 0.047-0.031 0.003c-0.080 0.008-0.184 0.005-0.307-0.007 0.22-0.013 0.431-0.031 0.508-0.043zM25.243 10.853l0.003 0.031-0.236 0.021-0.003-0.031zM25.627 11.036c-0.003-0.028-0.048-0.048-0.14-0.057l-0.235 0.067-0.181 0.007c-0.040-0.028-0.061-0.047-0.064-0.061l0.209 0.012 0.469-0.076 0.24 0.009 0.003 0.039c-0.111 0.010-0.213 0.032-0.311 0.064l0.009-0.003zM28.043 10.412l0.053 0.003c0.079-0.078 0.173-0.142 0.277-0.187l0.006-0.002c-0.085 0.373-0.217 0.652-0.4 0.832l-0.133-0.080c0.069-0.154 0.136-0.341 0.19-0.535l0.007-0.030zM27.635 11.112l0.033-0.003c-0.045 0.085-0.085 0.131-0.119 0.133l-0.007-0.091c0.021 0 0.053-0.013 0.092-0.040zM27.372 11.74c0.064-0.256 0.125-0.4 0.183-0.439l0.003 0.031c-0.033 0.237-0.085 0.363-0.155 0.373l0.012 0.148c-0.057 0.081-0.083 0.143-0.080 0.191l-0.033 0.003-0.020-0.207c0.039-0.005 0.069-0.039 0.091-0.1zM27.269 12.081c-0.012 0.092-0.036 0.175-0.072 0.252l0.002-0.005-0.032 0.003-0.007-0.091c0.044-0.104 0.083-0.156 0.108-0.159zM25.356 17.635l-0.003-0.027 0.061-0.004 0.007 0.091c-0.033 0.003-0.057-0.017-0.065-0.060zM28.089 17.707c-0.003-0.021-0.012-0.031-0.032-0.029l-0.155 0.015-0.003-0.031h0.013l0.365-0.031 0.003 0.031c-0.107 0.004-0.171 0.021-0.192 0.045zM27.907 17.631c0.015 0.007 0.007 0.013 0 0.019-0.007-0.003-0.016-0.009 0-0.019zM27.927 17.204l-0.204 0.016-0.003-0.031 0.184-0.016 0.161-0.040c0.003 0.019 0.013 0.025 0.033 0.023 0.192-0.033 0.173-0.043 0.267-0.049 0.031-0.003 0.049 0.016 0.052 0.053zM28.64 17.141c-0.113-0.011-0.12-0.021-0.201-0.013l-0.003-0.027 0.183-0.016 0.003 0.027c-0.019 0.001 0.049 0.007 0.019 0.029zM28.653 17.109l-0.001-0.027 0.099-0.009 0.003 0.027zM28.875 17.089l-0.003-0.027c0.027-0.007 0.051-0.020 0.071-0.038l-0 0c0.051-0.004 0.076 0.029 0.081 0.067zM29.157 17.055l-0.003-0.032 0.12-0.009 0.003 0.031zM29.325 17.040c-0.003-0.036 0.012-0.057 0.043-0.061l0.040 0.052c-0.003-0.017 0.005-0.027 0.019-0.029l0.031 0.057zM27.535 17.813l-0.005-0.060-0.019 0.003zM31.701 16.733c0.019-0.011 0.028-0.023-0.017-0.031-0.021 0.024 0.024 0.032-0.023 0.033l0.003 0.021 0.027-0.019-0.027 0.021v0.003l-0.051 0.064 0.1-0.036h0.012zM31.875 16.869l-0.019 0.003 0.005 0.059 0.14-0.012c-0.003-0.037-0.096-0.049-0.127-0.049zM31.659 16.765l0.003-0.003v-0.003z"></path></svg>
