<svg version="1.1" xmlns="http://www.w3.org/2000/svg" width="32" height="32" viewBox="0 0 32 32"><path fill="#ef5734" d="M31.389 15.074c-1.645-1.582-9.876-2.569-12.473-2.856 0.126-0.297 0.233-0.605 0.322-0.921 0.355-0.155 0.736-0.299 1.131-0.42 0.048 0.143 0.275 0.687 0.404 0.945 5.222 0.144 5.491-3.88 5.703-4.984 0.208-1.078 0.198-2.12 1.989-4.025-2.668-0.778-6.506 1.205-7.792 4.157-0.483-0.181-0.968-0.315-1.447-0.397-0.343-1.384-2.13-5.241-6.819-5.241-3.037 0-6.1 1.254-8.402 3.441-1.24 1.178-2.215 2.577-2.897 4.159-0.736 1.708-1.109 3.588-1.109 5.59 0 6.97 4.758 13.077 7.446 13.077 1.174 0 2.184-0.879 2.421-1.667 0.199 0.541 0.808 2.221 1.009 2.647 0.297 0.633 1.665 1.18 2.264 0.523 0.77 0.428 2.184 0.685 2.954-0.456 1.483 0.314 2.796-0.571 2.824-1.627 0.727-0.038 1.085-1.061 0.927-1.875-0.117-0.599-1.369-2.75-1.858-3.492 0.966 0.787 3.416 1.009 3.712 0 1.558 1.223 3.988 0.582 4.18-0.414 1.894 0.492 4.065-0.589 3.709-1.897 3.043-0.21 2.654-3.447 1.8-4.267zM23.465 9.709c-0.801-0.315-1.817-0.514-2.529-0.514-1.010 0-1.626 0.572-2.577 0.572-0.199 0-0.675 0.001-1.058-0.136 0.251 0.264 0.564 0.407 1.17 0.407 0.362 0 1.079-0.185 1.66-0.359 0.008 0.123 0.021 0.243 0.038 0.364-1.088 0.26-2.229 0.952-2.56 1.131-0.735-1.623-0.103-3.157 0.48-3.865 2.616 0.006 4.73 1.803 5.376 2.399zM24.598 9.587l-0.4-0.374c-0.411-0.386-0.839-0.733-1.28-1.043 0.655-1.3 1.479-2.719 2.519-3.598-1.144 0.462-2.276 1.841-2.944 3.314-0.34-0.216-0.687-0.41-1.035-0.578 0.932-1.99 3.098-3.652 5.485-3.781-1.599 1.451-0.999 4.344-2.346 6.059zM21.313 10.943c-0.177-0.383-0.354-1.016-0.333-1.389 0.297-0.007 0.867 0.105 0.958 0.126-0.035 0.175-0.054 0.559-0.054 0.609 0.057-0.097 0.213-0.432 0.277-0.565 0.571 0.109 1.321 0.291 1.76 0.496-0.517 0.335-1.393 0.699-2.608 0.724zM11.883 8.34c-0.646-0.232-0.646-0.815 0-1.046s1.459 0.059 1.459 0.523-0.813 0.755-1.459 0.523zM14.038 8.557c0-1.28-1.395-2.084-2.505-1.444s-1.11 2.249 0 2.889c1.11 0.64 2.505-0.164 2.505-1.444zM17.749 6.457c-2.086 2.115-1.263 4.79-0.503 5.998-1.081 1.798-3.205 3.027-5.673 3.587 2.77 0 4.4-0.713 5.348-1.411 0.605-0.446 0.932-0.886 1.1-1.13 4.108 0.266 10.611 1.589 11.246 2.017 0.254 0.172 0.517 0.552 0.557 0.917-3.087-0.432-8.651-0.887-10.107-0.963 1.034 0.147 8.577 1.575 9.885 1.91-0.398 0.648-1.305 1.107-2.671 0.788 0.739 1.006-0.695 2.212-2.692 1.548 0.439 0.987-1.338 1.876-3.359 0.848 0.025 0.987-2.507 1.102-3.507 0.010 0.020 0.13 0.138 0.379 0.189 0.489-0.322 2.885-2.685 4.674-5.105 4.674-5.924 0-11.086-4.813-11.086-11.215 0-6.768 5.002-11.819 11.038-11.819 3.458 0 5.020 2.722 5.341 3.753z"></path></svg>
