<svg version="1.1" xmlns="http://www.w3.org/2000/svg" width="32" height="32" viewBox="0 0 32 32"><path d="M22.867 27.6l-8.067-8.133q-0.667 0.267-1.35 0.4t-1.45 0.133q-3.333 0-5.667-2.333t-2.333-5.667q0-1.2 0.333-2.283t0.933-2.050l4.867 4.867 2.4-2.4-4.867-4.867q0.967-0.6 2.050-0.933t2.283-0.333q3.333 0 5.667 2.333t2.333 5.667q0 0.767-0.133 1.45t-0.4 1.35l8.133 8.067q0.4 0.4 0.4 0.967t-0.4 0.967l-2.8 2.8q-0.4 0.4-0.967 0.4t-0.967-0.4zM23.833 24.767l0.9-0.9-8.533-8.533q0.6-0.667 0.867-1.55t0.267-1.783q0-2-1.283-3.483t-3.183-1.783l2.467 2.467q0.4 0.4 0.4 0.933t-0.4 0.933l-4.267 4.267q-0.4 0.4-0.933 0.4t-0.933-0.4l-2.467-2.467q0.3 1.9 1.783 3.183t3.483 1.283q0.867 0 1.733-0.267t1.567-0.833l8.533 8.533z"></path></svg>
