<svg version="1.1" xmlns="http://www.w3.org/2000/svg" width="32" height="32" viewBox="0 0 32 32"><path fill="#a8b9cc" d="M22.697 12.288c0 0-0.515-4.391-5.273-4.513-4.76-0.121-7.203 3.293-7.203 8.173s2.701 8.784 7.331 8.784c4.631 0 5.147-4.88 5.147-4.88l8.875 0.488c0 0 0.521 4.408-3.192 7.771-3.715 3.363-8.272 3.912-11.456 3.889-3.184-0.024-7.597 0.045-11.867-3.959-4.265-4.001-4.992-7.891-4.992-11.711 0-3.821 0.809-8.881 5.885-12.72 3.448-2.605 6.945-3.567 10.443-3.567 14.6-0.001 15.579 12.329 15.579 12.329z"></path></svg>
