<svg version="1.1" xmlns="http://www.w3.org/2000/svg" width="32" height="32" viewBox="0 0 32 32"><path d="M26.6 28q-4.167 0-8.233-1.817t-7.4-5.15-5.15-7.4-1.817-8.233q0-0.6 0.4-1t1-0.4h5.4q0.467 0 0.833 0.317t0.433 0.75l0.867 4.667q0.067 0.533-0.033 0.9t-0.367 0.633l-3.233 3.267q0.667 1.233 1.583 2.383t2.017 2.217q1.033 1.033 2.167 1.917t2.4 1.617l3.133-3.133q0.3-0.3 0.783-0.45t0.95-0.083l4.6 0.933q0.467 0.133 0.767 0.483t0.3 0.783v5.4q0 0.6-0.4 1t-1 0.4zM8.033 12l2.2-2.2-0.567-3.133h-2.967q0.167 1.367 0.467 2.7t0.867 2.633zM19.967 23.933q1.3 0.567 2.65 0.9t2.717 0.433v-2.933l-3.133-0.633-2.233 2.233z"></path></svg>
