<svg version="1.1" xmlns="http://www.w3.org/2000/svg" width="32" height="32" viewBox="0 0 32 32"><path fill="#1287b1" d="M23.347 8.713c-0.003 0.004-0.329 0.341-0.516 0.544-0.488 0.529-1.227 1.3-1.749 1.493h-0.005c-0.069-0.024-0.137-0.047-0.212-0.067l0.939-1.9-0.011 0.016c-0.029 0.057-0.959 1.887-2.221 1.624l-0.003 0.003c-0.019-0.004-0.035 0.003-0.053-0.003 0.607-0.773 0.84-1.484 0.84-1.484s-1.008 1.617-2.253 1.18c-0.031-0.010-0.055-0.033-0.065-0.062l-0-0.001c-0.005-0.016-0.007-0.034-0.007-0.053s0.003-0.037 0.007-0.055l-0 0.001c0.013-0.055 0.053-0.123 0.089-0.187 0.127-0.235 0.341-0.491 0.341-0.491s-0.208 0.203-0.488 0.393l-0.003 0.003c-0.209 0.143-0.46 0.277-0.693 0.315-0.033 0.006-0.072 0.009-0.111 0.009s-0.078-0.003-0.115-0.010l0.004 0.001c-0.285-0.049-0.277-0.333-0.199-0.607v-0.003c0.080-0.272 0.232-0.533 0.232-0.533s-0.253 0.397-0.531 0.784c-0.213 0.297-0.415 0.528-0.555 0.632l-0.16 0.005c-0.084-0.235 0.133-1.008 0.133-1.013-0.143 0.229-0.281 0.422-0.429 0.608l0.010-0.014c-0.131 0.171-0.281 0.318-0.447 0.444l-0.006 0.004h-0.036c-0.109 0.009-0.213 0.027-0.319 0.041-0.046-0.043-0.077-0.1-0.085-0.165l-0-0.001c-0.056-0.357 0.164-1.008 0.167-1.016-0.003 0.008-0.12 0.347-0.28 0.669v0.005c-0.043 0.089-0.093 0.16-0.143 0.237-0.115 0.181-0.235 0.325-0.348 0.292-0.169-0.051-0.269-0.269-0.328-0.475s-0.076-0.399-0.076-0.399-0.041 0.335-0.156 0.647c-0.044 0.136-0.11 0.253-0.195 0.355l0.001-0.002c-0.032 0.036-0.076 0.048-0.115 0.073-1.319 0.237-2.49 0.59-3.599 1.060l0.11-0.041c-0.297 0.109-0.595 0.211-0.899 0.341-1 0.427-2.039 0.968-3.124 1.664-1.283 0.836-2.397 1.689-3.442 2.619l0.029-0.025c-0.597 0.524-1.208 1.093-1.835 1.72 4.744-2.556 6.627-6.324 15.511-6.66 6.725-0.255 9.867 2.849 10.904 2.893 2.608 0.111 4.343-1.867 4.896-2.595 0.149-0.189 0.239-0.316 0.244-0.325-0.013 0.015-0.437 0.497-1.041 0.961l-0.008 0.005c-0.613 0.468-1.4 0.907-2.101 0.8h-0.003c-0.091-0.013-0.184-0.009-0.271-0.043 0.991-0.579 1.648-1.587 1.976-2.127 0.101-0.167 0.311-0.48 0.311-0.48s-2.328 2.384-4.063 2.224l-0.003 0.003c-0.068-0.007-0.14 0.009-0.207-0.005 0.756-0.595 1.313-1.392 1.704-2.067v-0.004h0.003c0.423-0.731 0.643-1.313 0.645-1.323-0.007 0.011-0.435 0.664-1.021 1.383l-0.013 0.013c-0.587 0.72-1.331 1.495-1.952 1.732-0.093 0.035-0.187 0.088-0.273 0.096 1.447-1.279 2.052-3.096 2.052-3.096s-1.463 2.127-2.701 2.519c-0.075 0.023-0.152 0.063-0.227 0.072 0.757-0.683 1.159-1.227 1.409-1.653v-0.003c0.317-0.539 0.375-0.867 0.375-0.867l-0.005 0.005c-0.136 0.175-0.254 0.32-0.376 0.463l0.014-0.017-0.021 0.023c-0.34 0.4-0.86 0.977-1.393 1.437l-0.007 0.005c-0.126 0.109-0.265 0.217-0.409 0.319l-0.017 0.012c-0.040 0.028-0.080 0.061-0.119 0.087-0.104 0.066-0.223 0.128-0.349 0.179l-0.015 0.005c-0.029 0.013-0.059 0.029-0.087 0.040-0.091-0.060-0.176-0.123-0.273-0.18-0.061 0.080-0.128 0.156-0.189 0.235h-0.003c-0.027-0.008-0.059-0.008-0.084-0.021 1.144-1.245 1.92-2.825 1.92-2.825l-0.005 0.005c-0.011 0.013-1.591 2.147-2.307 2.28-0.093-0.047-0.187-0.093-0.287-0.137 0.008-0.080 0.029-0.153 0.060-0.22l-0.002 0.004c0.163-0.379 0.62-0.956 0.62-0.956s-0.124 0.093-0.164 0.128c-0.12 0.104-0.252 0.208-0.388 0.306l-0.017 0.012c-0.075 0.053-0.152 0.096-0.229 0.144-0.085 0.053-0.169 0.101-0.251 0.14-0.101 0.058-0.22 0.098-0.346 0.114l-0.005 0c-0.057 0-0.109-0.007-0.147-0.036 0.604-0.369 1.637-2.171 1.644-2.183zM16.96 11.601c-0.142-0.004-0.309-0.006-0.477-0.006-0.261 0-0.52 0.005-0.778 0.015l0.037-0.001c-0.381 0.013-0.733 0.044-1.089 0.071l-0.003 0.003c-0.373 0.164-0.729 0.357-1.044 0.612 0.029 0.066 0.046 0.143 0.047 0.224v0c-0.001 0.093-0.024 0.18-0.064 0.257l0.002-0.003 1.18 0.856 0.029-0.019-0.48-1.685 0.831 1.485c0.027-0.011 0.056-0.019 0.084-0.027l-0.027-1.648 0.529 1.549 0.635-1.532 0.024 1.691c0.005 0.003 0.009 0.008 0.016 0.011l0.949-1.341-0.484 1.625 0.011 0.013 1.388-0.923-1.011 1.4v0.009l1.267-0.453c0.017-0.023 0.040-0.040 0.056-0.063-0.071-0.089-0.115-0.203-0.115-0.328 0-0.29 0.235-0.525 0.525-0.525 0.041 0 0.081 0.005 0.12 0.014l-0.004-0.001c0.159-0.327 0.279-0.672 0.357-1.027-0.738-0.136-1.604-0.227-2.486-0.253l-0.026-0.001zM13.617 11.779l-0.027 0.003c-0.411 0.048-0.808 0.104-1.189 0.167-0.383 0.063-0.749 0.133-1.099 0.213l-0.019 0.003c0.153 0.517 0.392 1.008 0.708 1.44 0.144-0.319 0.325-0.615 0.536-0.883-0.023-0.060-0.036-0.129-0.036-0.202 0-0.321 0.26-0.581 0.581-0.581 0.077 0 0.15 0.015 0.217 0.042l-0.004-0.001c0.103-0.077 0.221-0.132 0.331-0.2zM19.564 11.901c-0.026 0.402-0.103 0.777-0.226 1.131l0.009-0.030c0.105 0.096 0.171 0.235 0.171 0.388 0 0.29-0.235 0.525-0.525 0.525-0.029 0-0.058-0.002-0.086-0.007l0.003 0c-0.213 0.319-0.455 0.595-0.729 0.836l-0.005 0.004 0.881 0.045-1.325 0.315c-0.035 0.024-0.061 0.056-0.096 0.079 0.789 0.127 1.485 0.454 2.056 0.927l-0.007-0.006c0.427-0.765 0.672-1.647 0.672-2.587 0-0.713-0.316-1.237-0.793-1.621zM11.14 12.203c-0.395 0.093-0.773 0.196-1.133 0.307-0.178 0.288-0.283 0.637-0.283 1.011 0 0.001 0 0.002 0 0.002v-0c0 2.163 1.291 4.021 3.143 4.853l0.003-0.016c-0.303-0.302-0.561-0.649-0.762-1.030l-0.011-0.023c-0.032 0.005-0.069 0.008-0.107 0.008-0.421 0-0.763-0.341-0.763-0.763 0-0.297 0.17-0.554 0.417-0.68l0.004-0.002c-0.020-0.155-0.031-0.334-0.031-0.515 0-0.479 0.079-0.939 0.226-1.368l-0.009 0.030c-0.354-0.513-0.6-1.128-0.691-1.791l-0.002-0.022zM21.315 12.237c0.187 0.547 0.3 1.123 0.3 1.724 0 3.253-2.937 5.891-6.56 5.891s-6.56-2.639-6.56-5.891c0-0.315 0.031-0.624 0.084-0.925-1.036 0.436-1.933 0.941-2.767 1.483-0.285 0.517-0.424 1.057-0.377 1.6 0.113 1.313 1.268 2.409 3.032 3.152l-0.341-0.091c-3.053-0.861-5.476 0.671-8.125-0.659 0.613 0.485 1.312 0.956 3.331 0.963 0.684 0.003 2.877-0.107 3.281 0.248 0.404 0.353-1.361 2.019-1.361 2.019s2.987-2.529 3.277-1.667c0.183 0.536-0.856 1.968-0.856 1.968s1.044-1.413 1.817-1.716c0.533-0.208 0.98-0.181 1.363 0.355 0.253 0.353-1.212 2.069-1.212 2.069s1.968-1.919 2.32-1.817c0.355 0.101 0 1.817 0 1.817s0.727-1.741 1.113-1.869c0.529-0.177-1.212 4.040-1.212 4.040s2.127-3.9 2.524-3.988c0.68-0.152 1.136 2.724 1.136 2.724s-0.332-2.513 0.027-2.675c2.259-1.023 0.957 4.341 0.957 4.341s1.479-3.64 0.571-4.448c2.397 1.589 2.104 4.448 2.104 4.448s0.629-1.36-1.139-4.707c0.96-0.049 2.4 2.485 2.4 2.485s-1.564-2.775-0.504-2.827c2.107-0.099 2.32 3.687 2.32 3.687s0.632-0.531-1.060-4.24c1.077-0.691 3.685 3.432 3.685 3.432s-2.405-4.023-2.019-4.292 1.8 1.28 1.8 1.28-1.077-1.48-0.792-1.631c0.287-0.152 3.149 2.943 3.149 2.943s-2.527-3.028-2.089-3.4c0.437-0.369 2.289 1.045 2.289 1.045s-2.845-1.867-2.289-2.156c0.773-0.401 2.98 0.96 2.98 0.96s-1.328-1.093-1.109-1.36c0.219-0.271 2.825 1.715 2.825 1.715s-2.304-1.819-2.423-2.273c-0.117-0.453 1.816 0.153 1.816 0.153s-2.136-0.992-2.169-1.279c-0.035-0.285 1.413 0.319 1.413 0.319s-1.987-1.632-2.473-0.303c-0.112 0.212-0.249 0.4-0.377 0.6 0.124-0.36 0.18-0.724 0.147-1.093-0.015-0.141-0.040-0.268-0.073-0.391l0.004 0.018c-0.911-0.489-2.268-1.244-4.177-1.781zM13.541 12.844c-0.103 0.155-0.278 0.256-0.475 0.256-0.073 0-0.142-0.014-0.206-0.038l0.004 0.001c-0.072 0.097-0.133 0.203-0.197 0.307l1.703 0.628c0.015-0.019 0.027-0.040 0.043-0.057zM12.664 13.372c-0.125 0.207-0.24 0.421-0.325 0.652 0.16 0.171 0.347 0.313 0.528 0.457l1.229-0.039 0.003-0.005zM18.245 14.093l-0.808 0.617 0.071 0.003c0.268-0.176 0.511-0.387 0.737-0.62zM12.2 14.481c-0.003 0.016-0.009 0.031-0.013 0.047-0.057 0.249-0.090 0.535-0.090 0.828 0 0.158 0.010 0.314 0.028 0.468l-0.002-0.018c0.313 0.064 0.553 0.314 0.601 0.628l0.001 0.004 1.249-0.801c-0.113-0.040-0.227-0.080-0.335-0.128l-1.401-0.101 0.851-0.185c-0.338-0.213-0.63-0.458-0.885-0.737l-0.003-0.003zM13.257 14.763c0.184 0.115 0.373 0.213 0.573 0.297l0.153-0.032c0-0.025 0.007-0.049 0.008-0.075zM17.417 15.669l1.221 1.2-1.597-0.621 0.937 1.437-1.429-1.109-0.016 0.008 0.461 1.705-0.795-1.513-0.129 1.773-0.537-1.768-0.627 1.683 0.151-1.813-0.021-0.009-1.083 1.536 0.396-1.48c-0.453 0.435-0.813 0.965-1.047 1.557l-0.010 0.030c0.127 0.136 0.261 0.264 0.403 0.385 0.403 0.11 0.867 0.173 1.345 0.173 1.86 0 3.497-0.956 4.446-2.403l0.012-0.020c-0.478-0.336-1.042-0.586-1.651-0.713l-0.029-0.005zM14.169 15.967l-1.437 0.52c0.001 0.024 0.013 0.044 0.013 0.068 0 0 0 0 0 0.001 0 0.221-0.094 0.42-0.245 0.559l-0.001 0c0.136 0.289 0.304 0.564 0.5 0.82 0.122-0.324 0.265-0.603 0.437-0.863l-0.010 0.016-0.393 0.319zM19.013 19.687c-0.248 0.065-0.493 0.129-0.747 0.183 0.256-0.053 0.499-0.12 0.747-0.183zM17.563 20c-0.152 0.027-0.3 0.061-0.453 0.084-0.269 0.039-0.521 0.056-0.781 0.083 0.42-0.044 0.832-0.099 1.235-0.167zM15.763 20.227c-0.147 0.011-0.287 0.009-0.432 0.016 0.147-0.009 0.285-0.004 0.432-0.016z"></path></svg>
