<svg version="1.1" xmlns="http://www.w3.org/2000/svg" width="32" height="32" viewBox="0 0 32 32"><path fill="#f01f7a" d="M16.009 0.64c-8.821 0.007-16.003 7.135-16.009 15.892v0.040l2.723 1.588 0.037-0.025c1.228-0.851 2.749-1.36 4.389-1.36 0.008 0 0.015 0 0.023 0h-0.001c0.495 0 0.979 0.045 1.448 0.133l-0.048-0.008c1.496 0.272 2.801 0.949 3.837 1.912l-0.005-0.004-0.005-0.004 0.467 0.435 0.264-0.579c0.256-0.56 0.552-1.085 0.88-1.564 0.132-0.192 0.277-0.387 0.443-0.595l0.273-0.343-0.336-0.281c-1.409-1.187-3.141-2.036-5.045-2.398l-0.069-0.011-0.069-0.011c-0.613-0.117-1.319-0.184-2.040-0.184-1.214 0-2.385 0.19-3.482 0.541l0.081-0.022 0.081-0.021c1.295-5.676 6.285-9.632 12.177-9.636 0.013-0 0.027-0 0.042-0 3.419 0 6.515 1.382 8.76 3.618l-0-0c1.616 1.594 2.791 3.632 3.328 5.916l0.016 0.083c-0.994-0.321-2.137-0.505-3.323-0.505-0.003 0-0.005 0-0.008 0h-0.205c-0.475 0.008-0.933 0.044-1.383 0.104l0.060-0.007-0.056 0.008c-0.234 0.030-0.411 0.058-0.586 0.090l0.066-0.010c-0.076 0.013-0.152 0.029-0.227 0.044-0.247 0.049-0.424 0.090-0.598 0.135l0.075-0.017-0.184 0.047c-0.303 0.080-0.518 0.146-0.731 0.217l0.087-0.025-0.039 0.013c-0.473 0.16-0.945 0.357-1.401 0.585l-0.036 0.019c-0.203 0.101-0.407 0.213-0.625 0.341l-0.048 0.029c-1.091 0.657-2.019 1.455-2.797 2.384l-0.014 0.017-0.015 0.017-0.1 0.123c-0.157 0.192-0.323 0.41-0.48 0.635l-0.024 0.036c-0.117 0.173-0.236 0.359-0.384 0.603l-0.080 0.139c-0.078 0.129-0.182 0.317-0.281 0.509l-0.031 0.067-0.021 0.039c-0.227 0.455-0.423 0.931-0.587 1.417l-0.023 0.071c-0.349 1.013-0.55 2.18-0.55 3.394 0 0.081 0.001 0.161 0.003 0.241l-0-0.012v-0.009l0.001 0.149c0.008 0.211 0.017 0.393 0.031 0.575l-0.003-0.049c0.021 0.248 0.040 0.437 0.064 0.625l-0.008-0.076 0.007 0.056 0.017 0.137c0.024 0.169 0.051 0.336 0.083 0.504 0.321 1.688 1.127 3.376 2.327 4.88l0.055 0.068 0.056-0.067c0.479-0.565 1.665-2.36 1.767-3.436l0.001-0.020-0.009-0.017c-0.538-1.001-0.853-2.19-0.853-3.453 0-0.002 0-0.005 0-0.007v-0.001c0-4.021 3.161-7.361 7.196-7.603l0.265-0.009c0.054-0.001 0.117-0.002 0.18-0.002 1.66 0 3.201 0.512 4.473 1.386l-0.027-0.017 0.037 0.025 2.721-1.583v-0.040c0-0.015 0-0.033 0-0.050 0-4.376-1.791-8.333-4.68-11.18l-0.002-0.002c-2.884-2.869-6.86-4.643-11.25-4.643-0.022 0-0.044 0-0.066 0h0.003z"></path></svg>
