<svg version="1.1" xmlns="http://www.w3.org/2000/svg" width="32" height="32" viewBox="0 0 32 32"><path fill="#ee4623" d="M11.32 32c-2.053-0.907-3.448-2.861-3.631-5.099 0.12-2.303 1.336-4.407 3.267-5.661-0.317 0.773-0.24 1.653 0.2 2.36 0.501 0.7 1.363 1.036 2.207 0.861 1.203-0.339 1.907-1.587 1.568-2.789-0.12-0.421-0.36-0.803-0.688-1.091-1.36-1.107-2.043-2.844-1.8-4.581 0.233-0.92 0.743-1.752 1.461-2.38-0.54 1.44 0.983 2.861 2.005 3.56 1.813 1.088 3.56 2.284 5.232 3.581 1.827 1.44 2.823 3.693 2.667 6-0.411 2.453-2.147 4.48-4.513 5.24 4.733-1.053 9.613-4.813 9.707-10.147-0.093-4.267-2.64-8.096-6.533-9.84h-0.173c0.087 0.209 0.128 0.435 0.12 0.661 0.013-0.147 0.013-0.293 0-0.44 0.021 0.173 0.021 0.347 0 0.52-0.296 1.213-1.52 1.96-2.736 1.664-0.485-0.12-0.92-0.393-1.232-0.787-1.56-2 0-4.276 0.261-6.476 0.16-2.813-1.125-5.503-3.405-7.147 1.141 1.903-0.379 4.4-1.484 5.821-1.107 1.421-2.707 2.48-4.011 3.72-1.405 1.307-2.693 2.744-3.849 4.28-2.499 3.053-3.48 7.080-2.667 10.94 1.115 3.72 4.207 6.515 8.020 7.24z"></path></svg>
