<svg version="1.1" xmlns="http://www.w3.org/2000/svg" width="32" height="32" viewBox="0 0 32 32"><path fill="#885630" d="M22.215 0c-0.093 0-0.153 0.045-0.22 0.127-0.084 0.097-0.135 0.224-0.135 0.363 0 0.076 0.015 0.148 0.043 0.214l-0.001-0.004c0.253 0.547 0.484 1.107 0.704 1.667 0.013 0.027 0.029 0.053 0.052 0.091-0.052-0.003-0.067-0.029-0.084-0.057-0.396-0.413-0.864-0.743-1.331-1.072-0.631-0.449-1.32-0.804-2.004-1.163-0.083-0.045-0.179-0.076-0.282-0.086l-0.003-0-0.512-0.053c-0.269-0.033-0.473 0.12-0.473 0.389 0 0.144-0.061 0.176-0.18 0.187-0.105 0.005-0.249 0.153-0.261 0.256-0.006 0.039-0.009 0.085-0.009 0.131 0 0.276 0.121 0.524 0.312 0.693l0.001 0.001c0.592 0.553 1.164 1.127 1.737 1.7l0.020 0.009c0.016 0.014 0.029 0.030 0.037 0.050l0 0.001c-0.009 0.004-0.019 0.004-0.025 0.004-0.020-0.003-0.037-0.014-0.048-0.029l-0-0c-0.003-0.003-0.007-0.007-0.007-0.009-0.083-0.048-0.169-0.093-0.249-0.147-0.4-0.267-0.793-0.539-1.193-0.797-0.172-0.123-0.382-0.205-0.61-0.226l-0.005-0c-0.023-0.003-0.050-0.005-0.078-0.005-0.176 0-0.334 0.075-0.445 0.195l-0 0c-0.075 0.069-0.122 0.167-0.122 0.276 0 0.022 0.002 0.043 0.005 0.063l-0-0.002c0.021 0.195 0.153 0.316 0.297 0.416 0.669 0.451 1.267 0.979 1.821 1.565 0.048 0.051 0.099 0.105 0.153 0.149 0.157 0.128 0.253 0.299 0.349 0.475 0.044 0.080 0.028 0.099-0.057 0.099-0.571 0-1.115 0.157-1.661 0.272-0.224 0.048-0.445 0.125-0.525 0.373-0.087 0.28-0.128 0.437 0.213 0.523 0.772 0.2 1.434 0.435 2.067 0.72l-0.081-0.032c0.059 0.029 0.111 0.064 0.157 0.103l-0.001-0.001c0.16 0.139 0.307 0.292 0.483 0.404 0.507 0.329 1.027 0.637 1.627 0.777 0.071 0.016 0.133 0.052 0.201 0.067 0.067 0.020 0.112 0.059 0.125 0.125 0.039 0.237 0.185 0.372 0.407 0.44 0.028 0.008 0.051 0.027 0.080 0.037 0.069 0.023 0.101 0.073 0.124 0.144 0.089 0.32 0.183 0.637 0.283 0.953 0.035 0.107 0.003 0.135-0.093 0.164-0.496 0.144-0.989 0.293-1.483 0.445-0.176 0.053-0.179 0.057-0.089 0.217l1.211 2.18c0.169 0.307 0.176 0.307 0.487 0.147 0.032-0.016 0.076-0.071 0.105-0.019 0.028 0.048 0.080 0.119 0.032 0.173-0.151 0.172-0.253 0.373-0.381 0.56-0.041 0.060-0.041 0.099-0.007 0.156 0.135 0.221 0.269 0.445 0.4 0.669 0.016 0.025 0.045 0.057 0.040 0.077l-0.164 0.489c-0.099-0.363-0.244-0.68-0.431-0.968l0.008 0.013c-0.24-0.384-0.547-0.723-0.827-1.081-0.044-0.053-0.096-0.103-0.147-0.153-0.267-0.276-0.608-0.443-0.932-0.637-0.13-0.079-0.283-0.138-0.445-0.168l-0.008-0.001c-0.5-0.107-0.996-0.147-1.493 0.005-0.101 0.032-0.156 0.007-0.216-0.080-0.123-0.169-0.221-0.364-0.385-0.496-0.4-0.32-0.823-0.611-1.315-0.777-0.341-0.125-0.735-0.206-1.145-0.224l-0.008-0c-0.030-0.001-0.065-0.001-0.1-0.001-0.182 0-0.362 0.009-0.54 0.025l0.023-0.002c-0.528 0.040-1.053 0.099-1.52 0.391-0.093 0.057-0.2 0.089-0.295 0.144-0.48 0.259-0.955 0.515-1.355 0.905-0.416 0.397-0.807 0.808-1.177 1.236l-0.019 0.022c-0.429 0.512-0.753 1.091-1.044 1.689-0.020 0.041-0.029 0.093-0.093 0.128l-0.16-0.992c-0.009-0.061 0.029-0.057 0.071-0.051 0.119 0.013 0.233 0.019 0.352 0.035 0.089 0.013 0.137-0.007 0.16-0.107 0.029-0.136 0.061-0.275 0.089-0.415 0.109-0.529 0.267-1.040 0.404-1.56 0.027-0.099 0.009-0.133-0.093-0.16-0.508-0.12-1.017-0.256-1.527-0.377-0.096-0.023-0.141-0.057-0.112-0.16 0.116-0.397 0.167-0.813 0.323-1.2 0.014-0.047 0.040-0.086 0.074-0.116l0-0c0.131-0.101 0.227-0.22 0.213-0.403-0.009-0.137 0.055-0.224 0.187-0.285 0.243-0.115 0.477-0.249 0.707-0.384 0.185-0.106 0.334-0.257 0.433-0.438l0.003-0.006c0.429-0.807 0.787-1.656 1.307-2.413 0.044-0.068 0.080-0.141 0.133-0.2 0.336-0.352 0.651-0.725 1.028-1.040 0.119-0.099 0.151-0.233 0.153-0.38 0-0.171-0.099-0.289-0.201-0.407-0.1-0.116-0.201-0.215-0.372-0.196-0.037 0.004-0.076-0.013-0.117-0.019 0.025-0.052 0.067-0.064 0.101-0.087 0.452-0.291 0.903-0.583 1.355-0.877 0.547-0.352 1.092-0.707 1.643-1.059 0.069-0.045 0.101-0.080 0.025-0.147-0.020-0.017-0.032-0.040-0.048-0.059-0.112-0.132-0.112-0.132-0.267-0.039l-4.589 2.856c-0.135 0.083-0.135 0.083-0.203-0.067-0.149-0.351-0.236-0.719-0.348-1.080-0.027-0.083-0.004-0.131 0.060-0.183 0.385-0.307 0.737-0.653 1.093-0.989 0.134-0.126 0.225-0.298 0.248-0.49l0-0.004c0.029-0.227-0.12-0.345-0.325-0.261-0.116 0.045-0.213 0.092-0.306 0.146l0.011-0.006c-0.907 0.5-1.873 0.843-2.865 1.131-0.057 0.016-0.109 0.035-0.157-0.027-0.099-0.12-0.247-0.187-0.371-0.277-0.017-0.014-0.038-0.022-0.062-0.022-0.008 0-0.015 0.001-0.022 0.003l0.001-0c-0.133 0.036-0.272 0.075-0.355 0.196-0.212 0.311-0.477 0.587-0.676 0.909-0.227 0.373-0.444 0.749-0.7 1.104-0.048 0.067-0.067 0.077-0.112-0.003l-0.849-1.489c-0.098-0.173-0.196-0.32-0.304-0.459l0.006 0.009c-0.125-0.157-0.279-0.235-0.477-0.212-0.035 0.004-0.080-0.007-0.093 0.048-0.027 0.147-0.095 0.301-0.076 0.443 0.045 0.36 0.109 0.723 0.2 1.075 0.152 0.612 0.325 1.216 0.507 1.819 0.177 0.592 0.376 1.173 0.568 1.764 0.016 0.051 0.044 0.096-0.027 0.137-0.089 0.051-0.233 0.077-0.249 0.167-0.016 0.093 0.067 0.2 0.107 0.3l0.009 0.023c0.032 0.077 0.048 0.192 0.105 0.221 0.077 0.039 0.147-0.067 0.217-0.109 0.064-0.039 0.087-0.028 0.116 0.039 0.165 0.391 0.336 0.777 0.505 1.168 0.015 0.030 0.023 0.065 0.023 0.103 0 0.029-0.005 0.056-0.014 0.082l0.001-0.002c-0.103 0.271-0.192 0.594-0.251 0.927l-0.005 0.033c-0.016 0.093-0.051 0.093-0.121 0.073 0.628 0.126 0.255 0.029-0.118-0.066l-0.993-0.214c-0.164-0.043-0.164-0.043-0.183 0.124v0.013c-0.080 0.887-0.16 1.773-0.244 2.659-0.005 0.080 0.004 0.113 0.091 0.123 0.259 0.032 0.515 0.073 0.771 0.112 0.048 0.007 0.089 0.009 0.077 0.080-0.057 0.3-0.103 0.604-0.167 0.903-0.006 0.020-0.009 0.042-0.009 0.066 0 0.058 0.021 0.111 0.055 0.152l-0-0c0.089 0.116 0.176 0.233 0.265 0.352 0.061 0.084 0.107 0.192 0.051 0.279-0.028 0.041-0.044 0.093-0.044 0.147 0 0.004 0 0.007 0 0.010v-0.001c0.009 0.553 0.009 1.107 0.035 1.661 0.013 0.268 0.009 0.537 0.016 0.807 0.013 0.713 0.053 1.424 0.080 2.137 0.013 0.349-0.048 0.695-0.032 1.044 0.003 0.087 0.023 0.133 0.112 0.163 0.212 0.067 0.416 0.155 0.631 0.221 0.111 0.029 0.2 0.106 0.246 0.206l0.001 0.002c0.033 0.071 0.053 0.154 0.053 0.242 0 0.018-0.001 0.035-0.002 0.052l0-0.002c-0.003 0.096 0.032 0.153 0.109 0.208 0.329 0.236 0.656 0.48 0.987 0.723 0.867 0.64 1.733 1.284 2.605 1.92 0.080 0.061 0.099 0.109 0.051 0.196-0.045 0.083-0.073 0.18-0.119 0.263-0.039 0.077-0.032 0.125 0.041 0.179 0.109 0.077 0.215 0.164 0.315 0.251 0.087 0.073 0.089 0.188 0.064 0.277-0.020 0.065-0.116 0.007-0.176 0-0.043-0.003-0.084-0.013-0.125-0.019-0.413-0.067-0.823-0.173-1.243-0.208-0.668-0.053-1.337-0.112-2.013-0.093-0.035 0-0.089-0.032-0.099 0.040-0.009 0.056-0.023 0.117 0.041 0.156 0.032 0.019 0.067 0.035 0.103 0.048 0.377 0.131 0.729 0.32 1.076 0.519 0.224 0.128 0.444 0.272 0.691 0.359 0.045 0.016 0.091 0.051 0.144 0.003-0.371-0.293-0.739-0.589-1.111-0.887 0.052-0.039 0.093-0.023 0.132-0.019 0.444 0.035 0.887 0.096 1.319 0.199 0.951 0.227 1.895 0.483 2.829 0.764 0.307 0.093 0.633 0.139 0.909 0.324 0.067 0.044 0.107 0.089 0.099 0.173 0.016 0.019 0.036 0.044 0.013 0.060-0.027 0.016-0.048-0.016-0.067-0.032-0.219-0.019-0.436-0.035-0.651-0.057-0.617-0.061-1.232-0.147-1.856-0.128-0.467 0.013-0.935-0.020-1.4 0.013-0.659 0.044-1.319 0.131-1.973 0.2-0.033 0.004-0.084-0.003-0.084 0.036 0 0.048 0.019 0.103 0.080 0.116 0.045 0.010 0.097 0.016 0.15 0.016h0c0.333 0.013 0.663 0.009 0.995 0.015 0.827 0.020 1.656-0.016 2.48 0.055 0.299 0.027 0.6 0.013 0.891 0.067 1.373 0.257 2.74 0.525 4.104 0.824 0.16 0.035 0.324 0.060 0.48 0.137-0.073 0.067-0.169 0.087-0.211 0.183-0.292 0.675-0.484 1.387-0.707 2.084-0.040 0.119 0.040 0.256 0.16 0.288 0.031 0.009 0.067 0.015 0.104 0.015 0.183 0 0.335-0.133 0.365-0.307l0-0.002c0.027-0.144 0.052-0.288 0.071-0.436 0.007-0.048 0.023-0.073 0.071-0.089 0.176-0.071 0.348-0.144 0.524-0.213 0.273-0.104 0.507-0.251 0.707-0.435l-0.002 0.001c0.179-0.169 0.329-0.365 0.333-0.627 0-0.080 0.019-0.132 0.083-0.18 0.293-0.227 0.557-0.487 0.813-0.752 0.246-0.25 0.507-0.482 0.782-0.697l0.018-0.013c0.032-0.027 0.057-0.064 0.108-0.045l0.747 0.295c-0.5 0.304-0.973 0.596-1.444 0.88-0.023 0.013-0.048 0.020-0.071 0.027-0.177 0.054-0.328 0.147-0.451 0.268l0-0c-0.5 0.496-0.756 1.085-0.727 1.8 0.019 0.48 0.293 0.707 0.761 0.599 0.82-0.192 1.52-0.977 1.643-1.839 0.032-0.24 0.069-0.476-0.103-0.684-0.077-0.094-0.154-0.179-0.237-0.259l-0.001-0.001c0.027-0.016 0.039-0.025 0.052-0.035 1.036-0.617 2.167-1.037 3.3-1.427 1.387-0.479 2.8-0.859 4.219-1.224l-0.1-0.023c-0.093 0.009-0.181 0.020-0.275 0.027-0.428 0.029-0.825 0.092-1.209 0.189l0.047-0.010-0.021 0.009c-0.032 0.013-0.070 0.020-0.109 0.020-0.006 0-0.011-0-0.017-0l0.001 0c-0.019 0-0.039 0-0.064 0.003 0.087-0.083 0.336-0.352 0.404-0.333l0.003-0.007h0.007c0-0.009 0.025-0.028 0.025-0.028 0.023-0.039 0.053-0.064 0.099-0.067 0.071-0.1 0.158-0.184 0.259-0.248l0.004-0.002c0.067-0.041 0.137-0.083 0.215-0.115h-0.003c0.213 0 0.425-0.259 0.648-0.349-0.001-0.008-0.013-0.013-0.017-0.023-0.32 0.045-0.635 0.096-0.941 0.212-0.656 0.243-1.335 0.432-1.975 0.713-0.989 0.432-1.976 0.864-2.927 1.38-0.027 0.015-0.061 0.031-0.095 0.045l-0.007 0.003-0.073-0.672c-0.007-0.045 0.016-0.064 0.055-0.084 0.841-0.445 1.687-0.887 2.567-1.251 0.724-0.301 1.44-0.628 2.168-0.923 0.003-0.007 0.007-0.013 0.013-0.013h0.005c0.004 0 0.004 0.004 0.007 0.004 0.009 0.016 0.003 0.027-0.007 0.035-0.003 0.004-0.007 0.004-0.013 0.007h-0.003c-0.186 0.254-0.352 0.544-0.485 0.851l-0.011 0.029c0.051 0.013 0.071-0.003 0.089-0.023 0.151-0.16 0.301-0.316 0.448-0.476 0.285-0.313 0.587-0.612 0.939-0.855 0.023-0.016 0.060-0.029 0.044-0.064-0.019-0.040-0.060-0.020-0.089-0.013-0.329 0.067-0.659 0.128-0.987 0.205-0.108 0.025-0.101-0.013-0.105-0.089-0.003-0.263 0.036-0.52 0.045-0.781 0.003-0.12 0.032-0.233 0.079-0.334l-0.002 0.005c0.131-0.301 0.263-0.6 0.396-0.9 0.067-0.151 0.107-0.311 0.132-0.471 0.041-0.256 0.073-0.515 0.099-0.773 0.041-0.399 0.183-0.773 0.249-1.167 0.087-0.499 0.157-1.001 0.343-1.479 0.167-0.423 0.327-0.845 0.496-1.264 0.235-0.571 0.532-1.111 0.673-1.72 0.048-0.211 0.101-0.403 0.005-0.611-0.053-0.112-0.069-0.24-0.108-0.361-0.017-0.049-0.027-0.106-0.027-0.166 0-0.038 0.004-0.074 0.012-0.11l-0.001 0.003c0.064-0.327 0.093-0.651-0.084-0.955-0.048-0.083 0.011-0.133 0.059-0.185 0.117-0.121 0.124-0.176 0.021-0.307-0.117-0.147-0.233-0.299-0.36-0.436-0.107-0.112-0.205-0.233-0.312-0.349-0.073-0.044-0.067-0.073 0.016-0.101 0.187-0.064 0.368-0.144 0.557-0.203 0.107-0.032 0.133-0.093 0.141-0.188 0.060-0.807 0.12-1.617 0.185-2.424 0.009-0.112-0.009-0.133-0.125-0.099-0.605 0.192-1.209 0.373-1.817 0.563-0.187 0.059-0.189 0.059-0.272-0.124-0.308-0.692-0.548-1.409-0.8-2.12-0.025-0.059-0.040-0.128-0.040-0.2 0-0.080 0.018-0.156 0.050-0.224l-0.001 0.003c0.089-0.251 0.032-0.503 0.025-0.756-0.004-0.011-0.006-0.025-0.007-0.038v-0c-0.060-0.764-0.18-1.468-0.357-2.149l0.019 0.085c-0.175-0.646-0.403-1.209-0.688-1.736l0.021 0.042c-0.304-0.576-0.631-1.147-0.983-1.7-0.151-0.237-0.311-0.452-0.579-0.569-0.1-0.041-0.216-0.065-0.337-0.067h-0.001zM18.691 0.347c0.005-0 0.012-0 0.018-0 0.092 0 0.177 0.025 0.25 0.070l-0.002-0.001c0.804 0.396 1.445 0.753 2.069 1.136l-0.11-0.063c0.329 0.211 0.643 0.451 0.953 0.693 0.147 0.116 0.256 0.289 0.379 0.44 0.051 0.063 0.016 0.12-0.032 0.165-0.032 0.032-0.077 0.052-0.116 0.073-0.041 0.029-0.096 0.055-0.080 0.116 0.013 0.053 0.073 0.067 0.121 0.077 0.022 0.005 0.048 0.008 0.074 0.008 0.050 0 0.097-0.010 0.141-0.029l-0.002 0.001c0.224-0.093 0.413 0.064 0.557 0.221 0.037 0.040 0.053 0.124 0.124 0.099 0.073-0.028 0.084-0.108 0.077-0.183-0.016-0.2-0.067-0.396-0.112-0.592-0.12-0.503-0.36-0.957-0.557-1.431-0.071-0.169-0.147-0.339-0.217-0.509-0.039-0.093 0.013-0.176 0.064-0.243 0.041-0.053 0.108-0.007 0.163 0.019 0.203 0.091 0.317 0.253 0.416 0.443 0.107 0.2 0.237 0.387 0.349 0.581 0.192 0.34 0.429 0.66 0.583 1.016 0.224 0.517 0.509 1.011 0.644 1.568 0.115 0.493 0.277 0.976 0.336 1.485 0.021 0.192-0.013 0.377 0.009 0.563 0.044 0.372-0.011 0.724-0.164 1.064-0.040 0.093-0.028 0.181 0.016 0.277 0.336 0.711 0.615 1.444 0.893 2.18 0.036 0.096 0.020 0.135-0.080 0.164-0.643 0.188-1.287 0.384-1.929 0.579-0.093 0.029-0.123 0.004-0.151-0.080-0.164-0.435-0.32-0.861-0.471-1.289-0.032-0.091-0.071-0.139-0.171-0.116-0.117 0.029-0.181-0.023-0.233-0.128-0.083-0.169-0.151-0.373-0.288-0.48s-0.355-0.109-0.537-0.153c-0.137-0.036-0.276-0.077-0.416-0.1-0.312-0.059-0.588-0.187-0.82-0.367l0.004 0.003c-0.404-0.299-0.82-0.573-1.245-0.836-0.139-0.009-0.269-0.048-0.404-0.080-0.371-0.076-0.739-0.156-1.111-0.227-0.089-0.016-0.107-0.084-0.112-0.144-0.009-0.075 0.009-0.147 0.087-0.192 0.119-0.071 0.253-0.084 0.387-0.107 0.527-0.093 1.146-0.156 1.776-0.173l0.018-0c0.147-0.003 0.279 0.053 0.416 0.088 0.022 0.007 0.047 0.011 0.073 0.011 0.056 0 0.108-0.019 0.149-0.052l-0 0c0.288-0.191 0.579-0.373 0.867-0.563 0.045-0.028 0.128-0.048 0.093-0.124-0.005-0.011-0.012-0.021-0.020-0.029l0 0c-0.016-0.013-0.035-0.016-0.057-0.016l-0.067 0.003h-0.009c-0.007-0-0.015-0-0.023-0-0.324 0-0.625 0.1-0.873 0.27l0.005-0.003c-0.105 0.067-0.345 0.025-0.413-0.075-0.453-0.688-1.097-1.184-1.709-1.719-0.272-0.236-0.537-0.483-0.825-0.701-0.073-0.053-0.107-0.192-0.057-0.261 0.064-0.096 0.147-0.055 0.224-0.020 0.247 0.109 0.483 0.233 0.704 0.391 0.752 0.537 1.56 0.992 2.363 1.447 0.018 0.011 0.040 0.023 0.063 0.034l0.004 0.002c0.123 0.040 0.187-0.013 0.167-0.141-0.011-0.069-0.040-0.13-0.083-0.179l0 0c-0.651-0.765-1.335-1.499-2.008-2.244-0.14-0.155-0.307-0.288-0.464-0.427-0.121-0.101-0.22-0.224-0.29-0.364l-0.003-0.007c-0.018-0.030-0.028-0.067-0.028-0.106 0-0.057 0.022-0.109 0.059-0.147l-0 0c0.055-0.060 0.103-0.073 0.183-0.032 0.227 0.109 0.443 0.237 0.644 0.391 0.355 0.269 0.713 0.537 1.072 0.807l1.076 0.804c0.028 0.023 0.057 0.044 0.083 0.067 0.067 0.061 0.125 0.125 0.189 0.189l0.039 0.039c0.025 0.025 0.048 0.060 0.080 0.080 0.073 0.044 0.149 0.083 0.227 0.005 0.027-0.025 0.039-0.048 0.041-0.073 0-0.009 0.004-0.019 0-0.028 0-0.004 0-0.011-0.003-0.013-0.012-0.038-0.031-0.070-0.057-0.096v0l-0.24-0.249c-0.132-0.138-0.267-0.268-0.409-0.391l-0.007-0.006c-0.465-0.387-0.941-0.761-1.421-1.127-0.244-0.187-0.529-0.311-0.795-0.464-0.096-0.055-0.16-0.135-0.231-0.212-0.029-0.033-0.047-0.078-0.047-0.126 0-0.027 0.006-0.052 0.015-0.075l-0 0.001c0.029-0.072 0.1-0.068 0.16-0.076zM11.003 2.199c0.003-0.001 0.006-0.001 0.010-0.001 0.011 0 0.021 0.003 0.029 0.008l-0-0c0.064 0.036 0.040 0.103 0.040 0.18 0.017 0.080-0.035 0.147-0.107 0.213-0.461 0.429-0.943 0.836-1.435 1.229-0.196 0.157-0.436 0.231-0.653 0.349-0.045 0.023-0.071 0-0.096-0.032-0.16-0.205-0.317-0.413-0.477-0.617-0.060-0.073 0.023-0.071 0.061-0.087 0.339-0.121 0.672-0.26 1.008-0.393 0.487-0.192 0.928-0.467 1.387-0.711 0.048-0.027 0.093-0.057 0.14-0.084 0.032-0.013 0.059-0.049 0.093-0.055zM7.511 3.305c0.070 0.008 0.132 0.039 0.179 0.085v0c0.096 0.089 0.173 0.192 0.24 0.304 0.231 0.373 0.551 0.675 0.861 0.983 0.217 0.217 0.439 0.428 0.669 0.627 0.076 0.067 0.089 0.169 0.131 0.256 0.016 0.032 0.003 0.057-0.027 0.073-0.015 0.011-0.031 0.017-0.040 0.027-0.189 0.16-0.368 0.137-0.589 0.025-0.446-0.23-0.826-0.518-1.15-0.859l-0.002-0.002c-0.013-0.013-0.027-0.023-0.040-0.032-0.152-0.115-0.16-0.109-0.227 0.067-0.069 0.18-0.115 0.365-0.195 0.539-0.029 0.060 0.016 0.125 0.061 0.169 0.051 0.052 0.085 0.132 0.179 0.119 0.041-0.007 0.064-0.029 0.073-0.073 0.023-0.107 0.052-0.212 0.080-0.343 0.349 0.293 0.737 0.521 1.12 0.777l-0.371 0.212c-0.951 0.533-1.904 1.068-2.852 1.607-0.077 0.041-0.109 0.051-0.141-0.045-0.364-1.129-0.748-2.253-1.053-3.403-0.069-0.267-0.099-0.544-0.149-0.816-0.016-0.080 0.037-0.121 0.089-0.151 0.071-0.035 0.073 0.048 0.099 0.080 0.503 0.695 0.845 1.48 1.255 2.225 0.123 0.224 0.26 0.441 0.391 0.663 0.027 0.040 0.045 0.076 0.109 0.053 0.071-0.025 0.057-0.069 0.045-0.12-0.052-0.232-0.171-0.44-0.257-0.657-0.015-0.030-0.023-0.065-0.023-0.103 0-0.040 0.010-0.079 0.028-0.112l-0.001 0.001c0.183-0.379 0.439-0.708 0.64-1.071 0.187-0.329 0.423-0.624 0.601-0.956 0.046-0.090 0.138-0.15 0.244-0.15 0.008 0 0.016 0 0.024 0.001l-0.001-0zM9.876 3.961c0.019 0.004 0.032 0.021 0.048 0.056 0.16 0.36 0.268 0.74 0.403 1.107 0.013 0.036 0.016 0.065-0.023 0.088l-0.341 0.211c-0.011 0.007-0.023 0.009-0.061 0.027-0.009-0.017-0.023-0.045-0.041-0.068l-0.72-0.827c-0.032-0.037-0.064-0.073 0-0.108 0.236-0.135 0.416-0.352 0.665-0.467 0.032-0.015 0.053-0.023 0.071-0.019zM12.448 4.609c0.004-0 0.009-0 0.014-0 0.066 0 0.126 0.023 0.173 0.062l-0-0c0.070 0.052 0.114 0.133 0.114 0.226 0 0.023-0.003 0.045-0.008 0.067l0-0.002c-0.032 0.153-0.108 0.285-0.214 0.386l-0 0c-0.444 0.426-0.833 0.904-1.158 1.426l-0.018 0.031c-0.304 0.48-0.604 0.957-0.832 1.48-0.052 0.106-0.117 0.197-0.195 0.275l0-0c-0.32 0.364-0.701 0.647-1.14 0.851-0.085 0.034-0.144 0.116-0.144 0.211 0 0 0 0.001 0 0.001v-0c-0.007 0.080-0.032 0.157-0.039 0.237-0.001 0.207-0.099 0.39-0.252 0.507l-0.002 0.001c-0.053 0.041-0.060 0.109-0.080 0.167l-0.364 1.22c0 0.009 0 0.019-0.003 0.025 0 0.019 0.003 0.041-0.023 0.051-0.055 0.013-0.103-0.003-0.151-0.028-0.975-0.22-1.57-0.373-2.161-0.537l0.388 0.091c-0.073-0.016-0.144-0.039-0.221-0.048-0.117-0.016-0.128-0.071-0.073-0.16 0.077-0.375 0.167-0.747 0.397-1.063 0.051-0.071 0.048-0.128 0.003-0.205-0.253-0.423-0.445-0.877-0.656-1.319-0.035-0.073-0.023-0.107 0.045-0.147 4.329-2.577 5.453-3.285 6.574-3.996l-3.13 1.853c0.060-0.040 0.119-0.016 0.176-0.029 0.201-0.045 0.397-0.107 0.573-0.217 0.013-0.009 0.035-0.016 0.040-0.029 0.129-0.284 0.413-0.381 0.653-0.493 0.548-0.249 1.101-0.48 1.585-0.844 0.035-0.028 0.078-0.046 0.126-0.051l0.001-0zM27.705 9.639v0.007l0.003-0.001c-0.028 0.341-0.057 0.664-0.083 0.987l-0.057 0.713c-0.007 0.087-0.032 0.141-0.125 0.173-6.735 2.132-8.226 2.662-9.714 3.196l5.169-1.624c-0.048 0.007-0.073-0.016-0.107-0.073-0.291-0.525-0.585-1.047-0.883-1.569-0.039-0.067-0.051-0.103 0.045-0.128l5.672-1.661c0.019-0.007 0.041-0.009 0.080-0.019zM27.159 10.153c-0.205 0.004-0.391 0.196-0.381 0.391 0.009 0.183 0.165 0.343 0.339 0.336 0.183-0.003 0.36-0.204 0.356-0.403-0.007-0.221-0.109-0.327-0.313-0.324zM4.719 11.313c0.013 0 0.032 0.003 0.052 0.009l2.58 0.677c0.86 0.228 1.721 0.453 2.583 0.68 0.083 0.023 0.109 0.048 0.080 0.133l-0.371 1.217c-0.013 0.048-0.023 0.099-0.077 0.099-0.002 0-0.004 0-0.005 0-0.008 0-0.015-0.001-0.022-0.003l0.001 0-1.381-0.189c-0.301-0.040-0.6-0.083-0.9-0.124 0.918 0.087-0.018-0.048-0.955-0.178l-1.785-0.203c-0.057-0.016-0.077-0.051-0.067-0.131 0.069-0.635 0.137-1.268 0.204-1.905 0.004-0.016 0.003-0.028 0.007-0.041 0.004-0.006 0.006-0.013 0.007-0.020v-0c0.009-0.019 0.028-0.025 0.051-0.021zM15.567 11.451l0.151 0.003c0.263 0.013 0.519 0.115 0.759 0.221 0.107 0.048 0.212 0.093 0.317 0.144l0.076 0.039c0.077 0.037 0.157 0.076 0.231 0.12l0.151 0.087c0.048 0.033 0.1 0.061 0.144 0.097 0.096 0.067 0.189 0.14 0.276 0.22 0.291 0.269 0.496 0.587 0.617 0.96 0.087 0.269 0.151 0.545 0.173 0.823 0.021 0.269-0.059 0.532-0.128 0.791-0.011 0.040-0.027 0.048-0.040 0.045-0.019-0.007-0.028-0.029-0.044-0.048l-0.288-0.333c-0.355-0.428-0.828-0.747-1.369-0.907l-0.020-0.005c-0.393-0.115-0.847-0.189-1.316-0.205l-0.009-0c-0.381 0.003-0.751 0.047-1.106 0.129l0.034-0.007c-0.281 0.053-0.564 0.099-0.841 0.151-0.183 0.032-0.349 0.115-0.516 0.188-0.080 0.036-0.16 0.071-0.24 0.101l-0.027 0.005c-0.501 0.176-0.927 0.48-1.365 0.76-0.12 0.080-0.22 0.187-0.324 0.291l-0.013 0.011-0.085 0.087c-0.203 0.196-0.4 0.395-0.619 0.573-0.099 0.137-0.233 0.233-0.357 0.355 0.032-0.227 0.093-0.437 0.195-0.629 0.122-0.229 0.237-0.418 0.363-0.601l-0.014 0.021c0.064-0.093 0.128-0.187 0.195-0.275 0.15-0.202 0.287-0.374 0.431-0.541l-0.011 0.013c0.108-0.129 0.217-0.257 0.329-0.385s0.224-0.253 0.333-0.38c0.046-0.047 0.097-0.091 0.15-0.13l0.003-0.002 0.035-0.040c0.104-0.089 0.196-0.183 0.317-0.28l0.016-0.013 0.089-0.083c0.32-0.304 0.692-0.541 1.063-0.777 0.037-0.025 0.076-0.047 0.115-0.068l0.148-0.064c0.013-0.005 0.027-0.013 0.039-0.016 0.051-0.023 0.127-0.052 0.205-0.079l0.026-0.008 0.156-0.048c0.187-0.053 0.372-0.099 0.555-0.156 0.296-0.098 0.637-0.154 0.99-0.154 0.018 0 0.037 0 0.055 0l-0.003-0zM5.473 12.049c-0.095 0.005-0.204-0.004-0.287 0.076-0.112 0.111-0.18 0.265-0.18 0.436 0 0.178 0.075 0.338 0.196 0.451l0 0c0.067 0.059 0.156 0.096 0.253 0.096s0.186-0.036 0.253-0.096l-0 0c0.195-0.169 0.244-0.419 0.128-0.713-0.071-0.183-0.167-0.249-0.363-0.249zM26.601 12.132c0.116-0.001 0.217 0.071 0.307 0.195 0.019 0.013 0.039 0.027 0.057 0.043 0.029 0.025 0.040 0.053 0.071 0.085 0.132 0.151 0.276 0.299 0.413 0.445 0.008 0.009 0.015 0.020 0.018 0.031l0 0.001c0.002 0.004 0.003 0.008 0.003 0.012 0 0.006-0.002 0.012-0.005 0.017l0-0c-0.005 0.008-0.012 0.014-0.020 0.019l-0 0-0.013 0.020-0.003 0.003c-0.003 0.003-0.003 0.007-0.005 0.013 0 0.003-0.004 0.005-0.004 0.005h0.004v0.011c-0.193 0.195-0.141 0.377 0.013 0.553 0.008 0.016 0.019 0.032 0.019 0.048 0.128 0.169 0.021 0.339 0 0.509-0.004 0.016-0.007 0.021-0.020 0.028l-0.009 0.004c-0.014-0.001-0.027-0.003-0.040-0.007l0.001 0-0.013-0.004c-0.205-0.057-0.317-0.092-0.428-0.129l0.092 0.026c-0.009 0-0.016-0.005-0.025-0.009-0.009 0-0.016-0.009-0.025-0.009-0.006 0-0.013 0.001-0.020 0.001-0.049 0-0.097-0.009-0.14-0.027l0.003 0.001c-0.043-0.022-0.095-0.035-0.149-0.035-0.094 0-0.179 0.039-0.24 0.101l-0 0c-0.001 0.010-0.003 0.019-0.007 0.027l0-0c0.053 0.080 0.144 0.099 0.224 0.124 0.327 0.107 0.604 0.307 0.907 0.464 0.069 0.040 0.083 0.123 0.076 0.203-0.004 0.044-0.016 0.089-0.027 0.137l-0.096 0.413c0 0.003 0 0.008 0 0.012 0 0.033-0.010 0.064-0.026 0.090l0-0.001c0.004 0.224-0.153 0.391-0.227 0.583-0.009 0.016-0.016 0.023-0.027 0.055-0.061 0.164-0.119 0.295-0.183 0.422l0.011-0.025c0 0.009-0.013 0.023-0.016 0.032v-0.007c0 0.003-0.003 0.003-0.003 0.007l-0.007 0.013c-0.004 0.003-0.004 0.005-0.007 0.009-0.016 0.060-0.027 0.124-0.077 0.176-0.065 0.22-0.15 0.411-0.256 0.588l0.006-0.012c-0.009 0.016-0.016 0.016-0.023 0.048-0.083 0.192-0.169 0.423-0.253 0.633-0.019 0.077-0.035 0.153-0.053 0.227l-0.011 0.020c0 0.003-0.003 0.003-0.003 0.007 0 0.007-0.007 0.013-0.009 0.019 0 0.006 0 0.013 0 0.020 0 0.085-0.018 0.166-0.050 0.24l0.002-0.004c-0.016 0.052-0.029 0.109-0.045 0.16-0.001 0.010-0.003 0.019-0.007 0.027l0-0.001-0.268 1.216c-0.073 0.333-0.103 0.672-0.157 1.005-0.051 0.313-0.064 0.636-0.141 0.944-0.053 0.224-0.181 0.432-0.284 0.64-0.096 0.195-0.157 0.403-0.276 0.592l-0.009 0.020c-0.006 0.011-0.011 0.025-0.016 0.038l-0 0.002c-0.003 0.008-0.003 0.017-0.007 0.024l-0.009 0.044c-0.002 0.011-0.003 0.024-0.003 0.037 0 0.004 0 0.007 0 0.011l-0-0.001c0 0.016 0 0.032-0.004 0.048v0.048c0 0.006 0 0.014 0 0.022 0 0.026-0.001 0.052-0.003 0.078l0-0.003c-0.027 0.343-0.071 0.685-0.055 1.031 0.003 0.064-0.016 0.1-0.077 0.121l-0.076 0.029c-0.065 0.025-0.115 0.046-0.163 0.070l0.013-0.006-0.080 0.032c-0.041 0.016-0.067 0.029-0.132 0.045v-0.007c0 0-0.009 0.007-0.015 0.007l-0.177 0.073-0.124 0.051c-0.080 0.055-0.174 0.097-0.276 0.122l-0.006 0.001-0.048 0.028c-0.424 0.177-0.632 0.271-0.839 0.368l0.207-0.087c-0.108 0.032-0.22 0.096-0.329 0.147-0.119 0.053-0.233 0.1-0.352 0.152-0.185 0.083-0.371 0.16-0.557 0.243-0.005 0.003-0.016 0-0.021 0-0.171 0.064-0.347 0.157-0.507 0.231-0.064 0.035-0.156 0.071-0.236 0.103-0.147 0.057-0.18 0.051-0.212-0.1-0.096-0.069-0.105-0.188-0.14-0.288-0.036-0.096-0.064-0.2-0.096-0.297-0.007-0.032-0.023-0.027-0.023-0.045-0.032-0.044-0.032-0.085-0.048-0.131l-0.004-0.023c-0.009-0.007-0.009-0.016-0.013-0.025l-0.008-0.023h0.005c-0.044-0.133-0.093-0.265-0.124-0.4-0.032-0.089-0.089-0.176-0.107-0.269-0.003-0.014-0.005-0.030-0.005-0.047s0.002-0.033 0.005-0.048l-0 0.002 0.011-0.044 0.005-0.023c0.027-0.063 0.068-0.124 0.1-0.185 0.023-0.051 0.041-0.103 0.064-0.153s0.041-0.089 0.064-0.153c0.051-0.096 0.083-0.208 0.147-0.32 0-0.027 0.020-0.052 0.027-0.077 0.057-0.195 0.12-0.393 0.199-0.583 0-0.007-0.007-0.016-0.004-0.023 0.023-0.115 0.131-0.156 0.195-0.224v0.004c0.032-0.011 0.049-0.029 0.065-0.029 0.019-0.032 0.037-0.045 0.057-0.064 0.048-0.058 0.096-0.123 0.139-0.191l0.005-0.008c0.060-0.089 0.115-0.183 0.183-0.272 0.021-0.028 0.040-0.073 0.076-0.073 0.007 0 0.009 0 0.016 0.003 0.052 0.013 0.036 0.073 0.029 0.112-0.013 0.066-0.020 0.141-0.020 0.218s0.007 0.152 0.022 0.225l-0.001-0.007c0.016 0.112 0.035 0.224 0.044 0.336l-0.003 0.051c0.029 0.075 0.046 0.162 0.048 0.253v0.001c0.027 0.109 0.048 0.213 0.080 0.323 0.096 0.2 0.167 0.4 0.231 0.605l0.007-0.003c0.108 0.16 0.217 0.347 0.327 0.521 0.032 0.041 0.067 0.087 0.099 0.119h0.007v0.027c0.032 0 0.048 0.069 0.096 0.005-0.009-0.032-0.016-0.032-0.027-0.032-0.015-0.030-0.029-0.066-0.039-0.102l-0.001-0.004c-0.007-0.021-0.017-0.047-0.020-0.067-0.006-0.018-0.012-0.041-0.016-0.064l-0-0.003c-0.003-0.009-0.003-0.023-0.007-0.032-0.003-0.024-0.008-0.046-0.014-0.067l0.001 0.003-0.015-0.1-0.017-0.099c-0.009-0.009-0.009-0.023-0.009-0.035-0.003-0.013-0.005-0.027-0.013-0.040-0.003-0.037-0.009-0.076-0.015-0.115l-0.029-0.229c-0.003-0.040-0.016-0.077-0.019-0.116-0.013-0.133-0.020-0.287-0.020-0.444 0-0.287 0.025-0.567 0.073-0.84l-0.004 0.029h0.019c0.039-0.192 0.077-0.413 0.115-0.621 0.011 0 0.020 0.004 0.032 0.004-0.013 0.348 0.023 0.693 0.1 1.033 0.003 0.007 0.003 0.016 0.003 0.023 0.048 0.131 0.1 0.263 0.141 0.397 0.009 0.028 0.019 0.057 0.029 0.083 0.019 0.048 0.044 0.090 0.074 0.126l-0.001-0.001c0.009 0.016 0.028 0.032 0.028 0.048 0.032 0.025 0.048 0.053 0.075 0.080 0.019 0.021 0.035 0.048 0.053 0.071 0.067 0.064 0.139 0.124 0.221 0.208-0.006-0.037-0.014-0.101-0.021-0.165l-0.002-0.021c-0.005-0.057-0.016-0.115-0.021-0.179 0 0-0.017-0.009-0.017-0.016-0.001-0.052-0.006-0.102-0.014-0.15l0.001 0.006-0.053-0.44c0-0.012 0-0.021 0.003-0.033 0-0.013 0.004-0.036 0.004-0.036-0.018-0.135-0.028-0.291-0.028-0.45 0-0.036 0.001-0.073 0.002-0.109l-0 0.005-0.003-0.023c-0.014-0.077-0.022-0.165-0.022-0.255 0-0.084 0.007-0.167 0.020-0.247l-0.001 0.009c0.007-0.044 0.003-0.093 0.007-0.137 0-0.009-0.004-0.016-0.004-0.027 0-0.211 0.009-0.425 0.073-0.629l0.004-0.023c0.016-0.096 0.032-0.211 0.048-0.317 0.016-0.105 0.032-0.213 0.044-0.32 0.007-0.044 0.020-0.067 0.045-0.067 0.013 0 0.032 0.007 0.053 0.023l0.068 0.040 0.1 0.065c0.032 0.023 0.064 0.044 0.093 0.073 0.003 0.003 0.005 0.007 0.012 0.009 0.007 0.006 0.014 0.011 0.022 0.016l0.001 0h0.007v-0.003c0.224 0.112 0.348 0.301 0.499 0.477 0.067 0.050 0.118 0.119 0.146 0.198l0.001 0.003c0.1 0.131 0.173 0.272 0.225 0.429 0.003 0.013 0.009 0.028 0.013 0.040 0.003 0.013 0.009 0.008 0.012 0.040 0.027 0.032 0.041 0.073 0.057 0.112l0.045 0.112 0.025 0.053c0.007 0.013 0.013 0.023 0.023 0.032 0.013 0.016 0.032 0.027 0.053 0.032l0.001 0c0.036-0.117-0.047-0.229-0.015-0.341h0.009c0-0.032-0.009-0.033-0.009-0.049-0.032-0.208-0.059-0.413-0.145-0.604-0.003-0.016-0.003-0.052-0.003-0.052-0.077-0.192-0.115-0.387-0.227-0.556-0.026-0.021-0.043-0.050-0.049-0.083l-0-0.001c-0.035-0.032-0.053-0.071-0.073-0.108-0.003-0.004-0.020-0.031-0.037-0.059l-0.014-0.025v0.023c0-0.003-0.007-0.007-0.007-0.009v-0.004c-0.097-0.139-0.193-0.26-0.296-0.374l0.003 0.003-0.013-0.013c-0.013-0.013-0.027-0.013-0.040-0.044-0.076-0.032-0.149-0.128-0.227-0.196-0.009-0.009-0.019-0.013-0.025-0.023-0.007-0.005 0-0.013-0.032-0.021-0.16-0.109-0.279-0.244-0.419-0.34-0.027-0.032-0.059-0.013-0.071-0.064 0.413-0.025 0.813 0.023 1.229 0.048v-0.016h0.003c0.205 0.032 0.397 0.071 0.583 0.151 0.007 0 0.013 0.009 0.023 0.009v0.007c0.128 0.029 0.249 0.087 0.371 0.144 0.027 0.013 0.059 0.053 0.087 0.016 0.023-0.032-0.013-0.061-0.032-0.087-0.048-0.067-0.093-0.133-0.144-0.201-0.009-0.016-0.025-0.032-0.025-0.048-0.096-0.093-0.169-0.199-0.253-0.292-0.028-0.027-0.054-0.055-0.079-0.084l-0.001-0.002c-0.105-0.067-0.197-0.142-0.278-0.226l-0-0c-0.016-0.011-0.032-0.029-0.048-0.029-0.040 0-0.085-0.045-0.128-0.075-0.040-0.028-0.085-0.053-0.128-0.083-0.016-0.009-0.032-0.016-0.048-0.027-0.195-0.073-0.391-0.14-0.587-0.213-0.005 0-0.017-0.004-0.017-0.007 0 0-0.017 0-0.023-0.003-0.037-0.001-0.071-0.016-0.096-0.040l0 0c-0.016-0.012-0.028-0.028-0.036-0.046l-0-0.001-0.007-0.016c-0.009-0.027-0.013-0.055-0.009-0.084 0.001-0.023 0.002-0.050 0.002-0.077 0-0.076-0.007-0.151-0.019-0.224l0.001 0.008c-0.003-0.029-0.009-0.055-0.016-0.084-0.010-0.046-0.016-0.073-0.023-0.1l0.004 0.020-0.020-0.083c-0.015-0.062-0.026-0.102-0.038-0.142l0.006 0.022c0 0-0.013-0.003-0.013-0.012-0.031-0.195-0.107-0.391-0.165-0.583-0.009-0.025-0.013-0.044-0.023-0.076-0.041-0.064-0.069-0.14-0.076-0.222l-0-0.002c0-0.027 0-0.048 0.003-0.075l0.003-0.035c0.007-0.036 0.013-0.073 0.027-0.109l0.044-0.144c0-0.007 0-0.023 0.004-0.023h-0.004c0.041-0.227 0.132-0.419 0.196-0.624 0-0.003 0.007-0.003 0.007-0.007l0.013-0.013c0.003-0.003 0.005-0.003 0.005-0.005 0.045-0.059 0.072-0.133 0.072-0.214 0-0.011-0.001-0.023-0.002-0.034l0 0.001c-0.005-0.051-0.018-0.097-0.037-0.14l0.001 0.003c-0.021-0.057-0.051-0.112-0.080-0.169-0.003-0.007-0.013-0.013-0.019-0.016-0.003-0.004-0.007-0.007-0.007-0.011-0.115-0.135-0.209-0.291-0.275-0.462l-0.004-0.011-0.021-0.051c-0.007-0.007-0.007-0.013-0.011-0.023l-0.003-0.009c-0.003-0.006-0.006-0.014-0.009-0.022l-0-0.001 0.003 0.003-0.003-0.007c0.004-0.022 0.010-0.041 0.017-0.060l-0.001 0.003c0.005-0.013 0.013-0.023 0.019-0.035 0.007-0.009 0.016-0.019 0.027-0.029l0.012-0.009c0.087-0.125 0.167-0.256 0.263-0.377 0.052-0.060 0.084-0.14 0.084-0.227 0-0.039-0.006-0.077-0.018-0.112l0.001 0.002c-0.053-0.183-0.048-0.187 0.135-0.253 0.032-0.013 0.42-0.16 0.576-0.208l0.1-0.039 0.025-0.009c-0.154 0.042 0.070-0.043 0.295-0.128l0.383-0.126c0.007-0.003 0.016-0.003 0.023-0.003 0.188-0.096 0.391-0.157 0.588-0.224 0.027-0.009 0.048-0.020 0.080-0.027 0.032-0.025 0.128-0.047 0.16-0.073 0.16-0.051 0.288-0.124 0.432-0.156 0.060-0.051 0.137-0.084 0.222-0.089l0.001-0zM19.359 12.936c0.11 0.001 0.215 0.019 0.314 0.050l-0.008-0.002 0.019 0.005c0.345 0.107 0.697 0.189 1.027 0.347 0.055 0.025 0.112 0.051 0.151 0.103 0.213 0.153 0.409 0.329 0.573 0.54 0.253 0.327 0.507 0.656 0.743 1.031-0.015-0.004-0.029-0.011-0.045-0.017v-0.001c-0.094-0.041-0.175-0.087-0.251-0.14l0.004 0.003c-0.246-0.153-0.541-0.311-0.846-0.453l-0.053-0.022c-0.127-0.057-0.275-0.103-0.429-0.132l-0.012-0.002c-0.241-0.047-0.519-0.074-0.803-0.074-0.144 0-0.287 0.007-0.428 0.021l0.018-0.001c-0.112 0.009-0.227 0-0.34 0-0.083 0-0.121-0.040-0.121-0.123 0-0.313 0.016-0.629-0.080-0.933-0.020-0.064 0.019-0.091 0.073-0.109 0.147-0.055 0.317-0.088 0.494-0.089h0.001zM15.692 13.967c0.564-0.020 1.083 0.14 1.556 0.432 0.176 0.107 0.337 0.235 0.484 0.379l0.019 0.017c0.163 0.164 0.307 0.347 0.428 0.547 0.107 0.173 0.077 0.363 0.041 0.552-0.096 0.541-0.421 0.941-0.789 1.316-0.353 0.359-0.795 0.592-1.204 0.864-0.58 0.387-1.243 0.537-1.917 0.637-0.843 0.124-1.697 0.137-2.541 0.249-0.307 0.039-0.619 0.064-0.925 0.119-0.372 0.063-0.689 0.262-0.904 0.543l-0.003 0.003c-0.083 0.112-0.133 0.249-0.213 0.404-0.022-0.066-0.035-0.141-0.035-0.22 0-0.111 0.026-0.216 0.072-0.31l-0.002 0.004c0.149-0.317 0.396-0.567 0.702-0.716l0.009-0.004c0.553-0.292 1.172-0.349 1.764-0.5 0.48-0.121 0.973-0.192 1.449-0.323 0.728-0.198 1.359-0.448 1.955-0.759l-0.053 0.025c0.32-0.167 0.653-0.336 0.875-0.647 0.111-0.156 0.177-0.35 0.177-0.56 0-0.065-0.006-0.128-0.018-0.189l0.001 0.006c-0.007-0.045-0.020-0.067-0.036-0.071-0.016-0.003-0.039 0.009-0.067 0.036-0.24 0.213-0.489 0.419-0.761 0.599-0.427 0.275-0.897 0.44-1.384 0.56-0.773 0.192-1.555 0.355-2.352 0.413-0.603 0.038-1.166 0.154-1.697 0.336l0.045-0.014c-0.453 0.157-0.916 0.313-1.28 0.653-0.045 0.040-0.1 0.076-0.173 0.131l0.009-0.051-0.035 0.025v-0.007c0.012-0.008 0.021-0.017 0.032-0.023 0.023-0.101 0.061-0.19 0.114-0.27l-0.002 0.003 0.861-1.363c0.016-0.027 0.034-0.050 0.055-0.071l-0 0c0.445-0.439 0.871-0.903 1.364-1.287 0.819-0.64 1.712-1.14 2.74-1.36 0.249-0.055 0.503-0.093 0.761-0.093 0.293-0.003 0.589-0.013 0.88-0.021zM5.516 13.996c0.017 0 0.039 0.003 0.064 0.012 0.039 0.013 0.083 0.009 0.125 0.013 0.169 0.037 0.345 0.040 0.515 0.083 0.016 0 0.023 0.003 0.045 0.013 0.194 0.010 0.377 0.037 0.553 0.080l-0.020-0.004c0.193 0.027 0.385 0.048 0.577 0.080 0.044 0 0.083-0.003 0.124 0.023 0.007 0 0.016-0.003 0.016 0 0.224 0.027 0.4 0.041 0.593 0.073h-0.020v0.007c0.128 0.016 0.212 0.032 0.311 0.048 0.103 0.016 0.208 0.041 0.307 0.041h0.004c0.009 0 0.016 0.004 0.023 0.004l0.028 0.007c0.064 0.003 0.089 0.037 0.1 0.093 0.051 0.303 0.093 0.607 0.156 0.911 0 0.023 0.013 0.043 0.011 0.061l0.025 0.147c0.028 0.147 0.053 0.295 0.083 0.443 0 0.013 0 0.041 0.004 0.048v0.013c0.032 0.191 0.067 0.364 0.099 0.547v0.061c-0.16 0.175-0.294 0.378-0.394 0.599l-0.006 0.014c-0.041 0.1-0.093 0.203-0.133 0.301l-0.008 0.004c-0.032 0.101-0.083 0.2-0.131 0.297-0.004 0-0.007 0.007-0.009 0.013-0.007 0.012-0.011 0.032-0.016 0.040v0.004c-0.077 0.214-0.163 0.396-0.264 0.569l0.008-0.015c-0.011 0.027-0.032 0.052-0.032 0.075-0.032 0.12-0.061 0.243-0.123 0.355-0.018 0.113-0.053 0.214-0.101 0.307l0.003-0.006c-0.045 0.201-0.105 0.376-0.18 0.543l0.007-0.018c-0.009 0.025-0.025 0.048-0.025 0.073l-0.003 0.009c-0.004 0.009-0.007 0.027-0.013 0.039-0.003 0.015-0.007 0.028-0.014 0.041l0-0.001-0.003 0.013-0.051 0.989 0.028 0.011 0.125-0.247c0.041-0.080 0.073-0.164 0.119-0.247 0.025-0.057 0.067-0.115 0.067-0.173 0.096-0.16 0.183-0.32 0.281-0.467 0.011-0.016 0.029-0.027 0.040-0.057 0.083-0.129 0.179-0.299 0.277-0.445 0.035-0.057 0.072-0.107 0.104-0.164h-0.001c0.023-0.064 0.057-0.073 0.087-0.101 0.028-0.029 0.044-0.059 0.108-0.087 0 0.025 0.007 0.048 0.004 0.071l-0.004 0.013c0 0.012-0.005 0.024-0.009 0.037l-0.003 0.013c-0.004 0.009-0.004 0.016-0.007 0.025-0.002 0.006-0.003 0.013-0.003 0.020 0 0.002 0 0.004 0 0.007l-0-0c0 0.008-0.007 0.015-0.004 0.024l-0.004 0.020h0.004c-0.029 0.192-0.028 0.409-0.032 0.611 0 0.009-0.007 0.027-0.007 0.032l0.007-0.003c0.027 0.192 0.057 0.384 0.083 0.576h-0.003c0.004 0 0.007 0.041 0.007 0.057 0.032 0.192 0.073 0.387 0.096 0.583l0.003 0.023c0.004 0.013 0.007 0.023 0.007 0.035 0.032 0.155 0.147 0.26 0.217 0.395 0.052 0.073 0.107 0.16 0.155 0.224h0.003v0.003c0.16 0.141 0.293 0.285 0.473 0.413 0.027 0 0.052 0.032 0.077 0.032h-0.003v0.016c0.064 0.007 0.117 0.057 0.185 0.039 0.013-0.004 0.025-0.009 0.035-0.016l-0 0c0.009-0.007 0.023-0.013 0.027-0.023 0.015-0.029-0.013-0.045-0.036-0.055-0.263-0.167-0.221-0.44-0.253-0.695h0.011v-0.004c0.064 0.061 0.108 0.121 0.163 0.187 0.009 0.014 0.019 0.025 0.032 0.034l0 0 0.067 0.073c0.045 0.048 0.093 0.093 0.144 0.135 0.052 0.041 0.107 0.087 0.167 0.119 0.027 0.009 0.052 0.032 0.075 0.032h-0.007c0.192 0.093 0.359 0.183 0.533 0.275 0.041 0.005 0.078 0.023 0.107 0.048l-0-0c0.064 0.192 0.14 0.384 0.121 0.608 0.007 0 0.013 0.023 0.016 0.040 0.001 0.004 0.001 0.009 0.001 0.014 0 0.009-0.001 0.018-0.004 0.026l0-0.001c0.023 0.187 0.023 0.375-0.004 0.56 0.003 0.007 0.005 0.015 0.005 0.023 0 0.011-0.003 0.020-0.008 0.029l0-0c-0.004 0.007 0 0.009-0.003 0.016h0.003c0 0.187-0.003 0.371-0.051 0.553-0.004 0.183-0.061 0.36-0.080 0.541 0 0.007-0.004 0.013-0.007 0.023-0.011 0.035-0.027 0.076 0.051 0.067v-0.003c0.173-0.18 0.347-0.356 0.507-0.557v0.013c0.003-0.064 0.040-0.097 0.076-0.128 0.067-0.065 0.133-0.173 0.201-0.267 0.067-0.093 0.135-0.183 0.203-0.275l0.003-0.016c0.009-0.032 0.023-0.052 0.039-0.061 0.007-0.003 0.013-0.007 0.019-0.007h0.021c0.025 0.005 0.048 0.014 0.067 0.027l-0.001-0c0.040 0.022 0.074 0.043 0.106 0.066l-0.003-0.002c0.192 0.105 0.409 0.176 0.553 0.359 0.016 0.016 0.035 0.019 0.051 0.051 0.067 0.032 0.128 0.107 0.177 0.176l0.051 0.048c0.003 0.003 0.007 0.003 0.009 0.007 0.253 0.213 0.272 0.329 0.089 0.613-0.005 0.011-0.016 0.020-0.021 0.020-0.008 0.028-0.019 0.052-0.033 0.075l0.001-0.001c-0.008 0.018-0.017 0.034-0.027 0.049l0.001-0.001-0.013 0.023c-0.047 0.077-0.099 0.157-0.117 0.247-0.013 0.046-0.020 0.099-0.020 0.153 0 0.025 0.002 0.049 0.005 0.074l-0-0.003c0.035 0.125 0.067 0.253 0.093 0.381 0.016 0.076 0.032 0.153 0.037 0.233 0.027 0.189-0.064 0.304-0.224 0.384v-0.003c-0.032 0.003-0.035 0.023-0.051 0.032-0.008 0.007-0.016 0.014-0.026 0.018l-0.001 0c-0.015 0.012-0.031 0.023-0.049 0.033l-0.002 0.001c-0.045 0.027-0.081 0.067-0.102 0.114l-0.001 0.002c0 0.009 0 0.007-0.003 0.013-0.003 0.005 0 0.019-0.003 0.019h0.009v0.019c-0.032 0.093-0.048 0.16-0.064 0.208-0.004 0.013-0.009 0.023-0.013 0.032-0.003 0.011-0.009 0.016-0.013 0.023-0.003 0.007-0.009 0.013-0.012 0.016-0.008 0.008-0.019 0.014-0.032 0.016l-0 0h-0.009c-0.024-0.002-0.047-0.008-0.068-0.017l0.001 0.001c-0.045-0.016-0.104-0.039-0.184-0.064-0.005-0.003-0.012-0.003-0.015-0.007-0.005-0.003-0.010-0.005-0.016-0.005h-0l-0.036-0.016h-0.013v-0.013h-0.003c-0.096-0.032-0.187-0.051-0.272-0.087-0.051-0.019-0.107-0.035-0.16-0.057-0.067-0.016-0.133-0.048-0.201-0.048-0.187-0.064-0.375-0.096-0.555-0.16-0.015 0-0.025 0.003-0.057 0v0.003c-0.128-0.025-0.231-0.057-0.352-0.080-0.119-0.019-0.163-0.080-0.151-0.197 0.007-0.049 0.004-0.107 0.004-0.155 0-0.016-0.004-0.023-0.004-0.053-0.019-0.033-0.048-0.071-0.073-0.113-0.007-0.010-0.014-0.021-0.018-0.034l-0-0.001c-0.016-0.016-0.048-0.032-0.048-0.051-0.032-0.007-0.020-0.013-0.029-0.020-0.099-0.093-0.071-0.217-0.057-0.336l0.003-0.039 0.011-0.073c0.003-0.013 0.003-0.027 0.005-0.035 0.052-0.2 0.064-0.387-0.151-0.507-0.025-0.016-0.040-0.032-0.073-0.053v0.005c-0.087-0.071-0.185-0.144-0.286-0.211l-0.014-0.009c-0.016-0.032-0.020-0.039-0.052-0.052-0.158-0.087-0.293-0.188-0.414-0.304l0 0-0.099-0.053h0.013c-0.020-0.033-0.043-0.029-0.059-0.045-0.025-0.019-0.048-0.032-0.080-0.052-0.16-0.137-0.377-0.265-0.551-0.421-0.060-0.020-0.099-0.067-0.147-0.107v-0.005c-0.169-0.12-0.336-0.235-0.503-0.363h0.004c-0.020 0-0.020-0.016-0.052-0.032-0.096-0.048-0.192-0.128-0.275-0.192-0.027-0.032-0.052-0.032-0.077-0.032-0.077-0.064-0.144-0.093-0.208-0.151-0.027-0.016-0.048-0.035-0.080-0.053-0.2-0.115-0.373-0.243-0.53-0.387l0.002 0.002-0.016-0.016-0.029-0.032c-0.024-0.030-0.042-0.066-0.050-0.106l-0-0.002v0.025c-0.116-0.125-0.192-0.269-0.288-0.4l-0.009-0.020c-0.004-0.005-0.006-0.012-0.007-0.019v-0c-0.003-0.010-0.004-0.022-0.004-0.034 0-0 0-0.001 0-0.001v0c0.005-0.027 0.016-0.051 0.032-0.071l-0 0c0-0.007 0.004-0.016 0.004-0.027 0.032-0.204 0.144-0.389 0.224-0.581v-0.049c0 0 0-0.029-0.004-0.043l-0.005-0.019-0.007-0.007c-0.006-0.006-0.014-0.011-0.022-0.013l-0-0h-0.009c-0.029 0.003-0.056 0.014-0.078 0.030l0-0c-0.028 0.017-0.052 0.036-0.073 0.057l0-0-0.027 0.020c-0.007 0.008-0.013 0.016-0.018 0.025l-0 0.001-0.009 0.013c0 0.003-0.003 0-0.003 0 0 0.003-0.004 0-0.004 0v0.003c-0.064 0.073-0.16 0.137-0.243 0.205-0.016 0.016-0.045 0.035-0.045 0.051v-0.003h-0.009c-0.027 0.032-0.060 0.032-0.096 0.016l-0.413-0.183c-0.032-0.016-0.048-0.051-0.053-0.083-0.003-0.008-0.006-0.022-0.010-0.037l-0.001-0.006-0.009-0.035v0.007c-0.048-0.224 0.029-0.391 0.071-0.583 0.003-0.016 0.007-0.032 0.007-0.048 0.032-0.187 0.044-0.384 0.099-0.564v-0.083c-0.028-0.205-0.029-0.407-0.044-0.612l0.003-0.105c-0.019-0.381-0.044-0.761-0.057-1.143-0.029-0.797-0.093-1.591-0.071-2.387 0-0.007 0-0.015 0-0.022 0-0.145-0.037-0.282-0.101-0.402l0.002 0.005c-0.047-0.087-0.091-0.159-0.138-0.228l0.006 0.009c-0.048-0.060-0.077-0.136-0.077-0.22 0-0.034 0.005-0.067 0.014-0.098l-0.001 0.002c0.048-0.187 0.084-0.379 0.119-0.567 0.012-0.067 0.029-0.112 0.079-0.113zM5.295 14.503l0.007 0.020c0.007 0.043-0.009 0.087-0.028 0.151-0.007-0.017-0.011-0.037-0.011-0.057s0.004-0.040 0.011-0.058l-0 0.001c0.007-0.022 0.014-0.041 0.022-0.058l-0.001 0.002zM19.581 14.507c0.173-0.003 0.343 0.007 0.508 0.032 0.292 0.023 0.56 0.077 0.733 0.219 0.125 0.053 0.251 0.12 0.372 0.192 0.293 0.176 0.588 0.359 0.883 0.537 0.063 0.038 0.115 0.086 0.156 0.143l0.001 0.002 0.297 0.42c0.016 0.021 0.041 0.048 0.020 0.076-0.007 0.009-0.016 0.015-0.026 0.019l-0 0c-0.024 0.005-0.045-0.003-0.067-0.015-0.131-0.075-0.267-0.144-0.397-0.219-0.454-0.256-0.98-0.466-1.535-0.603l-0.044-0.009c-0.143-0.041-0.277-0.081-0.431-0.101l-0.203-0.045c-0.005 0.004 0.007 0.016 0.023 0.032 0.007 0.007 0.013 0.013 0.016 0.020 0.015 0.018 0.033 0.033 0.054 0.044l0.001 0 0.027 0.013c0.303 0.153 0.816 0.249 1.189 0.423l0.077 0.039c0.208 0.108 0.397 0.243 0.587 0.387l0.357 0.276c0.539 0.391 0.867 0.919 1.027 1.559 0.004 0.019 0.011 0.039 0.013 0.057l0.013 0.019c0.027 0.040 0.032 0.087 0.023 0.128 0.003 0.011 0.003 0.020 0.007 0.029-0.007 0.093-0.080 0.053-0.123 0.053-0.296-0.017-0.574-0.069-0.837-0.153l0.024 0.007h-0.008c-0.068-0.021-0.157-0.053-0.22-0.072-0.281-0.1-0.547-0.217-0.82-0.317-0.336-0.119-0.599-0.348-0.883-0.551-0.498-0.343-0.933-0.701-1.338-1.091l0.003 0.003c-0.044-0.039-0.080-0.086-0.105-0.139l-0.001-0.003c-0.015-0.031-0.043-0.099-0.070-0.167l-0.013-0.037-0.048-0.125c-0.013-0.037-0.024-0.063-0.036-0.089l0.004 0.009-0.003-0.007c-0.004-0.003-0.004-0.009-0.004-0.013v-0.003l-0.003-0.013c-0.007-0.021-0.011-0.045-0.011-0.069 0-0.034 0.008-0.066 0.021-0.095l-0.001 0.001c0.003-0.007 0.003-0.013 0.007-0.019l0.007-0.023 0.005-0.019c0.004-0.007 0.004-0.017 0.007-0.023l0.004-0.020 0.003-0.023 0.004-0.019 0.003-0.023 0.003-0.019 0.004-0.023 0.003-0.019 0.004-0.023c0-0.007 0-0.013 0.003-0.020 0-0.005 0-0.016 0.004-0.021v-0.355c-0.004-0.109 0.035-0.152 0.144-0.148 0.107 0.003 0.216-0.001 0.324-0.007l0.1 0.005c0.053-0.003 0.108-0.007 0.163-0.007zM19.96 15.216c0.011 0.005 0.023 0.008 0.036 0.011l0.001 0h0.003c-0.016 0.011-0.037 0.007-0.044 0.027-0.005-0.027-0.003-0.036 0.004-0.037zM21.133 15.672c0.004 0.002 0.009 0.005 0.014 0.007l0.002 0.001 0.004 0.001zM18.589 15.908l0.003 0.004c0.009 0.004 0.019 0.013 0.029 0.032 0.101 0.205 0.243 0.375 0.4 0.532 0.165 0.16 0.345 0.307 0.519 0.464 0.357 0.323 0.723 0.64 1.091 0.951 0.237 0.201 0.523 0.304 0.827 0.384 0.691 0.176 1.399 0.243 2.1 0.339 0.185 0.027 0.352 0.087 0.499 0.208h-0.009c0.013 0.011 0.023 0.016 0.032 0.027-0.395-0.057-0.787-0.052-1.181-0.061-0.432-0.009-0.855 0.041-1.28 0.089-0.037 0.004-0.080 0.006-0.124 0.006-0.115 0-0.227-0.015-0.333-0.043l0.009 0.002c-0.411-0.093-0.797-0.26-1.185-0.423-0.439-0.187-0.803-0.471-1.149-0.784-0.025-0.027-0.051-0.048-0.076-0.073-0.11-0.107-0.202-0.233-0.27-0.372l-0.003-0.008-0.003-0.008c-0.12-0.283-0.113-0.597-0.021-0.944 0.025-0.093 0.053-0.187 0.083-0.279 0.009-0.031 0.027-0.047 0.045-0.043zM18.259 17.481c0.087 0.311 0.311 0.528 0.5 0.764l0.039 0.052 0.037 0.051c0.042 0.047 0.088 0.088 0.139 0.124l0.003 0.002c0.023 0.016 0.041 0.028 0.061 0.044l0.028 0.023c0.2 0.159 0.434 0.333 0.673 0.499l0.044 0.029 0.439 0.305c0.199 0.137 0.407 0.253 0.624 0.355 0.053 0.027 0.109 0.048 0.164 0.073 0.165 0.071 0.333 0.132 0.505 0.187l0.028 0.009c0.107 0.028 0.221 0.037 0.333 0.051 0.041 0.003 0.084 0.009 0.121 0.013 0.030 0.007 0.057 0.018 0.081 0.033l-0.001-0.001c0.034 0.020 0.064 0.042 0.091 0.067l-0-0c0.099 0.089 0.192 0.217 0.197 0.295 0 0.013 0 0.023-0.003 0.032-0.003 0.007-0.003 0.009-0.007 0.013-0.013 0.021-0.032 0.040-0.044 0.064-0.040 0.067-0.080 0.133-0.113 0.204l-0.015 0.036c-0.023 0.050-0.037 0.109-0.037 0.171 0 0.064 0.015 0.125 0.041 0.179l-0.001-0.003c0.153-0.153 0.291-0.316 0.391-0.503 0.043-0.076 0.081-0.165 0.112-0.257l0.003-0.011c0.013-0.036 0.004-0.077 0.013-0.112 0.013-0.039-0.032-0.093-0.013-0.12 0-0.001 0.004-0.001 0.007-0.005 0.005-0.004 0.012-0.007 0.018-0.009l0-0c0.013-0.003 0.027-0.007 0.036-0.007 0.025-0.003 0.048-0.007 0.073-0.007 0.064 0 0.125 0.011 0.187 0.029 0.037 0.013 0.025 0.060 0.021 0.096v0.007c-0.007 0.115-0.053 0.22-0.096 0.323-0.011 0.030-0.022 0.054-0.034 0.078l0.002-0.004c-0.070 0.191-0.156 0.356-0.261 0.508l0.005-0.008c-0.157 0.208-0.339 0.403-0.633 0.413h-0.084c-0.051 0-0.103 0.013-0.153 0.016-0.002-0-0.005-0-0.008-0-0.049 0-0.091 0.032-0.107 0.075l-0 0.001c-0.023 0.052-0.052 0.096-0.077 0.147l-0.009 0.023c-0.126 0.301-0.311 0.555-0.542 0.758l-0.002 0.002c-0.107 0.095-0.219 0.185-0.333 0.271-0.18 0.119-0.386 0.221-0.606 0.293l-0.018 0.005-0.048 0.019-0.045 0.020-0.025 0.009c-0.013 0.003-0.029 0.009-0.041 0.013-0.048 0.019-0.087 0.047-0.061 0.12 0.027 0.080 0.084 0.103 0.157 0.107 0.016 0 0.035 0 0.053-0.004 0.074-0.007 0.142-0.022 0.206-0.046l-0.006 0.002c0.064-0.023 0.128-0.052 0.195-0.080 0.045-0.020 0.089-0.039 0.137-0.055-0.039 0.163-0.060 0.313-0.112 0.455l-0.028 0.071c-0.062 0.141-0.102 0.225-0.144 0.309l0.024-0.053c-0.024 0.057-0.053 0.112-0.083 0.167-0.153 0.307-0.327 0.6-0.54 0.873-0.136 0.174-0.293 0.324-0.468 0.449l-0.007 0.005c-0.030 0.023-0.075 0.055-0.12 0.086l-0.018 0.011c-0.144 0.095-0.31 0.186-0.483 0.265l-0.023 0.009-0.085 0.040-0.071 0.027-0.057 0.024c-0.053 0.021-0.109 0.040-0.164 0.060-0.049 0.019-0.123 0.043-0.199 0.064l-0.025 0.006c-0.204 0.065-0.46 0.127-0.721 0.173l-0.039 0.006c-0.011 0-0.017 0.004-0.027 0.004-0.073 0.013-0.144 0.023-0.217 0.035-0.077 0.011-0.155 0.023-0.235 0.032-0.091 0.010-0.197 0.016-0.305 0.016-0.177 0-0.351-0.016-0.52-0.047l0.018 0.003-0.037-0.009c-0.074-0.021-0.138-0.048-0.198-0.082l0.005 0.002c-0.083-0.045-0.16-0.093-0.243-0.135-0.071-0.036-0.128-0.067-0.183-0.102l0.010 0.006c-0.083-0.049-0.153-0.096-0.22-0.146l0.007 0.005c-0.137-0.091-0.244-0.218-0.309-0.367l-0.002-0.005c-0.042-0.104-0.083-0.189-0.129-0.271l0.006 0.012c-0.013-0.027-0.028-0.048-0.040-0.071-0.117-0.184-0.238-0.344-0.372-0.493l0.003 0.003c-0.057-0.070-0.112-0.131-0.168-0.191l0.002 0.002c-0.028-0.032-0.053-0.064-0.083-0.093-0.118-0.132-0.231-0.252-0.347-0.368l-0.089-0.089c-0.146-0.144-0.305-0.276-0.473-0.395l-0.012-0.008c-0.116-0.085-0.248-0.17-0.385-0.246l-0.019-0.010-0.080-0.052c-0.379-0.241-0.67-0.589-0.835-1.002l-0.005-0.014c-0.057-0.124-0.143-0.163-0.293-0.165-0.004 0-0.009 0-0.014 0-0.116 0-0.227-0.024-0.327-0.066l0.005 0.002-0.003-0.003c-0.068-0.029-0.126-0.066-0.176-0.112l0 0-0.035-0.021c-0.029-0.035-0.051-0.077-0.077-0.12-0.175-0.25-0.346-0.537-0.496-0.837l-0.018-0.041c0 0.004 0.003 0.007 0.004 0.011l-0.008-0.017 0.004 0.007c-0.041-0.123-0.074-0.209-0.11-0.295l0.012 0.033-0.048-0.115c-0.014-0.044-0.022-0.095-0.022-0.148 0-0.020 0.001-0.040 0.004-0.060l-0 0.002 0.009-0.041c0.003-0.007 0.003-0.013 0.007-0.020 0.004-0.015 0.010-0.028 0.017-0.040l-0.001 0.001c0.044-0.075 0.101-0.137 0.168-0.187l0.002-0.001c0.026-0.022 0.055-0.043 0.085-0.064l0.004-0.003c0.061-0.045 0.125-0.084 0.187-0.125 0.095-0.059 0.191-0.112 0.291-0.164 0.361-0.187 0.747-0.317 1.143-0.419 0.023-0.007 0.044-0.011 0.071-0.016 0.044-0.011 0.093-0.013 0.14-0.020 0.048-0.003 0.096-0.007 0.141-0.007l0.141-0.003c0.021 0 0.048 0 0.069-0.003 0.471-0.021 0.886-0.051 1.298-0.092l-0.098 0.008c0.24-0.023 0.48-0.048 0.72-0.073 0.557-0.064 1.066-0.217 1.53-0.444l-0.028 0.012c0.048-0.027 0.099-0.048 0.147-0.073l0.084-0.045c0.192-0.103 0.384-0.201 0.569-0.311 0.019-0.027 0.041-0.035 0.073-0.044l0.013-0.004v0.016c-0.004 0.018-0.013 0.034-0.027 0.045l-0 0-0.028 0.019c-0.187 0.237-0.441 0.4-0.663 0.6-0.025 0.019-0.046 0.038-0.066 0.060l-0 0c-0.071 0.057-0.141 0.119-0.221 0.183 0.279 0 0.547-0.032 0.797-0.107 0.476-0.139 0.873-0.421 1.155-0.794l0.004-0.006c0.137-0.183 0.263-0.396 0.371-0.643zM13.905 17.503c-0.132 0.066-0.286 0.117-0.448 0.144l-0.010 0.001c-0.747 0.185-1.507 0.293-2.263 0.435-0.563 0.105-1.060 0.333-1.482 0.655l0.008-0.006c-0.025 0.020-0.053 0.043-0.083 0.057-0.035 0.023-0.052 0.017-0.057-0.013-0.004-0.005-0.004-0.015-0.004-0.024-0.013-0.192 0.045-0.285 0.221-0.365 0.24-0.109 0.48-0.224 0.72-0.336 0.313-0.144 0.649-0.189 0.989-0.224 0.528-0.057 1.056-0.125 1.587-0.187l0.699-0.115zM17.087 19.163l-0.035 0.001c-0.051 0.013-0.048 0.067-0.048 0.107 0.004 0.133 0.009 0.268 0.027 0.403 0.015 0.147 0.063 0.292 0.149 0.409 0.161 0.224 0.398 0.384 0.673 0.444l0.007 0.001c0.207 0.048 0.207 0.051 0.227 0.267 0.009 0.092 0.021 0.175 0.108 0.227 0.151 0.089 0.301 0.183 0.484 0.195 0.112 0.009 0.227 0.016 0.323 0.091 0.12 0.081 0.268 0.13 0.426 0.131h0c0.112 0.009 0.227 0.013 0.339 0.032 0.089 0.016 0.151-0.013 0.213-0.067 0.319-0.263 0.632-0.529 0.929-0.823-0.035-0.040-0.087-0.052-0.157-0.016-0.233 0.114-0.415 0.213-0.592 0.318l0.038-0.021c-0.043 0.030-0.093 0.052-0.148 0.064l-0.003 0c-0.287 0.059-0.62 0.094-0.959 0.099l-0.003 0c-0.185-0.009-0.354-0.073-0.493-0.175l0.003 0.002c-0.089-0.057-0.179-0.14-0.195-0.268 0.048-0.016 0.093 0.003 0.137 0.009 0.169 0.023 0.336 0.084 0.509 0.073 0.416-0.025 0.807-0.151 1.197-0.284l0.377-0.137c0.057-0.020 0.073-0.040 0.023-0.093-0.061-0.067-0.128-0.053-0.196-0.045-0.321 0.049-0.692 0.077-1.069 0.077-0.504 0-0.996-0.050-1.472-0.144l0.048 0.008c-0.24-0.045-0.496-0.061-0.589-0.36-0.025-0.080-0.051-0.16-0.067-0.243-0.022-0.089-0.066-0.166-0.125-0.227l0 0c-0.020-0.029-0.051-0.048-0.086-0.053l-0.001-0zM16.323 19.249c-0.064 0-0.107 0.067-0.137 0.124-0.080 0.137-0.183 0.261-0.276 0.389-0.144 0.196-0.347 0.237-0.557 0.205-0.64-0.105-1.428-0.191-2.226-0.237l-0.065-0.003c-0.040-0.003-0.077-0.013-0.109 0.013-0.244 0.179-0.489 0.352-0.644 0.624 0.009 0.003 0.020 0.009 0.027 0.009 0.025-0.003 0.047-0.009 0.073-0.013 0.396-0.099 0.809-0.131 1.229-0.096 0.531 0.045 1.056 0.151 1.584 0.224 0.071 0.011 0.141 0.013 0.208 0.048 0.16 0.084 0.24 0.231 0.301 0.387 0.093 0.24 0.12 0.497 0.137 0.753 0.013 0.201-0.029 0.371-0.192 0.507-0.124 0.092-0.217 0.218-0.265 0.365l-0.002 0.005c0.205 0 0.381 0.035 0.516 0.208 0.084 0.108 0.192 0.199 0.297 0.291 0.090 0.086 0.213 0.138 0.347 0.138 0.183 0 0.344-0.098 0.433-0.244l0.001-0.002c0.077-0.125 0.151-0.253 0.233-0.375 0.116-0.169 0.227-0.352 0.433-0.427 0.124-0.040 0.069-0.101 0.028-0.153-0.083-0.105-0.237-0.108-0.373-0.025-0.213 0.128-0.356 0.317-0.509 0.5-0.045 0.053-0.091 0.108-0.151 0.153-0.077 0.053-0.144 0.057-0.212-0.013-0.076-0.076-0.153-0.156-0.236-0.224-0.071-0.057-0.084-0.109-0.043-0.192 0.072-0.132 0.114-0.289 0.114-0.456 0-0.033-0.002-0.066-0.005-0.098l0 0.004c-0.039-0.416-0.107-0.827-0.4-1.156-0.032-0.035-0.032-0.053 0.013-0.085 0.305-0.21 0.511-0.545 0.544-0.93l0-0.005c0.009-0.1-0.009-0.18-0.089-0.208-0.009-0.003-0.019-0.005-0.029-0.005h-0zM22.271 19.296c0.273 0 0.516 0.107 0.755 0.243-0.007 0-0.009 0-0.016 0.004l0.041 0.023c-0.361 0.053-0.72 0.080-1.081 0.040-0.112-0.012-0.224-0.035-0.34-0.031-0.227 0.007-0.409-0.112-0.601-0.215h0.023c-0.016-0.009-0.032-0.016-0.048-0.027 0.032 0.004 0.067 0.004 0.099 0.007 0.039 0.004 0.073 0.013 0.112 0.020 0.317 0.067 0.624-0.027 0.939-0.057 0.036-0.004 0.077-0.007 0.119-0.007h0zM10.684 20.248c-0.008 0-0.015 0.002-0.022 0.006l0-0c-0.067 0.025-0.131 0.064-0.149 0.153-0.064 0.297 0.073 0.583 0.371 0.736 0.133 0.071 0.237 0.169 0.301 0.307 0.021 0.049 0.025 0.141 0.096 0.125 0.069-0.016 0.013-0.103 0.028-0.137 0.011-0.18-0.025-0.333-0.169-0.427-0.107-0.067-0.147-0.16-0.187-0.268-0.051-0.141-0.063-0.297-0.179-0.409-0.027-0.028-0.048-0.085-0.091-0.085zM13.141 20.72c-0.147 0.036-0.315 0.071-0.471 0.141-0.109 0.051-0.116 0.112-0.020 0.185 0.057 0.045 0.116 0.067 0.187 0.041 0.068-0.028 0.147-0.044 0.23-0.044 0.167 0 0.318 0.066 0.429 0.172l-0-0c0.118 0.103 0.274 0.165 0.444 0.165 0.091 0 0.179-0.018 0.258-0.051l-0.005 0.002c0.141-0.048 0.263-0.128 0.391-0.2 0.043-0.026 0.094-0.045 0.148-0.053l0.002-0c0.192-0.019 0.384-0.044 0.573-0.071 0.051-0.007 0.131 0.013 0.144-0.048 0.013-0.064-0.061-0.103-0.107-0.144-0.021-0.023-0.060-0.025-0.092-0.035-0.098-0.032-0.211-0.050-0.327-0.050-0.091 0-0.179 0.011-0.263 0.032l0.008-0.002c-0.178 0.040-0.382 0.064-0.592 0.064s-0.414-0.023-0.611-0.067l0.019 0.003c-0.107-0.025-0.217-0.025-0.345-0.041zM22.345 21.905c0.008 0 0.015 0.004 0.020 0.009 0.006 0.005 0.012 0.011 0.016 0.018l0 0 0.011 0.007c0.057 0.045-0.009 0.147-0.027 0.224-0.040 0.224-0.076 0.445-0.115 0.669-0.009 0.064-0.016 0.131-0.064 0.22l-0.009-0.057-0.016 0.032c-0.050-0.274-0.086-0.598-0.1-0.928l-0-0.014c-0.003-0.071 0.045-0.087 0.091-0.103 0.064-0.021 0.143-0.088 0.193-0.079zM18.053 23.108c-0.012 0.003-0.022 0.008-0.031 0.014l0-0c-0.253 0.14-0.539 0.147-0.817 0.183-0.117 0.016-0.265-0.020-0.352 0.067-0.211 0.208-0.391 0.121-0.576-0.027-0.009-0.005-0.019-0.015-0.032-0.019-0.275-0.147-0.551-0.2-0.832-0.007-0.076 0.061-0.174 0.097-0.28 0.097-0.027 0-0.053-0.002-0.079-0.007l0.003 0c-0.099-0.027-0.175-0.020-0.253 0.051-0.037 0.036-0.088 0.064-0.133 0.093-0.125 0.083-0.125 0.096-0.009 0.188 0.027 0.023 0.057 0.032 0.089 0.043 0.267 0.080 0.516 0.021 0.749-0.107 0.243-0.131 0.471-0.124 0.691 0.043 0.203 0.149 0.416 0.153 0.64 0.060 0.25-0.118 0.541-0.216 0.845-0.28l0.026-0.004c0.045-0.007 0.091-0.023 0.132 0.013 0.128 0.117 0.249 0.035 0.372-0.013 0.048-0.020 0.053-0.059 0.051-0.107-0.009-0.101-0.087-0.16-0.131-0.24-0.020-0.033-0.043-0.047-0.072-0.041zM11.763 23.201c0.012 0 0.027 0.008 0.043 0.023 0.052 0.048 0.1 0.099 0.151 0.147l0.020 0.019c0.025 0.023 0.028 0.052 0.016 0.080l-0.299 0.6-0.032-0.011c0-0.007 0.004-0.009 0.004-0.016 0.064-0.263 0.039-0.533 0.073-0.8 0.003-0.027 0.012-0.040 0.024-0.041zM16.963 23.985c-0.317 0.009-0.64 0.061-0.937 0.163-0.247 0.084-0.523 0.141-0.651 0.427-0.073 0.165-0.064 0.343-0.115 0.508 0.023 0.132 0.023 0.263 0.099 0.375 0.023 0.032 0.032 0.084 0.087 0.080 0.057-0.003 0.077-0.051 0.093-0.089 0.057-0.121 0.071-0.259 0.108-0.387 0.061-0.209 0.157-0.375 0.375-0.468 0.227-0.096 0.457-0.187 0.688-0.275 0.028-0.012 0.061-0.019 0.095-0.019 0.014 0 0.028 0.001 0.041 0.003l-0.001-0c0.285 0.040 0.583 0.028 0.836 0.195 0.017 0.012 0.037 0.019 0.060 0.019 0.008 0 0.016-0.001 0.024-0.003l-0.001 0c0.096-0.023 0.107-0.053 0.048-0.131-0.177-0.243-0.461-0.4-0.782-0.4-0.023 0-0.047 0.001-0.070 0.002l0.003-0zM14.005 24.975l0.019 0.023c0.125 0.156 0.249 0.291 0.333 0.448 0.201 0.387 0.499 0.668 0.883 0.873 0.18 0.096 0.341 0.229 0.552 0.253l0.004 0.001 0.024-0.001c0.023 0 0.053-0.004 0.048 0.032-0.004 0.019-0.023 0.019-0.041 0.016h-0.009c-0.007 0-0.013 0-0.020-0.004-0.223 0.007-0.44 0.044-0.657 0.089-0.113 0.024-0.227 0.051-0.34 0.077-0.036 0.012-0.146 0.037-0.255 0.061l-0.069 0.012h-0.004c-0.044 0.011-0.064 0.032-0.057 0.077 0.007 0.053 0.027 0.083 0.089 0.096 0.087 0.015 0.187 0.024 0.29 0.024 0.027 0 0.053-0.001 0.079-0.002l-0.004 0c0.157-0.004 0.313-0.020 0.471-0.045 0.159-0.026 0.341-0.040 0.527-0.040 0.18 0 0.357 0.014 0.529 0.040l-0.019-0.002c-0.573 0.093-1.047 0.416-1.565 0.633-0.269 0.112-0.477 0.327-0.733 0.464-0.019 0.023-0.029 0.059-0.048 0.080-0.041 0.052-0.048 0.157-0.116 0.147h-0.005c-0.007 0-0.013 0.004-0.020 0-0.132-0.012-0.253-0.053-0.358-0.117l0.004 0.002c-0.040-0.025-0.029-0.073-0.029-0.119v-0.604c0-0.043 0.016-0.089-0.025-0.12-0.141-0.088-0.107-0.243-0.141-0.371-0.013-0.051 0.023-0.076 0.052-0.108l0.371-0.413c0.084-0.089 0.119-0.189 0.057-0.297-0.115-0.217-0.096-0.427-0.003-0.647 0.073-0.173 0.121-0.356 0.189-0.56zM20.119 25.211c0.007 0.004 0.013 0.007 0.016 0.011l0.009-0.011c0.052 0.029 0.055 0.067 0.067 0.1 0.136 0.329 0.267 0.663 0.4 0.992 0.033 0.073 0.040 0.137-0.008 0.199-0.091 0.113-0.146 0.259-0.146 0.417 0 0.085 0.016 0.166 0.045 0.241l-0.002-0.005c0.089 0.275 0.025 0.464-0.244 0.599-0.045 0.029-0.101 0.047-0.16 0.048h-0c-0.003 0-0.006 0-0.009 0-0.041 0-0.079-0.015-0.108-0.040l0 0c-0.5-0.345-1.095-0.46-1.656-0.659-0.080-0.028-0.156-0.057-0.24-0.076-0.096-0.023-0.089-0.087-0.076-0.155 0.009-0.048 0.035-0.053 0.060-0.051 0.027-0.007 0.061 0.013 0.084 0.019 0.64 0.16 1.287 0.288 1.904 0.528 0.023 0.011 0.041 0.013 0.057 0.017 0.045-0.007 0.059-0.049 0.052-0.109-0.013-0.144-0.027-0.285-0.192-0.361-0.381-0.172-0.824-0.284-1.29-0.31l-0.010-0c-0.067-0.007-0.131-0.009-0.199-0.013 0.317-0.192 0.667-0.293 0.951-0.541 0.036-0.029 0.069-0.059 0.1-0.089l-0 0 0.531-0.643zM17.609 26.721h0.027c0.040-0.003 0.072 0.007 0.076 0.071 0 0.059 0.013 0.109-0.080 0.123-0.108 0.018-0.233 0.028-0.361 0.028-0.002 0-0.003 0-0.005 0h0c-0.125 0-0.247-0.013-0.371-0.041-0.067-0.016-0.093-0.061-0.087-0.115 0.003-0.036 0.028-0.036 0.053-0.036 0.005-0.001 0.010-0.001 0.016-0.001 0.013 0 0.025 0.002 0.037 0.005l-0.001-0h0.24c0.035 0.003 0.076 0.005 0.117 0.005 0.12 0 0.236-0.014 0.348-0.040l-0.010 0.002zM17.657 27.249c0.008 0 0.016 0.003 0.027 0.007 0.371 0.155 0.741 0.308 1.125 0.465-0.176 0.147-0.339 0.277-0.499 0.405-0.295 0.237-0.587 0.477-0.861 0.737-0.067 0.064-0.119 0.067-0.196 0.019-0.404-0.241-0.884-0.484-1.381-0.696l-0.081-0.031c-0.22-0.093-0.453-0.131-0.681-0.211 0.027-0.048 0.073-0.048 0.112-0.061 0.489-0.183 0.989-0.347 1.469-0.56 0.125-0.057 0.249-0.009 0.371 0.007 0.183 0.025 0.36 0.028 0.525-0.061 0.019-0.013 0.042-0.020 0.067-0.020 0.001 0 0.002 0 0.004 0h-0zM14.776 28.18c0.040 0.002 0.077 0.011 0.112 0.025l-0.002-0.001c0.263 0.103 0.507 0.247 0.759 0.365 0.001-0 0.002-0 0.003-0 0.014 0 0.026 0.005 0.035 0.013l-0-0c0.005 0.003 0.007 0.005 0.007 0.015v0.007c0 0.004-0.004 0.004-0.004 0.007-0.003 0.004-0.007 0.004-0.009 0.004l-0.013-0.004c-0.007-0.004-0.012-0.009-0.016-0.016l-0-0-1.149-0.285c0.099-0.079 0.177-0.133 0.279-0.129zM25.669 28.893c-0.189-0.005-0.347 0.083-0.496 0.2-0.039 0.029-0.061 0.064-0.125 0.023-0.14-0.096-0.275-0.071-0.393 0.052-0.065 0.067-0.113 0.151-0.137 0.246l-0.001 0.004c-0.167 0.672-0.336 1.341-0.496 2.016-0.055 0.225 0.064 0.34 0.297 0.305 0.211-0.033 0.317-0.155 0.352-0.427 0.035-0.263 0.071-0.521 0.147-0.793 0.2 0.249 0.387 0.483 0.577 0.717 0.185 0.227 0.387 0.428 0.659 0.549 0.192 0.087 0.359 0.036 0.509-0.099 0.054-0.046 0.088-0.114 0.088-0.19 0-0.030-0.006-0.060-0.016-0.087l0.001 0.002c-0.020-0.096-0.104-0.167-0.205-0.167-0.002 0-0.004 0-0.006 0h0c-0.079-0.007-0.15-0.041-0.203-0.093l0 0c-0.18-0.156-0.339-0.329-0.477-0.519l-0.006-0.009c-0.12-0.16-0.125-0.16 0.035-0.269 0.336-0.231 0.455-0.556 0.429-0.947-0.019-0.292-0.176-0.461-0.452-0.507-0.024-0.004-0.053-0.007-0.082-0.008l-0.001-0zM11.359 28.933c-0.053 0-0.103 0.027-0.129 0.1-0.025 0.067-0.071 0.057-0.121 0.051-0.050-0.009-0.107-0.014-0.166-0.014-0.283 0-0.538 0.117-0.72 0.306l-0 0c-0.507 0.493-0.765 1.085-0.736 1.805 0.019 0.477 0.293 0.707 0.759 0.601 0.919-0.213 1.632-1.113 1.671-2.109 0.009-0.256-0.224-0.627-0.453-0.717-0.030-0.013-0.065-0.021-0.102-0.023h-0zM8.785 29.011c-0.315 0.005-0.601 0.124-0.819 0.318l0.001-0.001c-0.461 0.403-0.729 0.924-0.861 1.517-0.015 0.060-0.024 0.129-0.024 0.2 0 0.164 0.046 0.317 0.126 0.447l-0.002-0.004c0.093 0.157 0.211 0.215 0.389 0.18 0.436-0.085 0.825-0.226 1.182-0.418l-0.022 0.011c0.116-0.061 0.215-0.135 0.3-0.224l0-0c0.069-0.070 0.112-0.166 0.112-0.272v-0c0-0.1-0.044-0.135-0.137-0.139-0.093-0.003-0.173 0.032-0.256 0.061-0.276 0.1-0.544 0.221-0.829 0.293-0.14 0.036-0.188 0.004-0.217-0.14-0.003-0.020-0.005-0.042-0.005-0.065 0-0.035 0.004-0.068 0.013-0.1l-0.001 0.003c0.053-0.224 0.131-0.441 0.249-0.644 0.081-0.152 0.191-0.278 0.324-0.375l0.003-0.002c0.187-0.119 0.377-0.183 0.589-0.053 0.069 0.040 0.137 0.021 0.2-0.017 0.096-0.062 0.167-0.155 0.199-0.265l0.001-0.003c0.021-0.067 0.003-0.12-0.059-0.155-0.13-0.083-0.285-0.138-0.452-0.153l-0.004-0zM21.052 29.104c-0.010-0-0.021-0.001-0.032-0.001-0.257 0-0.49 0.105-0.657 0.275l-0 0c-0.208 0.215-0.244 0.432-0.112 0.701 0.099 0.201 0.236 0.373 0.371 0.553 0.096 0.125 0.199 0.249 0.288 0.381 0.064 0.093 0.032 0.167-0.077 0.201-0.025 0.009-0.054 0.014-0.084 0.014-0.037 0-0.072-0.007-0.103-0.021l0.002 0.001c-0.194-0.071-0.36-0.175-0.499-0.307l0.001 0.001c-0.052-0.042-0.090-0.099-0.109-0.164l-0.001-0.002c-0.016-0.099-0.071-0.144-0.167-0.153-0.108-0.009-0.208-0.009-0.272 0.107-0.107 0.184-0.076 0.351 0.116 0.524 0.368 0.327 0.807 0.471 1.244 0.507 0.4 0.005 0.647-0.356 0.516-0.696-0.057-0.153-0.157-0.288-0.253-0.419-0.16-0.212-0.327-0.417-0.476-0.635-0.12-0.167-0.064-0.288 0.131-0.352 0.18-0.057 0.333-0.007 0.48 0.107 0.173 0.133 0.32 0.063 0.359-0.155 0.023-0.115-0.039-0.192-0.119-0.259-0.147-0.123-0.337-0.2-0.544-0.208l-0.002-0zM23.592 29.184c-0.183-0.004-0.365 0-0.547 0.021-0.219 0.027-0.427 0.087-0.507 0.331-0.003 0.013-0.019 0.032-0.032 0.035-0.249 0.064-0.336 0.269-0.403 0.477-0.141 0.461-0.267 0.928-0.397 1.389-0.032 0.112 0.013 0.187 0.107 0.243 0.072 0.045 0.147 0.043 0.229 0.020 0.432-0.107 0.864-0.221 1.316-0.189 0.003 0 0.006 0 0.010 0 0.058 0 0.113-0.014 0.161-0.040l-0.002 0.001c0.096-0.057 0.159-0.16 0.159-0.278 0-0.015-0.001-0.029-0.003-0.044l0 0.002c-0.019-0.121-0.115-0.156-0.217-0.173-0.069-0.011-0.15-0.019-0.233-0.021l-0.003-0c-0.293 0.001-0.579 0.026-0.857 0.074l0.030-0.004c0.041-0.304 0.064-0.323 0.352-0.323 0.215 0 0.429-0.013 0.631-0.096 0.135-0.057 0.221-0.151 0.235-0.301 0.009-0.101-0.033-0.163-0.139-0.165-0.031-0.002-0.067-0.002-0.104-0.002-0.053 0-0.105 0.002-0.157 0.006l0.007-0-0.604 0.053c0.032-0.069 0.048-0.133 0.083-0.181 0.059-0.083-0.009-0.237 0.112-0.279 0.1-0.032 0.219-0.009 0.327-0.013 0.285-0.005 0.569-0.009 0.845-0.099 0.105-0.028 0.194-0.089 0.255-0.172l0.001-0.001c0.093-0.144 0.057-0.24-0.109-0.247-0.181-0.008-0.364-0.019-0.547-0.021zM14.707 29.195c-0.095-0.004-0.173 0.056-0.247 0.124-0.186 0.178-0.357 0.367-0.514 0.567l-0.009 0.012-0.489 0.608c-0.027 0.032-0.053 0.093-0.107 0.067-0.040-0.019-0.024-0.073-0.019-0.115 0.013-0.147 0.032-0.291 0.048-0.439 0.020-0.192 0.045-0.384 0.013-0.576-0.041-0.231-0.208-0.293-0.393-0.151-0.046 0.038-0.087 0.078-0.124 0.12l-0.001 0.001c-0.139 0.163-0.27 0.343-0.387 0.534l-0.011 0.018c-0.3 0.464-0.576 0.947-0.937 1.369-0.067 0.080-0.137 0.157-0.199 0.243-0.064 0.096-0.089 0.205-0.029 0.307 0.055 0.091 0.147 0.123 0.251 0.116 0.108-0.005 0.167-0.085 0.224-0.163l0.835-1.136c0.016-0.020 0.023-0.059 0.071-0.045-0.006 0.040-0.012 0.090-0.016 0.141l-0 0.006c-0.013 0.183-0.051 0.365-0.013 0.551 0.045 0.212 0.213 0.299 0.408 0.203 0.104-0.057 0.193-0.125 0.272-0.203l-0 0c0.156-0.149 0.304-0.311 0.44-0.483 0.152-0.192 0.305-0.387 0.465-0.596 0.048 0.16 0.029 0.304 0.023 0.448-0.016 0.251-0.064 0.5-0.016 0.753 0.032 0.156 0.121 0.249 0.249 0.259 0.015 0.001 0.032 0.002 0.050 0.002 0.119 0 0.23-0.036 0.323-0.097l-0.002 0.001c0.167-0.105 0.183-0.316 0.027-0.457-0.044-0.038-0.074-0.090-0.084-0.149l-0-0.001c-0.035-0.173-0.005-0.343 0.023-0.512 0.052-0.327 0.153-0.647 0.137-0.983-0.005-0.131-0.025-0.253-0.16-0.316-0.029-0.016-0.064-0.026-0.101-0.028l-0.001-0zM25.427 29.447c0.156-0.013 0.233 0.085 0.188 0.236-0.021 0.068-0.053 0.126-0.094 0.177l0.001-0.001c-0.172 0.215-0.389 0.36-0.661 0.471 0.024-0.21 0.076-0.401 0.152-0.58l-0.005 0.014c0.083-0.179 0.217-0.297 0.42-0.316zM16.559 29.473c0.004-0 0.009-0 0.015-0 0.068 0 0.132 0.017 0.187 0.048l-0.002-0.001c0.101 0.057 0.131 0.195 0.060 0.311-0.067 0.098-0.149 0.179-0.243 0.243l-0.003 0.002c-0.183 0.141-0.398 0.252-0.63 0.32l-0.014 0.004c0.093-0.288 0.171-0.553 0.327-0.781 0.070-0.089 0.178-0.145 0.3-0.145 0.002 0 0.003 0 0.005 0h-0zM18.692 29.596c0.011-0.001 0.024-0.001 0.037-0.001 0.089 0 0.173 0.017 0.251 0.048l-0.005-0.002c0.151 0.061 0.201 0.133 0.199 0.359-0.046 0.438-0.256 0.82-0.565 1.090l-0.002 0.002c-0.116 0.101-0.265 0.168-0.429 0.181l-0.003 0c-0.196 0.016-0.349-0.108-0.329-0.304 0.037-0.428 0.153-0.832 0.44-1.168 0.099-0.117 0.242-0.194 0.404-0.205l0.002-0zM10.849 29.6c0.012-0.001 0.025-0.001 0.039-0.001 0.091 0 0.177 0.018 0.256 0.051l-0.004-0.002c0.147 0.057 0.199 0.131 0.192 0.349-0.044 0.438-0.252 0.82-0.561 1.089l-0.002 0.002c-0.117 0.102-0.266 0.17-0.43 0.186l-0.003 0c-0.2 0.015-0.355-0.109-0.336-0.311 0.040-0.42 0.155-0.817 0.433-1.147 0.1-0.123 0.247-0.205 0.414-0.217l0.002-0z"></path></svg>
