<svg version="1.1" xmlns="http://www.w3.org/2000/svg" width="32" height="32" viewBox="0 0 32 32"><path d="M25.2 28l-7.3-7.3 2.8-2.8 7.3 7.3-2.8 2.8zM6.8 28l-2.8-2.8 9.2-9.2-2.267-2.267-0.933 0.933-1.7-1.7v2.733l-0.933 0.933-4.033-4.033 0.933-0.933h2.733l-1.667-1.667 4.733-4.733q0.667-0.667 1.433-0.967t1.567-0.3 1.567 0.3 1.433 0.967l-3.067 3.067 1.667 1.667-0.933 0.933 2.267 2.267 3-3q-0.133-0.367-0.217-0.767t-0.083-0.8q0-1.967 1.35-3.317t3.317-1.35q0.5 0 0.95 0.1t0.917 0.3l-3.3 3.3 2.4 2.4 3.3-3.3q0.233 0.467 0.317 0.917t0.083 0.95q0 1.967-1.35 3.317t-3.317 1.35q-0.4 0-0.8-0.067t-0.767-0.233l-15 15z"></path></svg>
