<svg version="1.1" xmlns="http://www.w3.org/2000/svg" width="32" height="32" viewBox="0 0 32 32"><path fill="#239120" d="M16 0c-8.837 0-16 7.163-16 16v0c0 8.837 7.163 16 16 16v0c8.837 0 16-7.163 16-16v0c0-8.837-7.163-16-16-16v0zM12.568 9.493c0.954 0.006 1.863 0.191 2.697 0.524l-0.050-0.018v1.575c-0.84-0.475-1.844-0.755-2.914-0.755-0.030 0-0.060 0-0.090 0.001l0.005-0c-0.045-0.002-0.099-0.003-0.152-0.003-1.319 0-2.509 0.557-3.345 1.449l-0.002 0.002c-0.842 0.957-1.356 2.22-1.356 3.603 0 0.095 0.002 0.19 0.007 0.285l-0.001-0.013c-0.004 0.081-0.007 0.175-0.007 0.27 0 1.304 0.48 2.495 1.272 3.408l-0.005-0.006c0.785 0.842 1.901 1.367 3.14 1.367 0.059 0 0.119-0.001 0.178-0.004l-0.008 0c0.046 0.001 0.1 0.002 0.154 0.002 1.154 0 2.234-0.315 3.16-0.863l-0.029 0.016-0.005 1.44c-0.944 0.47-2.057 0.745-3.233 0.745-0.094 0-0.187-0.002-0.28-0.005l0.013 0c-0.073 0.003-0.159 0.005-0.246 0.005-1.595 0-3.034-0.665-4.056-1.733l-0.002-0.002c-1.007-1.125-1.623-2.618-1.623-4.255 0-0.102 0.002-0.204 0.007-0.304l-0.001 0.014c-0.004-0.086-0.006-0.187-0.006-0.289 0-1.781 0.695-3.399 1.829-4.598l-0.003 0.003c1.122-1.148 2.686-1.86 4.417-1.86 0.075 0 0.15 0.001 0.225 0.004l-0.011-0c0.040-0.002 0.095-0.004 0.151-0.005l0.009-0c0.042-0.001 0.092-0.001 0.142-0.001 0.007 0 0.015 0 0.022 0h-0.001zM20.385 9.7h1.115l-0.74 3.536h2.215l0.756-3.536h1.080l-0.74 3.536 2.309-0.005-0.2 0.929h-2.3l-0.549 2.64h2.469l-0.235 0.931h-2.421l-0.773 3.5h-1.107l0.756-3.5h-2.2l-0.74 3.5h-1.080l0.74-3.5h-2.32l0.175-0.931h2.331l0.535-2.635h-2.435l0.184-0.929h2.435zM20.575 14.16l-0.575 2.64h2.231l0.564-2.64z"></path></svg>
