<svg version="1.1" xmlns="http://www.w3.org/2000/svg" width="32" height="32" viewBox="0 0 32 32"><path fill="#a81d33" d="M18.507 16.907c-0.533 0 0.107 0.267 0.8 0.373 0.187-0.133 0.36-0.293 0.52-0.44-0.258 0.059-0.555 0.093-0.859 0.093-0.162 0-0.323-0.010-0.48-0.029l0.019 0.002zM21.36 16.2c0.307-0.44 0.533-0.92 0.627-1.413-0.080 0.36-0.267 0.667-0.44 0.973-1 0.627-0.093-0.36 0-0.747-1.067 1.347-0.147 0.8-0.187 1.187zM22.4 13.467c0.067-0.96-0.187-0.667-0.267-0.293 0.093 0.053 0.173 0.667 0.267 0.293zM16.507 0.413c0.267 0.053 0.6 0.093 0.56 0.16 0.307-0.067 0.373-0.133-0.573-0.16zM17.067 0.573l-0.2 0.040 0.187-0.013v-0.027zM25.893 13.827c0.027 0.853-0.267 1.267-0.507 2l-0.467 0.24c-0.373 0.72 0.040 0.467-0.227 1.040-0.587 0.52-1.787 1.627-2.16 1.733-0.267 0 0.187-0.333 0.253-0.453-0.787 0.533-0.64 0.8-1.827 1.133l-0.040-0.080c-2.96 1.387-7.067-1.36-7-5.12-0.040 0.227-0.093 0.173-0.16 0.267-0.011-0.12-0.017-0.259-0.017-0.4 0-1.869 1.083-3.485 2.656-4.254l0.028-0.012c0.586-0.301 1.279-0.478 2.013-0.478 1.137 0 2.175 0.424 2.965 1.122l-0.005-0.004c-0.822-1.059-2.096-1.734-3.527-1.734-0.035 0-0.070 0-0.105 0.001l0.005-0c-1.573 0.013-3.040 1.013-3.533 2.093-0.8 0.507-0.893 1.96-1.24 2.213-0.48 3.467 0.88 4.96 3.173 6.72 0.36 0.253 0.107 0.28 0.16 0.467-0.802-0.386-1.481-0.907-2.034-1.539l-0.006-0.007c0.307 0.44 0.627 0.88 1.067 1.213-0.733-0.24-1.693-1.733-1.973-1.8 1.24 2.213 5.040 3.893 7.013 3.067-0.175 0.013-0.379 0.021-0.585 0.021-0.901 0-1.768-0.144-2.58-0.411l0.058 0.017c-0.44-0.213-1.027-0.68-0.933-0.76 0.885 0.382 1.916 0.605 2.998 0.605 1.852 0 3.551-0.651 4.883-1.736l-0.014 0.011c0.587-0.467 1.24-1.253 1.427-1.267-0.267 0.427 0.053 0.213-0.16 0.587 0.587-0.96-0.267-0.4 0.613-1.653l0.32 0.44c-0.12-0.8 0.987-1.76 0.88-3.013 0.253-0.4 0.267 0.4 0 1.293 0.387-0.987 0.107-1.133 0.2-1.947 0.107 0.267 0.24 0.56 0.307 0.84-0.24-0.933 0.267-1.6 0.373-2.133-0.12-0.067-0.373 0.4-0.427-0.707 0-0.493 0.133-0.267 0.187-0.373-0.107-0.067-0.347-0.427-0.507-1.147 0.107-0.173 0.293 0.44 0.453 0.453-0.107-0.56-0.267-1-0.267-1.44-0.453-0.907-0.16 0.133-0.533-0.4-0.453-1.453 0.4-0.333 0.453-0.987 0.72 1.027 1.12 2.613 1.307 3.28-0.133-0.8-0.373-1.6-0.653-2.347 0.213 0.093-0.347-1.653 0.28-0.493-0.859-2.533-2.59-4.58-4.827-5.826l-0.053-0.027c0.24 0.227 0.56 0.52 0.44 0.56-1-0.6-0.827-0.64-0.973-0.893-0.813-0.333-0.867 0.027-1.413 0-1.547-0.827-1.84-0.733-3.253-1.267l0.067 0.307c-1.027-0.333-1.2 0.133-2.307 0-0.067-0.053 0.36-0.187 0.707-0.24-0.987 0.133-0.933-0.187-1.907 0.040 0.227-0.173 0.48-0.28 0.733-0.427-0.8 0.053-1.92 0.467-1.573 0.093-1.32 0.6-3.653 1.427-4.96 2.653l-0.040-0.293c-0.6 0.72-2.613 2.147-2.773 3.080l-0.173 0.040c-0.307 0.533-0.507 1.133-0.76 1.68-0.4 0.693-0.6 0.267-0.533 0.373-0.8 1.627-1.2 3-1.547 4.133 0.24 0.36 0 2.2 0.093 3.68-0.4 7.28 5.12 14.36 11.147 16 0.893 0.307 2.2 0.307 3.32 0.333-1.32-0.373-1.493-0.2-2.773-0.653-0.933-0.427-1.133-0.933-1.787-1.507l0.267 0.467c-1.293-0.453-0.76-0.56-1.813-0.893l0.28-0.36c-0.413-0.040-1.107-0.707-1.293-1.080l-0.453 0.013c-0.547-0.667-0.84-1.16-0.813-1.547l-0.147 0.267c-0.173-0.28-2.027-2.533-1.067-2.013-0.173-0.16-0.413-0.267-0.667-0.733l0.187-0.227c-0.467-0.587-0.853-1.36-0.827-1.6 0.267 0.32 0.427 0.4 0.6 0.44-1.173-2.893-1.24-0.16-2.133-2.933l0.2-0.027c-0.133-0.213-0.24-0.453-0.347-0.68l0.080-0.8c-0.84-0.987-0.24-4.133-0.12-5.867 0.093-0.72 0.707-1.467 1.173-2.64l-0.28-0.053c0.533-0.947 3.12-3.827 4.32-3.68 0.573-0.733-0.12 0-0.24-0.187 1.28-1.32 1.68-0.933 2.533-1.173 0.933-0.533-0.8 0.213-0.36-0.2 1.6-0.4 1.133-0.933 3.227-1.133 0.213 0.133-0.52 0.187-0.693 0.347 1.333-0.653 4.2-0.493 6.080 0.36 2.173 1.027 4.613 4.013 4.707 6.84l0.107 0.027c-0.053 1.133 0.173 2.427-0.227 3.613l0.267-0.56zM12.72 17.64l-0.067 0.373c0.347 0.467 0.627 0.973 1.067 1.347-0.32-0.627-0.56-0.88-1-1.733zM13.547 17.6c-0.187-0.2-0.293-0.453-0.413-0.693 0.107 0.427 0.347 0.8 0.573 1.173l-0.16-0.48zM28.133 14.427l-0.093 0.2c-0.133 1.013-0.453 2.013-0.92 2.947 0.533-0.973 0.867-2.053 1-3.147zM16.6 0.16c0.36-0.133 0.88-0.067 1.267-0.16-0.493 0.040-0.987 0.067-1.467 0.133l0.2 0.027zM4.013 6.853c0.093 0.76-0.573 1.067 0.147 0.56 0.4-0.88-0.147-0.24-0.133-0.56zM3.173 10.4c0.16-0.52 0.2-0.827 0.267-1.12-0.467 0.587-0.227 0.707-0.267 1.107z"></path></svg>
