<svg version="1.1" xmlns="http://www.w3.org/2000/svg" width="32" height="32" viewBox="0 0 32 32"><path d="M14.741 0.008c-0.075 0.008-0.315 0.036-0.531 0.055-3.077 0.323-6.108 1.625-8.579 3.695-0.67 0.592-1.282 1.203-1.854 1.851l-0.019 0.022c-2.047 2.444-3.243 5.187-3.683 8.433-0.099 0.72-0.099 3.152 0 3.872 0.441 3.247 1.637 5.989 3.683 8.433 0.592 0.67 1.203 1.282 1.851 1.854l0.022 0.019c2.444 2.047 5.187 3.243 8.433 3.683 0.72 0.099 3.152 0.099 3.872 0 3.247-0.441 5.989-1.637 8.433-3.683 0.67-0.592 1.282-1.203 1.854-1.851l0.019-0.022c2.047-2.444 3.243-5.187 3.683-8.433 0.099-0.72 0.099-3.152 0-3.872-0.441-3.247-1.637-5.989-3.683-8.433-0.592-0.67-1.203-1.282-1.851-1.854l-0.022-0.019c-2.436-2.039-5.207-3.251-8.409-3.68-0.347-0.047-0.849-0.067-1.783-0.075-0.176-0.003-0.383-0.005-0.591-0.005-0.298 0-0.594 0.004-0.89 0.011l0.044-0.001zM14.937 1.708c0 0.46 0.032 1.46 0.075 2.408 0.024 0.464 0.051 1.129 0.063 1.476 0.043 1.228 0.173 4.451 0.193 4.737l0.020 0.287-0.177-0.020c-0.074-0.004-0.144-0.019-0.209-0.044l0.005 0.002c-0.031-0.179-0.050-0.389-0.055-0.602l-0-0.004c-0.046-0.502-0.163-3.159-0.269-5.818l-0.058-1.813-0.024-0.873 0.111-0.016c0.059-0.008 0.157-0.020 0.22-0.024l0.107-0.004zM18.704 1.613c0.004 0.004 0.016 1.192 0.028 2.64 0.016 1.452 0.036 2.755 0.047 2.896 0.012 0.145 0.008 0.272-0.012 0.28-0.032 0.006-0.069 0.010-0.106 0.010s-0.074-0.004-0.11-0.010l0.004 0.001-0.181-0.016-0.028-1.145-0.043-1.563c-0.032-0.696-0.059-3.061-0.036-3.12 0.016-0.043 0.059-0.047 0.224-0.020 0.115 0.024 0.208 0.043 0.213 0.048zM9.601 2.932c0.024 0.036 0.208 2.204 0.437 5.041 0.075 0.964 0.149 1.845 0.161 1.956 0.020 0.201 0.016 0.208-0.111 0.287-0.045 0.031-0.097 0.057-0.152 0.077l-0.005 0.002c-0.012 0-0.036-0.103-0.047-0.228-0.055-0.512-0.268-2.983-0.417-4.769-0.087-1.051-0.165-1.991-0.177-2.093-0.020-0.173-0.016-0.189 0.087-0.244 0.125-0.067 0.197-0.079 0.224-0.028zM20.435 3.723c0.111 0.040 0.121 0.059 0.145 0.284 0.040 0.393 0.028 2.275-0.016 2.275-0.115 0-0.351-0.133-0.369-0.208-0.016-0.296-0.026-0.642-0.026-0.991 0-0.088 0.001-0.175 0.002-0.263l-0 0.013c0-1.279-0.016-1.204 0.264-1.111zM13.167 3.908c0 0.107 0.028 0.692 0.059 1.311l0.083 1.74c0.028 0.685 0.036 0.661-0.228 0.677-0.129 0.004-0.129 0.004-0.137-0.193-0.008-0.111-0.028-0.452-0.051-0.768-0.020-0.315-0.067-0.996-0.099-1.515s-0.071-1.035-0.083-1.145c-0.024-0.197-0.020-0.204 0.087-0.244 0.072-0.025 0.156-0.041 0.243-0.043l0.001-0c0.125-0.004 0.125-0.004 0.125 0.18zM24.083 4.447l0.133 0.055 0.028 0.527c0.012 0.287 0.020 0.909 0.012 1.377l-0.012 0.857-0.165-0.083-0.165-0.079-0.012-1.307c-0.008-0.72-0.004-1.331 0.004-1.357 0.016-0.059 0.016-0.059 0.177 0.009zM16.897 4.963c0.024 0.024 0.079 1.932 0.083 2.9l0.004 0.583-0.185-0.028c-0.075-0.006-0.142-0.016-0.209-0.030l0.011 0.002c-0.012-0.008-0.129-2.924-0.129-3.207v-0.291l0.201 0.024c0.083 0.008 0.159 0.024 0.231 0.049l-0.007-0.002zM25.96 5.241c0.047 0.055 0.055 0.917 0.067 5.671 0.012 5.459 0.012 5.6-0.059 5.6-0.052-0.004-0.099-0.022-0.138-0.051l0.001 0c-0.059-0.043-0.067-0.52-0.087-5.183-0.008-2.13-0.025-4.131-0.051-6.13l0.004 0.428-0.024-0.567 0.115 0.083c0.067 0.047 0.141 0.115 0.172 0.149zM22.431 6.049c0.020 0.016 0.040 0.24 0.043 0.496 0.020 0.869 0.024 6.201 0.004 6.217-0.008 0.008-0.079-0.012-0.157-0.043l-0.141-0.059v-6.693l0.111 0.024c0.059 0.016 0.123 0.040 0.141 0.057zM11.569 6.269c0.012 0.107 0.032 0.347 0.043 0.543l0.063 0.976c0.047 0.692 0.040 0.736-0.185 0.736-0.119 0-0.133-0.012-0.149-0.129-0.040-0.232-0.177-2.168-0.157-2.2 0.092-0.053 0.2-0.091 0.314-0.106l0.004-0c0.024-0.004 0.055 0.079 0.068 0.181zM5.060 7.272l0.193 1.94c0.067 0.649 0.123 1.2 0.123 1.224 0 0.047-0.303 0.197-0.335 0.165-0.095-0.602-0.241-1.858-0.369-3.119l-0.044-0.541c0-0.095 0.303-0.492 0.343-0.448 0.012 0.008 0.051 0.359 0.089 0.779zM20.489 7.685l0.115 0.067 0.004 0.851c0.004 0.464 0.012 0.984 0.012 1.153 0.008 0.355-0.036 0.413-0.248 0.339l-0.121-0.043v-0.339c0-0.189-0.012-0.736-0.028-1.22l-0.024-0.873h0.091c0.075 0.009 0.142 0.032 0.203 0.067l-0.003-0.001zM6.788 9.212l0.26 2.833 0.133 1.456-0.153 0.153-0.149 0.153-0.028-0.311c-0.016-0.173-0.095-0.976-0.177-1.787s-0.201-1.987-0.26-2.613l-0.111-1.133 0.153-0.141c0.137-0.129 0.153-0.133 0.181-0.063 0.016 0.040 0.083 0.692 0.151 1.452zM3.84 9.689c0.087 0.775 0.315 2.837 0.512 4.58s0.381 3.424 0.417 3.739c0.032 0.315 0.087 0.791 0.119 1.063 0.055 0.46 0.055 0.492-0.008 0.539-0.095 0.071-0.133 0.063-0.133-0.020 0-0.036-0.036-0.335-0.079-0.657-0.071-0.539-0.189-1.452-0.452-3.503-0.055-0.413-0.161-1.236-0.236-1.829 0.179 1.906 0.006 0.596-0.163-0.715l-0.329-3.114c-0.071-0.535-0.115-1.012-0.103-1.063 0.028-0.107 0.26-0.476 0.284-0.452 0.008 0.012 0.087 0.653 0.171 1.433zM2.636 11.385l0.244 1.92c0.075 0.583 0.169 1.311 0.212 1.613l0.075 0.551-0.083 0.071c-0.047 0.040-0.095 0.055-0.111 0.040s-0.047-0.173-0.071-0.347-0.169-1.184-0.327-2.243l-0.28-1.928 0.091-0.268c0.026-0.1 0.064-0.188 0.113-0.268l-0.002 0.004c0.016 0 0.075 0.385 0.139 0.855zM24.24 10.869c0.055 0.055 0.063 0.299 0.063 2.105v2.043h-0.111c-0.24 0-0.236 0.059-0.252-2.176l-0.012-2.035h0.125c0.067 0 0.153 0.028 0.187 0.063zM15.627 11.573c0.889 0.133 1.664 0.381 2.432 0.775 0.496 0.256 0.732 0.433 1.283 0.96 0.819 0.783 1.323 1.468 1.795 2.436 0.688 1.409 0.956 2.656 1.295 6.001 0.153 1.499 0.355 4.219 0.397 5.332 0.012 0.323 0.040 0.853 0.063 1.18 0.043 0.692 0.095 0.599-0.516 0.893-0.847 0.409-1.66 0.692-2.735 0.956-1.315 0.323-2.164 0.425-3.463 0.429l-0.944 0.004 0.008-0.452c0-0.248 0.024-0.827 0.047-1.279 0.119-2.192 0.095-4.959-0.059-6.493-0.087-0.881-0.256-1.952-0.351-2.188-0.020-0.051 0.071-0.095 0.46-0.228 0.712-0.248 1.331-0.559 1.424-0.712 0.169-0.291-0.133-0.708-0.52-0.708-0.067 0-0.268 0.071-0.452 0.153-0.881 0.405-2.648 0.881-3.668 0.988-0.254 0.022-0.55 0.035-0.849 0.035-0.603 0-1.195-0.051-1.77-0.15l0.062 0.009c-0.413-0.075-1.153-0.355-1.771-0.673-0.712-0.369-1.149-0.861-1.279-1.444-0.071-0.315-0.051-0.944 0.040-1.299 0.099-0.389 0.373-0.956 0.625-1.287 1.121-1.476 3.436-2.755 5.808-3.203 0.432-0.075 0.93-0.118 1.438-0.118 0.423 0 0.839 0.030 1.246 0.087l-0.047-0.005zM27.767 11.696c0.141 0.059 0.157 0.075 0.157 0.208 0.008 1.075-0.016 3.529-0.036 3.632-0.004 0.036-0.208 0.040-0.295 0.008-0.055-0.020-0.063-0.232-0.063-1.968 0-1.244 0.016-1.944 0.040-1.944 0.020 0 0.111 0.028 0.196 0.064zM29.485 13.856l0.141 0.059-0.028 3.259c-0.032 4.152-0.036 4.273-0.185 4.632-0.244 0.587-0.232 0.704-0.208-1.869 0.008-1.287 0.028-2.589 0.036-2.892s0.016-1.157 0.020-1.901c0-0.897 0.012-1.345 0.040-1.345 0.024 0 0.107 0.028 0.184 0.059zM5.82 14.836c0.024 0.319 0.016 0.351-0.099 0.603l-0.125 0.268-0.047-0.393c-0.075-0.629-0.075-0.657 0.075-0.752 0.067-0.047 0.137-0.079 0.149-0.071s0.036 0.165 0.047 0.345zM3.388 17.209c0.036 0.323 0.311 2.464 0.452 3.515 0.212 1.625 0.228 1.857 0.133 1.759-0.061-0.284-0.13-0.698-0.186-1.115l-0.011-0.101c-0.613-4.243-0.609-4.215-0.559-4.247 0.107-0.071 0.141-0.032 0.171 0.189zM6.221 19.011c0.024 0.099 0.137 1.165 0.137 1.295 0 0.111-0.141 0.212-0.204 0.149-0.020-0.020-0.071-0.355-0.111-0.74l-0.099-0.901-0.024-0.197 0.137 0.157c0.065 0.068 0.12 0.146 0.16 0.232l0.002 0.005zM9.397 20.495c0.043 0.040 0.071 0.197 0.107 0.621 0.059 0.768 0.067 0.708-0.095 0.708-0.165 0-0.161 0.012-0.216-0.681-0.055-0.704-0.055-0.696 0.051-0.696 0.051 0 0.119 0.024 0.153 0.048zM12.513 20.553c0.008 0.040 0.028 0.276 0.043 0.524 0.012 0.248 0.047 0.807 0.079 1.24 0.111 1.589 0.115 1.791 0.047 1.791-0.075 0-0.083-0.059-0.169-1.18-0.059-0.871-0.105-1.432-0.156-1.992l0.027 0.367c-0.036-0.429-0.059-0.787-0.047-0.795 0.043-0.047 0.157-0.012 0.177 0.045zM5.116 21.309c0.024 0.036 0.173 1.295 0.359 3.015 0.055 0.52 0.111 1.019 0.121 1.113l0.020 0.169-0.099-0.063c-0.062-0.036-0.103-0.102-0.103-0.177 0-0.006 0-0.011 0.001-0.017l-0 0.001c0-0.248-0.169-1.881-0.299-2.88-0.075-0.567-0.133-1.067-0.133-1.113 0-0.083 0.095-0.115 0.133-0.048zM27.825 22.955l-0.028 1.645-0.099 0.145c-0.224 0.331-0.212 0.393-0.201-1.448l0.008-1.688 0.145-0.149c0.050-0.056 0.107-0.104 0.17-0.143l0.003-0.002c0.012 0 0.012 0.74 0.001 1.64zM24.185 25.563c0.020 2.287 0.016 2.464-0.047 2.535-0.040 0.043-0.075 0.071-0.087 0.059-0.028-0.032-0.067-5.017-0.036-5.045 0.016-0.016 0.055-0.024 0.091-0.020 0.051 0.012 0.063 0.291 0.079 2.472zM11.333 23.997c0.028 0.244 0.125 1.413 0.165 1.964 0.024 0.369 0.024 0.381-0.063 0.409-0.047 0.016-0.103 0.012-0.119-0.008-0.028-0.028-0.115-0.901-0.22-2.247l-0.028-0.323h0.121c0.115 0 0.121 0.008 0.143 0.204zM8.24 25.375c0.028 0.028 0.047 0.125 0.047 0.224 0 0.103 0.047 0.633 0.099 1.184 0.149 1.507 0.161 1.712 0.095 1.672-0.103-0.059-0.193-0.149-0.173-0.173-0.002-0.156-0.016-0.307-0.042-0.454l0.002 0.016c-0.028-0.228-0.063-0.599-0.079-0.827s-0.051-0.645-0.083-0.925c-0.075-0.688-0.071-0.768 0.016-0.768 0.040 0 0.091 0.020 0.119 0.051zM10.101 28.023c0.012 0.087 0.036 0.409 0.051 0.716 0.028 0.591 0.016 0.633-0.145 0.512-0.047-0.036-0.079-0.185-0.125-0.633-0.083-0.811-0.087-0.779 0.067-0.764 0.115 0.012 0.129 0.028 0.153 0.169zM8.696 13.459c-0.409 0.177-0.441 0.732-0.055 0.929 0.28 0.141 0.563 0.075 0.708-0.169 0.052-0.080 0.083-0.178 0.083-0.283 0-0.289-0.234-0.523-0.523-0.523-0.078 0-0.151 0.017-0.217 0.047l0.003-0.001zM11.364 13.836c-0.171 0.109-0.283 0.297-0.283 0.511s0.112 0.403 0.28 0.51l0.002 0.001c0.373 0.224 0.857-0.071 0.857-0.52 0-0.433-0.496-0.724-0.857-0.503z"></path></svg>
