<svg version="1.1" xmlns="http://www.w3.org/2000/svg" width="32" height="32" viewBox="0 0 32 32"><path fill="#025e8c" d="M14.599 0.419c0.395-0.262 0.88-0.418 1.401-0.418s1.006 0.156 1.411 0.424l-0.009-0.006 12.444 8.157c0.721 0.472 1.155 1.276 1.155 2.139v10.571c0 0.863-0.435 1.667-1.155 2.139l-12.444 8.157c-0.395 0.262-0.88 0.418-1.401 0.418s-1.006-0.156-1.411-0.424l0.009 0.006-12.444-8.157c-0.7-0.463-1.155-1.247-1.155-2.137 0-0.001 0-0.001 0-0.002v0-10.571c0-0.863 0.435-1.667 1.155-2.139zM17 10v1h-8c-0.552 0-1 0.448-1 1v0 4h-0.667c-0.184 0-0.333 0.149-0.333 0.333v0 3.333c0 0.184 0.149 0.333 0.333 0.333h0.667v2c0 0.553 0.448 1 1 1h14c0.552 0 1-0.448 1-1v0-2h0.667c0.184 0 0.333-0.149 0.333-0.333v0-3.333c0-0.184-0.149-0.333-0.333-0.333v0h-0.667v-4c0-0.552-0.448-1-1-1v0h-5v-3.667c0-0.184-0.149-0.333-0.333-0.333v0h-2.333c-0.184 0-0.333 0.149-0.333 0.333v0 2.333c0 0.184 0.149 0.333 0.333 0.333zM21.381 16.785l-2.096 2.096c-0.073 0.073-0.174 0.118-0.285 0.118s-0.212-0.045-0.285-0.118v0l-1.263-1.263c-0.073-0.073-0.118-0.174-0.118-0.285s0.045-0.212 0.118-0.285v0l0.429-0.429c0.073-0.073 0.174-0.118 0.285-0.118s0.212 0.045 0.285 0.118v0l0.547 0.548 1.383-1.381c0.073-0.073 0.174-0.118 0.285-0.118s0.212 0.045 0.285 0.118v0l0.429 0.429c0.073 0.073 0.118 0.174 0.118 0.285s-0.045 0.212-0.118 0.285v0zM12.619 18.88v0.001c-0.073 0.073-0.174 0.118-0.285 0.118s-0.212-0.045-0.285-0.118v0l-1.264-1.263c-0.073-0.073-0.119-0.174-0.119-0.285s0.045-0.212 0.119-0.285v0l0.431-0.429c0.073-0.073 0.174-0.117 0.285-0.117s0.212 0.045 0.285 0.117l-0-0 0.549 0.548 1.381-1.383c0.073-0.072 0.174-0.117 0.285-0.117s0.212 0.045 0.285 0.117l-0-0 0.431 0.429c0.073 0.073 0.118 0.174 0.118 0.285s-0.045 0.212-0.118 0.285v0z"></path></svg>
