<svg version="1.1" xmlns="http://www.w3.org/2000/svg" width="32" height="32" viewBox="0 0 32 32"><path d="M14.667 25.9v-9.133l-8-4.633v9.133l8 4.633zM17.333 25.9l8-4.633v-9.133l-8 4.633v9.133zM16 14.467l7.9-4.567-7.9-4.567-7.9 4.567 7.9 4.567zM5.333 23.6q-0.633-0.367-0.983-0.967t-0.35-1.333v-10.6q0-0.733 0.35-1.333t0.983-0.967l9.333-5.367q0.633-0.367 1.333-0.367t1.333 0.367l9.333 5.367q0.633 0.367 0.983 0.967t0.35 1.333v10.6q0 0.733-0.35 1.333t-0.983 0.967l-9.333 5.367q-0.633 0.367-1.333 0.367t-1.333-0.367l-9.333-5.367z"></path></svg>
