<svg version="1.1" xmlns="http://www.w3.org/2000/svg" width="32" height="32" viewBox="0 0 32 32"><path fill="#5c2d91" d="M4.223 10.087v11.665h1.364v-8.433c0.003-0.094 0.004-0.204 0.004-0.314 0-0.453-0.025-0.9-0.074-1.339l0.005 0.054h0.051c0.108 0.28 0.233 0.52 0.38 0.744l-0.009-0.015 5.996 9.303h1.676v-11.665h-1.362v8.203c-0.002 0.079-0.003 0.172-0.003 0.265 0 0.511 0.031 1.014 0.091 1.509l-0.006-0.059h-0.031c-0.073-0.141-0.231-0.4-0.474-0.78l-5.836-9.138zM16.643 10.087v11.665h6.2l0.006-1.28h-4.812v-4.044h4.211v-1.229h-4.211v-3.878h4.518v-1.235zM23.893 10.087v1.235h3.353v10.431h1.362v-10.431h3.392v-1.235zM0.871 20.089c-0.241 0.006-0.456 0.11-0.608 0.274l-0.001 0.001c-0.162 0.162-0.263 0.386-0.263 0.634 0 0.002 0 0.004 0 0.006v-0c-0 0.003-0 0.008-0 0.012 0 0.246 0.1 0.468 0.262 0.628l0 0c0.158 0.166 0.38 0.269 0.626 0.269 0.005 0 0.010-0 0.014-0h-0.001c0.002 0 0.004 0 0.006 0 0.249 0 0.474-0.103 0.634-0.268l0-0c0.166-0.16 0.269-0.384 0.269-0.632 0-0.003 0-0.006-0-0.009v0c0-0.001 0-0.002 0-0.003 0-0.25-0.103-0.475-0.268-0.637l-0-0c-0.16-0.169-0.387-0.275-0.638-0.275-0.001 0-0.002 0-0.002 0h0c-0.004-0-0.008-0-0.012-0-0.007 0-0.013 0-0.020 0l0.001-0z"></path></svg>
