<svg version="1.1" xmlns="http://www.w3.org/2000/svg" width="32" height="32" viewBox="0 0 32 32"><path fill="#005571" d="M30.16 25.947c-2.942 3.652-7.414 5.97-12.426 5.973h-0.001c-5.013-0.003-9.484-2.321-12.403-5.943l-0.024-0.031c2.945-3.639 7.41-5.947 12.415-5.947 0.004 0 0.008 0 0.012 0h-0.001c5.013 0 9.52 2.347 12.427 5.947zM13.76 16c0-2.027 1.667-3.987 3.493-3.987h0.56c5.213 0 9.467-2.347 12.387-5.973-2.962-3.648-7.443-5.962-12.465-5.973h-0.002c-5.013 0.003-9.484 2.321-12.403 5.943l-0.024 0.031c-2.184 2.685-3.507 6.146-3.507 9.916 0 0.015 0 0.031 0 0.046v-0.002c0 2.587 0.6 5.013 1.72 7.173 2.691-2.974 6.284-5.089 10.344-5.913l0.122-0.021c-0.12-0.4-0.24-0.84-0.227-1.24z"></path></svg>
