<svg version="1.1" xmlns="http://www.w3.org/2000/svg" width="32" height="32" viewBox="0 0 32 32"><path fill="#005571" d="M15.027 20.773h-12.88c-0.457-1.407-0.72-3.027-0.72-4.708 0-0.023 0-0.046 0-0.069v0.004c0-1.667 0.24-3.267 0.72-4.773h21.147c0.004 0 0.009-0 0.013-0 2.629 0 4.76 2.131 4.76 4.76 0 0.005 0 0.009-0 0.014v-0.001c0 0.008 0 0.017 0 0.027 0 2.617-2.118 4.739-4.733 4.747h-0.001zM14.427 22.373h-11.693c1.273 2.871 3.283 5.22 5.794 6.87l0.059 0.037c2.447 1.646 5.461 2.627 8.704 2.627 0.015 0 0.030-0 0.045-0h-0.002c5.533 0 10.373-2.827 13.24-7.067-1.468-1.522-3.523-2.47-5.798-2.48h-0.002zM24.773 9.64c2.267 0 4.333-0.96 5.8-2.467-2.904-4.284-7.748-7.062-13.242-7.062-6.485 0-12.065 3.87-14.557 9.427l-0.040 0.101h11.653z"></path></svg>
