<svg version="1.1" xmlns="http://www.w3.org/2000/svg" width="32" height="32" viewBox="0 0 32 32"><path fill="#005571" d="M27.093 21.754l-5.262-1.231-1.397-2.671 6.882-6.029c2.041 0.773 3.401 2.73 3.401 4.92 0 2.254-1.486 4.304-3.624 5.010zM23.138 27.975c-0.82 0-1.623-0.275-2.279-0.779l1.040-5.42 4.78 1.118c0.152 0.413 0.229 0.853 0.229 1.311 0 2.079-1.691 3.769-3.77 3.769zM19.632 27.196c-1.435 2.098-3.817 3.457-6.516 3.457-0.002 0-0.005 0-0.008 0h0c-4.353 0-7.895-3.542-7.895-7.895 0-0.534 0.052-1.062 0.154-1.571l6.868-6.207 7.008 3.194 1.552 2.965zM1.285 15.257c0-2.253 1.486-4.302 3.623-5.010l5.25 1.24 1.232 2.633-6.711 6.066c-2.037-0.776-3.394-2.735-3.394-4.929zM8.864 4.025c0 0 0.001 0 0.001 0 0.865 0 1.662 0.291 2.298 0.78l-0.009-0.007-1.048 5.439-4.783-1.129c-0.152-0.413-0.229-0.853-0.229-1.312 0-2.079 1.691-3.77 3.769-3.77zM12.402 4.809c1.473-2.144 3.895-3.423 6.492-3.423 4.342 0 7.873 3.532 7.873 7.874 0 0.531-0.050 1.039-0.152 1.548l-7.043 6.171-6.98-3.182-1.363-2.91zM31.951 16.758c0-2.674-1.658-5.011-4.152-5.92 0.106-0.515 0.167-1.108 0.167-1.714v0c0-4.97-4.043-9.013-9.014-9.013-2.903 0-5.604 1.392-7.301 3.739-0.799-0.625-1.817-1.002-2.924-1.002-0.002 0-0.003 0-0.005 0h0c-2.638 0-4.784 2.146-4.784 4.784 0 0.583 0.104 1.141 0.299 1.667-2.48 0.895-4.185 3.287-4.185 5.944 0 2.687 1.666 5.035 4.172 5.938-0.104 0.515-0.164 1.107-0.164 1.713v0.001c0 4.959 4.034 8.992 8.992 8.992 2.911 0 5.61-1.398 7.298-3.754 0.84 0.66 1.867 1.022 2.933 1.022 2.638 0 4.784-2.145 4.784-4.783 0-0.583-0.104-1.142-0.299-1.668 2.48-0.894 4.185-3.287 4.185-5.944z"></path></svg>
