<svg version="1.1" xmlns="http://www.w3.org/2000/svg" width="32" height="32" viewBox="0 0 32 32"><path fill="#ab2b28" d="M31.633 0.784c1.697 1.696-3.005 9.149-3.8 9.944-0.796 0.795-2.815 0.064-4.511-1.632s-2.427-3.716-1.632-4.511 8.248-5.497 9.943-3.801zM7.847 2.579c-2.589-1.469-6.273-3.104-7.447-1.932-1.187 1.187 0.507 4.956 1.992 7.551 1.32-2.297 3.2-4.232 5.455-5.619zM29.047 10.144c0.239 0.808 0.196 1.476-0.191 1.863-0.904 0.904-3.344-0.059-5.543-2.152-0.163-0.146-0.311-0.286-0.456-0.431l0 0c-0.796-0.796-1.413-1.643-1.811-2.423-0.771-1.381-0.963-2.603-0.38-3.184 0.317-0.317 0.824-0.404 1.444-0.293 0.404-0.255 0.88-0.54 1.403-0.831-2.055-1.093-4.493-1.735-7.082-1.735-0.009 0-0.018 0-0.026 0h0.001c-8.504 0-15.397 6.893-15.397 15.397 0 8.503 6.893 15.397 15.397 15.397s15.399-6.893 15.399-15.397c0-2.747-0.72-5.321-1.98-7.555-0.324 0.598-0.583 1.037-0.852 1.468l0.073-0.125z"></path></svg>
