<svg version="1.1" xmlns="http://www.w3.org/2000/svg" width="32" height="32" viewBox="0 0 32 32"><path fill="#eee" d="M16.864 3.571l-0.327-0.355c0.005-0.005 0.387-0.357 0.551-0.547 0.161-0.195 0.456-0.645 0.461-0.648l0.401 0.26c-0.019 0.021-0.312 0.479-0.5 0.696-0.183 0.22-0.571 0.576-0.587 0.593zM18.967 17.7c-0.016-0.005-0.32-0.205-0.487-0.295-0.156-0.079-0.427-0.195-0.563-0.255l0.284-0.816-1.197-0.592-0.381 1.161c-0.232 0.005-0.951 0.071-2.013 0.519-1.279 0.533-2.251 1.367-2.26 1.372l-0.191 0.167 0.855 0.033 0.027-0.021c0.008-0.008 0.961-0.713 1.492-0.94 0.117-0.049 0.276-0.099 0.44-0.14-0.279 0.14-0.585 0.303-0.8 0.427-0.265 0.159-0.76 0.508-0.781 0.524l-0.248 0.172 0.909 0.021 0.024-0.013c0.016-0.011 1.552-0.831 2.385-1.013l0.261-0.063c0.193-0.049 0.328-0.085 0.563-0.085 0.208 0 0.492 0.028 0.917 0.093 0.531 0.079 0.88 0.211 0.885 0.213l0.32 0.125-0.429-0.581-0.016-0.011zM6.993 7.969h-0.039l-1.341 1.221v0.040c-0.021 0.355 0.104 0.693 0.344 0.955 0.243 0.261 0.56 0.412 0.915 0.425h0.057c0.708 0 1.287-0.551 1.323-1.253 0.031-0.727-0.532-1.347-1.259-1.388zM6.933 10.411h-0.055c-0.156-0.007-0.307-0.043-0.44-0.113 0.060 0.011 0.131 0.013 0.197 0.003 0.379-0.047 0.641-0.388 0.597-0.767-0.047-0.372-0.391-0.64-0.768-0.589-0.352 0.045-0.609 0.356-0.595 0.708-0.041-0.12-0.060-0.244-0.060-0.373l1.216-1.111c0.595 0.056 1.053 0.575 1.024 1.176s-0.521 1.067-1.123 1.067zM19.372 5.444l-0.391-0.26-0.547 0.353-0.527-0.38-0.401 0.24 0.539 0.388-0.555 0.36 0.396 0.24 0.533-0.339 0.516 0.373 0.412-0.225-0.543-0.395zM32 26.033c-0.284-0.279-0.557-0.555-0.839-0.836-0.64-0.651-1.276-1.312-1.891-1.981-0.729-0.797-1.443-1.609-2.109-2.459-0.3-0.377-0.588-0.773-0.861-1.175-0.339-0.516-0.625-1.060-0.891-1.62-0.281-0.593-0.531-1.2-0.768-1.808 0.32 0.28 0.617 0.592 0.885 0.923 0.028-0.287 0.055-0.573 0.079-0.864l0.031-0.429c0-0.044 0.016-0.088-0.011-0.128-0.021-0.039-0.044-0.068-0.071-0.1-0.161-0.199-0.352-0.376-0.541-0.551-0.252-0.241-0.516-0.48-0.779-0.711l-0.24-0.208c-0.036-0.036-0.076-0.068-0.115-0.099-0.041-0.040-0.055-0.128-0.073-0.181l-0.205-0.639c0.809 0.38 1.479 0.988 2.104 1.62 0.005-0.292 0.005-0.581 0-0.869 0-0.152-0.003-0.305-0.011-0.461 0-0.039 0.008-0.133-0.021-0.169-0.016-0.027-0.041-0.048-0.057-0.073-0.145-0.156-0.312-0.289-0.476-0.419-0.229-0.191-0.467-0.369-0.703-0.544-0.208-0.156-0.424-0.309-0.636-0.46-0.024-0.021-0.101-0.052-0.085-0.080l0.052-0.107c0.027-0.047 0.019-0.060 0.071-0.039l0.227 0.079c0.541 0.208 1.039 0.491 1.524 0.811-0.164-0.6-0.415-1.18-0.7-1.728-0.519-1.016-1.191-1.957-1.951-2.807-0.505-0.568-1.047-1.099-1.625-1.591-0.297-0.253-0.609-0.492-0.932-0.711-0.151-0.099-0.3-0.199-0.461-0.289-0.065-0.040-0.14-0.075-0.2-0.125-0.24-0.192-0.487-0.379-0.732-0.572 0.317 0.131 0.625 0.28 0.919 0.451-0.169-0.259-0.456-0.441-0.727-0.581-0.409-0.212-0.849-0.368-1.289-0.504 0.151-0.16 0.312-0.304 0.461-0.464 0.151-0.16 0.297-0.328 0.44-0.496 0.169-0.2 0.336-0.4 0.5-0.607l-2.181-1.372c-0.164 0.328-0.369 0.635-0.611 0.907-0.24 0.271-0.521 0.492-0.8 0.719-0.255 0.208-0.505 0.421-0.755 0.629-0.063 0.053-0.123 0.113-0.193 0.16-0.033 0.028-0.128 0.005-0.169 0.005h-0.316c-0.396 0.008-0.795 0.039-1.188 0.091-0.077 0.009-0.151 0.017-0.233 0.011l-0.237-0.013c-0.183-0.011-0.361-0.021-0.544-0.021-0.385-0.005-0.773 0-1.161 0.033-0.325 0.029-0.652 0.073-0.972 0.149-0.317 0.075-0.615 0.229-0.88 0.416-0.257 0.188-0.516 0.427-0.672 0.707s-0.227 0.608-0.284 0.919c-0.18 0.017-0.357 0.013-0.533 0.021-0.188 0.011-0.369 0.028-0.555 0.052-0.36 0.049-0.713 0.128-1.060 0.24-0.661 0.205-1.26 0.54-1.781 1-0.26 0.241-0.503 0.507-0.719 0.795-0.027 0.033-0.049 0.068-0.084 0.091-0.013 0.012-0.036 0.021-0.044 0.036-0.020 0.036-0.044 0.069-0.068 0.101l-0.179 0.283c-0.224 0.38-0.368 0.793-0.511 1.208l-0.060 0.164 0.044-0.028c-0.013 0.089-0.027 0.18-0.033 0.269l-0.011 0.14v0.071l-0.088 0.017c-0.18 0.035-0.361 0.080-0.533 0.135-0.16 0.052-0.311 0.115-0.449 0.2-0.14 0.088-0.26 0.204-0.38 0.319-0.424 0.413-0.749 0.931-0.916 1.504-0.133 0.464-0.183 0.98-0.079 1.456 0.028 0.12 0.065 0.251 0.143 0.349 0.099 0.12 0.265 0.168 0.417 0.127 0.175-0.048 0.331-0.165 0.495-0.249l0.419-0.209c0.607-0.301 1.24-0.595 1.917-0.7 0.047-0.007 0.133 0.089 0.175 0.121 0.065 0.049 0.133 0.099 0.197 0.139 0.145 0.092 0.295 0.172 0.445 0.241 0.349 0.152 0.721 0.232 1.091 0.308 0.669 0.14 1.352 0.228 2.039 0.24 0.276 0.005 0.555 0 0.833-0.024 0.3-0.027 0.601-0.065 0.904-0.068 0.333-0.007 0.661 0.033 0.987 0.073 0.339 0.041 0.68 0.091 1.019 0.14 0.691 0.105 1.375 0.225 2.057 0.372-0.153 0.24-0.303 0.483-0.451 0.727-0.011 0.017-0.096 0-0.117 0-0.055-0.003-0.115-0.003-0.169 0-0.099 0-0.2 0.011-0.3 0.025-0.281 0.040-0.555 0.111-0.82 0.208-0.653 0.241-1.251 0.644-1.768 1.111-0.295 0.26-0.573 0.544-0.812 0.855-0.065 0.085-0.125 0.172-0.185 0.257 0.14-0.031 0.281-0.060 0.424-0.093 0.081-0.021 0.156-0.036 0.235-0.052 0.028-0.011 0.039-0.021 0.065-0.036 0.292-0.271 0.601-0.524 0.927-0.751 0.148-0.107 0.3-0.205 0.464-0.287 0.221-0.111 0.472-0.175 0.711-0.232-0.44 0.24-0.904 0.467-1.303 0.779-0.229 0.185-0.437 0.388-0.653 0.585l0.872-0.139c0.013 0 0.019-0.005 0.031-0.013l0.227-0.125c0.151-0.085 0.307-0.167 0.461-0.248 0.32-0.164 0.643-0.32 0.976-0.453 0.315-0.125 0.64-0.237 0.976-0.3 0.295-0.061 0.571-0.069 0.864 0 0.456 0.099 0.893 0.309 1.292 0.552 0.028 0.019 0.047 0.044 0.073 0.019 0.021-0.019 0.131-0.099 0.12-0.123l-0.24-0.445c-0.021-0.039-0.031-0.065-0.068-0.088l-0.175-0.103c-0.235-0.139-0.464-0.28-0.68-0.441-0.049-0.031-0.104-0.052-0.109-0.119-0.005-0.061 0.019-0.124 0.039-0.181 0.044-0.12 0.107-0.225 0.175-0.331 0.044-0.077 0.096-0.148 0.145-0.221 0.019-0.024 0.013-0.028 0.041-0.019l0.159 0.045c0.315 0.103 0.625 0.212 0.948 0.293 0.36 0.091 0.727 0.164 1.093 0.235l0.064 0.013c-0.075-0.040-0.121-0.12-0.176-0.181-0.031-0.040-0.047-0.067-0.099-0.080l-0.14-0.027c-0.099-0.021-0.197-0.040-0.3-0.065-0.349-0.076-0.7-0.159-1.036-0.279-0.5-0.173-1.011-0.309-1.527-0.429-0.648-0.143-1.303-0.259-1.953-0.367-0.333-0.055-0.664-0.099-1-0.145-0.328-0.045-0.661-0.093-0.995-0.116-0.719-0.045-1.432 0.116-2.153 0.108-0.487-0.005-0.979-0.073-1.461-0.14l-0.091-0.012c0.336-0.124 0.667-0.251 1-0.38 0.315-0.127 0.628-0.256 0.94-0.385 0.169-0.069 0.333-0.14 0.497-0.209 0.151-0.068 0.3-0.133 0.437-0.227 0.544-0.372 0.901-0.969 1.3-1.479 0.364-0.481 0.781-0.933 1.32-1.211 0.172-0.088 0.349-0.156 0.533-0.208-0.377-0.585-0.732-1.24-0.831-1.94 0.039 0.016 0.081 0.033 0.125 0.049 0.047 0.016 0.085 0.021 0.096 0.060l0.039 0.18c0.035 0.121 0.071 0.235 0.115 0.349 0.096 0.255 0.213 0.5 0.347 0.735 0.292 0.528 0.645 1.021 1.021 1.493 0.719 0.915 1.527 1.74 2.315 2.588 0.193 0.211 0.367 0.432 0.547 0.656 0.2 0.249 0.404 0.5 0.609 0.748 0.161 0.188 0.312 0.38 0.475 0.568l0.125 0.149c0.021 0.024 0.049 0.035 0.081 0.048 0.805 0.4 1.617 0.8 2.429 1.193 0.579 0.279 1.159 0.56 1.745 0.831 0.315 0.145 0.628 0.292 0.948 0.427 0.039 0.019 0.088 0.039 0.131 0.052 0.021 0.013 0.039 0.021 0.063 0.031l0.021 0.065c0.036 0.096 0.068 0.193 0.101 0.289 0.065 0.188 0.131 0.372 0.197 0.555 0.44 1.216 0.927 2.419 1.527 3.568 0.461 0.875 0.953 1.735 1.453 2.585 0.533 0.907 1.081 1.805 1.633 2.7 0.443 0.713 0.888 1.429 1.344 2.14 0.195 0.303 0.385 0.612 0.585 0.917l0.084 0.125 1.033-1.521 0.255-0.377c0.011-0.008 0.109-0.136 0.101-0.145l-0.208-0.32c-0.388-0.601-0.779-1.197-1.161-1.8l-1.104-1.711-0.14-0.221 0.875 1.065 1.487 1.8c0.161 0.195 0.315 0.385 0.472 0.584 0.292-0.536 0.585-1.068 0.883-1.601 0.115-0.219 0.235-0.44 0.355-0.656zM16.173 2.553c0.412-0.328 0.751-0.751 1.009-1.208l1.571 0.991 0.24 0.149c-0.328 0.4-0.661 0.805-1.033 1.164-0.047 0.045-0.099 0.092-0.143 0.139-0.028 0.033-0.063 0.068-0.093 0.1l-0.044 0.051c-0.031-0.009-0.060-0.021-0.091-0.027-0.195-0.055-0.385-0.107-0.581-0.148-0.389-0.088-0.785-0.156-1.181-0.203-0.255-0.028-0.513-0.053-0.771-0.077 0.367-0.312 0.743-0.623 1.117-0.931zM13.835 4.38c0.309-0.128 0.643-0.2 0.973-0.255 0.653-0.109 1.325-0.125 1.985-0.053 0.472 0.051 0.935 0.144 1.388 0.28l-0.188 0.153-0.3-0.081c-0.188-0.039-0.375-0.080-0.563-0.109-0.328-0.049-0.663-0.080-0.999-0.087-0.615-0.011-1.235 0.056-1.828 0.212-0.401 0.104-0.805 0.251-1.172 0.443-0.381 0.205-0.74 0.461-1.040 0.776-0.179 0.183-0.343 0.385-0.479 0.607-0.076 0.12-0.14 0.24-0.2 0.367-0.032 0.063-0.057 0.128-0.081 0.192l-0.039 0.1c-0.005 0.020-0.011 0.035-0.016 0.051l-0.091-0.015-0.109-0.015c0.312-0.959 1.017-1.715 1.891-2.199 0.276-0.152 0.568-0.291 0.867-0.372zM8.595 4.873c0.355-0.508 0.915-0.865 1.519-0.991 0.669-0.135 1.355-0.159 2.033-0.143-0.7 0.175-1.4 0.435-1.984 0.869-0.453 0.1-0.885 0.32-1.245 0.612-0.12 0.095-0.227 0.2-0.328 0.315-0.047 0.049-0.088 0.1-0.129 0.155-0.019 0.020-0.036 0.040-0.049 0.065h-0.112c0.031-0.18 0.073-0.36 0.131-0.533 0.039-0.12 0.085-0.24 0.159-0.347zM9.764 4.951c-0.193 0.191-0.36 0.404-0.521 0.625-0.063 0.092-0.131 0.204-0.24 0.255-0.113 0.052-0.259-0.007-0.373-0.041 0.299-0.372 0.695-0.659 1.135-0.839zM3.077 8.78c0.107-0.213 0.243-0.42 0.367-0.62 0.021-0.036 0.071-0.061 0.099-0.084 0.065-0.045 0.128-0.092 0.191-0.141 0.412-0.3 0.828-0.595 1.252-0.875 0.221-0.143 0.44-0.284 0.669-0.409 0.243-0.135 0.492-0.24 0.753-0.325 0.463-0.149 0.943-0.252 1.424-0.325 0.232-0.033 0.481-0.076 0.708-0.020-0.44 0.251-0.877 0.5-1.32 0.744-0.456 0.255-0.919 0.489-1.38 0.736-0.443 0.24-0.88 0.5-1.308 0.769-0.448 0.275-0.893 0.559-1.336 0.839-0.107 0.068-0.213 0.14-0.32 0.207 0.060-0.167 0.12-0.335 0.201-0.495zM4.423 12.855c-0.039 0.075-0.179 0.056-0.249 0.056-0.125 0-0.248 0-0.372 0.008-0.344 0.020-0.68 0.080-1.011 0.184-0.633 0.196-1.229 0.5-1.82 0.805-0.133 0.073-0.271 0.18-0.421 0.216-0.081 0.020-0.175-0.011-0.221-0.084-0.047-0.081-0.071-0.175-0.085-0.264-0.036-0.16-0.047-0.327-0.044-0.491 0-0.44 0.101-0.88 0.287-1.28 0.128-0.28 0.295-0.535 0.495-0.765 0.2-0.233 0.435-0.468 0.719-0.6 0.473-0.216 1.033-0.284 1.552-0.313 0.096-0.007 0.193-0.009 0.289-0.009 0.133 0 0.289-0.021 0.415 0.025 0.099 0.036 0.161 0.14 0.2 0.231 0.060 0.14 0.099 0.3 0.133 0.448 0.081 0.347 0.164 0.7 0.193 1.055 0.013 0.159 0.021 0.319 0.005 0.479-0.012 0.097-0.019 0.208-0.067 0.297zM8.192 10.221c-0.259 0.164-0.537 0.291-0.821 0.397-0.287 0.103-0.581 0.192-0.88 0.241-0.129 0.017-0.26 0.033-0.391 0.028-0.135-0.004-0.257-0.048-0.391-0.089-0.26-0.084-0.524-0.173-0.76-0.311-0.085-0.052-0.18-0.112-0.232-0.2-0.039-0.069-0.039-0.155-0.031-0.232 0.016-0.308 0.125-0.611 0.271-0.88 0.249-0.457 0.643-0.816 1.12-1.033 1.172-0.528 2.487-0.039 3.481 0.653l0.107 0.081c-0.205 0.22-0.415 0.428-0.631 0.636-0.265 0.252-0.539 0.508-0.845 0.708zM11.080 7.652c-0.633-0.271-1.235-0.611-1.808-0.984 0.599 0.251 1.245 0.4 1.885 0.493 0.344 0.049 0.695 0.096 1.041 0.107 0.375 0.011 0.752-0.028 1.12-0.1 0.727-0.137 1.424-0.407 2.088-0.735 0.659-0.327 1.285-0.716 1.884-1.145 0.289-0.207 0.573-0.42 0.844-0.649 0.028-0.021 0.232-0.215 0.245-0.205l0.055 0.041 0.716 0.555c0.437 0.339 0.877 0.68 1.317 1.016-1.208 0.435-2.435 0.839-3.669 1.205-0.692 0.208-1.384 0.401-2.087 0.56-0.549 0.131-1.112 0.252-1.675 0.28-0.676 0.029-1.341-0.18-1.96-0.44zM22.877 12.907c0.101 0.028 0.193 0.060 0.287 0.089l0.125 0.044c0.021 0.008 0.041 0.020 0.060 0.027l0.028 0.080c0.060 0.195 0.12 0.385 0.185 0.576-0.2-0.169-0.401-0.339-0.601-0.505l-0.12-0.099c-0.028-0.021-0.060-0.028-0.039-0.061l0.079-0.152zM21.987 14.831l0.047-0.084 0.036-0.061c0.016-0.024 0.011-0.029 0.039-0.016 0.172 0.072 0.344 0.148 0.513 0.227 0.32 0.147 0.633 0.307 0.937 0.485 0.143 0.087 0.289 0.18 0.429 0.273l0.2 0.14 0.099 0.076c0.044 0.036 0.055 0.084 0.076 0.136 0.139 0.376 0.292 0.752 0.451 1.125 0.104 0.252 0.216 0.505 0.331 0.755-0.391-0.495-0.828-0.953-1.276-1.393-0.461-0.461-0.94-0.895-1.437-1.308l-0.431-0.352zM26.995 23.393l-0.161 0.12 0.011 0.021 0.084 0.125 1.567 2.429c0.415 0.64 0.828 1.284 1.243 1.927l0.412 0.64 0.112 0.177c0.005 0.005 0.039 0.055 0.039 0.060-0.347 0.513-0.697 1.027-1.044 1.539-0.036 0.049-0.068 0.101-0.099 0.148-0.32-0.497-0.639-0.992-0.953-1.489-0.533-0.847-1.060-1.703-1.579-2.555-0.579-0.945-1.14-1.891-1.685-2.855-0.511-0.899-1-1.815-1.412-2.768-0.401-0.929-0.751-1.877-1.081-2.828 0.648 0.257 1.307 0.489 1.973 0.695 0.193 0.060 0.385 0.12 0.581 0.169l0.084 0.024c0.011 0 0.019-0.052 0.024-0.065 0.024-0.085 0.041-0.172 0.060-0.26 0.041-0.167 0.068-0.339 0.099-0.508 0.273 0.571 0.581 1.125 0.935 1.648 0.287 0.419 0.593 0.828 0.915 1.227 0.695 0.875 1.432 1.711 2.191 2.531 0.617 0.659 1.245 1.312 1.877 1.953l0.519 0.519c0.008 0.008 0.052 0.041 0.049 0.055l-0.041 0.071-0.197 0.367-0.784 1.424c-0.24-0.292-0.481-0.581-0.721-0.877l-1.5-1.815c-0.419-0.516-0.849-1.031-1.271-1.547l-0.248-0.3z"></path></svg>
