<svg version="1.1" xmlns="http://www.w3.org/2000/svg" width="32" height="32" viewBox="0 0 32 32"><path fill="#5c5543" d="M31.44 3.2c-1.284 1.608-3.4 8.635-15.28 8.947-5.671 0.149-8.48-6.308-8.48-6.308l-0.445 10.361c-1.108-1.389-2.593-2.273-4.019-2.32-0.042-0.002-0.092-0.003-0.142-0.003-0.671 0-1.29 0.222-1.787 0.597l0.008-0.005c-0.884 0.669-1.303 1.793-1.293 3.040 0.008 1.245 0.44 2.62 1.293 3.861s1.968 2.116 3.099 2.52c0.608 0.219 1.221 0.285 1.8 0.209 8.039 6.411 29.536 11.311 25.247-20.899zM11.205 11.8c1.687 0 3.085 1.253 3.485 2.928 0.645-1.587 2.152-2.703 3.908-2.703 2.344 0 4.237 1.987 4.237 4.429 0 2.444-1.893 4.445-4.237 4.445-2.041 0-3.747-1.52-4.153-3.525-0.583 1.304-1.804 2.221-3.24 2.221-1.22 0-2.288-0.663-2.937-1.661-0.135-0.304-0.263-0.552-0.405-0.792l0.019 0.036c-0.173-0.44-0.273-0.95-0.273-1.483 0-0.001 0-0.001 0-0.002v0c0-2.139 1.597-3.896 3.596-3.895zM11.205 12.28c-1.712 0-3.107 1.517-3.107 3.415s1.395 3.412 3.107 3.412c0.285 0 0.556-0.057 0.819-0.136-1.197-0.048-2.151-1.078-2.152-2.341v-0c0.001-1.295 1.001-2.344 2.235-2.344v0c1.060 0 1.948 0.775 2.177 1.815l0.003 0.016c0.016-0.14 0.039-0.276 0.039-0.421 0-1.897-1.408-3.413-3.12-3.415zM18.599 12.455c-2.101 0-3.813 1.779-3.813 4 0 2.223 1.712 4.011 3.813 4.011 0.788 0 1.52-0.251 2.128-0.683-0.337 0.159-0.73 0.252-1.144 0.253h-0c-1.579-0.002-2.859-1.345-2.859-3.003v0c0-1.657 1.28-3.001 2.859-3.003h0c0.001 0 0.001 0 0.002 0 1.397 0 2.561 1.051 2.811 2.441l0.003 0.019 0.004-0.035c0-2.223-1.703-4-3.804-4.001zM3.205 14.308c1.384 0.047 2.941 1.027 4.011 2.581 0.808 1.176 1.219 2.488 1.227 3.636s-0.376 2.119-1.128 2.688c-0.752 0.568-1.747 0.64-2.776 0.273-1.029-0.369-2.085-1.177-2.893-2.352-0.807-1.175-1.215-2.489-1.223-3.637-0.009-1.149 0.376-2.119 1.127-2.688 0.421-0.315 0.951-0.505 1.526-0.505 0.046 0 0.091 0.001 0.136 0.004l-0.006-0zM18.792 14.635c0 0 0 0 0 0-0.741 0-1.341 0.63-1.341 1.408 0 0.001 0 0.003 0 0.004v-0c0.001 0.776 0.601 1.405 1.341 1.405 0 0 0 0 0 0v0c0.739-0.001 1.339-0.629 1.34-1.405v-0c0-0.001 0-0.003 0-0.004 0-0.777-0.6-1.407-1.34-1.408h-0zM11.265 14.928c0 0 0 0 0 0-0.487 0-0.882 0.414-0.883 0.925v0c0 0.001 0 0.002 0 0.003 0 0.512 0.395 0.927 0.883 0.927 0 0 0 0 0 0v0c0 0 0 0 0 0 0.487 0 0.883-0.415 0.883-0.927 0-0.001 0-0.002 0-0.003v0c-0.001-0.511-0.396-0.925-0.883-0.925v0zM2.713 15.225c-0 0-0.001 0-0.001 0-0.823 0-1.49 0.84-1.491 1.876v0c0 0 0 0 0 0 0 1.037 0.667 1.877 1.491 1.877 0.001 0 0.002 0 0.003 0h-0c0.822-0.002 1.488-0.842 1.488-1.877 0 0 0 0 0 0v0c-0.001-1.036-0.667-1.875-1.489-1.876h-0zM21.615 20.556c0 0 1.983 0.58 2.681 1.527 0.697 0.944 0.259 1.527 0.076 2.733-0.269-0.704-0.543-1.256-0.828-1.577-1.080 1.679-4.139 2.477-8.24 2.079 1.84-0.096 3.268-0.384 4.401-0.779-1.867 0.12-4.285-0.36-7.153-1.423 5.683 1.193 8.577 0.084 10.271-1.288-0.447-0.607-1.208-1.272-1.208-1.272z"></path></svg>
