<svg version="1.1" xmlns="http://www.w3.org/2000/svg" width="32" height="32" viewBox="0 0 32 32"><path fill="#fca121" d="M6.459 1.205c-0.591 0.001-1.092 0.383-1.271 0.913l-0.003 0.009-3.373 10.377c0 0.009-0.007 0.016-0.009 0.027l-1.709 5.248c-0.060 0.177-0.094 0.381-0.094 0.593 0 0.635 0.309 1.198 0.785 1.546l0.005 0.004 14.763 10.727c0.123 0.090 0.277 0.144 0.443 0.144 0.17 0 0.326-0.056 0.452-0.15l-0.002 0.001 14.765-10.72c0.482-0.352 0.791-0.915 0.791-1.55 0-0.213-0.035-0.418-0.099-0.61l0.004 0.014-1.68-5.156c-0.010-0.053-0.025-0.099-0.043-0.143l0.002 0.005-3.368-10.367c-0.184-0.535-0.682-0.912-1.269-0.912-0.003 0-0.005 0-0.008 0h0c-0.003-0-0.007-0-0.010-0-0.585 0-1.082 0.382-1.252 0.911l-0.003 0.009-3.208 9.877h-10.131l-3.213-9.877c-0.173-0.538-0.67-0.92-1.255-0.92-0.001 0-0.002 0-0.002 0h0zM6.451 3.099l2.899 8.904h-5.784zM25.555 3.099l2.891 8.904h-5.789zM11.429 13.512h9.149l-2.867 8.824-1.712 5.255zM4.076 13.519h5.763l4.115 12.667zM22.167 13.519h5.768l-9.883 12.669 3.945-12.144zM2.8 14.349l9.304 11.929-10.424-7.576c-0.103-0.075-0.169-0.195-0.169-0.33 0-0.045 0.007-0.087 0.020-0.128l-0.001 0.003zM29.2 14.349l1.269 3.896c0.013 0.038 0.020 0.081 0.020 0.126 0 0.134-0.065 0.254-0.166 0.328l-0.001 0.001v0.003l-10.427 7.573 0.033-0.047z"></path></svg>
