<svg version="1.1" xmlns="http://www.w3.org/2000/svg" width="32" height="32" viewBox="0 0 32 32"><path fill="#a42e2b" d="M6.763 18.576c-0.295 0.016-0.559 0.188-0.692 0.451-0.153 0.281-0.519 0.323-0.689 0.268-0.28-0.093-0.641-0.159-0.992 0.091s-0.728 0.060-0.66-0.396c0.065-0.453 0.229-0.86 0.665-1.107 0.952-0.547 0.289-0.927 0.811-1.479 0.525-0.549 0.409-0.716 0.391-1.465-1.768-0.267-2.771-0.776-3.888-2.175-1.119-1.396-1.553-2.547-1.668-4.299-0.117-1.756-0.015-2.892 0.743-4.348 0.757-1.451 1.557-2.151 2.936-2.877 1.38-0.731 2.735-0.903 3.985-0.881 1.252 0.020 2.085 0.111 2.792 0.516 0.708 0.404 1.355 0.912 1.765 0.913 0.32 0.020 0.636-0.071 0.897-0.256 0.053 1.36-1.171 1.477-2.264 1.507-1.093 0.028-1.765-0.423-2.773-0.256-1.005 0.171-2.656 0.628-3.46 2.027-0.804 1.4-0.832 1.893-0.764 3.068 0.065 1.171 1.075 2.045 1.645 2.056 0.571 0.009 0.697-0.156 1.197-0.48 0.499-0.328 3.045-3.48 3.912-4.187 0.871-0.708 1.728-0.928 2.653-0.94 0.927-0.011 1.161 0.020 1.911 0.328 0.747 0.305 1.205 0.869 1.808 1.213 0.307-0.18 0.5-0.452 0.779-0.66 1.013-0.736 1.536-0.936 2.737-0.82 0.691 0.069 1.559 0.463 2.080 0.915 0.924 0.805 1.688 1.921 2.304 2.772 0.48 0.663 1.047 1.455 1.856 1.703 0.879 0.268 1.543-0.869 1.64-1.505 0.057-0.36 0.129-0.675 0.129-1.068 0-0.396-0.040-0.873-0.153-1.287-0.12-0.409-0.296-0.799-0.523-1.159-0.344-0.555-0.907-1.133-1.488-1.429-0.328-0.167-1.101-0.471-1.588-0.481-0.597-0.013-1.052 0.188-1.603 0.225-0.667 0.045-1.861 0.195-2.381-0.32-0.335-0.328-0.377-0.548-0.432-0.975 0.145 0.123 0.352 0.2 0.535 0.217 0.417 0.035 0.807-0.305 1.145-0.504 0.28-0.164 0.672-0.453 1.037-0.6 0.939-0.38 2.091-0.371 3.080-0.267 0.793 0.080 1.824 0.432 2.52 0.828 0.701 0.395 1.375 1.063 1.867 1.691 0.621 0.792 0.961 1.472 1.185 2.459 0.288 1.26 0.369 3.153 0.020 4.399-0.273 0.979-1.183 2.481-1.956 3.219-0.764 0.729-1.647 1.081-2.648 1.273 0.040 0.199 0.044 0.388 0.095 0.555 0.075 0.237 0.217 0.5 0.507 0.417 0.115-0.033 0.177-0.063 0.328 0.071 0.153 0.133 0.075 0.647-0.355 0.88-0.219 0.115-0.445 0.14-0.793 0.149-0.425 0.016-0.852-0.005-1.271-0.061-0.377-0.063-0.601-0.364-1.020-0.412-0.647-0.073-1.14-0.54-1.66-0.872-0.216-0.139-0.291-0.139-0.415-0.211 0.068 0.205 0.157 0.419 0.201 0.62 0.045 0.195 0.027 0.38 0.049 0.539 0.025 0.159 0.069 0.281 0.093 0.412 0.103 0.091 0.137 0.231 0.311 0.276 0.173 0.047 0.445-0.024 0.624-0.049 0.18-0.024 0.299-0.12 0.437-0.093 0.14 0.027 0.272 0.128 0.389 0.221s0.219 0.107 0.312 0.339c0.093 0.237 0.18 0.716 0.195 1.036 0.012 0.32-0.024 0.607-0.119 0.864-0.093 0.252-0.18 0.364-0.436 0.617s-0.675 0.62-1.092 0.88c0.077 0.112 0.111 0.216 0.231 0.339 0.12 0.125 0.369 0.263 0.479 0.393 0.113 0.131 0.171 0.224 0.171 0.369 0.016 0.175-0.028 0.349-0.124 0.497-0.297 0.399-0.644 0.469-1.071 0.656 0.072 0.445 0.131 0.763 0.027 1.208-0.040 0.183-0.136 0.593-0.36 0.7-0.225 0.107-0.656 0.055-0.931 0.099-0.273 0.041-0.425 0.084-0.639 0.125-0.131 0.188-0.323 0.396-0.388 0.563-0.065 0.169-0.045 0.229 0.008 0.399 0.056 0.172 0.247 0.421 0.3 0.625 0.052 0.2 0.065 0.415 0.015 0.617-0.051 0.2-0.156 0.383-0.307 0.528-0.172 0.18-0.509 0.32-0.679 0.461-0.167 0.148-0.336 0.164-0.289 0.404 0.063 0.331 0.545 0.861 0.893 0.992 0.247 0.073 0.509 0.052 0.743-0.055-0.019 0.279-0.26 0.472-0.42 0.659 0.429-0.125 0.848-0.36 1.139-0.672-0.089 0.271-0.4 0.705-0.86 1.088s-0.457 0.305-0.689 0.459c0.419 0.081 0.808 0.060 1.133 0.003-0.263 0.148-0.555 0.243-0.855 0.276-0.385 0.041-0.624 0.011-0.972-0.073s-0.665-0.401-1.085-0.62c0.040 0.159 0.071 0.347 0.247 0.508 0.181 0.159 0.447 0.243 0.732 0.377-0.363-0.039-0.744-0.049-1.099-0.128-0.265-0.063-0.443-0.123-0.637-0.219-0.192-0.093-0.34-0.235-0.512-0.352 0.081 0.156 0.105 0.341 0.245 0.469 0.139 0.131 0.367 0.18 0.549 0.265-0.191-0.005-0.375 0.039-0.573-0.013-0.213-0.049-0.416-0.145-0.591-0.279-0.213-0.159-0.415-0.333-0.593-0.528-0.176-0.193-0.395-0.443-0.46-0.617-0.064-0.177 0.040-0.3 0.059-0.451-0.12 0.081-0.268 0.125-0.363 0.24-0.093 0.117-0.176 0.221-0.135 0.424 0.040 0.2 0.229 0.451 0.361 0.675-0.395-0.323-0.615-0.448-0.708-0.833-0.085-0.364 0.139-0.693 0.311-0.967 0.085-0.139 0.216-0.265 0.295-0.399-0.18-0.172-0.38-0.32-0.533-0.519-0.151-0.2-0.216-0.469-0.369-0.656-0.156-0.191-0.365-0.309-0.547-0.464 0.159 0.341 0.423 0.763 0.479 1.028 0.059 0.265-0.064 0.429-0.159 0.573-0.093 0.143-0.245 0.177-0.389 0.263-0.147 0.091-0.369 0.021-0.456 0.151s-0.111 0.328-0.028 0.459l0.341 0.531c-0.168-0.096-0.313-0.224-0.436-0.375-0.099-0.128-0.248-0.251-0.265-0.421-0.021-0.175-0.031-0.328 0.084-0.484 0.112-0.156 0.424-0.208 0.563-0.328 0.14-0.12 0.216-0.197 0.208-0.352-0.008-0.156-0.159-0.265-0.289-0.364-0.399-0.3-0.907-0.573-1.245-0.932-0.145-0.14-0.255-0.312-0.319-0.505-0.040-0.14 0.001-0.251 0.095-0.419 0.096-0.175 0.42-0.407 0.461-0.591 0.039-0.188-0.127-0.229-0.273-0.295-0.148-0.065-0.429 0.033-0.567-0.081s0.040-0.355-0.115-0.487-0.508-0.060-0.692-0.2c-0.161-0.136-0.273-0.32-0.32-0.527-0.061-0.188-0.071-0.388-0.028-0.581 0.043-0.151 0.171-0.177 0.249-0.255 0.079-0.076 0.144-0.139 0.040-0.255-0.099-0.117-0.44 0.005-0.635-0.14-0.199-0.151-0.080-0.508-0.217-0.659-0.139-0.145-0.383-0.088-0.515-0.139-0.129-0.047-0.18 0.12-0.259-0.145-0.081-0.265-0.084-1.063-0.191-1.36s-0.317-0.021-0.415-0.315c-0.1-0.295-0.005-0.765-0.049-1.211l-0.2-1.213c-0.695 0.469-1.156 0.617-1.904 0.748-0.063 1.831-0.235 2.909 0.388 4.94 0.62 2.028 1.877 3.227 3.573 4.943-2.24-1.675-3.305-3.039-3.975-4.784-0.668-1.748-0.541-3.209-0.475-4.888zM18.655 17.839c0.172 0.008 0.38 0.052 0.501 0.131 0.121 0.081 0.251 0.143 0.36 0.252 0.275 0.281 0.48 0.617 0.571 1.003 0.059 0.248 0.067 0.563 0.085 0.852-0.083-0.265-0.137-0.544-0.256-0.784-0.185-0.38-0.501-0.748-0.896-0.917-0.088-0.041-0.188-0.055-0.285-0.036 0.031 0.055 0.084 0.101 0.087 0.177 0 0.079-0.016 0.232-0.149 0.297-0.213 0.104-0.452 0.028-0.619-0.115-0.169-0.156-0.221-0.401-0.136-0.612 0.105-0.259 0.5-0.259 0.737-0.248zM16.493 17.476c0.023-0.443 0.18-0.812 0.577-1.028 0.249-0.143 0.523-0.24 0.805-0.287 0.276-0.035 0.951-0.011 1.357 0.175 0.309 0.14 0.521 0.361 0.796 0.525 0.273 0.161 0.468 0.268 0.728 0.451 0.4 0.281 0.633 0.585 0.909 0.768 0.135 0.088 0.32 0.076 0.499 0.131-0.139 0.039-0.319 0.085-0.467 0.039-0.212-0.085-0.411-0.203-0.584-0.352-0.205-0.183-0.427-0.344-0.663-0.479-0.165-0.096-0.439-0.211-0.621-0.328-0.18-0.12-0.495-0.377-0.669-0.465-0.276-0.115-0.571-0.172-0.867-0.167-0.341 0.011-0.835 0.067-1.096 0.304-0.263 0.24-0.361 0.448-0.303 0.755 0.097-0.112 0.164-0.255 0.26-0.339 0.205-0.177 0.439-0.185 0.695-0.151 0.287 0.036 0.429 0.2 0.524 0.472-0.063-0.044-0.18-0.145-0.272-0.18-0.192-0.073-0.408-0.052-0.584 0.057-0.239 0.131-0.173 0.32-0.205 0.528-0.017 0.101-0.055 0.177-0.081 0.265-0.089-0.021-0.172-0.065-0.24-0.131 0.001 0.101-0.013 0.188 0.008 0.297 0.019 0.112 0.073 0.245 0.112 0.364-0.168-0.167-0.341-0.32-0.447-0.536-0.115-0.209-0.175-0.449-0.172-0.689zM16.785 14.276c0.121-0.181 0.159-0.46 0.232-0.689-0.028 0.289 0.028 0.604-0.111 0.812-0.14 0.211-0.389 0.172-0.591 0.235 0.157-0.12 0.344-0.175 0.469-0.357zM13.843 18.547c0.159-0.128 0.584-0.027 0.901-0.003l-0.685 0.177c-0.023 0.079-0.013 0.164-0.064 0.232-0.053 0.068-0.152 0.091-0.228 0.139 0.008-0.207-0.083-0.417 0.076-0.545zM16.087 9.677c0.191 0.1 0.428 0.237 0.599 0.24 0.165 0.005 0.211-0.107 0.309-0.175 0.153 0.507 0.333 1.063 0.597 1.523 0.111 0.195 0.181 0.105 0.267 0.299 0.084 0.193 0.12 0.585 0.2 0.835 0.079 0.249 0.183 0.428 0.276 0.644-0.232-0.333-0.535-0.755-0.667-1.031-0.131-0.276-0.047-0.3-0.153-0.561-0.104-0.264-0.317-0.672-0.476-1.008-0.115 0.015-0.253 0.035-0.34 0.008-0.087-0.028-0.072-0.121-0.149-0.179-0.079-0.060-0.211-0.036-0.32-0.133-0.108-0.093-0.133-0.289-0.143-0.461zM15.064 12.177c0.18-0.016 0.399 0.031 0.567 0.023s0.288-0.052 0.433-0.080c-0.028-0.252-0.003-0.716-0.235-0.885-0.153-0.107-0.771-0.027-0.935 0.008-0.372 0.081-0.805 0.303-1.164 0.44 0.344-0.24 0.641-0.461 1.055-0.585 0.251-0.073 0.828-0.172 1.084-0.101 0.119 0.031 0.14 0.081 0.212 0.18 0.244 0.34 0.244 0.633 0.305 1.031 0.063 0.095 0.128 0.159 0.18 0.259 0.051 0.124 0.083 0.253 0.091 0.385-0.064-0.092-0.024-0.207-0.199-0.275-0.18-0.071-0.449-0.007-0.689 0.019 0.175 0.128 0.26 0.248 0.268 0.512 0.008 0.311-0.255 0.535-0.531 0.556-0.38 0.029-0.579-0.055-0.732-0.38-0.068-0.143-0.021-0.315-0.024-0.455-0.461 0.032-0.453 0.017-0.789 0.296 0.185 0.268 0.299 0.42 0.601 0.581 0.167 0.088 0.36 0.177 0.567 0.213 0.209 0.036 0.553 0.071 0.775 0.036 0.193-0.024 0.371-0.109 0.505-0.249 0.164-0.149 0.18-0.365 0.243-0.537-0.005 0.169-0.036 0.336-0.093 0.495-0.187 0.36-0.507 0.469-0.891 0.469-0.367 0-0.821-0.084-1.164-0.225-0.273-0.113-0.727-0.433-0.833-0.712-0.075-0.191-0.016-0.424-0.024-0.636 0.38-0.252 0.472-0.191 0.919-0.264 0.188-0.033 0.319-0.101 0.499-0.117zM12.857 10.472c0.009-0.152 0.028-0.148 0.040-0.223-0.345-0.092-0.481 0.132-0.685 0.548-0.076 0.153 0 0.248-0.083 0.351-0.079 0.101-0.212 0.087-0.343 0.185s-0.261 0.287-0.385 0.389c-0.252 0.208-0.596 0.335-0.889 0.477 0.2-0.148 0.591-0.372 0.717-0.585 0.067-0.115 0.056-0.329 0.16-0.433 0.104-0.1 0.14-0.173 0.273-0.199s0.081-0.181 0.124-0.305c0.043-0.121 0.129-0.211 0.22-0.335s0.208-0.307 0.388-0.376c0.18-0.065 0.463 0.007 0.6-0.031 0.136-0.039 0.057-0.14 0.157-0.2s0.292-0.031 0.427-0.096c0.235-0.112 0.347-0.303 0.489-0.503 0.020 0.435 0.013 0.748-0.143 1.159-0.175 0.461-0.355 0.733-0.855 1.017-0.171 0.096-0.343 0.131-0.487 0.183 0.083-0.115 0.203-0.164 0.251-0.341 0.045-0.181 0.012-0.533 0.023-0.683zM20.936 12.595c-0.236 0.019-0.292-0.016-0.484 0.121l0.309 0.48c-0.008-0.316 0.024-0.38 0.177-0.601zM20.316 12.365c0.328-0.139 0.615-0.252 0.973-0.276 0.143-0.011 0.365 0.012 0.511 0.021 0.125-0.183 0.281-0.325 0.341-0.533 0.037-0.139 0.020-0.779-0.051-0.945-0.195-0.481-0.387-0.503-0.66-0.78-0.195-0.199-0.203-0.507-0.263-0.851-0.020-0.125-0.083-0.284-0.112-0.413-0.377-0.061-0.76-0.083-1.143-0.060 0.197-0.191 0.388-0.361 0.445-0.648 0.060-0.305 0.005-0.621-0.151-0.889-0.161-0.255-0.42-0.48-0.659-0.689-0.237-0.207-0.581-0.379-0.805-0.549 0.295-0.103 0.592-0.259 0.88-0.313 0.748-0.144 1.391 0.076 2.112 0.512 0.42 0.253 0.764 0.493 1.203 0.955 0.439 0.459 0.98 1.3 1.405 1.797 0.423 0.5 0.767 0.893 1.137 1.191 0.368 0.301 0.704 0.385 1.056 0.575l0.549 0.584 0.447-0.551 0.713 0.080 0.148-0.801 0.653-0.181-0.105-1.081 0.472-0.336-0.356-0.672 0.36-0.737-0.469-0.84 0.18-0.809-0.543-0.464-0.071-0.861-0.759-0.289-0.303-0.748-0.853-0.009-0.42-0.556-0.575 0.040-0.639-0.071-0.36-0.265-0.528 0.347-0.636-0.331-1.263 0.479 0.824-0.716 0.853-0.136 0.653-0.168 0.884 0.291 0.776-0.196 0.751 0.441 0.795-0.041 0.391 0.7 0.788 0.089 0.427 0.775 0.496 0.273 0.133 0.995 0.444 0.42-0.197 0.871 0.52 0.659-0.484 0.705 0.52 0.443-0.665 0.591 0.675 0.705-0.817 0.267 0.531 0.755-0.668 0.117 0.437 0.829-0.751-0.011 0.38 0.621-0.828-0.099 0.197 0.896-0.624-0.548-0.212 1.085-0.429-0.78-0.233 0.973-0.529-0.716 0.015 1.020-0.585-0.917c0.121 0.521 0.097 1.089 0.439 1.58 1.059-0.143 1.749-0.409 2.561-1.189 0.736-0.711 1.619-2.192 1.859-3.133 0.272-1.069 0.28-3.041 0.012-4.135-0.259-1.049-0.595-1.551-1.195-2.409-0.573-0.607-1.137-1.252-1.865-1.685-1.071-0.64-2.439-0.811-3.656-0.795-0.524 0.001-1.041 0.099-1.531 0.287-0.703 0.255-1.267 0.815-1.983 1.091-0.233 0.089-0.42 0.091-0.605-0.005 0.18 0.36 0.375 0.521 0.825 0.652 0.325 0.095 1.1 0.035 1.636-0.015 0.573-0.052 0.872-0.223 1.652-0.213 0.76 0.013 1.365 0.3 1.696 0.491 0.681 0.389 1.169 0.819 1.595 1.505 0.233 0.376 0.397 0.801 0.511 1.233 0.115 0.432 0.165 0.917 0.173 1.341s-0.025 0.803-0.129 1.184c-0.243 0.892-0.777 1.8-1.876 1.66-0.672-0.084-1.684-1.347-2.024-1.809-0.687-0.935-1.391-1.969-2.251-2.745-0.543-0.488-1.227-0.792-1.951-0.867-1.323-0.12-1.716 0.131-2.711 0.953 0.201 0.063 0.399 0.099 0.607 0.193 0.461 0.208 0.883 0.476 1.251 0.82 0.387 0.36 0.56 0.589 0.573 1.105 0.009 0.345-0.272 0.62-0.532 0.865-0.157 0.152-0.367 0.291-0.496 0.409-0.169 0.156-0.38 0.328-0.165 0.576 0.080 0.093 0.22 0.164 0.336 0.252 0.188 0.137 0.1 0.651-0.144 0.789-0.301 0.181-0.684 0.148-0.951-0.081 0.328-0.047 0.536-0.091 0.527-0.36-0.003-0.153-0.199-0.284-0.396-0.372-0.467-0.213-0.819-0.18-1.284-0.516-0.471-0.339-0.479-0.524-0.607-1.053-0.227 0.023-0.436 0.028-0.74 0.129-0.301 0.099-0.637 0.339-0.912 0.399-0.693 0.148-0.831 0.104-1.209 0.008-0.668-0.176-1.535 0.12-2.4 0.399-0.143 0.044-0.724 0-1.115 0.136-0.704 0.279-1.359 0.661-1.943 1.137-0.741 0.625-1.715 2.492-2.264 4.636-0.060 0.653 0.127 1.091-0.284 1.409-0.411 0.32-0.4 1.135-0.54 1.364-0.137 0.227-0.3 0.125-0.6 0.448-0.297 0.32-0.449 0.268-0.443 0.872 0.26-0.167 0.636-0.364 0.967-0.38 0.295-0.008 0.296 0.377 1.047-0.364 0.401-0.399 1.175-0.412 1.711-0.585s1.5-0.536 2.468-1.616c0.965-1.080 1.428-2.219 1.616-3.861 0.027 0.287 0.080 0.617-0.044 1.42-0.127 0.805-0.395 1.707 0.172 2.792l0.353 0.672c-0.209-0.287-0.62-0.755-0.747-1.088l-0.281-0.771c-0.64 1.004-0.787 1.183-1.673 1.9-0.035 0.445-0.044 0.909 0.101 1.336 0.144 0.427-0.085 0.917 0.027 1.2 0.109 0.279 0.364 0.12 0.448 0.404s-0.043 0.847 0.085 1.123c0.132 0.276 0.449 0.109 0.604 0.2 0.153 0.088 0.205 0.211 0.287 0.328 0.084 0.117-0.031 0.396 0.137 0.487 0.168 0.088 0.427 0.013 0.604 0.099 0.173 0.088 0.199 0.297 0.159 0.481-0.043 0.188-0.229 0.273-0.311 0.464-0.083 0.159-0.073 0.349 0.027 0.497 0.099 0.175 0.315 0.268 0.533 0.36 0.216 0.085 0.521 0.036 0.745 0.159 0.225 0.12 0.427 0.364 0.544 0.541 0.119 0.175 0.151 0.3 0.145 0.484-0.019 0.205-0.079 0.401-0.183 0.579-0.099 0.18-0.315 0.399 0.027 0.74 0.339 0.339 0.328 0.193 0.524 0.417-0.023-0.385-0.18-0.695-0.065-0.984 0.117-0.289 0.465-0.341 0.645-0.469 0.185-0.133 0.292-0.309 0.435-0.464 0 0.197 0.020 0.412-0.003 0.56-0.044 0.303-0.136 0.576 0.316 0.623 0.204 0.021 0.399-0.109 0.612-0.188-0.112 0.197-0.307 0.36-0.337 0.601-0.037 0.26 0.024 0.527 0.173 0.745 0.165 0.24 0.455 0.417 0.665 0.555 0.211 0.14 0.325 0.153 0.487 0.232 0.008 0.235-0.040 0.484-0.012 0.708 0.025 0.224 0.097 0.419 0.225 0.604 0.131 0.188 0.336 0.292 0.531 0.427-0.107-0.251-0.323-0.487-0.32-0.748s0.080-0.445 0.336-0.68c0.255-0.232 0.852-0.432 1.133-0.659 0.208-0.145 0.372-0.347 0.473-0.581 0.1-0.219 0.073-0.573 0.092-0.768 0.092 0.273 0.105 0.36 0.137 0.648 0.028 0.289-0.169 0.695-0.252 0.907 0.304-0.14 0.545-0.391 0.68-0.7 0.076 0.047 0.037 0.167 0.065 0.401 0.125-0.123 0.265-0.216 0.391-0.333s0.26-0.219 0.324-0.383c0.061-0.161 0.036-0.336-0.009-0.524-0.047-0.191-0.257-0.409-0.372-0.617-0.112-0.203 0.021-0.407 0.013-0.656-0.227-0.039-0.419-0.156-0.683-0.117-0.26 0.039-0.56 0.331-0.828 0.336-0.265 0-0.419-0.251-0.637-0.317-0.22-0.071-0.44-0.060-0.66-0.093 0.279-0.265 1.361-0.393 2.101-0.513 0.648-0.109 1.304-0.167 1.96-0.177 0.295-0.008 0.675 0.091 0.881 0.033 0.203-0.060 0.159-0.2 0.219-0.352 0.172-0.424 0.088-0.805-0.005-1.232-0.592-0.071-1.211-0.153-1.808-0.109-0.584 0.044-1.275 0.323-1.879 0.341-0.523 0.019-1.301-0.099-1.749-0.375-0.551-0.333-0.975-1.052-1.127-1.287-0.245-0.375-0.555-1.115-0.745-1.451-0.188-0.339-0.231-0.432-0.387-0.573-0.157-0.14-0.371-0.151-0.559-0.227 0.215 0.019 0.448-0.047 0.643 0.063 0.295 0.169 0.62 0.864 0.803 1.169 0.193-0.648 0.148-0.901 0.705-1.268-0.448 0.505-0.461 0.888-0.571 1.481 0.375 0.612 0.893 1.591 1.573 1.861 0.248 0.099 0.669 0.159 0.935 0.193 0.828 0.101 1.627-0.159 2.437-0.36 0.593-0.148 1.196-0.088 1.917-0.047 0.244 0.016 0.821-0.133 0.943-0.377 0.069-0.143 0.056-0.309-0.032-0.44-0.093-0.14-0.34-0.211-0.473-0.339-0.132-0.131-0.208-0.281-0.313-0.419-0.467 0.091-0.939 0.14-1.416 0.153 0.295-0.12 0.577-0.188 0.88-0.307 0.316-0.131 0.617-0.292 0.901-0.479 0.248-0.164 0.404-0.257 0.584-0.445 0.179-0.191 0.407-0.385 0.539-0.617s0.152-0.492 0.16-0.779c0.005-0.287-0.007-0.688-0.117-0.921-0.112-0.229-0.324-0.3-0.496-0.352-0.169-0.055-0.288 0.084-0.465 0.101-0.179 0.019-0.344 0.128-0.603 0.008-0.331-0.172-0.615-0.424-0.823-0.732-0.261-0.365-0.447-0.964-0.712-1.424-0.457-0.795-1.028-1.532-1.572-2.269-0.047-0.18-0.112-0.432-0.136-0.677-0.041-0.429-0.047-0.875 0.087-1.292 0.1-0.32 0.251-0.659 0.584-0.789 0.133-0.057 0.283-0.068 0.423-0.029 0.12 0.043 0.239 0.18 0.189 0.336-0.052 0.172-0.169 0.179-0.251 0.264-0.121 0.121-0.204 0.273-0.244 0.44 0.148-0.005 0.349-0.015 0.472 0.017 0.16 0.040 0.305 0.147 0.388 0.372-0.191-0.168-0.284-0.247-0.52-0.251-0.111-0.003-0.243 0.035-0.361 0.055-0.045 0.144-0.072 0.324-0.135 0.439-0.065 0.112-0.188 0.084-0.235 0.215-0.044 0.171-0.052 0.348-0.027 0.521zM21.972 12.167c0.075 0.028 0.1 0.036 0.195 0.107 0.092 0.069 0.22 0.139 0.293 0.305 0.059 0.172 0.077 0.355 0.053 0.533-0.064-0.020-0.151-0.007-0.217-0.063-0.067-0.057-0.105-0.187-0.191-0.24-0.087-0.057-0.156-0.045-0.251-0.057 0.051 0.128 0.067 0.265 0.048 0.401-0.048 0.271-0.208 0.409-0.469 0.44-0.112 0.016-0.292-0.021-0.389-0.039 0.045 0.1 0.121 0.191 0.168 0.292 0.219-0.031 0.38-0.027 0.5-0.081 0.117-0.055 0.244-0.18 0.395-0.231 0.151-0.052 0.285-0.052 0.451-0.079-0.131 0.112-0.216 0.223-0.345 0.337l0.285 0.831c0.203 0.128 0.392 0.195 0.647 0.351 0.255 0.155 0.56 0.436 0.893 0.587 0.332 0.151 0.528 0.236 0.876 0.3 0.345 0.067 0.623 0.349 0.963 0.395 0.34 0.043 0.98 0.055 1.243 0.028 0.3-0.028 0.688-0.181 0.723-0.509-0.251 0.060-0.633 0.007-0.825-0.465-0.085-0.209-0.045-0.596-0.176-0.841-0.132-0.249-0.315-0.328-0.533-0.633s-0.575-0.785-0.773-1.193c-0.2-0.411-0.251-0.872-0.417-1.239-0.171-0.365-0.425-0.66-0.625-0.944-0.432-0.617-0.78-1.036-1.493-1.348-0.344-0.149-0.735-0.191-1.099-0.284-0.151 0.067-0.357 0.139-0.393 0.316-0.028 0.2 0.028 0.407 0.16 0.561 0.212 0.22 0.527 0.456 0.649 0.804 0.081 0.224 0.101 0.973 0.033 1.177-0.072 0.213-0.237 0.343-0.376 0.481zM22.041 13.941c-0.065 0.057-0.116 0.116-0.223 0.163-0.107 0.048-0.252 0.060-0.393 0.095 0.197 0.308 0.407 0.621 0.596 0.945 0.191 0.323 0.355 0.68 0.535 1.020-0.009-0.196 0.003-0.403-0.025-0.584s-0.111-0.339-0.193-0.615c-0.080-0.275-0.18-0.645-0.296-1.024zM16.709 7.159c-0.028 0.301 0.025 0.775 0.085 1.075 0.077 0.356 0.148 0.539 0.437 0.752 0.528 0.393 0.864 0.327 1.273 0.555 0.193 0.108 0.437 0.289 0.509 0.479 0.071 0.195-0.048 0.401-0.195 0.484 0.256 0.039 0.544-0.252 0.424-0.547-0.060-0.145-0.34-0.213-0.427-0.361-0.079-0.136-0.093-0.299-0.044-0.447 0.071-0.269 0.605-0.517 0.796-0.728 0.291-0.331 0.4-0.604 0.236-1.027-0.229-0.593-1.123-1.072-1.656-1.305-0.244-0.107-0.383-0.112-0.572-0.172 0.389 0.232 0.801 0.413 1 0.921 0.164 0.428 0.020 0.591 0.028 0.961 0.003 0.173 0.229 0.26 0.331 0.367 0.085 0.096 0.080 0.167 0.011 0.297-0.005-0.107-0.060-0.205-0.148-0.265-0.149-0.107-0.312-0.084-0.392-0.3-0.12-0.331 0.121-0.645-0.149-1.016-0.2-0.277-0.471-0.588-0.833-0.596-0.164-0.001-0.325 0.024-0.48 0.077l-0.244-0.293-0.007-0.004c-0.496-0.452-0.836-0.825-1.529-1.136-0.696-0.312-1.040-0.36-1.839-0.341-0.796 0.017-1.587 0.084-2.511 0.88-0.925 0.8-3.308 3.851-3.887 4.236-0.575 0.385-0.703 0.519-1.424 0.519s-1.849-1.021-1.893-2.297c-0.043-1.275-0.060-1.729 0.825-3.265 0.888-1.536 2.492-2.008 3.685-2.167 1.193-0.161 1.909 0.259 2.789 0.26 0.88 0.003 1.752-0.148 2.011-0.849-0.127 0.075-0.295 0.16-0.769 0.135-0.473-0.025-1.132-0.575-1.869-0.941-0.74-0.368-1.56-0.412-2.616-0.431-1.053-0.020-2.369 0.060-3.673 0.765-1.304 0.7-2.193 1.447-2.951 2.827-0.757 1.377-0.869 2.5-0.747 4.169 0.12 1.667 0.636 2.908 1.625 4.131 0.992 1.219 1.981 1.817 3.765 2.039l0.377-1.656-0.672 0.961 0.019-1.071-0.607 0.753-0.269-1.023-0.489 0.82-0.244-1.14-0.715 0.576 0.227-0.94-0.943 0.104 0.432-0.655-0.859 0.008 0.5-0.871-0.76-0.121 0.605-0.795-0.931-0.275 0.771-0.74-0.764-0.623 0.597-0.464-0.56-0.745 0.597-0.693-0.223-0.913 0.505-0.439 0.151-1.048 0.568-0.285 0.488-0.815 0.903-0.096 0.445-0.737 0.907 0.047 0.856-0.464 0.888 0.205 1.008-0.304 0.749 0.173 0.975 0.144 0.94 0.752-1.441-0.503-0.725 0.347-0.601-0.364-0.413 0.279-0.733 0.076-0.655-0.040-0.477 0.581-0.976 0.009-0.347 0.785-0.867 0.304-0.081 0.904-0.623 0.488 0.207 0.849-0.536 0.885 0.413 0.775-0.407 0.705 0.539 0.352-0.12 1.137 0.751 0.188 0.167 0.844 0.817-0.084 0.508 0.579 0.627-0.615c1.144-0.571 1.616-0.891 2.509-1.855 1.012-1.097 1.595-2.112 2.944-2.863 0.972-0.54 1.761-0.735 2.852-0.544 1.021 0.176 1.365 0.791 2.12 1.436 0.081-0.145 0.093-0.185 0.225-0.291-0.040 0.189-0.105 0.383-0.124 0.564z"></path></svg>
