<svg version="1.1" xmlns="http://www.w3.org/2000/svg" width="32" height="32" viewBox="0 0 32 32"><path fill="#4285f4" d="M15.992 1.395h0.029c1.199 0.003 2.307 0.401 3.197 1.073l0.004 0.001 0.001 0.001c0.612 0.464 1.111 1.041 1.474 1.704l0.014 0.028 5.956 10.359 0.033 0.087 4.559 7.903c0.465 0.773 0.74 1.706 0.74 2.703 0 0.004 0 0.007 0 0.011v-0.001c0 0.753-0.156 1.472-0.439 2.123l0.008 0.021c-0.228 0.507-0.511 0.944-0.85 1.33l0.005-0.006c-0.392 0.458-0.852 0.843-1.368 1.144l-0.025 0.014c-0.744 0.439-1.637 0.703-2.591 0.716l-0.004 0h-0.091c-1.207-0.001-2.319-0.404-3.21-1.083l0.013 0.009-0.004-0.001v-0.001h-0.001c-0.612-0.464-1.111-1.041-1.474-1.704l-0.014-0.028-5.956-10.359-0.033-0.087-4.58-7.94c-0.452-0.764-0.719-1.685-0.719-2.667 0-0.003 0-0.006 0-0.009v0c0-0.565 0.088-1.109 0.251-1.62v-0.001l0.011-0.033 0.013-0.040c0.069-0.209 0.156-0.449 0.156-0.449 0.211-0.477 0.495-0.919 0.835-1.312l0.084-0.096 0.019-0.020 0.003-0.004 0.004-0.004 0.012-0.013 0.008-0.009c0.36-0.395 0.787-0.743 1.275-1.023 0.744-0.439 1.637-0.703 2.591-0.716l0.004-0zM5.341 30.605h-0.077c-0.957-0.013-1.85-0.277-2.62-0.73l0.025 0.014c-0.541-0.314-1.001-0.699-1.387-1.15l-0.006-0.007c-0.334-0.38-0.617-0.817-0.832-1.291l-0.013-0.033 0.008-0.021c-0.277-0.623-0.439-1.35-0.439-2.115 0-0.003 0-0.005 0-0.008v0c0-0.991 0.269-1.919 0.74-2.713l4.559-7.903 0.033-0.087 4.052-7.048c0.101 0.864 0.368 1.708 0.795 2.475l0.076 0.133 4.503 7.805-0.004-0.013 0.089 0.189 0.388 0.676-5.185 9.019c-0.377 0.691-0.876 1.268-1.475 1.722l-0.013 0.010h-0.001v0.001l-0.004 0.001c-0.878 0.669-1.991 1.072-3.197 1.073h-0z"></path></svg>
