<svg version="1.1" xmlns="http://www.w3.org/2000/svg" width="32" height="32" viewBox="0 0 32 32"><path d="M30.267 5.733c-2-2-5.067-2-7.067-0.133-0.133 0.133-0.133 0.267-0.133 0.4s0 0.267 0.133 0.4l0.667 0.667c0.133 0.133 0.4 0.133 0.667 0 0.533-0.4 1.067-0.533 1.733-0.533 1.6 0 2.933 1.333 2.933 2.933 0 0.8-0.267 1.467-0.8 2-4 4-9.467-7.2-21.6-1.467-0.8 0.4-1.2 1.333-0.8 2.133v0.133l2 3.6c0.4 0.8 1.467 1.067 2.267 0.667l0.933-0.533c1.067-0.667 2-1.333 2.933-2.133 0.133-0.133 0.533-0.133 0.667 0 0.267 0.133 0.267 0.4 0.133 0.667l-0.133 0.133c-0.933 0.8-2 1.6-3.067 2.267l-0.933 0.4c-0.4 0.267-0.8 0.4-1.333 0.4-0.933 0-1.867-0.533-2.267-1.333l-2-3.467c-3.733 2.667-6.133 7.867-4.8 14.4 0 0.267 0.267 0.4 0.533 0.4h2.267c0.267 0 0.4-0.133 0.533-0.4 0.267-1.867 1.867-3.067 3.733-2.8 1.467 0.133 2.667 1.333 2.8 2.8 0 0.267 0.267 0.4 0.533 0.4h2.133c0.267 0 0.4-0.133 0.533-0.4 0.267-1.867 1.867-3.067 3.733-2.8 1.467 0.133 2.667 1.333 2.8 2.8 0 0.267 0.267 0.4 0.533 0.4h2.133c0.267 0 0.533-0.267 0.533-0.533 0-3.067 0.933-6.533 3.2-8.267 7.867-6.133 5.733-11.333 3.867-13.2zM22 14.933l-1.6-0.8c0-0.533 0.4-0.933 0.933-0.933s0.933 0.4 0.933 0.933c0.133 0.4 0 0.667-0.267 0.8z"></path></svg>
