<svg version="1.1" xmlns="http://www.w3.org/2000/svg" width="32" height="32" viewBox="0 0 32 32"><path fill="#f46800" d="M30.665 14.168c-0.057-0.54-0.141-1.164-0.312-1.845s-0.455-1.42-0.824-2.215c-0.397-0.767-0.88-1.591-1.533-2.357-0.256-0.312-0.54-0.596-0.824-0.908 0.455-1.789-0.54-3.351-0.54-3.351-1.732-0.113-2.811 0.54-3.208 0.824-0.057-0.028-0.141-0.057-0.199-0.085-0.284-0.113-0.596-0.227-0.908-0.341-0.312-0.085-0.625-0.199-0.937-0.256-0.312-0.085-0.653-0.141-0.993-0.199-0.057 0-0.113-0.028-0.171-0.028-0.739-2.385-2.896-3.407-2.896-3.407-2.471 1.591-2.953 3.72-2.953 3.72s0 0.057-0.028 0.113c-0.141 0.028-0.256 0.085-0.397 0.113-0.171 0.057-0.369 0.113-0.54 0.199s-0.369 0.141-0.54 0.227c-0.369 0.171-0.709 0.341-1.079 0.54-0.391 0.22-0.716 0.427-1.028 0.649l0.035-0.024c-0.057-0.028-0.085-0.057-0.085-0.057-3.323-1.277-6.275 0.256-6.275 0.256-0.256 3.549 1.335 5.764 1.647 6.161-0.085 0.227-0.141 0.425-0.227 0.653-0.231 0.704-0.42 1.539-0.532 2.399l-0.008 0.072c-0.028 0.113-0.028 0.256-0.057 0.369-3.067 1.505-3.975 4.628-3.975 4.628 2.556 2.953 5.565 3.124 5.565 3.124 0.408 0.733 0.84 1.365 1.324 1.953l-0.018-0.022c0.199 0.256 0.425 0.483 0.653 0.739-0.937 2.669 0.141 4.912 0.141 4.912 2.868 0.113 4.741-1.249 5.139-1.561l0.852 0.256c0.88 0.227 1.789 0.369 2.669 0.397h1.164c1.335 1.931 3.72 2.187 3.72 2.187 1.675-1.789 1.789-3.521 1.789-3.919v-0.171c0.341-0.256 0.681-0.511 1.023-0.795 0.681-0.596 1.249-1.307 1.76-2.044 0.057-0.057 0.085-0.141 0.141-0.199 1.903 0.113 3.237-1.192 3.237-1.192-0.312-1.988-1.448-2.953-1.675-3.124l-0.084-0.084c0-0.113 0.028-0.227 0.028-0.369 0.028-0.227 0.028-0.425 0.028-0.653v-0.824c0-0.057 0-0.113-0.028-0.171l-0.057-0.341c-0.028-0.227-0.085-0.425-0.113-0.653-0.216-0.903-0.549-1.699-0.986-2.423l0.021 0.038c-0.462-0.738-0.997-1.373-1.61-1.923l-0.008-0.007c-0.586-0.52-1.26-0.958-1.994-1.287l-0.050-0.020c-0.653-0.312-1.412-0.533-2.21-0.622l-0.033-0.003c-0.369-0.057-0.767-0.057-1.136-0.057h-0.568c-0.199 0.028-0.397 0.057-0.568 0.085-0.767 0.141-1.476 0.425-2.101 0.795s-1.164 0.852-1.619 1.391c-0.425 0.492-0.771 1.066-1.010 1.693l-0.013 0.039c-0.227 0.596-0.369 1.249-0.397 1.845v0.681c0 0.085 0 0.141 0.028 0.227 0.095 0.918 0.432 1.742 0.946 2.426l-0.009-0.012c0.341 0.455 0.709 0.795 1.136 1.079 0.425 0.284 0.852 0.483 1.307 0.625s0.88 0.199 1.277 0.171h0.595c0.057 0 0.113-0.028 0.141-0.028 0.057 0 0.085-0.028 0.141-0.028 0.085-0.028 0.199-0.057 0.284-0.085 0.171-0.057 0.341-0.141 0.511-0.199 0.171-0.085 0.312-0.171 0.425-0.256 0.028-0.028 0.085-0.057 0.113-0.085 0.078-0.059 0.127-0.151 0.127-0.255 0-0.076-0.026-0.145-0.070-0.2l0 0.001c-0.072-0.070-0.17-0.114-0.278-0.114-0.053 0-0.104 0.010-0.15 0.029l0.003-0.001c-0.028 0.028-0.057 0.028-0.113 0.057-0.105 0.055-0.228 0.103-0.356 0.138l-0.013 0.003c-0.141 0.028-0.284 0.085-0.425 0.113-0.085 0-0.141 0.028-0.227 0.028h-0.481c0 0-0.028 0 0 0h-0.115c-0.029 0-0.085 0-0.113-0.028-0.312-0.057-0.653-0.141-0.965-0.284s-0.625-0.341-0.88-0.596c-0.284-0.256-0.511-0.54-0.709-0.88s-0.312-0.709-0.369-1.079c-0.028-0.199-0.057-0.397-0.028-0.596v-0.171c0 0.028 0 0 0 0v-0.143c0-0.113 0.028-0.199 0.057-0.312 0.16-0.912 0.597-1.701 1.22-2.299l0.001-0.001c0.171-0.171 0.341-0.312 0.54-0.425 0.199-0.141 0.397-0.256 0.596-0.341s0.425-0.171 0.653-0.227c0.227-0.057 0.455-0.113 0.681-0.113 0.113 0 0.227-0.028 0.341-0.028h0.227c0.028 0 0 0 0 0h0.113c0.802 0.069 1.535 0.303 2.186 0.667l-0.027-0.014c0.908 0.511 1.675 1.277 2.129 2.215 0.227 0.455 0.397 0.965 0.483 1.505 0.028 0.141 0.028 0.256 0.057 0.397v0.739c0 0.141-0.028 0.284-0.028 0.425-0.028 0.141-0.028 0.284-0.057 0.425l-0.085 0.425c-0.028 0.141-0.171 0.54-0.256 0.824s-0.483 1.051-0.824 1.505c-0.689 0.936-1.587 1.679-2.627 2.169l-0.042 0.018c-0.54 0.227-1.079 0.425-1.647 0.511-0.256 0.054-0.55 0.085-0.852 0.085-0 0-0 0-0 0h-0.425c0.028 0 0 0 0 0h-0.028c-0.141 0-0.312 0-0.455-0.028-0.625-0.057-1.221-0.171-1.817-0.341s-1.164-0.397-1.704-0.681c-1.107-0.603-2.040-1.382-2.797-2.311l-0.013-0.017c-0.369-0.483-0.709-0.993-0.993-1.533s-0.483-1.108-0.653-1.675c-0.157-0.521-0.259-1.124-0.284-1.746l-0-0.014v-0.88c0-0.284 0.028-0.596 0.085-0.908 0.028-0.312 0.085-0.596 0.141-0.908s0.141-0.596 0.227-0.908 0.369-1.164 0.625-1.704c0.511-1.079 1.164-2.044 1.931-2.811 0.199-0.199 0.397-0.369 0.625-0.54 0.085-0.085 0.284-0.256 0.511-0.397s0.455-0.284 0.709-0.397c0.113-0.057 0.227-0.113 0.369-0.171 0.057-0.028 0.113-0.057 0.199-0.085 0.057-0.028 0.113-0.057 0.199-0.085 0.256-0.113 0.511-0.199 0.767-0.284 0.057-0.028 0.141-0.028 0.199-0.057s0.141-0.028 0.199-0.057 0.256-0.057 0.397-0.113c0.057-0.028 0.141-0.028 0.199-0.057 0.057 0 0.141-0.028 0.199-0.028s0.141-0.028 0.199-0.028l0.227-0.057c0.057 0 0.141-0.028 0.199-0.028 0.085 0 0.141-0.028 0.227-0.028 0.057 0 0.171-0.028 0.227-0.028s0.085 0 0.141-0.028h0.199c0.085 0 0.141 0 0.227-0.028h0.113c0 0 0.028 0 0 0h1.051c0.511 0.028 1.023 0.085 1.505 0.171 1.023 0.181 1.937 0.497 2.779 0.933l-0.054-0.025c0.845 0.412 1.573 0.895 2.228 1.459l-0.013-0.011c0.028 0.028 0.085 0.057 0.113 0.113 0.028 0.028 0.085 0.057 0.113 0.113 0.085 0.057 0.141 0.141 0.227 0.199s0.141 0.141 0.227 0.199c0.057 0.085 0.141 0.141 0.199 0.227 0.737 0.756 1.363 1.626 1.847 2.58l0.028 0.060c0.028 0.028 0.028 0.057 0.057 0.113 0.028 0.028 0.028 0.057 0.057 0.113s0.057 0.141 0.113 0.199c0.028 0.057 0.057 0.141 0.085 0.199s0.057 0.141 0.085 0.199c0.113 0.256 0.199 0.511 0.284 0.767 0.141 0.397 0.227 0.739 0.312 1.023 0.033 0.114 0.134 0.196 0.256 0.199h0c0.141 0 0.227-0.113 0.227-0.256-0.028-0.341-0.028-0.709-0.055-1.136z"></path></svg>
