<svg version="1.1" xmlns="http://www.w3.org/2000/svg" width="32" height="32" viewBox="0 0 32 32"><path fill="#88ce02" d="M17.964 31.931c-0.415-0.071-0.852-0.267-1.093-0.487-0.163-0.168-0.263-0.397-0.264-0.649v-0c0-0.24 0.12-0.587 0.323-0.928 0.108-0.178 0.203-0.383 0.273-0.599l0.006-0.021c0.040-0.151 0.128-0.4 0.196-0.556l0.121-0.283 0.032-1.915c0.017-1.053 0.049-2.035 0.071-2.184 0.078-0.485 0.195-0.916 0.352-1.328l-0.015 0.045 0.112-0.279-0.164-0.097c-0.153-0.092-0.28-0.224-0.773-0.811-0.609-0.72-1.409-1.115-2.544-1.253-0.298-0.031-0.685-0.058-1.076-0.075l-0.044-0.002c-1.669-0.077-2.621-0.425-3.48-1.269-0.64-0.632-0.975-1.367-1.111-2.448-0.184-1.464-0.387-2.217-0.76-2.827-0.097-0.158-0.202-0.296-0.318-0.422l0.002 0.002-0.152-0.151-0.333 0.213c-0.185 0.117-0.439 0.271-0.564 0.34-0.462 0.256-0.853 0.508-1.225 0.783l0.030-0.021c-0.928 0.676-1.945 1.523-2.503 2.083-0.251 0.251-0.383 0.356-0.436 0.349-0.384-0.057-0.088-1.707 0.528-2.947 0.793-1.596 2.124-3.071 3.669-4.068 1.267-0.817 3.313-1.941 4.261-2.337 1.68-0.703 3.856-1.464 5.347-1.871 0.315-0.085 0.508-0.163 0.636-0.253 0.293-0.204 0.579-0.3 0.908-0.307 0.275-0.004 0.301-0.013 0.567-0.187 0.313-0.203 0.403-0.216 0.717-0.107l0.205 0.073 0.249-0.169 0.251-0.169 0.36 0.008c0.273 0.005 0.399-0.009 0.516-0.061 0.152-0.067 0.157-0.075 0.2-0.327 0.096-0.541 0.107-0.813 0.049-1.139-0.077-0.432-0.084-2.112-0.011-2.439 0.079-0.355 0.129-0.425 0.393-0.556 0.396-0.196 0.692-0.251 1.376-0.251 0.832 0 1.253 0.112 1.565 0.413 0.283 0.275 0.331 0.907 0.183 2.4-0.085 0.856-0.096 1.097-0.073 1.659 0.013 0.361 0.036 0.699 0.049 0.748 0.023 0.087 0.043 0.092 0.345 0.099 0.295 0.005 0.347 0.019 0.628 0.167 0.272 0.141 0.475 0.312 0.515 0.433 0.008 0.027 0.053 0.028 0.139 0.004 0.157-0.047 0.3 0.004 0.412 0.145 0.068 0.087 0.111 0.104 0.271 0.104 0.213 0 0.288 0.051 0.465 0.312 0.083 0.116 0.194 0.207 0.323 0.265l0.005 0.002c0.293 0.147 0.687 0.552 0.84 0.872 0.233 0.483 0.283 1.036 0.135 1.539-0.053 0.187-0.053 0.193 0.056 0.376 0.232 0.387 0.316 0.867 0.223 1.272l-0.055 0.24 0.157 0.156c0.777 0.777 0.663 2.041-0.287 3.173-0.101 0.12-0.22 0.309-0.264 0.424-0.187 0.484-0.392 0.824-0.665 1.104l-0.272 0.28h-0.285c-0.28 0-0.673-0.093-0.913-0.22-0.1-0.052-0.107-0.051-0.087 0.013 0.067 0.229 0.219 1.16 0.273 1.673 0.084 0.792 0.059 1.944-0.053 2.439-0.087 0.395-0.224 0.745-0.406 1.066l0.010-0.019c-0.101 0.168-0.111 0.207-0.088 0.405 0.032 0.289-0.036 0.768-0.153 1.084-0.139 0.369-0.191 0.543-0.221 0.728-0.027 0.163-0.027 0.164 0.088 0.164 0.153 0 0.233 0.091 0.233 0.265 0 0.080-0.067 0.499-0.149 0.933-0.228 1.211-0.243 1.351-0.245 2.527-0.004 1.212-0.005 1.203 0.272 1.383l0.619 0.403c0.49 0.331 1.050 0.625 1.643 0.855l0.058 0.020c0.871 0.344 0.991 0.432 0.991 0.725 0 0.127-0.025 0.177-0.133 0.281-0.336 0.324-0.992 0.396-2.316 0.256-0.618-0.062-1.337-0.099-2.064-0.1h-0.002c-1.82-0.027-2.089-0.089-2.327-0.544-0.136-0.26-0.112-0.6 0.079-1.157 0.070-0.189 0.144-0.439 0.206-0.693l0.011-0.053c0.124-0.607 0.040-1.324-0.251-2.139l-0.247-0.691c-0.248-0.704-0.381-1.992-0.235-2.283 0.027-0.053 0.072-0.067 0.195-0.059l0.159 0.013 0.128-0.272c0.1-0.211 0.211-0.352 0.507-0.651l0.38-0.381-0.019-0.243c-0.019-0.232-0.324-1.369-0.368-1.367-0.012 0-0.097 0.117-0.192 0.26-0.227 0.344-0.736 0.877-1.021 1.069-0.125 0.085-0.229 0.183-0.229 0.216-0.003 0.137-0.125 0.413-0.268 0.607-0.141 0.191-0.151 0.217-0.129 0.387 0.032 0.244-0.044 1.031-0.139 1.44-0.094 0.34-0.211 0.634-0.355 0.913l0.012-0.026c-0.36 0.747-0.629 1.411-0.7 1.72-0.045 0.26-0.077 0.569-0.090 0.883l-0 0.015c-0.017 0.352-0.053 0.699-0.080 0.769-0.035 0.1-0.036 0.176-0.003 0.328 0.024 0.109 0.040 0.355 0.036 0.547-0.005 0.267 0.016 0.44 0.093 0.752 0.133 0.529 0.163 0.863 0.097 1.061-0.040 0.123-0.085 0.172-0.221 0.24-0.316 0.16-1.199 0.247-1.679 0.164zM19.231 31.507c0.183-0.052 0.336-0.212 0.336-0.351 0-0.060-0.053-0.244-0.116-0.408-0.12-0.307-0.339-1.116-0.339-1.251 0-0.072 0.005-0.073 0.113-0.016l0.113 0.060-0.003-0.147c-0.015-0.146-0.045-0.279-0.089-0.406l0.004 0.012c-0.099-0.297-0.112-0.304-0.739-0.339l-0.429-0.023-0.153 0.151c-0.086 0.085-0.161 0.182-0.222 0.287l-0.004 0.007c-0.069 0.137-0.096 0.34-0.051 0.387 0.011 0.012 0.113 0 0.227-0.027 0.060-0.019 0.131-0.032 0.203-0.038l0.004-0c0 0.007-0.115 0.097-0.256 0.201-0.627 0.464-0.844 0.752-0.844 1.116 0 0.381 0.355 0.677 0.917 0.765 0.387 0.061 1.139 0.072 1.327 0.019zM27.703 30.887c0.156-0.189 0.137-0.38-0.061-0.6-0.112-0.114-0.24-0.212-0.381-0.289l-0.008-0.004c-0.174-0.092-0.317-0.178-0.455-0.271l0.017 0.011c-0.115-0.080-0.483-0.293-0.816-0.48-0.295-0.158-0.525-0.293-0.749-0.436l0.047 0.028-0.093-0.073v-1.433c0-1.413-0.003-1.431-0.077-1.411-0.364 0.1-0.968 0.145-1.736 0.131l-0.825-0.013 0.117 0.291c0.223 0.555 0.339 1.293 0.337 2.141 0 0.317-0.019 0.435-0.097 0.656-0.014 0.029-0.054 0.139-0.092 0.25l-0.024 0.082c-0.015 0.047 0.043 0.080 0.259 0.144 0.153 0.047 0.385 0.095 0.516 0.109l0.237 0.024-0.024 0.241c-0.027 0.273 0.004 0.557 0.072 0.648 0.039 0.051 0.199 0.069 0.92 0.104 0.549 0.027 1.144 0.083 1.612 0.152 0.407 0.060 0.844 0.112 0.973 0.113 0.216 0.004 0.24-0.004 0.332-0.115zM19.367 28.445c0.020-0.013 0.049-0.296 0.063-0.628 0.041-0.933 0.076-1.067 0.547-2.119 0.383-0.859 0.588-1.66 0.569-2.231l-0.011-0.339-0.143 0.141c-0.303 0.3-0.095-0.173 0.263-0.596 0.271-0.32 0.364-0.5 0.409-0.783 0.019-0.115 0.063-0.173 0.24-0.307 0.669-0.513 1.156-1.16 1.471-1.951 0.075-0.188 0.264-0.827 0.42-1.421 0.291-1.101 0.447-1.572 0.587-1.777 0.053-0.079 0.073-0.091 0.060-0.039-0.080 0.313-0.107 0.44-0.173 0.849-0.043 0.255-0.12 0.752-0.171 1.104-0.104 0.709-0.208 1.168-0.348 1.525l-0.093 0.237 0.252 0.647c0.257 0.663 0.377 1.14 0.403 1.607l0.013 0.256-0.205 0.043c-0.274 0.051-0.507 0.203-0.661 0.416l-0.002 0.003c-0.181 0.253-0.277 0.464-0.231 0.512 0.020 0.020 0.276 0.067 0.567 0.1 0.456 0.053 0.627 0.056 1.225 0.017 0.287-0.013 0.553-0.040 0.814-0.080l-0.042 0.005c0.056-0.020 0.111-0.135 0.205-0.431 0.216-0.68 0.257-0.924 0.232-1.4l-0.021-0.423 0.109-0.14c0.256-0.325 0.453-0.909 0.533-1.587 0.1-0.835-0.080-2.581-0.42-4.083-0.16-0.711-0.227-1.139-0.227-1.453v-0.276l-0.257 0.027c-0.916 0.101-2.024 0.073-2.704-0.067-0.368-0.075-1.301-0.347-1.507-0.439l-0.159-0.071-0.023 0.18c-0.014 0.118-0.033 0.22-0.057 0.32l0.004-0.019c-0.031 0.113-0.019 0.136 0.175 0.328 0.24 0.24 0.315 0.368 0.315 0.536 0 0.1-0.060 0.184-0.351 0.489-0.213 0.224-0.485 0.46-0.693 0.599l-0.341 0.229-0.141 0.501c-0.525 1.853-0.624 3.532-0.28 4.739l0.085 0.301-0.167 0.207c-0.627 0.789-0.995 1.388-1.051 1.72-0.011 0.067-0.064 0.287-0.117 0.489-0.133 0.515-0.237 1.271-0.283 2.088-0.043 0.856-0.092 1.566-0.154 2.273l0.016-0.221-0.023 0.203 0.26 0.080c0.144 0.044 0.364 0.097 0.489 0.116 0.232 0.037 0.665 0.031 0.729-0.011zM24.424 25.581c0.404-0.024 0.775-0.088 0.847-0.147 0.031-0.024 0.067-0.133 0.080-0.24l0.023-0.197-0.32 0.071c-0.214 0.044-0.478 0.081-0.745 0.102l-0.024 0.002c-0.166 0.008-0.361 0.012-0.557 0.012-0.453 0-0.9-0.024-1.341-0.070l0.055 0.005c-0.203-0.031-0.204-0.029-0.137 0.236 0.049 0.2 0.060 0.205 0.593 0.247 0.355 0.027 0.845 0.021 1.527-0.020zM24.084 24.675c0.528-0.044 1.192-0.157 1.32-0.227 0.041-0.023 0.081-0.099 0.096-0.185l0.048-0.277 0.024-0.132-0.128 0.027c-0.577 0.121-1.016 0.157-1.893 0.157-0.852 0-0.949-0.008-1.173-0.084-0.081-0.036-0.174-0.059-0.273-0.064l-0.002-0c-0.037 0.023-0.040 0.32-0.007 0.527 0.020 0.127 0.040 0.148 0.167 0.184 0.396 0.107 1.061 0.135 1.821 0.075zM14.419 19.977c1.333-0.381 3.077-1.516 4.503-2.929 0.467-0.464 0.52-0.529 0.583-0.733l0.085-0.265c0.009-0.021-0.075-0.060-0.184-0.087-0.288-0.069-0.503-0.232-0.505-0.384 0-0.088-0.053-0.176-0.2-0.34-0.249-0.277-0.311-0.397-0.337-0.663l-0.021-0.211-0.288-0.211c-0.165-0.12-0.752-0.443-1.371-0.753-0.578-0.282-1.032-0.531-1.474-0.797l0.089 0.049c-0.52-0.352-0.871-0.768-1.067-1.263-0.039-0.101-0.084-0.184-0.1-0.184-0.044 0-1.213 1.133-1.715 1.663-1.232 1.303-2.084 2.433-2.619 3.48-0.133 0.26-0.28 0.567-0.323 0.681l-0.080 0.209 0.097 0.347c0.053 0.191 0.173 0.497 0.267 0.68 0.328 0.645 0.721 1.036 1.365 1.353 0.693 0.343 1.307 0.461 2.333 0.449 0.555-0.007 0.713-0.021 0.961-0.092zM3.895 15.413c0.876-0.776 2.084-1.627 3.565-2.509 0.969-0.577 4.711-2.449 6.435-3.219 0.312-0.14 0.595-0.268 0.627-0.287 0.031-0.017 0.121-0.24 0.201-0.492 0.368-1.159 0.549-1.388 1.211-1.537 0.084-0.019 0.104-0.045 0.104-0.132 0-0.147 0.104-0.499 0.193-0.655 0.067-0.12 0.068-0.127 0.007-0.109-0.036 0.012-0.253 0.075-0.484 0.141-3.173 0.916-5.949 2.133-8.347 3.656-2.56 1.627-4.029 3.573-4.457 5.905l-0.032 0.173 0.309-0.308c0.169-0.169 0.471-0.452 0.668-0.628zM27.464 15.853c0.253-0.131 0.649-0.731 0.796-1.203 0.047-0.175 0.131-0.327 0.244-0.452l-0.001 0.001c0.389-0.427 0.708-1.207 0.709-1.739 0-0.827-0.465-1.145-1.151-0.789-0.085 0.044-0.161 0.073-0.169 0.064-0.039-0.039 0.156-0.227 0.387-0.373 0.311-0.2 0.369-0.32 0.369-0.755 0-0.361-0.092-0.657-0.3-0.977-0.093-0.14-0.131-0.236-0.116-0.291l0.096-0.352c0.128-0.463 0.081-0.992-0.117-1.329-0.303-0.513-0.675-0.764-1.192-0.803l-0.3-0.023 0.179 0.196c0.523 0.572 0.777 1.284 0.677 1.893-0.052 0.309-0.103 0.373-0.404 0.496l-0.173 0.071 0.020 0.239c0.035 0.393-0.032 0.677-0.283 1.207-0.124 0.264-0.219 0.501-0.209 0.527 0.033 0.089 0.373 0.26 0.644 0.325l0.267 0.064-0.167 0.053c-0.215 0.071-0.264 0.168-0.265 0.529 0 0.327 0.047 0.461 0.289 0.821 0.107 0.157 0.18 0.316 0.192 0.411 0.020 0.148 0.013 0.157-0.107 0.201-0.121 0.034-0.263 0.058-0.408 0.066l-0.005 0c-0.489 0.031-0.527 0.044-0.744 0.253-0.2 0.191-0.204 0.201-0.204 0.409 0 0.287 0.107 0.86 0.176 0.939 0.085 0.097 0.581 0.34 0.773 0.377 0.051 0.013 0.109 0.020 0.169 0.020 0.12 0 0.233-0.029 0.332-0.081l-0.004 0.002zM20.251 15.461c0.319-0.249 0.567-0.499 0.709-0.713 0.087-0.131 0.092-0.156 0.048-0.263-0.069-0.169-0.548-0.6-0.815-0.729-0.162-0.076-0.35-0.132-0.547-0.159l-0.010-0.001-0.328-0.045-0.205-0.256c-0.419-0.52-0.653-0.924-0.989-1.709-0.288-0.669-0.545-1.060-0.951-1.443-0.167-0.157-0.289-0.287-0.275-0.287 0.016 0 0.215 0.097 0.444 0.217 0.384 0.201 0.428 0.216 0.601 0.195 0.62-0.075 1.164-0.788 1.365-1.787 0.057-0.285 0.169-0.572 0.291-0.743 0.005-0.007 0.243 0.153 0.527 0.356 0.712 0.507 0.869 0.581 1.273 0.597 0.269 0.011 0.419-0.011 0.896-0.125 1.020-0.248 2.125-0.349 2.8-0.257 0.38 0.052 0.923 0.217 1.333 0.408 0.401 0.187 0.479 0.197 0.609 0.083 0.107-0.093 0.108-0.107 0.107-0.456-0.003-0.515-0.192-1.072-0.48-1.404-0.147-0.172-0.553-0.453-0.96-0.668-0.232-0.12-0.374-0.198-0.516-0.279l0.080 0.042c-0.189-0.111-0.412-0.097-1.003 0.059-0.687 0.18-0.869 0.177-1.657-0.024-0.665-0.171-0.709-0.173-1.363-0.071-0.348 0.055-1.224 0.023-1.517-0.055-0.186-0.051-0.331-0.099-0.472-0.151l0.039 0.013c-0.253-0.095-0.696-0.111-1.096-0.040-0.8 0.143-1.405 0.573-1.624 1.16-0.112 0.299-0.097 0.439 0.056 0.535 0.236 0.149 0.555 0.561 0.555 0.72 0 0.013-0.075-0.055-0.167-0.151-0.221-0.232-0.427-0.335-0.667-0.335-0.325 0.007-0.602 0.201-0.731 0.478l-0.002 0.005c-0.059 0.147-0.119 0.333-0.169 0.524l-0.008 0.036c-0.147 0.536-0.275 0.816-0.549 1.189-0.248 0.337-0.281 0.488-0.195 0.868 0.219 0.959 0.597 1.348 2.185 2.248 0.833 0.472 1.264 0.737 1.576 0.972 0.239 0.177 0.245 0.187 0.224 0.324-0.049 0.311 0.149 0.653 0.541 0.927 0.1 0.069 0.163 0.143 0.163 0.191 0 0.096 0.261 0.227 0.457 0.227 0.107 0 0.193-0.045 0.416-0.221zM26.671 13.709c0.605 0.017 0.639-0.025 0.313-0.401-0.339-0.393-0.431-0.709-0.307-1.059l0.049-0.136-0.212-0.104c-0.060-0.033-0.132-0.066-0.206-0.093l-0.011-0.003c-0.021 0.063-0.057 0.201-0.091 0.341l-0.015 0.072c-0.077 0.32-0.173 1.141-0.175 1.493 0 0.031 0.051 0.017 0.14-0.037 0.123-0.073 0.187-0.083 0.513-0.073zM24.647 13.676c0.364-0.020 0.741-0.048 0.84-0.061l0.179-0.024 0.023-0.603c0.031-0.853 0.153-1.357 0.524-2.163 0.264-0.573 0.375-1.076 0.32-1.448-0.024-0.163-0.033-0.173-0.251-0.268-0.359-0.147-0.778-0.265-1.213-0.333l-0.032-0.004c-0.413-0.060-1.619-0.025-2.073 0.060-0.187 0.035-0.529 0.107-0.76 0.161-0.568 0.133-0.869 0.116-1.301-0.073-0.427-0.188-0.699-0.357-0.956-0.597-0.201-0.188-0.22-0.197-0.275-0.135-0.040 0.047-0.063 0.187-0.076 0.491-0.019 0.463-0.088 0.707-0.293 1.036-0.043 0.061-0.081 0.132-0.112 0.206l-0.003 0.007c0 0.016 0.159 0.195 0.352 0.395 0.665 0.693 0.992 0.872 1.517 0.832 0.173-0.013 0.293-0.008 0.293 0.013 0 0.039-0.339 0.307-0.481 0.381-0.064 0.033-0.080 0.071-0.069 0.151l0.080 0.544c0.048 0.315 0.085 0.457 0.133 0.5 0.124 0.107 0.769 0.44 1.173 0.603 0.535 0.217 0.823 0.295 1.232 0.329 0.497 0.041 0.508 0.041 1.229 0zM20.34 13.107c0.011-0.020-0.029-0.32-0.093-0.669-0.084-0.475-0.131-0.647-0.183-0.691-0.040-0.032-0.231-0.171-0.425-0.308-0.265-0.196-0.498-0.394-0.719-0.605l0.003 0.002-0.361-0.352-0.189 0.1-0.205 0.111c0.020 0.089 0.049 0.167 0.088 0.24l-0.002-0.005c0.053 0.124 0.168 0.431 0.253 0.68 0.22 0.652 0.388 0.964 0.821 1.531l0.165 0.215 0.307 0.048c0.168 0.027 0.343 0.061 0.388 0.079 0.075 0.028 0.084 0.016 0.107-0.153 0.008-0.082 0.024-0.157 0.049-0.228l-0.002 0.007zM26.937 6.627c0.267-0.025 0.312-0.067 0.196-0.184-0.069-0.071-0.239-0.079-0.373-0.016-0.091 0.041-0.109 0.032-0.249-0.12-0.147-0.163-0.155-0.167-0.339-0.144-0.167 0.020-0.192 0.013-0.213-0.055-0.069-0.115-0.149-0.214-0.239-0.301l-0-0c-0.116-0.133-0.261-0.237-0.426-0.304l-0.008-0.003c-0.324-0.123-0.504-0.109-0.812 0.060-0.889 0.487-0.853 0.481-1.711 0.263-0.804-0.205-1.405-0.409-1.596-0.543-0.16-0.111-0.505-0.227-0.791-0.267-0.213-0.029-0.352 0.017-0.555 0.187l-0.107 0.088 0.096 0.171c0.136 0.241 0.123 0.255-0.083 0.080-0.217-0.187-0.476-0.312-0.647-0.313-0.119 0-0.473 0.153-0.516 0.224-0.012 0.019 0.097 0.044 0.241 0.057 0.153 0.013 0.361 0.064 0.501 0.124 0.363 0.155 0.552 0.205 0.885 0.24 0.364 0.035 1.028-0.007 1.104-0.071 0.039-0.033 0.153-0.039 0.395-0.020 0.317 0.024 0.449 0.053 1.204 0.257 0.437 0.12 0.744 0.111 1.265-0.035 0.24-0.067 0.541-0.133 0.668-0.147 0.213-0.023 0.256-0.013 0.587 0.137 0.533 0.24 0.813 0.395 0.971 0.533 0.156 0.133 0.173 0.137 0.551 0.1zM23.967 5.715l0.317-0.165-0.007-0.327c-0.006-0.251-0.017-0.48-0.032-0.709l0.003 0.049-0.023-0.335-0.317 0.245c-0.188 0.147-0.371 0.256-0.452 0.271-0.228 0.044-1.355 0-1.461-0.056-0.143-0.108-0.27-0.221-0.387-0.344l-0.001-0.001-0.293-0.293-0.004 0.173c0 0.093-0.015 0.256-0.032 0.357-0.029 0.184-0.027 0.189 0.173 0.444 0.112 0.143 0.203 0.269 0.203 0.283 0 0.101 1.504 0.568 1.843 0.573 0.108 0 0.245-0.048 0.471-0.165zM23.364 4.529c0.376-0.072 0.56-0.344 0.697-1.031 0.147-0.739 0.221-1.9 0.151-2.396-0.063-0.445-0.559-0.647-1.515-0.615-0.592 0.020-0.837 0.079-1.039 0.249-0.125 0.107-0.128 0.116-0.183 0.609-0.107 0.948 0.048 2.299 0.32 2.807 0.129 0.244 0.245 0.333 0.487 0.373 0.271 0.047 0.847 0.048 1.081 0.003z"></path></svg>
