<svg version="1.1" xmlns="http://www.w3.org/2000/svg" width="32" height="32" viewBox="0 0 32 32"><path fill="#4298b8" d="M15.996 8.016c0 0-2.243 3.717-3.308 5.524-0.207 0.077-0.229 0.055-0.455 0.276-0.547-0.627-1.196-0.055-1.371 0.293-0.076-0.755-0.201-0.756-0.372-0.925 0.099-0.661 0.421-1.74-0.321-2.512-1.437-0.969-3.101 1.4-4.028 2.643l-0.5 0.829c-2.061-0.043-3.684 0.011-5.641-0.028 2.387 0.893 2.485 0.915 5.368 2.008 0 0.088 0.215 0.496 0.453 0.736 0.196 0.2 0.411 0.312 0.519 0.379-0.141 0.072-0.427 0.184-0.513 0.344-0.389 0.728 0.185 0.896 0.557 1.476 0.42 0.757 0.509 1.259 1.501 0.833 0.339-0.147 0.749-0.197 1.011-0.28-0.924 1.459-1.16 1.856-2.777 4.365l0.016 0.005c6.467-2.524 6.632-2.589 9.831-3.853 4.597 1.784 4.861 1.931 9.909 3.855-0.705-1.101-1.187-1.791-1.699-2.66 0.201-0.017 0.644-0.061 1.036-0.311 0.284-0.18 0.617-0.384 0.917-0.765 0.591-0.753 0.735-1.703 0.52-2.888-0.104-0.564-0.313-1.112-0.284-1.133 2.748-1.037 3.072-1.149 5.635-2.116-3.080 0.045-3.229 0.013-6.121 0.021-0.048-0.552-0.325-0.836-1.176-0.808-0.317 0.052-0.519 0.16-0.667 0.593-0.476-0.876-1.133-0.619-1.413-0.187-0.367-0.376-1.223-0.503-1.653-0.227-0.317-0.149-0.685-0.149-1.009 0.236-0.233-0.195-0.307-0.251-0.819-0.456-1.181-1.996-2.163-3.589-3.145-5.268zM16.012 9.085c0.467 0.713 2.069 3.48 2.465 4.099-0.449 0.031-0.891 0.269-1.224 0.749-0.289-0.299-0.627-0.593-1.223-0.617-0.725-0.124-1.112 0.197-1.6 0.757-0.144-0.487-0.707-0.6-1.195-0.373 0.436-0.692 2.496-4.163 2.776-4.615zM9.933 12.171c-0.067 1.912-1.424 3.616-2.397 2.993-0.735-0.599 0.199-2.112 0.787-2.647-0.044 0.409 0.328 0.664 0.031 1.027-0.595 0.724-0.36 1.248-0.104 1.328 0.684 0.216 1.339-1.636 1.339-2.935 0-0.833-0.488-0.817-1.448 0.181-1.311 1.363-2.017 2.683-1.547 3.587 0.263 0.507 0.647 0.868 1.279 0.792 1.233-0.147 1.977-1.672 2.057-2.651 0.197-0.004 0.145 0.013 0.197-0.027 0 0.172 0.236 1.007 0.423 1.555 0.244 0.936 1.285 2.813-1.825 3.544-0.587 0.147-0.819 0.197-1.4 0.427-0.284-0.591-0.351-0.78-0.929-1.351 0.784-0.273 0.791-0.247 1.296-0.423 1.956-0.68 2.544-1.263 2.476-2.093 0 0 0.024-0.427-0.247-0.784-0.099 0.327-0.232 0.613-0.399 0.874l0.008-0.014c-0.583 0.907-1.728 1.468-2.747 1.111-0.556-0.195-0.795-0.621-0.795-1.353 0-0.937 2.135-3.647 3.183-4.107 0.74-0.22 0.772 0.391 0.763 0.965zM18.603 13.904c0.347 0.008 0.724 0.177 0.98 0.453 0.792 0.853 0.705 1.889 0.217 2.54-0.58 0.775-2.043 0.432-2.388-0.651-0.16-0.504 0.127-1.749 0.633-2.165 0.141-0.111 0.321-0.178 0.517-0.178 0.014 0 0.029 0 0.043 0.001l-0.002-0zM15.785 13.992c0.056 0.002 0.11 0.010 0.161 0.024l-0.005-0.001c0.671 0.040 0.813 0.417 0.935 0.747 0.308 0.835 0.231 1.616-0.401 2.255-0.948 0.959-2.053 0.535-2.048-0.756 0.019-0.92 0.591-2.287 1.359-2.268zM18.276 14.043c-0.511 0.383-0.576 1.364-0.107 1.728 0.184 0.173 0.287 0.293 0.817 0.341 0.364 0.032 0.939-0.337 0.967-0.703 0.013-0.167-0.017-0.444-0.416-0.893-0.336-0.377-0.772-0.465-0.881-0.4-0.353 0.208 0.028 0.373 0.167 0.511 0.216 0.217 0.267 0.312 0.167 0.376-0.093 0.062-0.207 0.1-0.33 0.1-0.059 0-0.116-0.009-0.17-0.025l0.004 0.001c-0.14-0.065-0.608-0.328-0.217-1.036zM23.288 14.047c0.223 0.347 0.287 0.421 0.536 1.287 0.32 1.117 0.728 1.551 1.088 1.347 0.987-0.557 0.197-1.968-0.151-2.632 0.223-0.003 0.179 0.009 0.381 0.007 0.16 0.628 0.115 0.516 0.543 2.417 0.513 2.275 0.589 2.88-0.704 3.901-0.595 0.469-1.471 0.493-2.223 0.453l-0.848-0.127c0.584-0.383 0.727-0.743 0.723-1.488 1.704 0.713 2.612 0.176 2.973-0.701 0.176-0.423 0.115-0.98-0.053-1.961 0.011 0.8-0.007 0.947-0.112 1.343-0.211 0.793-0.729 1.013-1.083 0.453-0.136-0.217-0.46-0.936-0.56-1.709s-0.176-1.86-0.667-2.315c0.053-0.107 0.109-0.227 0.156-0.275zM21.625 14.060c0.344 0.091 0.763 0.272 0.987 0.693 0.312 0.581 0.517 0.891 0.501 1.929-0.019 1.109-0.453 1.407-0.743 1.448-0.371 0.053-1.016 0.045-1.399-2.131-0.127-0.721-0.357-1.408-0.6-1.632 0.12-0.147 0.129-0.128 0.22-0.272 0.121 0.133 0.227 0.36 0.397 1.036 0.269 1.077 0.516 1.3 0.993 1.36 0.744 0.096 1.037-1.040 0.424-1.855-0.133-0.179-0.487-0.409-0.671-0.315 0.011 0.315 0.151 0.216 0.152 0.424-0.035 0.247-0.071 0.292-0.151 0.427-0.189-0.075-0.28-0.104-0.445-0.388-0.209-0.413-0.073-0.8 0.333-0.725zM15.496 14.161c-0.351 0.247-0.792 1.067-0.405 1.8 0.191 0.273 0.396 0.496 0.851 0.4 0.327-0.068 0.895-0.453 0.973-0.999 0.069-0.467-0.608-1.371-0.984-1.16-0.436 0.244-0.171 0.419 0.099 0.681 0.247 0.24 0.069 0.385-0.103 0.456-0.344 0.141-0.537 0.004-0.623-0.271-0.087-0.273-0.013-0.507 0.192-0.908zM11.673 14.247c0.075 0.229 0.133 0.536 0.291 0.832 0.037 0.031 0.176 0 0.359-0.209 0.115-0.133 0.247-0.317 0.476-0.617 0.139 0.127 0.151 0.221 0.189 0.292 0.097 0.173 0.3 0.16 0.364 0.141 0.224-0.223 0.26-0.367 0.408-0.387 0.013 0.288 0.028 0.467-0.343 0.903-0.131 0.149-0.322 0.242-0.535 0.242-0.047 0-0.093-0.005-0.137-0.013l0.005 0.001c-0.16-0.045-0.265-0.144-0.519-0.273-0.344 0.053-0.253 0.42-0.191 0.728 0.16 0.815 0.667 1.14 1.109 0.9 0.155-0.083 0.12-0.083 0.416-0.204-0.051 0.517-0.080 0.617 0.013 1.195-0.721 0.401-1.309 0.333-1.469-0.675-0.121-0.843-0.348-1.867-0.553-2.075-0.193-0.196-0.273-0.26-0.273-0.26zM2.188 14.356c1.004 0.013 2.136 0.013 3.341 0.023-0.173 0.424-0.233 0.72-0.257 1.139-0.563-0.217-2.503-0.912-3.084-1.161zM29.819 14.369c-1.329 0.479-2.287 0.849-3.569 1.339-0.14-0.6-0.165-0.784-0.292-1.325 2.135-0.007 2.171-0.003 3.861-0.013zM20.515 17.089c0.14 0.573 0.337 0.855 0.337 0.855 0.269 0.464 0.605 0.727 1.12 0.86 0.113 0.181 0.153 0.217 0.197 0.315 0.049 0.609 0.013 0.685-0.459 1.032-0.279 0.272-0.291 0.663-0.004 1.025 0.308 0.293 0.632 0.397 1.833 0.085 0.232 0.4 0.557 0.871 1.035 1.623-1.608-0.607-3.824-1.471-8.573-3.32 0 0-5.559 2.16-8.539 3.321 1.247-1.965 1.349-2.132 2.236-3.507 0.3-0.119 0.199-0.071 0.465-0.207 0.612-0.327 1.103-0.813 1.371-1.527 0.491 1.107 1.039 1.233 2.181 0.873 0.236-0.109 0.507-0.267 0.565-0.691 0.613 0.551 1.909 0.653 2.856-0.509 0.816 0.956 2.668 1.047 3.377-0.229zM23.391 18.243c0 0 0.053 0.172 0.085 0.225-0.135 0.004-0.284 0-0.284 0 0.075-0.066 0.14-0.14 0.196-0.221l0.003-0.004z"></path></svg>
