<svg version="1.1" xmlns="http://www.w3.org/2000/svg" width="32" height="32" viewBox="0 0 32 32"><path fill="#277a9f" d="M22.251 23.959c0.517-0.363 1.699 0.433 2.64 1.776s1.284 2.725 0.765 3.088c-0.517 0.363-1.7-0.433-2.64-1.776s-1.284-2.725-0.765-3.088zM9.872 23.959c-0.517-0.363-1.699 0.433-2.64 1.776s-1.284 2.725-0.765 3.088c0.517 0.363 1.7-0.433 2.64-1.776s1.284-2.725 0.765-3.088zM16.055 26.063c-0.632 0-1.144 1.329-1.144 2.969s0.512 2.969 1.144 2.969 1.144-1.329 1.144-2.969-0.512-2.969-1.144-2.969zM22.251 8.041c0.517 0.363 1.699-0.433 2.64-1.776s1.284-2.725 0.765-3.088c-0.517-0.363-1.7 0.433-2.64 1.776s-1.284 2.725-0.765 3.088zM9.872 8.041c-0.517 0.363-1.699-0.433-2.64-1.776s-1.284-2.725-0.765-3.088c0.517-0.363 1.7 0.433 2.64 1.776s1.284 2.725 0.765 3.088zM16.055 5.937c-0.632 0-1.144-1.329-1.144-2.969s0.512-2.969 1.144-2.969 1.144 1.329 1.144 2.969-0.512 2.969-1.144 2.969zM0.628 12.088h2.204v3.1h2.485v-3.1h2.204v8.327h-2.204v-3.305h-2.485v3.305h-2.204zM9.364 12.088h5.38v1.845h-3.177v1.307h2.716v1.845h-2.716v1.487h3.305v1.845h-5.508zM16.487 12.088h2.204v6.483h3.152v1.845h-5.355zM23.276 12.088h2.28l1.307 3.459 0.461 1.357h0.051l0.461-1.357 1.256-3.459h2.28v8.327h-2.049v-2.46c0-0.213 0.011-0.448 0.032-0.704s0.045-0.519 0.071-0.788 0.056-0.532 0.089-0.788c0.035-0.256 0.064-0.487 0.089-0.692h-0.051l-0.692 1.947-1.153 2.805h-0.82l-1.153-2.805-0.667-1.947h-0.051l0.089 0.692c0.033 0.256 0.064 0.519 0.089 0.788s0.049 0.532 0.071 0.788 0.032 0.491 0.032 0.704v2.46h-2.024z"></path></svg>
