<svg version="1.1" xmlns="http://www.w3.org/2000/svg" width="32" height="32" viewBox="0 0 32 32"><path fill="#41bdf5" d="M15.99 1.859c-0.26 0.002-0.495 0.109-0.664 0.281l-0 0-15.109 15.323c-0.134 0.136-0.216 0.322-0.216 0.527 0 0 0 0.001 0 0.001v-0c0 0.417 0.338 0.755 0.755 0.755h2.805v10.766c0 0.347 0.281 0.628 0.628 0.628h10.596v-4.911l-4.068-4.073c-0.373 0.163-0.807 0.258-1.263 0.258h-0c-1.784 0-3.229-1.449-3.229-3.234s1.445-3.232 3.229-3.232c1.784 0 3.229 1.447 3.229 3.232 0 0.448-0.091 0.875-0.255 1.263l2.357 2.357v-7.167c-1.184-0.479-2.021-1.641-2.021-2.997 0-1.785 1.448-3.234 3.232-3.234s3.229 1.449 3.229 3.234c0 1.357-0.835 2.518-2.018 2.997v7.167l2.354-2.357c-0.161-0.371-0.255-0.804-0.255-1.258 0-0.002 0-0.004 0-0.005v0c0-1.785 1.448-3.232 3.232-3.232s3.229 1.447 3.229 3.232-1.445 3.234-3.229 3.234c-0.456-0-0.89-0.095-1.284-0.266l0.021 0.008-4.068 4.073v4.911h10.596c0 0 0 0 0.001 0 0.346 0 0.627-0.281 0.627-0.627 0-0 0-0 0-0.001v0-10.766h2.815c0.206-0 0.392-0.083 0.529-0.216l-0 0c0.298-0.291 0.302-0.77 0.010-1.068l-3.354-3.43v-5.406c0-0.347-0.281-0.63-0.628-0.63h-2.62c-0.347 0-0.628 0.283-0.628 0.63v1.471l-7.888-7.961c-0.171-0.172-0.407-0.279-0.668-0.279-0.003 0-0.006 0-0.009 0h0zM15.995 10.341c-0.714 0-1.292 0.58-1.292 1.294s0.578 1.292 1.292 1.292c0 0 0 0 0.001 0 0.713 0 1.291-0.578 1.291-1.291 0-0 0-0 0-0.001v0c0-0.714-0.578-1.294-1.292-1.294zM9.453 16.888c-0 0-0 0-0.001 0-0.713 0-1.291 0.578-1.291 1.291 0 0 0 0 0 0.001v-0c0 0.714 0.578 1.294 1.292 1.294s1.292-0.58 1.292-1.294c0-0 0-0 0-0.001 0-0.713-0.578-1.291-1.291-1.291-0 0-0 0-0.001 0h0zM22.536 16.888c-0.713 0-1.294 0.578-1.294 1.292s0.581 1.294 1.294 1.294c0.714 0 1.292-0.58 1.292-1.294 0-0 0-0 0-0.001 0-0.713-0.578-1.291-1.291-1.291-0 0-0 0-0.001 0h0z"></path></svg>
