<svg version="1.1" xmlns="http://www.w3.org/2000/svg" width="32" height="32" viewBox="0 0 32 32"><path d="M14.667 22.667h2.667v-8h-2.667v8zM16 12q0.567 0 0.95-0.383t0.383-0.95-0.383-0.95-0.95-0.383-0.95 0.383-0.383 0.95 0.383 0.95 0.95 0.383zM16 29.333q-2.767 0-5.2-1.050t-4.233-2.85-2.85-4.233-1.050-5.2 1.050-5.2 2.85-4.233 4.233-2.85 5.2-1.050 5.2 1.050 4.233 2.85 2.85 4.233 1.050 5.2-1.050 5.2-2.85 4.233-4.233 2.85-5.2 1.050zM16 26.667q4.467 0 7.567-3.1t3.1-7.567-3.1-7.567-7.567-3.1-7.567 3.1-3.1 7.567 3.1 7.567 7.567 3.1z"></path></svg>
