<svg version="1.1" xmlns="http://www.w3.org/2000/svg" width="32" height="32" viewBox="0 0 32 32"><path fill="#0076d6" d="M30.4 9.841c1.5-3.6 1.6-6.6-0.2-8.4-2-1.999-6.8-1.4-11.899 1h-0.6c-3.6 0-7.099 1.301-9.699 3.6-2.2 2-3.8 4.6-4.5 7.5 0.5-0.6 3.3-3.9 6.5-5.7 0.1 0 0.9-0.5 0.9-0.5-0.1 0-1.6 1.5-1.9 1.8-7 7.2-11.099 18.099-7.899 21.297 2.099 2.1 5.899 1.6 10.299-0.8 1.9 0.9 4 1.3 6.299 1.3 3 0 5.8-0.8 8.2-2.4 2.499-1.6 4.299-4.099 5.4-6.999h-7.8c-1 1.9-3.3 3.2-5.7 3.2-3.4 0-6.2-2.8-6.299-6v-0.3h20.397v-0.3c0-0.5 0.1-1.1 0.1-1.499 0-2.4-0.6-4.7-1.6-6.8zM3.303 29.84c-1.6-1.6-1.099-4.699 0.8-8.399 0.9 2.5 2.4 4.7 4.3 6.3 0.6 0.5 1.3 1 2 1.4-3.2 1.699-5.8 2-7.1 0.699zM23.801 14.643h-12.199v-0.1c0.2-3.1 3.099-5.8 6.499-5.8 3.2 0 5.8 2.5 6 5.8v0.1zM29.9 9.043c-0.6-1-1.4-2-2.3-2.8-1.349-1.257-2.942-2.272-4.699-2.965l-0.101-0.035c3.2-1.499 5.9-1.699 7.3-0.299 1.1 1.3 1 3.499-0.2 6.099 0 0.1 0 0.1 0 0 0 0.1 0 0.1 0 0z"></path></svg>
