<svg version="1.1" xmlns="http://www.w3.org/2000/svg" width="32" height="32" viewBox="0 0 32 32"><path d="M1.467 8.067c-0.819 0-1.467 0.64-1.467 1.44 0 0 0 0 0 0 0 0.795 0.645 1.44 1.44 1.44 0.009 0 0.019-0 0.028-0l-0.001 0c0.827 0 1.48-0.64 1.48-1.44s-0.653-1.44-1.48-1.44zM11.613 8.093c-4.48 0-7.28 3.053-7.28 7.907 0 4.893 2.8 7.933 7.28 7.933 4.453 0 7.267-3.040 7.267-7.933 0-4.853-2.813-7.907-7.267-7.907zM26.067 8.093c-3.333 0-5.707 1.84-5.707 4.573 0 2.173 1.347 3.533 4.173 4.187l1.987 0.48c1.933 0.44 2.72 1.080 2.72 2.187 0 1.28-1.293 2.187-3.133 2.187-1.88 0-3.293-0.92-3.44-2.333h-2.667c0.107 2.827 2.427 4.56 5.947 4.56 3.72 0 6.053-1.827 6.053-4.733 0-2.28-1.333-3.573-4.427-4.28l-1.773-0.4c-1.88-0.453-2.653-1.053-2.653-2.067 0-1.28 1.173-2.133 2.907-2.133 1.747 0 2.947 0.867 3.080 2.293h2.613c-0.067-2.693-2.293-4.52-5.68-4.52zM11.613 10.427c2.72 0 4.467 2.173 4.467 5.573 0 3.427-1.747 5.6-4.467 5.6-2.747 0-4.48-2.173-4.48-5.6 0-3.4 1.733-5.573 4.48-5.573zM0.148 12.413v11.267h2.652v-11.267z"></path></svg>
