<svg version="1.1" xmlns="http://www.w3.org/2000/svg" width="32" height="32" viewBox="0 0 32 32"><path fill="#c00" d="M10.764 32c-0.464 0-0.919-0.084-1.36-0.252-1.833-0.7-2.805-2.693-2.301-4.536l-0.020-0.008 0.12-0.301 9.329-24.223c0.14-0.36 0.076-1.213 0.008-1.689-0.021-0.113-0.021-0.215 0.011-0.32l0.011-0.031 0.008-0.020v-0.009l0.012-0.025c0.144-0.389 0.6-0.585 1.344-0.585 0.897 0 2.136 0.28 3.401 0.764 1.063 0.409 2.031 0.919 2.711 1.433 0.803 0.6 1.123 1.139 0.943 1.6l-0.041 0.060-0.021 0.020c-0.060 0.081-0.12 0.16-0.2 0.22-0.419 0.361-1.019 0.98-1.12 1.26l-9.417 24.561-0.021-0.008c-0.659 1.264-1.943 2.076-3.391 2.081h-0.008zM7.848 27.043l-0.027 0.067c-0.596 1.601 0.216 3.409 1.819 4.024 0.361 0.14 0.735 0.205 1.116 0.205 1.295 0 2.44-0.78 2.917-2l0.036-0.081 9.279-24.12c0.195-0.52 1.12-1.36 1.305-1.52l0.021-0.021c0.016-0.020 0.027-0.020 0.027-0.040 0-0.080-0.081-0.36-0.743-0.86-0.639-0.48-1.539-0.96-2.539-1.34-1.157-0.437-2.357-0.719-3.157-0.719-0.52 0-0.699 0.109-0.727 0.168v0.053c0.021 0.139 0.196 1.38-0.045 2.020l-9.283 24.16zM19.781 11.7c0 0-1.285 1.479-2.457 2.012-1.173 0.531-2.039 0.391-3.093 1.008-1.052 0.615-1.584 1.471-1.584 1.471l-4.287 11.149c-0.464 1.259 0.224 2.733 1.5 3.227 1.28 0.492 2.72-0.16 3.216-1.408zM13.207 25.013c0.139-0.055 0.3 0 0.355 0.14 0.056 0.139 0 0.296-0.14 0.352-0.139 0.057-0.3 0-0.355-0.139-0.056-0.129 0-0.288 0.14-0.353zM11.855 22.611c-0.203 0.091-0.445 0-0.529-0.207-0.093-0.203 0-0.445 0.205-0.529 0.205-0.093 0.447 0 0.531 0.204 0.099 0.2 0.011 0.419-0.207 0.52zM12.236 21.149c-0.164-0.384 0-0.831 0.383-1.011 0.38-0.165 0.82 0 1 0.38 0.161 0.385 0 0.832-0.38 1.009-0.4 0.168-0.839 0-1.020-0.38zM15.471 18.139c0.204-0.099 0.447 0 0.531 0.2 0.093 0.205 0 0.448-0.204 0.532-0.207 0.093-0.449 0-0.532-0.207-0.099-0.203 0-0.445 0.205-0.529zM13.747 16.3c0.14-0.056 0.301 0 0.355 0.14 0.057 0.139 0 0.301-0.139 0.355-0.139 0.056-0.301 0-0.353-0.139-0.059-0.141 0.008-0.303 0.137-0.356zM18.241 1.52c0.133-0.348 1.324-0.216 2.66 0.301 1.332 0.512 2.305 1.212 2.173 1.56-0.139 0.352-1.329 0.219-2.661-0.295-1.34-0.513-2.312-1.213-2.176-1.568z"></path></svg>
