<svg version="1.1" xmlns="http://www.w3.org/2000/svg" width="32" height="32" viewBox="0 0 32 32"><path fill="#c21325" d="M29.668 15.76c-0.003-1.918-1.306-3.531-3.075-4.007l-0.029-0.007 3.984-11.747h-19.743l3.995 11.784c-1.742 0.519-2.99 2.106-2.992 3.984v0c0 1.391 0.693 2.623 1.751 3.381-0.442 0.619-0.917 1.161-1.44 1.653l-0.006 0.005c-0.956 0.912-2.083 1.653-3.328 2.17l-0.072 0.026c-1.112-0.751-1.593-2.075-1.159-3.261 1.704-0.541 2.917-2.109 2.917-3.96 0-2.284-1.847-4.137-4.129-4.147h-0.001c-2.291 0.003-4.148 1.86-4.151 4.15v0c0 1.131 0.463 2.168 1.204 2.909-0.064 0.129-0.129 0.26-0.195 0.399-0.62 1.279-1.324 2.724-1.593 4.345-0.537 3.243 0.343 5.845 2.465 7.319 1.089 0.776 2.447 1.241 3.914 1.241 0.005 0 0.009 0 0.014 0h-0.001c2.436 0 4.909-1.223 7.3-2.409 1.705-0.843 3.465-1.723 5.197-2.149 0.64-0.157 1.307-0.249 2.011-0.352 1.427-0.204 2.9-0.416 4.224-1.187 1.505-0.874 2.58-2.347 2.904-4.084l0.006-0.037c0.232-1.325 0-2.659-0.592-3.827 0.397-0.64 0.62-1.389 0.62-2.195zM27.861 15.76c0 1.287-1.047 2.333-2.333 2.333-1.288-0.004-2.331-1.049-2.331-2.337 0-0.739 0.343-1.399 0.879-1.827l0.005-0.004 0.009-0.009c0.075-0.056 0.157-0.112 0.24-0.167 0 0 0.011 0 0.011-0.009 0.037-0.019 0.073-0.047 0.111-0.067 0.009 0 0.019-0.008 0.028-0.008 0.037-0.019 0.084-0.037 0.129-0.056 0.047-0.019 0.093-0.036 0.131-0.055 0.009 0 0.017-0.009 0.027-0.009 0.037-0.009 0.075-0.028 0.112-0.037 0.009 0 0.027-0.009 0.037-0.009 0.045-0.009 0.083-0.019 0.129-0.027h0.009l0.139-0.029c0.009 0 0.027 0 0.037-0.009 0.037 0 0.073-0.009 0.111-0.009h0.047c0.047 0 0.093-0.009 0.148-0.009h0.12c0.037 0 0.067 0 0.103 0.009h0.019c0.073 0.009 0.148 0.019 0.223 0.037 1.070 0.235 1.86 1.175 1.861 2.298v0zM13.391 1.853h14.573l-3.345 9.867c-0.139 0.027-0.277 0.073-0.416 0.12l-3.52-7.18-3.531 7.133c-0.139-0.045-0.288-0.073-0.436-0.101zM20.015 14.953c-0.181-0.887-0.626-1.649-1.248-2.221l-0.003-0.003 1.917-3.872 1.936 3.956c-0.573 0.573-0.991 1.307-1.157 2.14zM15.373 13.489c0.045-0.009 0.083-0.019 0.129-0.027h0.027c0.039-0.011 0.075-0.011 0.112-0.020h0.037c0.037 0 0.065-0.009 0.101-0.009h0.361c0.037 0 0.065 0.009 0.093 0.009 0.019 0 0.027 0 0.047 0.009 0.036 0.009 0.064 0.009 0.101 0.019 0.009 0 0.019 0 0.037 0.009l0.129 0.027h0.009c0.037 0.011 0.075 0.020 0.111 0.039 0.009 0 0.019 0.009 0.037 0.009 0.028 0.009 0.065 0.019 0.093 0.036 0.009 0 0.019 0.009 0.027 0.009 0.037 0.019 0.075 0.028 0.112 0.047h0.009c0.046 0.018 0.085 0.040 0.121 0.066l-0.001-0.001h0.009c0.037 0.019 0.075 0.045 0.112 0.064 0.009 0 0.009 0.009 0.017 0.009 0.037 0.019 0.067 0.047 0.103 0.065l0.009 0.009c0.111 0.083 0.213 0.176 0.315 0.268l0.009 0.009c0.396 0.417 0.64 0.982 0.64 1.604 0 0.003 0 0.006-0 0.009v-0c-0.044 1.256-1.072 2.257-2.335 2.257s-2.291-1.001-2.335-2.253l-0-0.004c0-0.002 0-0.004 0-0.007 0-1.083 0.741-1.993 1.744-2.25l0.016-0.004zM6.256 13.424c1.288 0 2.335 1.048 2.335 2.335s-1.047 2.335-2.333 2.335-2.336-1.047-2.336-2.333 1.048-2.336 2.335-2.336zM27.807 21.457c-0.224 1.227-0.968 2.245-1.991 2.833l-0.020 0.011c-1.011 0.584-2.252 0.769-3.559 0.955-0.871 0.112-1.613 0.248-2.343 0.419l0.156-0.031c-1.927 0.473-3.779 1.4-5.576 2.289-2.299 1.139-4.467 2.213-6.476 2.213-0.009 0-0.020 0-0.030 0-1.067 0-2.054-0.344-2.856-0.927l0.014 0.010c-2.039-1.408-1.937-4.048-1.696-5.493 0.223-1.353 0.843-2.621 1.436-3.836 0.037-0.073 0.065-0.139 0.103-0.213 0.203 0.075 0.416 0.131 0.639 0.168-0.352 1.964 0.648 3.992 2.595 4.993l0.352 0.185 0.379-0.139c1.621-0.575 3.123-1.511 4.448-2.761 0.721-0.674 1.357-1.424 1.898-2.242l0.029-0.046c0.213 0.036 0.427 0.045 0.64 0.045 1.917-0.005 3.529-1.306 4.004-3.074l0.007-0.029h1.556c0.479 1.799 2.093 3.103 4.012 3.103 0 0 0.001 0 0.001 0h-0c0.768 0 1.48-0.213 2.093-0.573 0.24 0.693 0.315 1.417 0.185 2.14z"></path></svg>
