<svg version="1.1" xmlns="http://www.w3.org/2000/svg" width="32" height="32" viewBox="0 0 32 32"><path d="M0 0h32v32h-32zM2.8 28h12v-2h-12zM4.4 9.2h0.4c0.933-0.133 1.6-0.933 1.6-2v-3.2h-1.467v3.333c0 0.533-0.133 0.667-0.533 0.667s-0.667-0.133-0.8-0.4l-0.933 0.8c0.4 0.667 1.067 0.933 1.733 0.8zM11.067 9.2v-1.2h-2.8v-0.8h2.4v-1.2h-2.4v-0.8h2.8v-1.2h-4.267v5.333h4.267zM12.8 9.2h1.467v-4h1.6v-1.2h-4.533v1.2h1.6v4zM7.467 14.267c0-0.667-0.4-1.2-1.067-1.2 0.533-0.133 0.8-0.667 0.8-1.2 0-0.267-0.133-0.667-0.267-0.933-0.4-0.4-0.933-0.533-1.467-0.533h-2.667v5.2h2.667c1.2 0 2-0.533 2-1.333zM4.133 11.6h0.933c0.4 0 0.667 0.133 0.667 0.4 0 0.4-0.267 0.533-0.667 0.533h-0.933zM4.133 14.4v-0.933h1.067c0.533 0 0.8 0.133 0.667 0.4 0 0.267-0.267 0.533-0.667 0.533zM14 10.4l-2 4.667-0.8-1.2c0.667-0.267 1.067-0.933 1.067-1.6 0-0.4-0.133-0.933-0.4-1.2-0.533-0.533-1.2-0.667-1.733-0.667h-2.533v5.2h1.467v-1.6h0.667l1.067 1.6h2.4l0.4-0.933h2l0.4 0.933h1.6l-2.133-5.333h-1.467zM10 12.933h-0.933v-1.2h0.933c0.4 0 0.8 0.133 0.8 0.667 0 0.267-0.267 0.533-0.8 0.533zM15.2 13.6h-1.067l0.533-1.467zM17.733 15.6h1.467v-5.2h-1.467zM23.067 13.2l-2.133-2.8h-1.333v5.2h1.467v-2.8l2.267 2.933h1.2v-5.333h-1.467zM27.2 12.4c-0.667-0.133-0.933-0.267-0.933-0.533 0-0.133 0.133-0.267 0.533-0.267 0.533 0 1.067 0.267 1.467 0.533l0.8-1.067c-0.667-0.533-1.333-0.667-2.133-0.667-1.2 0-2 0.8-2 1.733 0 1.067 0.8 1.333 2 1.6 0.667 0.133 0.933 0.267 0.933 0.533s-0.267 0.4-0.667 0.4c-0.667 0-1.2-0.267-1.733-0.667l-0.8 0.933c0.667 0.533 1.6 0.8 2.4 0.8 1.333 0 2.133-0.667 2.133-1.733 0-0.933-0.8-1.333-2-1.6z"></path></svg>
