<svg version="1.1" xmlns="http://www.w3.org/2000/svg" width="32" height="32" viewBox="0 0 32 32"><path fill="#326ce5" d="M13.605 19.133l0.009 0.013-1.332 3.217c-1.266-0.819-2.231-2.009-2.751-3.415l-0.015-0.048 3.437-0.583 0.005 0.007c0.032-0.006 0.069-0.010 0.107-0.010 0.324 0 0.587 0.263 0.587 0.587 0 0.084-0.017 0.163-0.049 0.235l0.001-0.004zM12.495 16.295c0.251-0.070 0.432-0.297 0.432-0.566 0-0.176-0.078-0.334-0.2-0.442l-0.001-0.001 0.003-0.015-2.615-2.339c-0.637 1.021-1.015 2.261-1.015 3.589 0 0.264 0.015 0.525 0.044 0.782l-0.003-0.031 3.352-0.967zM14.021 13.655c0.096 0.070 0.216 0.113 0.346 0.113 0.315 0 0.573-0.249 0.586-0.561l0-0.001 0.013-0.007 0.2-3.493c-1.576 0.189-2.962 0.888-4.014 1.924l0.001-0.001 2.863 2.031zM15.035 17.321l0.964 0.465 0.963-0.463 0.24-1.040-0.667-0.831h-1.072l-0.667 0.831zM17.035 13.195c0.014 0.313 0.271 0.562 0.586 0.562 0.131 0 0.251-0.043 0.349-0.115l-0.002 0.001 0.011 0.004 2.845-2.017c-1.048-1.027-2.423-1.723-3.955-1.919l-0.034-0.004 0.197 3.487zM31.536 21.155l-7.697 9.575c-0.394 0.485-0.991 0.792-1.659 0.792-0.002 0-0.004 0-0.005 0l-12.348 0.004c-0 0-0.001 0-0.002 0-0.669 0-1.267-0.308-1.658-0.791l-0.003-0.004-7.701-9.573c-0.288-0.358-0.462-0.817-0.462-1.318 0-0.166 0.019-0.328 0.056-0.483l-0.003 0.014 2.747-11.94c0.144-0.627 0.567-1.152 1.151-1.431l11.123-5.316c0.27-0.132 0.588-0.209 0.923-0.209s0.653 0.077 0.936 0.215l-0.013-0.006 11.127 5.313c0.584 0.279 1.007 0.805 1.151 1.431l2.749 11.94c0.144 0.627-0.007 1.284-0.411 1.787zM27.151 18.412c-0.056-0.013-0.137-0.035-0.193-0.045-0.232-0.044-0.42-0.033-0.639-0.051-0.467-0.049-0.851-0.089-1.193-0.197-0.14-0.053-0.24-0.22-0.288-0.288l-0.268-0.079c0.051-0.353 0.081-0.76 0.081-1.174 0-0.686-0.080-1.354-0.232-1.994l0.012 0.058c-0.256-1.095-0.687-2.059-1.267-2.914l0.019 0.030c0.069-0.063 0.2-0.177 0.236-0.212 0.011-0.12 0.001-0.244 0.125-0.376 0.263-0.247 0.592-0.451 0.991-0.696 0.189-0.112 0.364-0.183 0.553-0.323 0.043-0.032 0.101-0.083 0.147-0.119 0.32-0.255 0.393-0.693 0.164-0.981s-0.675-0.315-0.993-0.060c-0.045 0.036-0.107 0.083-0.148 0.117-0.179 0.155-0.289 0.307-0.44 0.467-0.328 0.333-0.6 0.611-0.897 0.812-0.129 0.075-0.319 0.049-0.404 0.044l-0.253 0.18c-1.415-1.482-3.34-2.466-5.493-2.668l-0.035-0.003-0.016-0.297c-0.087-0.083-0.191-0.153-0.217-0.333-0.029-0.357 0.020-0.743 0.076-1.207 0.031-0.217 0.081-0.397 0.091-0.633 0.001-0.053-0.001-0.132-0.001-0.189 0-0.408-0.299-0.74-0.667-0.74-0.367 0-0.665 0.332-0.665 0.74l0.001 0.019c0 0.055-0.003 0.123 0 0.171 0.008 0.236 0.059 0.416 0.089 0.633 0.056 0.464 0.104 0.849 0.075 1.208-0.040 0.137-0.115 0.254-0.215 0.343l-0.001 0.001-0.016 0.281c-2.201 0.182-4.142 1.171-5.551 2.666l-0.004 0.004c-0.115-0.079-0.193-0.135-0.271-0.192l0.031 0.022c-0.12 0.016-0.24 0.053-0.396-0.039-0.297-0.2-0.569-0.477-0.897-0.811-0.151-0.16-0.26-0.312-0.439-0.465-0.040-0.035-0.103-0.083-0.148-0.117-0.126-0.103-0.287-0.168-0.462-0.176l-0.002-0c-0.010-0.001-0.022-0.001-0.034-0.001-0.2 0-0.378 0.091-0.496 0.234l-0.001 0.001c-0.229 0.288-0.156 0.728 0.164 0.983l0.009 0.007 0.139 0.111c0.189 0.14 0.363 0.212 0.552 0.323 0.399 0.247 0.728 0.451 0.991 0.696 0.101 0.109 0.12 0.301 0.133 0.384l0.213 0.191c-0.907 1.343-1.448 2.999-1.448 4.781 0 0.433 0.032 0.859 0.094 1.275l-0.006-0.047-0.277 0.080c-0.073 0.096-0.177 0.245-0.287 0.289-0.343 0.108-0.728 0.147-1.193 0.196-0.219 0.019-0.407 0.008-0.64 0.052-0.049 0.009-0.12 0.027-0.177 0.040l-0.005 0.003-0.009 0.003c-0.393 0.095-0.645 0.456-0.564 0.811 0.081 0.356 0.465 0.572 0.86 0.487l0.009-0.001 0.013-0.004 0.172-0.039c0.227-0.061 0.392-0.151 0.597-0.229 0.44-0.157 0.805-0.289 1.16-0.341 0.149-0.012 0.307 0.092 0.384 0.135l0.289-0.049c0.676 2.048 2.035 3.716 3.801 4.773l0.039 0.022-0.12 0.291c0.044 0.112 0.092 0.265 0.059 0.376-0.129 0.336-0.351 0.689-0.603 1.084-0.121 0.181-0.247 0.323-0.357 0.532-0.027 0.049-0.060 0.127-0.085 0.179-0.171 0.367-0.045 0.788 0.284 0.947 0.331 0.16 0.741-0.009 0.92-0.376v-0.003c0.027-0.052 0.061-0.12 0.083-0.169 0.093-0.216 0.125-0.401 0.192-0.611 0.176-0.443 0.273-0.907 0.516-1.196 0.067-0.080 0.173-0.109 0.287-0.14l0.151-0.273c0.918 0.364 1.981 0.575 3.094 0.575 1.097 0 2.146-0.205 3.11-0.579l-0.059 0.020 0.141 0.256c0.115 0.037 0.24 0.056 0.341 0.207 0.181 0.309 0.305 0.676 0.456 1.12 0.067 0.208 0.099 0.393 0.193 0.609 0.021 0.049 0.057 0.12 0.083 0.172 0.177 0.368 0.589 0.536 0.92 0.376 0.329-0.157 0.455-0.58 0.284-0.947-0.027-0.052-0.060-0.128-0.087-0.179-0.111-0.208-0.236-0.348-0.357-0.531-0.253-0.395-0.461-0.721-0.591-1.057-0.053-0.173 0.009-0.28 0.051-0.392-0.024-0.029-0.079-0.192-0.111-0.269 1.811-1.087 3.171-2.768 3.823-4.768l0.017-0.061c0.085 0.013 0.235 0.040 0.284 0.051 0.1-0.067 0.192-0.152 0.373-0.139 0.355 0.052 0.72 0.184 1.16 0.341 0.205 0.080 0.369 0.171 0.597 0.231 0.048 0.013 0.117 0.025 0.173 0.037l0.012 0.004 0.009 0.001c0.396 0.085 0.779-0.131 0.86-0.487 0.080-0.355-0.171-0.716-0.564-0.811zM21.867 12.935l-2.6 2.328v0.007c-0.124 0.108-0.202 0.267-0.202 0.443 0 0.269 0.181 0.496 0.429 0.565l0.004 0.001 0.004 0.013 3.368 0.971c0.021-0.203 0.033-0.438 0.033-0.676 0-0.552-0.064-1.089-0.186-1.604l0.009 0.047c-0.185-0.793-0.481-1.493-0.876-2.125l0.017 0.029zM16.516 20.035c-0.1-0.186-0.293-0.31-0.515-0.31-0.008 0-0.017 0-0.025 0.001l0.001-0c-0.215 0.008-0.399 0.131-0.494 0.308l-0.002 0.003h-0.003l-1.691 3.056c0.663 0.234 1.427 0.369 2.223 0.369 0.792 0 1.552-0.134 2.26-0.379l-0.048 0.015-1.693-3.061zM19.033 18.311c-0.032-0.006-0.069-0.010-0.106-0.010-0.092 0-0.18 0.021-0.257 0.059l0.003-0.002c-0.199 0.097-0.334 0.297-0.334 0.529 0 0.084 0.018 0.165 0.050 0.237l-0.001-0.004-0.004 0.005 1.347 3.251c1.274-0.822 2.244-2.022 2.759-3.439l0.015-0.048-3.467-0.587z"></path></svg>
