<svg version="1.1" xmlns="http://www.w3.org/2000/svg" width="32" height="32" viewBox="0 0 32 32"><path d="M16 29.333q-2.733 0-5.167-1.050t-4.25-2.867-2.867-4.25-1.050-5.167q0-2.767 1.050-5.183t2.867-4.233 4.25-2.867 5.167-1.050q2.767 0 5.183 1.050t4.233 2.867 2.867 4.233 1.050 5.183q0 2.733-1.050 5.167t-2.867 4.25-4.233 2.867-5.183 1.050zM16 26.6q0.867-1.2 1.5-2.5t1.033-2.767h-5.067q0.4 1.467 1.033 2.767t1.5 2.5zM12.533 26.067q-0.6-1.1-1.050-2.283t-0.75-2.45h-3.933q0.967 1.667 2.417 2.9t3.317 1.833zM19.467 26.067q1.867-0.6 3.317-1.833t2.417-2.9h-3.933q-0.3 1.267-0.75 2.45t-1.050 2.283zM5.667 18.667h4.533q-0.1-0.667-0.15-1.317t-0.050-1.35 0.050-1.35 0.15-1.317h-4.533q-0.167 0.667-0.25 1.317t-0.083 1.35 0.083 1.35 0.25 1.317zM12.867 18.667h6.267q0.1-0.667 0.15-1.317t0.050-1.35-0.050-1.35-0.15-1.317h-6.267q-0.1 0.667-0.15 1.317t-0.050 1.35 0.050 1.35 0.15 1.317zM21.8 18.667h4.533q0.167-0.667 0.25-1.317t0.083-1.35-0.083-1.35-0.25-1.317h-4.533q0.1 0.667 0.15 1.317t0.050 1.35-0.050 1.35-0.15 1.317zM21.267 10.667h3.933q-0.967-1.667-2.417-2.9t-3.317-1.833q0.6 1.1 1.050 2.283t0.75 2.45zM13.467 10.667h5.067q-0.4-1.467-1.033-2.767t-1.5-2.5q-0.867 1.2-1.5 2.5t-1.033 2.767zM6.8 10.667h3.933q0.3-1.267 0.75-2.45t1.050-2.283q-1.867 0.6-3.317 1.833t-2.417 2.9z"></path></svg>
