<svg version="1.1" xmlns="http://www.w3.org/2000/svg" width="32" height="32" viewBox="0 0 32 32"><path fill="#003a70" d="M24.263 32h-16.524c-0.707-0.002-1.28-0.575-1.283-1.282v-12.224c0-0.705 0.577-1.283 1.283-1.283h1.552v-1.976c0-3.7 3.011-6.709 6.709-6.709s6.709 3.011 6.709 6.709v1.976h1.552c0.705 0 1.283 0.577 1.283 1.283v12.224c-0.002 0.707-0.574 1.28-1.281 1.283h-0zM16.837 25.237c0.52-0.297 0.865-0.848 0.865-1.48 0-0.938-0.761-1.699-1.699-1.699-0.001 0-0.003 0-0.004 0h0c-0.938 0.001-1.699 0.762-1.699 1.7 0 0.63 0.343 1.181 0.853 1.474l0.008 0.004v1.656c0 0.462 0.375 0.837 0.837 0.837s0.837-0.375 0.837-0.837v0zM13.139 17.211h5.724v-1.976c0-1.577-1.284-2.861-2.861-2.861s-2.861 1.284-2.861 2.861zM6.063 15.389h-3.987c-0.647 0-1.171-0.524-1.171-1.171s0.524-1.171 1.171-1.171h3.987c0.647 0 1.171 0.524 1.171 1.171s-0.524 1.171-1.171 1.171v0zM8.872 9.117c-0.001 0-0.002 0-0.003 0-0.282 0-0.541-0.101-0.742-0.268l0.002 0.002-3.153-2.593c-0.262-0.216-0.427-0.541-0.427-0.905 0-0.647 0.524-1.171 1.171-1.171 0.283 0 0.543 0.101 0.746 0.268l-0.002-0.002 3.153 2.593c0.262 0.216 0.428 0.541 0.428 0.905 0 0.647-0.524 1.171-1.171 1.171-0.001 0-0.002 0-0.003 0h0zM16 6.36c-0.647 0-1.171-0.524-1.171-1.171v0-4.019c0-0.647 0.524-1.171 1.171-1.171s1.171 0.524 1.171 1.171v4.019c0 0.647-0.524 1.171-1.171 1.171v0zM23.128 9.117c-0.002 0-0.003 0-0.005 0-0.646 0-1.169-0.524-1.169-1.169 0-0.364 0.166-0.689 0.427-0.904l0.002-0.002 3.153-2.593c0.201-0.166 0.461-0.267 0.744-0.267 0.647 0 1.171 0.524 1.171 1.171 0 0.363-0.166 0.688-0.425 0.903l-0.002 0.002-3.153 2.593c-0.2 0.165-0.459 0.265-0.741 0.265-0 0-0.001 0-0.002 0h0zM29.924 15.389h-4.025c-0.647 0-1.171-0.524-1.171-1.171s0.524-1.171 1.171-1.171h4.025c0.647 0 1.171 0.524 1.171 1.171s-0.524 1.171-1.171 1.171v0z"></path></svg>
