<svg version="1.1" xmlns="http://www.w3.org/2000/svg" width="32" height="32" viewBox="0 0 32 32"><path d="M16 29.333q-1.1 0-1.883-0.783t-0.783-1.883h5.333q0 1.1-0.783 1.883t-1.883 0.783zM10.667 25.333v-2.667h10.667v2.667h-10.667zM11 21.333q-2.3-1.367-3.65-3.667t-1.35-5q0-4.167 2.917-7.083t7.083-2.917 7.083 2.917 2.917 7.083q0 2.7-1.35 5t-3.65 3.667h-10zM11.8 18.667h8.4q1.5-1.067 2.317-2.633t0.817-3.367q0-3.067-2.133-5.2t-5.2-2.133-5.2 2.133-2.133 5.2q0 1.8 0.817 3.367t2.317 2.633z"></path></svg>
