<svg version="1.1" xmlns="http://www.w3.org/2000/svg" width="32" height="32" viewBox="0 0 32 32"><path d="M9.333 12v-2.667h18.667v2.667h-18.667zM9.333 17.333v-2.667h18.667v2.667h-18.667zM9.333 22.667v-2.667h18.667v2.667h-18.667zM5.333 12q-0.567 0-0.95-0.383t-0.383-0.95 0.383-0.95 0.95-0.383 0.95 0.383 0.383 0.95-0.383 0.95-0.95 0.383zM5.333 17.333q-0.567 0-0.95-0.383t-0.383-0.95 0.383-0.95 0.95-0.383 0.95 0.383 0.383 0.95-0.383 0.95-0.95 0.383zM5.333 22.667q-0.567 0-0.95-0.383t-0.383-0.95 0.383-0.95 0.95-0.383 0.95 0.383 0.383 0.95-0.383 0.95-0.95 0.383z"></path></svg>
