<svg version="1.1" xmlns="http://www.w3.org/2000/svg" width="32" height="32" viewBox="0 0 32 32"><path d="M8 26.667q-1.667 0-2.833-1.167t-1.167-2.833h-2.667v-14.667q0-1.1 0.783-1.883t1.883-0.783h18.667v5.333h4l4 5.333v6.667h-2.667q0 1.667-1.167 2.833t-2.833 1.167-2.833-1.167-1.167-2.833h-8q0 1.667-1.167 2.833t-2.833 1.167zM8 24q0.567 0 0.95-0.383t0.383-0.95-0.383-0.95-0.95-0.383-0.95 0.383-0.383 0.95 0.383 0.95 0.95 0.383zM4 20h1.067q0.567-0.6 1.3-0.967t1.633-0.367 1.633 0.367 1.3 0.967h9.067v-12h-16v12zM24 24q0.567 0 0.95-0.383t0.383-0.95-0.383-0.95-0.95-0.383-0.95 0.383-0.383 0.95 0.383 0.95 0.95 0.383zM22.667 17.333h5.667l-3-4h-2.667v4z"></path></svg>
