<svg version="1.1" xmlns="http://www.w3.org/2000/svg" width="32" height="32" viewBox="0 0 32 32"><path d="M8 26.667h16v-13.333h-16v13.333zM16 22.667q1.1 0 1.883-0.783t0.783-1.883-0.783-1.883-1.883-0.783-1.883 0.783-0.783 1.883 0.783 1.883 1.883 0.783zM8 26.667v0zM8 29.333q-1.1 0-1.883-0.783t-0.783-1.883v-13.333q0-1.1 0.783-1.883t1.883-0.783h9.333v-2.667q0-2.767 1.95-4.717t4.717-1.95 4.717 1.95 1.95 4.717h-2.667q0-1.667-1.167-2.833t-2.833-1.167-2.833 1.167-1.167 2.833v2.667h4q1.1 0 1.883 0.783t0.783 1.883v13.333q0 1.1-0.783 1.883t-1.883 0.783h-16z"></path></svg>
