<svg version="1.1" xmlns="http://www.w3.org/2000/svg" width="32" height="32" viewBox="0 0 32 32"><path fill="#2c2d72" d="M0.507 13.836l-0.363-0.049c-0.064 0.459-0.109 0.927-0.135 1.388l0.367 0.021c0.024-0.453 0.068-0.909 0.131-1.36zM5.515 4.385l-0.245-0.273c-0.344 0.309-0.679 0.64-0.995 0.979l0.269 0.251c0.308-0.331 0.635-0.653 0.971-0.956zM7.692 2.745l-0.195-0.313c-0.395 0.248-0.781 0.513-1.151 0.792l0.221 0.292c0.36-0.271 0.739-0.532 1.124-0.771zM2.432 24.492c0.247 0.396 0.512 0.781 0.791 1.151l0.293-0.219c-0.273-0.361-0.532-0.74-0.773-1.125zM1.503 21.869l-0.34 0.139c0.172 0.424 0.365 0.847 0.575 1.257l0.007 0.013 0.327-0.167-0.007-0.013c-0.204-0.401-0.393-0.815-0.561-1.229zM0.397 12.412l0.359 0.084c0.101-0.443 0.224-0.885 0.363-1.315l-0.348-0.116c-0.144 0.443-0.269 0.896-0.373 1.347zM0.365 16.56l-0.367 0.013c0.016 0.464 0.053 0.932 0.111 1.391l0.364-0.044c-0.056-0.448-0.092-0.907-0.108-1.36zM0.341 19.341c0.097 0.453 0.216 0.909 0.352 1.352l0.351-0.107c-0.133-0.435-0.249-0.877-0.344-1.32zM15.431 0.367l-0.013-0.367c-0.464 0.016-0.932 0.052-1.392 0.109l0.045 0.364c0.451-0.055 0.907-0.091 1.36-0.107zM30.961 11.421c0.133 0.435 0.248 0.88 0.341 1.323l0.36-0.079c-0.096-0.453-0.213-0.909-0.349-1.352zM23.495 1.852c-0.412-0.219-0.836-0.419-1.263-0.599l-0.143 0.336c0.419 0.177 0.833 0.375 1.235 0.585zM20.924 0.763c-0.443-0.14-0.893-0.265-1.347-0.369l-0.084 0.357c0.443 0.101 0.885 0.224 1.317 0.364zM8.899 2.060c0.397-0.2 0.808-0.388 1.221-0.557l-0.139-0.339c-0.423 0.169-0.843 0.363-1.249 0.571l-0.020 0.011 0.167 0.325zM31.636 15.451l0.367-0.013c-0.018-0.514-0.057-0.996-0.117-1.471l0.008 0.078-0.364 0.044c0.055 0.451 0.091 0.909 0.107 1.363zM18.205 0.14c-0.461-0.063-0.928-0.107-1.391-0.131l-0.019 0.364c0.452 0.024 0.911 0.068 1.359 0.131zM12.725 0.703l-0.077-0.36c-0.453 0.096-0.908 0.213-1.352 0.352l0.108 0.349c0.433-0.132 0.879-0.247 1.321-0.341zM2.561 7.292l0.308 0.2c0.247-0.38 0.512-0.755 0.789-1.112l-0.289-0.227c-0.284 0.368-0.556 0.751-0.808 1.139zM1.257 9.757l0.337 0.143c0.176-0.417 0.373-0.833 0.585-1.232l-0.324-0.171c-0.217 0.409-0.419 0.833-0.599 1.26zM24.297 29.257l0.193 0.312c0.393-0.248 0.781-0.513 1.151-0.792l-0.219-0.292c-0.363 0.272-0.743 0.533-1.125 0.772zM28.331 25.625l0.289 0.227c0.287-0.364 0.557-0.748 0.809-1.139l-0.307-0.197c-0.248 0.38-0.513 0.752-0.792 1.109zM26.473 27.62l0.245 0.271c0.344-0.307 0.68-0.639 0.995-0.976l-0.268-0.251c-0.307 0.331-0.636 0.651-0.972 0.956zM29.812 23.339l0.325 0.172c0.216-0.409 0.419-0.833 0.599-1.26l-0.339-0.143c-0.215 0.512-0.412 0.916-0.625 1.31l0.039-0.079zM31.489 18.172l0.364 0.052c0.065-0.461 0.109-0.927 0.136-1.391l-0.367-0.019c-0.024 0.451-0.068 0.909-0.133 1.357zM30.875 20.828l0.352 0.115c0.143-0.443 0.268-0.893 0.372-1.347l-0.357-0.084c-0.103 0.444-0.225 0.887-0.367 1.316zM29.937 8.896c0.205 0.404 0.396 0.823 0.565 1.243l0.341-0.139c-0.175-0.429-0.369-0.857-0.581-1.271zM11.061 31.224c0.441 0.143 0.893 0.268 1.345 0.372l0.083-0.357c-0.441-0.101-0.884-0.224-1.315-0.364zM13.78 31.852c0.46 0.065 0.928 0.109 1.391 0.136l0.019-0.367c-0.452-0.024-0.909-0.068-1.359-0.131zM23.101 29.932c-0.404 0.205-0.817 0.396-1.235 0.565l0.139 0.341c0.424-0.175 0.852-0.367 1.263-0.579l0.005-0.003-0.164-0.328zM6.151 28.623c0.365 0.284 0.749 0.557 1.139 0.807l0.199-0.307c-0.38-0.245-0.753-0.513-1.111-0.789zM16.556 31.633l0.012 0.367c0.464-0.019 0.932-0.055 1.393-0.112l-0.047-0.361c-0.448 0.055-0.907 0.091-1.359 0.107zM8.493 30.139c0.409 0.216 0.833 0.419 1.261 0.599l0.143-0.339c-0.417-0.177-0.832-0.372-1.232-0.585zM4.111 26.721c0.311 0.344 0.64 0.68 0.979 0.995l0.251-0.268c-0.332-0.307-0.653-0.636-0.956-0.972zM19.26 31.3l0.079 0.36c0.453-0.099 0.907-0.216 1.352-0.355l-0.109-0.349c-0.433 0.132-0.879 0.247-1.321 0.344zM28.24 0.172c-1.98 0-3.585 1.605-3.585 3.585s1.605 3.585 3.585 3.585v0c1.98 0 3.585-1.605 3.585-3.585s-1.605-3.585-3.585-3.585v0zM20.432 20.596c0 0.628 0.419 0.88 1.136 0.88 0.893 0 1.729-0.528 1.729-1.355v-0.86c-0.307 0.143-0.505 0.188-1.476 0.32-0.98 0.145-1.389 0.408-1.389 1.015zM16 3.757c-6.76 0-12.24 5.479-12.24 12.24 0 6.757 5.48 12.24 12.24 12.24s12.24-5.481 12.24-12.24c0-6.76-5.48-12.24-12.24-12.24zM12.684 22.117h-4.989v-8.031h1.025v7.128h3.965zM18.191 22.117h-0.825v-0.893c-0.54 0.76-1.081 1.057-1.928 1.057-1.124 0-1.84-0.617-1.84-1.576v-4.361h0.915v4c0 0.693 0.463 1.133 1.191 1.133 0.959 0 1.575-0.771 1.575-1.948v-3.185h0.915zM17.484 10.927c0-1.979 1.607-3.585 3.585-3.585s3.584 1.607 3.584 3.585-1.604 3.584-3.584 3.584-3.585-1.604-3.585-3.584zM24.907 21.401v0.693c-0.297 0.079-0.44 0.099-0.628 0.099-0.453 0-0.849-0.317-0.948-0.76-0.508 0.541-1.224 0.849-1.961 0.849-1.169 0-1.896-0.617-1.896-1.664 0-0.703 0.341-1.221 1.013-1.497 0.355-0.143 0.552-0.188 1.852-0.352 0.727-0.088 0.959-0.255 0.959-0.64v-0.243c0-0.549-0.464-0.86-1.289-0.86-0.86 0-1.276 0.32-1.355 1.027h-0.924c0.055-1.333 0.915-1.872 2.312-1.872 1.421 0 2.169 0.549 2.169 1.576v3.216c0 0.287 0.177 0.451 0.497 0.451 0.055-0.003 0.099-0.003 0.199-0.023z"></path></svg>
