<svg version="1.1" xmlns="http://www.w3.org/2000/svg" width="32" height="32" viewBox="0 0 32 32"><path fill="#ffe01b" d="M23.973 15.121c0.22-0.028 0.443-0.028 0.663 0 0.119-0.273 0.139-0.744 0.032-1.256-0.16-0.761-0.373-1.223-0.817-1.151s-0.461 0.624-0.301 1.385c0.089 0.428 0.248 0.795 0.424 1.021zM20.16 15.724c0.319 0.14 0.513 0.232 0.589 0.152 0.049-0.051 0.035-0.147-0.040-0.271-0.157-0.257-0.48-0.517-0.823-0.663-0.253-0.108-0.548-0.171-0.857-0.171-0.497 0-0.956 0.162-1.327 0.437l0.006-0.004c-0.213 0.156-0.413 0.373-0.387 0.504 0.011 0.043 0.041 0.075 0.116 0.085 0.176 0.020 0.788-0.289 1.493-0.333 0.499-0.031 0.912 0.125 1.229 0.264zM19.52 16.089c-0.413 0.067-0.641 0.203-0.788 0.329-0.125 0.109-0.203 0.231-0.203 0.316l0.032 0.076 0.068 0.027c0.093 0 0.304-0.085 0.304-0.085 0.276-0.107 0.596-0.17 0.93-0.17 0.142 0 0.282 0.011 0.418 0.033l-0.015-0.002c0.207 0.024 0.307 0.037 0.351-0.035 0.013-0.020 0.031-0.065-0.011-0.133-0.097-0.157-0.516-0.423-1.087-0.356zM22.687 17.431c0.28 0.139 0.589 0.084 0.691-0.12 0.101-0.207-0.045-0.485-0.327-0.623-0.28-0.139-0.589-0.084-0.691 0.12-0.101 0.207 0.045 0.485 0.327 0.623zM24.493 15.849c-0.228-0.004-0.419 0.247-0.423 0.561-0.005 0.313 0.175 0.571 0.403 0.575s0.419-0.247 0.424-0.56c0.004-0.313-0.176-0.571-0.404-0.576zM9.155 21.507c-0.056-0.071-0.149-0.049-0.24-0.028-0.064 0.018-0.137 0.028-0.213 0.029h-0.001c-0.003 0-0.007 0-0.010 0-0.156 0-0.294-0.077-0.378-0.196l-0.001-0.001c-0.104-0.16-0.097-0.399 0.016-0.672l0.053-0.123c0.184-0.411 0.491-1.1 0.147-1.756-0.259-0.493-0.681-0.803-1.189-0.867-0.058-0.008-0.126-0.012-0.194-0.012-0.44 0-0.837 0.186-1.116 0.485l-0.001 0.001c-0.505 0.557-0.584 1.317-0.485 1.587 0.036 0.097 0.092 0.125 0.132 0.131 0.087 0.012 0.213-0.051 0.293-0.267l0.023-0.069c0.035-0.113 0.101-0.324 0.209-0.493 0.166-0.252 0.448-0.416 0.768-0.416 0.187 0 0.361 0.056 0.506 0.152l-0.003-0.002c0.355 0.233 0.491 0.667 0.34 1.081-0.079 0.215-0.205 0.624-0.177 0.96 0.057 0.683 0.476 0.956 0.851 0.987 0.365 0.013 0.621-0.193 0.685-0.344 0.040-0.088 0.007-0.143-0.013-0.167zM30.255 20.259c-0.013-0.049-0.104-0.381-0.229-0.781l-0.253-0.68c0.5-0.751 0.508-1.421 0.443-1.8-0.072-0.471-0.267-0.872-0.661-1.285-0.393-0.416-1.2-0.84-2.333-1.157l-0.593-0.165c-0.003-0.024-0.031-1.404-0.057-1.996-0.017-0.427-0.055-1.096-0.261-1.753-0.247-0.892-0.676-1.671-1.213-2.169 1.48-1.536 2.404-3.229 2.401-4.681-0.004-2.793-3.428-3.64-7.648-1.888l-0.893 0.38c-0.417-0.411-0.952-0.936-1.486-1.459l-0.154-0.15c-4.813-4.205-19.855 12.544-15.047 16.613l1.052 0.891c-0.207 0.537-0.326 1.159-0.326 1.809 0 0.205 0.012 0.407 0.035 0.606l-0.002-0.024c0.113 1.12 0.689 2.192 1.624 3.021 0.887 0.787 2.053 1.287 3.185 1.285 1.871 4.32 6.147 6.971 11.16 7.12 5.379 0.16 9.893-2.368 11.787-6.909 0.124-0.32 0.648-1.756 0.648-3.023 0-1.275-0.719-1.803-1.176-1.803zM8.251 23.659c-0.131 0.023-0.281 0.037-0.435 0.037-0.022 0-0.045-0-0.067-0.001l0.003 0c-1.624-0.044-3.379-1.508-3.553-3.247-0.193-1.92 0.787-3.397 2.52-3.747 0.174-0.036 0.374-0.057 0.579-0.057 0.053 0 0.106 0.001 0.158 0.004l-0.007-0c0.972 0.053 2.404 0.8 2.731 2.921 0.289 1.877-0.171 3.791-1.928 4.089zM6.437 15.552c-1.080 0.209-2.032 0.823-2.613 1.669-0.348-0.291-0.996-0.853-1.111-1.072-0.929-1.767 1.013-5.203 2.371-7.143 3.356-4.795 8.607-8.424 11.040-7.765 0.395 0.112 1.704 1.632 1.704 1.632s-2.431 1.351-4.685 3.235c-3.037 2.343-5.332 5.748-6.705 9.444zM23.487 22.941c0.033-0.015 0.056-0.049 0.056-0.087 0-0.003-0-0.005-0-0.008l0 0c-0.005-0.045-0.043-0.081-0.089-0.081-0.003 0-0.007 0-0.010 0.001l0-0c0 0-2.544 0.377-4.948-0.505 0.261-0.852 0.957-0.544 2.011-0.459 0.26 0.016 0.563 0.026 0.869 0.026 1.419 0 2.79-0.201 4.088-0.577l-0.104 0.026c1.088-0.313 2.517-0.931 3.629-1.808 0.373 0.824 0.507 1.731 0.507 1.731s0.289-0.052 0.532 0.097c0.228 0.141 0.396 0.435 0.281 1.193-0.233 1.417-0.835 2.568-1.845 3.627-0.621 0.671-1.355 1.227-2.174 1.639l-0.044 0.020c-0.406 0.22-0.884 0.427-1.381 0.594l-0.066 0.019c-3.811 1.247-7.712-0.124-8.969-3.067-0.091-0.192-0.177-0.424-0.245-0.662l-0.008-0.034c-0.535-1.94-0.080-4.267 1.343-5.732 0.087-0.093 0.176-0.204 0.176-0.341 0-0.116-0.073-0.237-0.136-0.324-0.497-0.723-2.221-1.955-1.875-4.339 0.248-1.713 1.744-2.919 3.137-2.847l0.353 0.020c0.604 0.036 1.131 0.113 1.629 0.135 0.832 0.036 1.58-0.085 2.467-0.825 0.299-0.249 0.539-0.467 0.944-0.535 0.043-0.007 0.148-0.045 0.36-0.035 0.227 0.009 0.436 0.080 0.612 0.197l-0.004-0.003c0.711 0.473 0.811 1.62 0.848 2.46 0.021 0.48 0.079 1.637 0.099 1.971 0.045 0.76 0.244 0.867 0.648 1 0.227 0.076 0.439 0.132 0.749 0.219 0.94 0.265 1.497 0.533 1.849 0.879 0.211 0.215 0.307 0.444 0.337 0.663 0.112 0.811-0.627 1.812-2.584 2.721-2.14 0.995-4.733 1.247-6.527 1.047l-0.628-0.071c-1.435-0.193-2.252 1.663-1.392 2.935 0.555 0.82 2.067 1.353 3.577 1.353 3.467 0 6.131-1.481 7.121-2.763l0.080-0.113c0.048-0.073 0.008-0.113-0.053-0.072-0.809 0.555-4.405 2.759-8.253 2.095 0 0-0.467-0.076-0.893-0.243-0.339-0.132-1.048-0.459-1.133-1.188 3.104 0.961 5.057 0.052 5.057 0.051zM18.569 22.36l0.001 0.001zM12.631 8.987c1.193-1.381 2.661-2.581 3.976-3.255 0.045-0.023 0.093 0.027 0.069 0.071-0.105 0.189-0.307 0.596-0.369 0.903-0.001 0.003-0.001 0.007-0.001 0.011 0 0.029 0.024 0.053 0.053 0.053 0.011 0 0.021-0.003 0.029-0.009l-0 0c0.819-0.559 2.241-1.157 3.491-1.233 0.053-0.004 0.080 0.065 0.036 0.099-0.205 0.159-0.391 0.344-0.548 0.551-0.007 0.009-0.011 0.020-0.011 0.032 0 0.029 0.023 0.053 0.052 0.053h0c0.876 0.007 2.112 0.313 2.917 0.767 0.053 0.031 0.016 0.136-0.045 0.123-1.219-0.28-3.213-0.493-5.285 0.013-1.849 0.452-3.261 1.149-4.291 1.9-0.053 0.039-0.115-0.031-0.073-0.079z"></path></svg>
