<svg version="1.1" xmlns="http://www.w3.org/2000/svg" width="32" height="32" viewBox="0 0 32 32"><path d="M0 0v32h32v-32zM14.085 6.625c0.889-0.063 1.335 0.088 2.12 0.323l0.581 0.173 0.203 0.061 0.743 0.227c0.487 0.132 0.997 0.14 1.487 0.023 0.208-0.057 0.446-0.090 0.692-0.090 0.469 0 0.91 0.119 1.295 0.329l-0.014-0.007c0.545 0.311 0.912 0.864 0.983 1.487 0.064 0.551 0.384 1.040 0.864 1.319 0.716 0.391 1.461 0.717 2.229 0.981 0.543 0.208 1.087 0.441 1.625 0.651 0.267 0.103 0.503 0.271 0.685 0.493 0.148 0.178 0.244 0.403 0.262 0.649l0 0.004c0.033 0.479 0.091 0.963 0.115 1.445h-0.003c0.037 0.667-0.107 1.329-0.423 1.919-0.116 0.22-0.244 0.428-0.351 0.648-0.13 0.294-0.418 0.495-0.754 0.495-0.033 0-0.065-0.002-0.097-0.006l0.004 0c-0.007-0-0.015-0-0.024-0-0.131 0-0.252 0.045-0.347 0.121l0.001-0.001c-0.328 0.215-0.663 0.427-1 0.628-0.467 0.257-1.027 0.288-1.521 0.080-0.755-0.296-1.629-0.468-2.544-0.468-0 0-0 0-0 0v0c-0.026-0.001-0.056-0.001-0.087-0.001-0.877 0-1.66 0.401-2.176 1.030l-0.004 0.005c-0.213 0.294-0.386 0.635-0.5 1.002l-0.007 0.025c-0.297 0.733-0.552 5.117-0.552 6.235 0 0-4.215-0.82-8.173-4.871l1.032-2.707h-3.232l2.339-2.475h-4.019l2.336-2.477h-3.817l4.251-4.511c1.264-1.255 2.87-2.168 4.666-2.587l0.066-0.013c0.424-0.073 0.768-0.119 1.064-0.139z"></path></svg>
