<svg version="1.1" xmlns="http://www.w3.org/2000/svg" width="32" height="32" viewBox="0 0 32 32"><path d="M12 20v-8h8v8h-8zM14.667 17.333h2.667v-2.667h-2.667v2.667zM12 28v-2.667h-2.667q-1.1 0-1.883-0.783t-0.783-1.883v-2.667h-2.667v-2.667h2.667v-2.667h-2.667v-2.667h2.667v-2.667q0-1.1 0.783-1.883t1.883-0.783h2.667v-2.667h2.667v2.667h2.667v-2.667h2.667v2.667h2.667q1.1 0 1.883 0.783t0.783 1.883v2.667h2.667v2.667h-2.667v2.667h2.667v2.667h-2.667v2.667q0 1.1-0.783 1.883t-1.883 0.783h-2.667v2.667h-2.667v-2.667h-2.667v2.667h-2.667zM22.667 22.667v-13.333h-13.333v13.333h13.333z"></path></svg>
