<svg version="1.1" xmlns="http://www.w3.org/2000/svg" width="32" height="32" viewBox="0 0 32 32"><path fill="#0082c9" d="M16.024 8.716c-3.333 0-6.133 2.283-6.988 5.353-0.747-1.643-2.391-2.807-4.3-2.807-2.611 0.013-4.724 2.126-4.736 4.736v0.001c0.012 2.611 2.125 4.725 4.735 4.737h0.001c1.909 0 3.552-1.165 4.299-2.808 0.855 3.072 3.656 5.355 6.989 5.355 3.316 0 6.101-2.257 6.975-5.303 0.759 1.613 2.377 2.756 4.264 2.756 2.612-0.011 4.726-2.126 4.737-4.736v-0.001c-0.012-2.611-2.126-4.725-4.736-4.737h-0.001c-1.888 0-3.507 1.144-4.265 2.756-0.872-3.045-3.657-5.304-6.973-5.303zM16.024 11.496c2.504 0 4.504 2 4.504 4.504s-2 4.504-4.504 4.504c-0.006 0-0.013 0-0.020 0-2.476 0-4.483-2.007-4.483-4.483 0-0.008 0-0.015 0-0.023v0.001c0-2.504 2-4.504 4.503-4.504zM4.736 14.043c1.096 0 1.956 0.86 1.956 1.957s-0.859 1.956-1.956 1.957c-0.006 0-0.013 0-0.020 0-1.069 0-1.936-0.867-1.936-1.936 0-0.008 0-0.015 0-0.023v0.001c0-1.097 0.859-1.956 1.956-1.957zM27.263 14.043c1.097 0 1.957 0.86 1.957 1.957s-0.86 1.957-1.957 1.957c-0.006 0-0.013 0-0.020 0-1.069 0-1.936-0.867-1.936-1.936 0-0.008 0-0.015 0-0.023v0.001c0-1.097 0.859-1.956 1.956-1.957z"></path></svg>
