<svg version="1.1" xmlns="http://www.w3.org/2000/svg" width="32" height="32" viewBox="0 0 32 32"><path fill="#ffe953" d="M16.127 3.867c0 0-1.227 1.037-2.476 2.067-1.285-0.043-3.808 0.265-5.173 0.797-1.261-0.853-2.368-1.797-2.368-1.797s-0.945 1.74-1.539 2.76c-0.883 0.503-1.767 1.067-2.556 1.813-0.916-0.387-1.98-0.864-2.015-0.879 1.215 2.621 2.032 5.247 4.253 6.825 3.539-5.977 19.977-5.427 23.588-0.033 2.333-1.303 3.24-4.104 4.159-6.691-0.1 0.035-1.349 0.483-2.159 0.813-0.484-0.564-1.623-1.429-2.269-1.847-0.826-1.634-1.328-2.56-1.841-3.479l0.333 0.65c0 0-1.059 0.843-2.287 1.763-1.657-0.328-3.663-0.725-5.349-0.627-0.835-0.743-1.584-1.44-2.318-2.153l0.017 0.017zM1.256 14.2l2.919 7.561c5.068 7.155 18.011 7.652 23.653 0.139 1.335-3.22 3.136-7.744 3.136-7.744-1.448 2.295-3.803 3.879-5.253 4.732-1.032 0.604-3.411 0.969-3.411 0.969l-6.245-3.463-6.28 3.393c0 0-2.348-0.404-3.411-0.935-2.144-1.225-3.587-2.672-5.108-4.653z"></path></svg>
