<svg version="1.1" xmlns="http://www.w3.org/2000/svg" width="32" height="32" viewBox="0 0 32 32"><path d="M5.945 5.611c0.995 0.808 1.368 0.747 3.237 0.621l17.62-1.057c0.373 0 0.063-0.373-0.061-0.435l-2.928-2.116c-0.56-0.435-1.308-0.933-2.74-0.809l-17.060 1.245c-0.621 0.061-0.747 0.373-0.499 0.621zM7.003 9.717v18.539c0 0.996 0.497 1.369 1.619 1.307l19.364-1.12c1.121-0.061 1.247-0.747 1.247-1.556v-18.415c0-0.808-0.311-1.244-0.997-1.183l-20.236 1.183c-0.747 0.063-0.996 0.436-0.996 1.245zM26.119 10.711c0.124 0.56 0 1.12-0.56 1.184l-0.933 0.187v13.685c-0.811 0.436-1.557 0.685-2.18 0.685-0.997 0-1.247-0.312-1.993-1.244l-6.103-9.581v9.269l1.931 0.437c0 0 0 1.12-1.557 1.12l-4.296 0.248c-0.124-0.248 0-0.871 0.436-0.995l1.12-0.311v-12.257l-1.553-0.125c-0.125-0.56 0.187-1.368 1.057-1.431l4.608-0.311 6.352 9.705v-8.587l-1.62-0.185c-0.124-0.685 0.373-1.183 0.996-1.244zM2.581 1.38l17.747-1.307c2.179-0.187 2.74-0.063 4.109 0.933l5.665 3.981c0.933 0.684 1.245 0.871 1.245 1.617v21.837c0 1.368-0.497 2.179-2.24 2.301l-20.611 1.245c-1.307 0.063-1.931-0.124-2.616-0.996l-4.172-5.413c-0.747-0.996-1.057-1.741-1.057-2.613v-19.411c0-1.119 0.499-2.053 1.929-2.176z"></path></svg>
