<svg version="1.1" xmlns="http://www.w3.org/2000/svg" width="32" height="32" viewBox="0 0 32 32"><path fill="#004880" d="M23.56 28.844c-2.942 0-5.327-2.385-5.327-5.327s2.385-5.327 5.327-5.327v0c2.942 0 5.327 2.385 5.327 5.327s-2.385 5.327-5.327 5.327v0zM12.935 16.635c-1.839 0-3.329-1.491-3.329-3.329s1.491-3.329 3.329-3.329v0c1.839 0 3.329 1.491 3.329 3.329s-1.491 3.329-3.329 3.329v0zM23.795 6.241h-8.889c-4.532 0.002-8.205 3.675-8.205 8.207v8.889c0 4.532 3.674 8.205 8.205 8.205v0h8.889c4.532 0 8.205-3.674 8.205-8.205v0-8.889c0-4.532-3.674-8.206-8.205-8.207h-0zM5.327 3.119c0 1.471-1.193 2.664-2.664 2.664s-2.664-1.193-2.664-2.664v0c0-1.471 1.193-2.664 2.664-2.664s2.664 1.193 2.664 2.664v0z"></path></svg>
