<svg version="1.1" xmlns="http://www.w3.org/2000/svg" width="32" height="32" viewBox="0 0 32 32"><path fill="#ec6813" d="M16.248 28.84c-0.113-0.225-0.248-0.697-0.339-0.9-0.089-0.18-0.36-0.675-0.493-0.833-0.293-0.337-0.36-0.36-0.451-0.809-0.159-0.765-0.54-2.116-1.013-3.060-0.248-0.496-0.653-0.901-1.013-1.261-0.315-0.315-1.035-0.832-1.169-0.809-1.193 0.225-1.553 1.395-2.115 2.317-0.316 0.517-0.631 0.945-0.879 1.485-0.224 0.495-0.203 1.057-0.585 1.485-0.367 0.407-0.652 0.896-0.824 1.435l-0.008 0.028c-0.045 0.112-0.135 1.237-0.248 1.507l1.756-0.112c1.643 0.113 1.169 0.743 3.713 0.608l4.027-0.135c-0.113-0.374-0.235-0.687-0.377-0.989l0.018 0.044zM27.949 2.061h-23.899c-0.001 0-0.003 0-0.004 0-2.222 0-4.024 1.802-4.024 4.024 0 0.001 0 0.002 0 0.003v-0 8.777c0.585-0.203 1.395-1.44 1.665-1.733 0.449-0.517 0.54-1.192 0.765-1.597 0.517-0.945 0.607-1.62 1.777-1.62 0.54 0 0.765 0.135 1.125 0.631 0.248 0.337 0.697 0.989 0.9 1.417 0.248 0.495 0.631 1.147 0.811 1.283 0.133 0.089 0.247 0.18 0.36 0.225 0.18 0.067 0.337-0.068 0.472-0.159 0.157-0.133 0.225-0.381 0.383-0.741 0.225-0.519 0.451-1.103 0.585-1.328 0.225-0.36 0.315-0.811 0.563-1.013 0.36-0.315 0.855-0.337 0.989-0.36 0.743-0.157 1.080 0.36 1.44 0.676 0.248 0.224 0.563 0.652 0.811 1.213 0.18 0.451 0.405 0.88 0.517 1.127 0.091 0.247 0.316 0.653 0.451 1.147 0.135 0.428 0.449 0.765 0.585 0.991 0 0 0.203 0.54 1.373 1.036 0.283 0.124 0.642 0.254 1.009 0.363l0.071 0.018c0.517 0.18 1.012 0.159 1.641 0.091 0.451 0 0.699-0.653 0.901-1.171 0.112-0.315 0.247-1.192 0.315-1.44 0.067-0.247-0.113-0.427 0.045-0.653 0.18-0.247 0.292-0.269 0.381-0.584 0.227-0.697 1.485-0.72 2.205-0.72 0.608 0 0.519 0.585 1.531 0.383 0.585-0.113 1.147 0.067 1.756 0.247 0.517 0.136 1.013 0.293 1.305 0.631 0.18 0.225 0.652 1.328 0.18 1.373 0.044 0.044 0.089 0.157 0.157 0.201-0.113 0.428-0.563 0.113-0.833 0.068-0.337-0.067-0.585 0-0.923 0.157-0.585 0.248-1.417 0.225-1.935 0.653-0.427 0.36-0.427 1.147-0.631 1.597 0 0-0.563 1.417-1.755 2.295-0.316 0.227-0.923 0.765-2.228 0.968-0.585 0.091-1.147 0.091-1.756 0.067-0.292-0.021-0.584-0.021-0.877-0.021-0.18 0-0.765-0.023-0.743 0.045l-0.067 0.157c0.004 0.082 0.020 0.159 0.046 0.231l-0.002-0.006c0.023 0.133 0.023 0.247 0.045 0.36 0 0.247-0.023 0.517 0 0.765 0.023 0.517 0.225 0.989 0.248 1.529 0.023 0.585 0.315 1.216 0.607 1.688 0.113 0.18 0.271 0.203 0.339 0.427 0.089 0.248 0 0.541 0.044 0.811 0.157 1.059 0.473 2.183 0.947 3.151v0.023c0.584-0.089 1.192-0.315 1.957-0.427 1.417-0.204 3.375-0.113 4.635-0.227 3.196-0.292 4.929 1.307 7.787 0.653v-23.673c-0.017-2.226-1.823-4.024-4.050-4.028h-0zM16.023 20.964c0-0.045 0-0.045 0 0zM7.404 24.653c0.225-0.495 0.36-1.036 0.54-1.531 0.18-0.472 0.449-1.147 0.923-1.395-0.067-0.067-0.991-0.091-1.237-0.113-0.271-0.023-0.541-0.067-0.811-0.112-0.71-0.125-1.227-0.234-1.739-0.357l0.208 0.042c-0.293-0.068-1.305-0.428-1.507-0.519-0.519-0.224-0.856-0.877-1.239-0.809-0.247 0.045-0.495 0.135-0.653 0.383-0.133 0.203-0.179 0.563-0.269 0.809-0.112 0.271-0.293 0.54-0.427 0.811-0.316 0.472-0.833 0.9-1.059 1.373-0.044 0.112-0.067 0.224-0.112 0.337v5.423c0.269 0.045 0.54 0.091 0.832 0.18 2.251 0.608 2.791 0.653 4.996 0.405l0.203-0.023c0.157-0.36 0.293-1.552 0.405-1.912 0.089-0.293 0.203-0.519 0.248-0.788 0.044-0.271 0-0.54-0.023-0.787-0.045-0.653 0.472-0.88 0.72-1.419z"></path></svg>
