<svg version="1.1" xmlns="http://www.w3.org/2000/svg" width="32" height="32" viewBox="0 0 32 32"><path fill="#2f93e0" d="M2.907 24.283c2.407-1.549 5.237-4.216 4.163-7.347-0.583-1.709-1.395-3.172-1.503-5.016-0.013-0.203-0.020-0.44-0.020-0.678 0-1.413 0.259-2.766 0.733-4.013l-0.026 0.078c2.16-5.787 8.581-8.529 14.388-6.788 5.373 1.621 9.077 7.857 6.825 13.297-1.287 3.141-1.86 5.564 1.007 8.008 0.776 0.661 2.667 1.653 2.656 2.831 0 1.551-3.027-0.325-3.363-0.593 0.381 0.671 4.184 4.649 1.767 4.917-2.227 0.259-4.196-2.852-5.533-4.189-2.248-2.243-1.86 2.723-1.871 3.747 0 1.616-1.157 4.901-3.213 2.763-1.693-1.761-1.033-4.577-2.232-6.54-1.291-2.149-3.44 2.149-3.977 2.933-0.6 0.88-3.617 5.125-4.795 2.863-0.967-1.84 0.579-4.717 1.343-6.38-0.279 0.604-2.247 1.497-2.82 1.787-1.065 0.598-2.339 0.951-3.694 0.951-0.134 0-0.268-0.003-0.401-0.010l0.019 0.001c-3.023-0.217-0.703-1.824 0.516-2.613z"></path></svg>
