<svg version="1.1" xmlns="http://www.w3.org/2000/svg" width="32" height="32" viewBox="0 0 32 32"><path fill="#721412" d="M2.615 18.043c-0.404 0-0.767-0.069-1.091-0.209s-0.597-0.333-0.821-0.583-0.397-0.544-0.519-0.885c-0.123-0.341-0.184-0.711-0.184-1.109s0.061-0.768 0.183-1.109 0.295-0.636 0.519-0.885c0.225-0.249 0.499-0.444 0.823-0.584s0.688-0.209 1.091-0.209c0.404 0 0.767 0.069 1.091 0.209s0.597 0.333 0.821 0.583 0.397 0.544 0.519 0.885 0.183 0.711 0.183 1.109-0.061 0.768-0.183 1.109c-0.123 0.341-0.295 0.636-0.519 0.885s-0.499 0.444-0.821 0.583c-0.324 0.14-0.687 0.211-1.091 0.211zM2.615 17.452c0.313 0 0.591-0.056 0.829-0.168s0.441-0.265 0.605-0.46 0.288-0.425 0.369-0.695c0.083-0.269 0.123-0.56 0.123-0.875 0-0.313-0.041-0.605-0.123-0.875-0.083-0.269-0.205-0.501-0.369-0.699s-0.367-0.351-0.605-0.463-0.515-0.167-0.829-0.167c-0.313 0-0.591 0.056-0.829 0.168s-0.441 0.267-0.605 0.463c-0.164 0.197-0.288 0.429-0.369 0.699-0.083 0.269-0.123 0.56-0.123 0.875 0 0.313 0.041 0.605 0.123 0.875 0.083 0.269 0.205 0.5 0.369 0.695s0.367 0.348 0.605 0.46c0.24 0.111 0.516 0.167 0.829 0.167zM5.94 14.068h0.605v0.545h0.015c0.144-0.199 0.316-0.355 0.516-0.467 0.199-0.112 0.441-0.168 0.725-0.168 0.244 0 0.468 0.047 0.672 0.139s0.379 0.224 0.523 0.396 0.257 0.385 0.34 0.639c0.083 0.255 0.123 0.54 0.123 0.859 0 0.309-0.039 0.589-0.116 0.84-0.077 0.252-0.188 0.465-0.332 0.643s-0.321 0.312-0.531 0.407-0.444 0.141-0.703 0.141c-0.264 0-0.493-0.043-0.688-0.127s-0.371-0.232-0.531-0.441h-0.013v2.076h-0.605zM7.733 17.535c0.184 0 0.347-0.039 0.485-0.116 0.14-0.077 0.255-0.183 0.348-0.317 0.092-0.135 0.16-0.293 0.205-0.479 0.045-0.184 0.067-0.385 0.067-0.605 0-0.215-0.023-0.415-0.067-0.601-0.045-0.187-0.113-0.348-0.205-0.485s-0.207-0.244-0.344-0.321-0.297-0.116-0.481-0.116c-0.209 0-0.392 0.040-0.549 0.12s-0.285 0.189-0.385 0.329-0.175 0.301-0.224 0.485-0.075 0.381-0.075 0.591 0.023 0.407 0.067 0.591c0.045 0.184 0.116 0.345 0.213 0.481 0.097 0.137 0.223 0.245 0.377 0.325 0.155 0.079 0.344 0.119 0.568 0.119zM11.783 18.035c-0.293 0-0.556-0.053-0.788-0.16s-0.427-0.253-0.587-0.437-0.281-0.4-0.367-0.647-0.127-0.509-0.127-0.788 0.044-0.541 0.131-0.788 0.212-0.461 0.373-0.647c0.161-0.184 0.355-0.329 0.579-0.437 0.224-0.107 0.473-0.16 0.747-0.16 0.289 0 0.544 0.053 0.765 0.16s0.407 0.256 0.556 0.448 0.263 0.421 0.34 0.688 0.116 0.559 0.116 0.877h-2.987c0.009 0.195 0.045 0.376 0.104 0.545 0.060 0.169 0.141 0.316 0.247 0.441 0.104 0.124 0.232 0.221 0.381 0.292 0.149 0.069 0.321 0.104 0.516 0.104 0.284 0 0.516-0.065 0.695-0.197s0.304-0.329 0.373-0.593h0.591c-0.089 0.419-0.279 0.74-0.568 0.964-0.289 0.223-0.653 0.335-1.091 0.335zM11.745 14.449c-0.179 0-0.339 0.031-0.479 0.093s-0.257 0.149-0.355 0.261-0.177 0.244-0.239 0.396c-0.063 0.152-0.104 0.315-0.123 0.489h2.324c-0.020-0.388-0.125-0.692-0.317-0.912-0.193-0.219-0.464-0.328-0.812-0.328zM14.827 14.576h0.015c0.14-0.184 0.308-0.329 0.504-0.437 0.197-0.107 0.437-0.16 0.721-0.16 0.404 0 0.721 0.105 0.952 0.317 0.232 0.212 0.348 0.519 0.348 0.923v2.712h-0.605v-2.66c0-0.255-0.077-0.448-0.232-0.583s-0.368-0.201-0.643-0.201c-0.155 0-0.296 0.027-0.425 0.079s-0.241 0.124-0.336 0.217c-0.095 0.092-0.168 0.204-0.22 0.336s-0.079 0.277-0.079 0.437v2.376h-0.605v-3.863h0.605zM20.545 18.040c-0.732 0-1.296-0.155-1.695-0.463s-0.608-0.748-0.627-1.319h1.067c0.040 0.325 0.155 0.557 0.345 0.695s0.479 0.207 0.864 0.207c0.14 0 0.273-0.012 0.399-0.037s0.236-0.065 0.331-0.12 0.172-0.127 0.229-0.215 0.087-0.195 0.087-0.32c0-0.131-0.032-0.237-0.093-0.323-0.063-0.085-0.152-0.156-0.267-0.215-0.115-0.057-0.255-0.108-0.417-0.151s-0.347-0.087-0.552-0.132c-0.24-0.055-0.472-0.116-0.695-0.184s-0.419-0.159-0.587-0.275c-0.168-0.115-0.303-0.263-0.405-0.443s-0.155-0.411-0.155-0.691c0-0.265 0.051-0.499 0.155-0.699 0.103-0.2 0.245-0.368 0.428-0.504 0.183-0.135 0.4-0.237 0.649-0.304 0.251-0.068 0.525-0.101 0.827-0.101 0.605 0 1.093 0.143 1.461 0.428s0.572 0.701 0.612 1.247h-1.044c-0.031-0.271-0.14-0.473-0.331-0.608s-0.425-0.203-0.707-0.203c-0.296 0-0.531 0.057-0.707 0.173-0.176 0.115-0.263 0.268-0.263 0.459 0 0.111 0.024 0.201 0.072 0.275s0.12 0.136 0.217 0.192c0.097 0.055 0.219 0.103 0.364 0.143s0.317 0.083 0.519 0.128c0.276 0.060 0.535 0.127 0.777 0.199 0.243 0.073 0.456 0.169 0.639 0.289s0.327 0.273 0.432 0.459 0.157 0.424 0.157 0.713c0 0.271-0.052 0.512-0.157 0.725s-0.251 0.391-0.436 0.533-0.405 0.252-0.661 0.327c-0.255 0.075-0.532 0.113-0.833 0.113zM25.557 18.040c-0.732 0-1.296-0.155-1.695-0.463s-0.608-0.748-0.627-1.319h1.067c0.040 0.325 0.155 0.557 0.345 0.695s0.479 0.207 0.864 0.207c0.14 0 0.273-0.012 0.399-0.037s0.236-0.065 0.331-0.12 0.172-0.127 0.229-0.215 0.087-0.195 0.087-0.32c0-0.131-0.032-0.237-0.093-0.323-0.063-0.085-0.152-0.156-0.267-0.215-0.115-0.057-0.255-0.108-0.417-0.151s-0.347-0.087-0.552-0.132c-0.24-0.055-0.472-0.116-0.695-0.184s-0.419-0.159-0.587-0.275c-0.168-0.115-0.303-0.263-0.405-0.443s-0.155-0.411-0.155-0.691c0-0.265 0.051-0.499 0.155-0.699 0.103-0.2 0.245-0.368 0.428-0.504 0.183-0.135 0.4-0.237 0.649-0.304 0.251-0.068 0.525-0.101 0.827-0.101 0.605 0 1.093 0.143 1.461 0.428s0.572 0.701 0.612 1.247h-1.044c-0.031-0.271-0.14-0.473-0.331-0.608s-0.425-0.203-0.707-0.203c-0.296 0-0.531 0.057-0.707 0.173-0.176 0.115-0.263 0.268-0.263 0.459 0 0.111 0.024 0.201 0.072 0.275s0.12 0.136 0.217 0.192c0.097 0.055 0.219 0.103 0.364 0.143s0.317 0.083 0.519 0.128c0.276 0.060 0.535 0.127 0.777 0.199 0.243 0.073 0.456 0.169 0.639 0.289s0.327 0.273 0.432 0.459 0.157 0.424 0.157 0.713c0 0.271-0.052 0.512-0.157 0.725s-0.251 0.391-0.436 0.533-0.405 0.252-0.661 0.327c-0.255 0.075-0.533 0.113-0.833 0.113zM28.387 12.547h1.089v4.463h2.524v0.909h-3.613z"></path></svg>
