<svg version="1.1" xmlns="http://www.w3.org/2000/svg" width="32" height="32" viewBox="0 0 32 32"><path d="M16 29.333q-2.733 0-5.167-1.050t-4.25-2.867-2.867-4.25-1.050-5.167q0-2.767 1.083-5.2t2.933-4.233 4.317-2.85 5.267-1.050q2.667 0 5.033 0.917t4.15 2.533 2.833 3.833 1.050 4.783q0 3.833-2.333 5.883t-5.667 2.050h-2.467q-0.3 0-0.417 0.167t-0.117 0.367q0 0.4 0.5 1.15t0.5 1.717q0 1.667-0.917 2.467t-2.417 0.8zM8.667 17.333q0.867 0 1.433-0.567t0.567-1.433-0.567-1.433-1.433-0.567-1.433 0.567-0.567 1.433 0.567 1.433 1.433 0.567zM12.667 12q0.867 0 1.433-0.567t0.567-1.433-0.567-1.433-1.433-0.567-1.433 0.567-0.567 1.433 0.567 1.433 1.433 0.567zM19.333 12q0.867 0 1.433-0.567t0.567-1.433-0.567-1.433-1.433-0.567-1.433 0.567-0.567 1.433 0.567 1.433 1.433 0.567zM23.333 17.333q0.867 0 1.433-0.567t0.567-1.433-0.567-1.433-1.433-0.567-1.433 0.567-0.567 1.433 0.567 1.433 1.433 0.567zM16 26.667q0.3 0 0.483-0.167t0.183-0.433q0-0.467-0.5-1.1t-0.5-1.9q0-1.4 0.967-2.233t2.367-0.833h2.333q2.2 0 3.767-1.283t1.567-3.983q0-4.033-3.083-6.717t-7.317-2.683q-4.533 0-7.733 3.1t-3.2 7.567q0 4.433 3.117 7.55t7.55 3.117z"></path></svg>
