<svg version="1.1" xmlns="http://www.w3.org/2000/svg" width="32" height="32" viewBox="0 0 32 32"><path fill="#02456c" d="M22.693 0c-0.006-0-0.013-0-0.021-0-0.338 0-0.663 0.060-0.963 0.17l0.019-0.006-18.232 6.507c-1.094 0.398-1.861 1.429-1.861 2.639 0 0.338 0.060 0.663 0.17 0.963l-0.006-0.019 7.099 19.888c0.399 1.093 1.429 1.859 2.638 1.859 0.338 0 0.662-0.060 0.961-0.169l-0.019 0.006 10.328-3.687c1.056-0.409 1.793-0.712 1.952-0.811 0.724-0.419 1.283-1.089 2.619-3.112 1.205-1.816 2.479-4.431 2.796-5.707 0.32-1.293 0.319-1.973-0.669-4.9h0.001l-4.196-11.76c-0.396-1.087-1.415-1.851-2.615-1.861h-0.001zM22.581 0.552c0.96-0.041 1.867 0.537 2.209 1.493l4.196 11.76 0.011-0.004c0.361 1.017 0.663 1.887 0.701 2.053 0.136 0.577-0.376 1.529-0.983 1.8-0.267 0.133-0.947 0.391-1.523 0.572-1.863 0.619-2.733 1.172-3.277 2.064-0.484 0.788-0.42 1.573 0.213 3.169 0.616 1.523 0.711 2.485 0.3 3.2-0.151 0.251-0.401 0.429-1.805 0.977l-0.003-0.007-10.328 3.687c-0.227 0.085-0.489 0.134-0.763 0.134-0.971 0-1.797-0.617-2.108-1.481l-0.005-0.016-7.097-19.888c-0.085-0.227-0.134-0.489-0.134-0.763 0-0.971 0.617-1.797 1.481-2.108l0.016-0.005 18.232-6.507c0.22-0.080 0.445-0.123 0.667-0.132zM21.2 3l-0.944 0.687-0.66 0.493 0.151 0.419 0.099 0.273 0.697-0.421 0.533 1.483 0.537 1.497-0.479 0.172-0.449 0.16c0.060 0.193 0.288 0.856 0.317 0.885l2.888-1.039-0.317-0.884-0.916 0.331-0.445-1.24zM16.813 4.576l-0.945 0.687-0.659 0.493 0.151 0.419 0.097 0.273 0.699-0.421 0.533 1.483 0.537 1.497-0.929 0.333c0.061 0.192 0.288 0.853 0.317 0.884l2.889-1.037-0.317-0.884-0.325 0.116-0.591 0.213-0.445-1.24zM12.112 6.381c-0.002 0-0.004 0-0.005 0-0.392 0-0.759 0.111-1.070 0.302l0.009-0.005c-0.976 0.597-1.133 1.844-0.443 3.411 0.449 1.035 1.164 1.624 1.949 1.62 1.793-0.009 2.48-1.865 1.447-3.933-0.409-0.88-1.116-1.381-1.887-1.395zM11.857 7.277c0.224-0.012 0.476 0.113 0.719 0.372 0.193 0.207 0.463 0.68 0.583 1.049 0.467 1.331 0.219 2.251-0.552 2.061-0.801-0.187-1.66-2.76-1.113-3.313 0.092-0.098 0.22-0.161 0.363-0.169l0.001-0zM6.837 8.277c-0.002 0-0.003 0-0.005 0-0.392 0-0.759 0.111-1.070 0.302l0.009-0.005c-0.976 0.597-1.133 1.843-0.443 3.409 0.449 1.036 1.164 1.624 1.949 1.62 1.792-0.009 2.48-1.864 1.447-3.933-0.409-0.88-1.117-1.381-1.887-1.393zM6.581 9.173c0.224-0.013 0.477 0.113 0.72 0.371 0.193 0.207 0.463 0.68 0.583 1.049 0.467 1.332 0.219 2.252-0.553 2.063-0.8-0.188-1.657-2.763-1.112-3.313 0.092-0.097 0.219-0.161 0.361-0.169l0.002-0zM24.397 10.047c-0.002 0-0.003 0-0.005 0-0.392 0-0.759 0.111-1.070 0.302l0.009-0.005c-0.976 0.597-1.133 1.843-0.443 3.411 0.449 1.035 1.164 1.624 1.949 1.62 1.793-0.009 2.48-1.865 1.447-3.933-0.409-0.88-1.116-1.381-1.887-1.395zM24.143 10.943c0.224-0.012 0.476 0.113 0.719 0.371 0.193 0.207 0.463 0.68 0.583 1.049 0.467 1.332 0.219 2.252-0.552 2.063-0.801-0.188-1.659-2.763-1.113-3.313 0.092-0.098 0.22-0.161 0.363-0.169l0.001-0zM19.121 11.943c-0.002 0-0.005 0-0.008 0-0.391 0-0.757 0.11-1.068 0.301l0.009-0.005c-0.973 0.597-1.131 1.844-0.441 3.411 0.449 1.035 1.164 1.624 1.949 1.62 1.792-0.009 2.48-1.864 1.447-3.933-0.409-0.88-1.117-1.381-1.888-1.393zM18.868 12.837c0.223-0.012 0.476 0.113 0.719 0.372 0.193 0.207 0.463 0.68 0.583 1.049 0.467 1.331 0.219 2.251-0.553 2.063-0.8-0.189-1.659-2.763-1.113-3.313 0.093-0.098 0.221-0.162 0.364-0.171l0.002-0zM13.873 13.828c-0.002 0-0.003 0-0.005 0-0.393 0-0.759 0.111-1.071 0.302l0.009-0.005c-0.976 0.597-1.133 1.843-0.443 3.409 0.449 1.036 1.164 1.625 1.949 1.621 1.793-0.009 2.48-1.865 1.447-3.935-0.409-0.88-1.117-1.381-1.887-1.393zM13.617 14.724c0.225-0.013 0.477 0.113 0.72 0.371 0.193 0.207 0.463 0.68 0.583 1.049 0.467 1.332 0.219 2.252-0.552 2.063-0.801-0.188-1.659-2.763-1.113-3.313 0.092-0.097 0.219-0.161 0.361-0.169l0.002-0zM8.931 15.545l-0.944 0.687-0.66 0.492 0.151 0.419 0.099 0.275 0.699-0.421 0.532 1.483 0.537 1.496-0.479 0.173-0.449 0.16c0.060 0.193 0.288 0.855 0.317 0.884l2.888-1.037-0.317-0.884-0.325 0.117-0.591 0.212-0.445-1.24zM29.816 17.319c0.045 0 0.065 0.063 0.085 0.18 0.031 0.147-0.085 0.727-0.26 1.276-0.625 1.915-2.736 5.632-4.105 7.196l-0.544 0.627 0.068-0.889c0.040-0.756-0.021-1.083-0.503-2.28-0.661-1.684-0.711-2.307-0.211-3.080 0.455-0.685 1.371-1.209 3.264-1.828 0.96-0.317 1.567-0.617 1.847-0.885 0.176-0.193 0.276-0.293 0.337-0.313 0.006-0.002 0.012-0.003 0.019-0.003 0.001 0 0.002 0 0.003 0h-0zM21.244 19.288l-0.944 0.687-0.66 0.493 0.151 0.419 0.099 0.273 0.697-0.421 0.533 1.483 0.537 1.497-0.479 0.172-0.449 0.16c0.060 0.193 0.288 0.856 0.317 0.885l2.888-1.039-0.317-0.883-0.325 0.116-0.591 0.213-0.445-1.24zM16.472 21.061c-0.002 0-0.003 0-0.005 0-0.392 0-0.759 0.111-1.070 0.302l0.009-0.005c-0.975 0.597-1.132 1.843-0.443 3.411 0.449 1.035 1.164 1.624 1.949 1.62 1.793-0.009 2.48-1.865 1.448-3.933-0.409-0.88-1.117-1.381-1.888-1.395zM16.217 21.957c0.224-0.012 0.477 0.113 0.72 0.372 0.192 0.205 0.461 0.68 0.583 1.049 0.467 1.331 0.219 2.251-0.553 2.061-0.8-0.188-1.659-2.763-1.113-3.313 0.092-0.098 0.22-0.161 0.363-0.169l0.001-0zM11.531 22.779l-0.947 0.687-0.659 0.493 0.151 0.417 0.099 0.275 0.699-0.421 0.533 1.483 0.537 1.496-0.48 0.173-0.449 0.16c0.060 0.193 0.288 0.856 0.317 0.885l2.888-1.039-0.317-0.884-0.916 0.331-0.445-1.24z"></path></svg>
