<svg version="1.1" xmlns="http://www.w3.org/2000/svg" width="32" height="32" viewBox="0 0 32 32"><path d="M16 23.333q2.5 0 4.25-1.75t1.75-4.25-1.75-4.25-4.25-1.75-4.25 1.75-1.75 4.25 1.75 4.25 4.25 1.75zM16 20.667q-1.4 0-2.367-0.967t-0.967-2.367 0.967-2.367 2.367-0.967 2.367 0.967 0.967 2.367-0.967 2.367-2.367 0.967zM5.333 28q-1.1 0-1.883-0.783t-0.783-1.883v-16q0-1.1 0.783-1.883t1.883-0.783h4.2l2.467-2.667h8l2.467 2.667h4.2q1.1 0 1.883 0.783t0.783 1.883v16q0 1.1-0.783 1.883t-1.883 0.783h-21.333zM5.333 25.333h21.333v-16h-5.4l-2.433-2.667h-5.667l-2.433 2.667h-5.4v16z"></path></svg>
