<svg version="1.1" xmlns="http://www.w3.org/2000/svg" width="32" height="32" viewBox="0 0 32 32"><path fill="#f60d1a" d="M12.5 11.709l-5.923 5.92c-1.935 1.933-1.935 5.071 0 7.004l5.923 5.919c1.933 1.932 5.065 1.932 6.999 0l5.923-5.919c1.935-1.933 1.936-5.071 0-7.004l-5.923-5.92c-1.932-1.932-5.065-1.932-6.999 0zM14.127 9.84c-3.997-0.427-8.024-3.448-8.343-9.84 6.203 0 9.52 3.672 9.84 9.491 1.173-6.979 6.671-6.161 6.671-6.161 0.261 3.955-2.987 6.353-6.671 6.552-1.035-2.181-7.235-7.531-7.235-7.531-0.007-0.005-0.019-0.005-0.024 0.003-0.004 0.004-0.005 0.012-0.003 0.017 0 0 5.983 5.212 5.764 7.469zM15.992 23.579c-2.975 0.22-4.283 2.317-4.197 4.365-0.004-0.048-0.009-0.093-0.012-0.143-0.177-2.464 1.769-4.28 1.769-6.673-0.229-3.096-2.492-4.383-4.616-4.177 0.135-0.016 0.272-0.029 0.417-0.037 2.464-0.177 4.283 1.769 6.673 1.769 2.776-0.209 4.099-2.049 4.195-3.959 0.029 2.333-1.775 4.105-1.775 6.413 0.22 2.973 2.315 4.28 4.361 4.197-0.048 0.004-0.093 0.009-0.143 0.012-2.464 0.179-4.283-1.768-6.673-1.768z"></path></svg>
