<svg xmlns="http://www.w3.org/2000/svg" viewBox="0 0 769 350">
    <defs>
        <style>
            .cls-1 {
                fill: #fff;
            }
        </style>
    </defs>
    <g id="Layer_2" data-name="Layer 2">
        <g id="Layer_1-2" data-name="Layer 1">
            <path
                class="cls-1"
                d="M20,345.5A15.51,15.51,0,0,1,4.5,330V20A15.51,15.51,0,0,1,20,4.5H80.5v341Z"
            />
            <path
                d="M76,9V341H20A11,11,0,0,1,9,330V20A11,11,0,0,1,20,9H76m9-9H20A20,20,0,0,0,0,20V330a20,20,0,0,0,20,20H85V0Z"
            />
            <rect class="cls-1" x="80.5" y="4.5" width="76" height="341" />
            <path d="M152,9V341H85V9h67m9-9H76V350h85V0Z" />
            <rect class="cls-1" x="156.5" y="4.5" width="76" height="341" />
            <path d="M228,9V341H161V9h67m9-9H152V350h85V0Z" />
            <rect class="cls-1" x="232.5" y="4.5" width="76" height="341" />
            <path d="M304,9V341H237V9h67m9-9H228V350h85V0Z" />
            <rect class="cls-1" x="308.5" y="4.5" width="76" height="341" />
            <path d="M380,9V341H313V9h67m9-9H304V350h85V0Z" />
            <path
                d="M65,225.5a5.51,5.51,0,0,1-5.5-5.5V4.5h42V220a5.51,5.51,0,0,1-5.5,5.5Z"
            />
            <path
                d="M97,9V220a1,1,0,0,1-1,1H65a1,1,0,0,1-1-1V9H97m9-9H55V220a10,10,0,0,0,10,10H96a10,10,0,0,0,10-10V0Z"
            />
            <path
                d="M217,225.5a5.51,5.51,0,0,1-5.5-5.5V4.5h42V220a5.51,5.51,0,0,1-5.5,5.5Z"
            />
            <path
                d="M249,9V220a1,1,0,0,1-1,1H217a1,1,0,0,1-1-1V9h33m9-9H207V220a10,10,0,0,0,10,10h31a10,10,0,0,0,10-10V0Z"
            />
            <path
                d="M293,222.5a5.51,5.51,0,0,1-5.5-5.5V4.5h42V217a5.51,5.51,0,0,1-5.5,5.5Z"
            />
            <path
                d="M325,9V217a1,1,0,0,1-1,1H293a1,1,0,0,1-1-1V9h33m9-9H283V217a10,10,0,0,0,10,10h31a10,10,0,0,0,10-10V0Z"
            />
            <rect class="cls-1" x="384.5" y="4.5" width="76" height="341" />
            <path d="M456,9V341H389V9h67m9-9H380V350h85V0Z" />
            <rect class="cls-1" x="460.5" y="4.5" width="76" height="341" />
            <path d="M532,9V341H465V9h67m9-9H456V350h85V0Z" />
            <rect class="cls-1" x="536.5" y="4.5" width="76" height="341" />
            <path d="M608,9V341H541V9h67m9-9H532V350h85V0Z" />
            <rect class="cls-1" x="612.5" y="4.5" width="76" height="341" />
            <path d="M684,9V341H617V9h67m9-9H608V350h85V0Z" />
            <path
                d="M445,222.5a5.51,5.51,0,0,1-5.5-5.5V4.5h42V217a5.51,5.51,0,0,1-5.5,5.5Z"
            />
            <path
                d="M477,9V217a1,1,0,0,1-1,1H445a1,1,0,0,1-1-1V9h33m9-9H435V217a10,10,0,0,0,10,10h31a10,10,0,0,0,10-10V0Z"
            />
            <path
                d="M521,222.5a5.51,5.51,0,0,1-5.5-5.5V4.5h42V217a5.51,5.51,0,0,1-5.5,5.5Z"
            />
            <path
                d="M553,9V217a1,1,0,0,1-1,1H521a1,1,0,0,1-1-1V9h33m9-9H511V217a10,10,0,0,0,10,10h31a10,10,0,0,0,10-10V0Z"
            />
            <path
                d="M597,222.5a5.51,5.51,0,0,1-5.5-5.5V4.5h42V217a5.51,5.51,0,0,1-5.5,5.5Z"
            />
            <path
                d="M629,9V217a1,1,0,0,1-1,1H597a1,1,0,0,1-1-1V9h33m9-9H587V217a10,10,0,0,0,10,10h31a10,10,0,0,0,10-10V0Z"
            />
            <path
                class="cls-1"
                d="M688.5,345.5V4.5H749A15.51,15.51,0,0,1,764.5,20V330A15.51,15.51,0,0,1,749,345.5Z"
            />
            <path
                d="M749,9a11,11,0,0,1,11,11V330a11,11,0,0,1-11,11H693V9h56m0-9H684V350h65a20,20,0,0,0,20-20V20A20,20,0,0,0,749,0Z"
            />
        </g>
    </g></svg>
