<svg version="1.1" xmlns="http://www.w3.org/2000/svg" width="32" height="32" viewBox="0 0 32 32"><path fill="#f7b93e" d="M11.428 31.239c0 0.42-0.341 0.761-0.761 0.761v0h-7.619c-0.421 0-0.762-0.341-0.762-0.762s0.341-0.762 0.762-0.762v0h7.619c0.421 0 0.761 0.341 0.761 0.763zM10.667 27.427h-1.524c-0.421 0-0.762 0.341-0.762 0.762s0.341 0.762 0.762 0.762v0h1.524c0.421 0 0.762-0.341 0.762-0.762s-0.341-0.762-0.762-0.762v0zM3.048 28.951h3.045c0.421 0 0.762-0.341 0.762-0.762s-0.341-0.762-0.762-0.762v0h-3.045c-0.421 0-0.762 0.341-0.762 0.762s0.341 0.762 0.762 0.762v0zM10.667 24.381h-7.619c-0.421 0-0.762 0.341-0.762 0.762s0.341 0.762 0.762 0.762v0h7.619c0.421 0 0.762-0.341 0.762-0.762s-0.341-0.762-0.762-0.762v0zM21.333 21.333h-13.715c-0.421 0-0.762 0.341-0.762 0.762s0.341 0.762 0.762 0.762v0h13.715c0.421 0 0.762-0.341 0.762-0.762s-0.341-0.762-0.762-0.762v0zM3.048 22.857h1.524c0.421 0 0.762-0.341 0.762-0.762s-0.341-0.762-0.762-0.762v0h-1.524c-0.421 0-0.762 0.341-0.762 0.762s0.341 0.762 0.762 0.762v0zM25.905 18.285h-4.572c-0.421 0-0.762 0.341-0.762 0.762s0.341 0.762 0.762 0.762v0h4.572c0.421 0 0.762-0.341 0.762-0.762s-0.341-0.762-0.762-0.762v0zM12.191 19.809h6.095c0.421 0 0.762-0.341 0.762-0.762s-0.341-0.762-0.762-0.762v0h-6.095c-0.421 0-0.762 0.341-0.762 0.762s0.341 0.762 0.762 0.762v0zM3.048 19.809h6.095c0.421 0 0.762-0.341 0.762-0.762s-0.341-0.762-0.762-0.762v0h-6.095c-0.421 0-0.762 0.341-0.762 0.762s0.341 0.762 0.762 0.762v0zM27.427 15.24h-12.187c-0.42 0-0.761 0.341-0.761 0.761s0.341 0.761 0.761 0.761h12.189c0.42-0.001 0.76-0.341 0.76-0.761s-0.341-0.761-0.761-0.761c-0 0-0.001 0-0.001 0h0zM12.952 16c0-0.42-0.341-0.761-0.761-0.761v0h-4.572c-0.42 0-0.761 0.341-0.761 0.761s0.341 0.761 0.761 0.761h4.572c0.42 0 0.761-0.341 0.761-0.761v0zM3.048 16.761h1.524c0.42 0 0.761-0.341 0.761-0.761s-0.341-0.761-0.761-0.761h-1.524c-0.42 0-0.761 0.341-0.761 0.761s0.341 0.761 0.761 0.761v0zM28.952 12.191h-7.619c-0.421 0-0.762 0.341-0.762 0.762s0.341 0.762 0.762 0.762v0h7.619c0.421 0 0.762-0.341 0.762-0.762s-0.341-0.762-0.762-0.762v0zM3.048 13.715h7.619c0.421 0 0.762-0.341 0.762-0.762s-0.341-0.762-0.762-0.762v0h-7.619c-0.421 0-0.762 0.341-0.762 0.762s0.341 0.762 0.762 0.762v0zM20.572 9.905c0 0.42 0.34 0.761 0.761 0.761h7.619c0.421 0 0.762-0.341 0.762-0.762s-0.341-0.762-0.762-0.762v0h-7.619c0 0 0 0 0 0-0.42 0-0.761 0.341-0.761 0.761 0 0 0 0.001 0 0.001v-0zM9.143 9.143c-0.421 0-0.762 0.341-0.762 0.762s0.341 0.762 0.762 0.762v0h1.524c0.421 0 0.762-0.341 0.762-0.762s-0.341-0.762-0.762-0.762v0zM3.048 10.667h3.045c0.421 0 0.762-0.341 0.762-0.762s-0.341-0.762-0.762-0.762v0h-3.045c-0.421 0-0.762 0.341-0.762 0.762s0.341 0.762 0.762 0.762v0zM25.143 6.857c0 0.42 0.341 0.761 0.763 0.761h1.523c0.421 0 0.762-0.341 0.762-0.762s-0.341-0.762-0.762-0.762v0h-1.521c-0.001 0-0.002 0-0.003 0-0.42 0-0.761 0.341-0.761 0.761 0 0 0 0.001 0 0.001v-0zM23.619 6.857c0-0 0-0.001 0-0.001 0-0.42-0.341-0.761-0.761-0.761 0 0 0 0 0 0h-6.097c-0.421 0-0.762 0.341-0.762 0.762s0.341 0.762 0.762 0.762v0h6.096c0 0 0.001 0 0.001 0 0.42 0 0.761-0.341 0.761-0.761 0 0 0 0 0 0v0zM3.048 7.619h10.667c0.421 0 0.762-0.341 0.762-0.762s-0.341-0.762-0.762-0.762v0h-10.667c-0.421 0-0.762 0.341-0.762 0.762s0.341 0.762 0.762 0.762v0zM9.905 3.809c0 0.421 0.34 0.763 0.761 0.763h15.239c0.421 0 0.762-0.341 0.762-0.762s-0.341-0.762-0.762-0.762v0h-15.239c-0.42 0-0.761 0.341-0.761 0.761v0zM3.048 4.572h4.571c0.421 0 0.762-0.341 0.762-0.762s-0.341-0.762-0.762-0.762v0h-4.571c-0.421 0-0.762 0.341-0.762 0.762s0.341 0.762 0.762 0.762v0zM3.048 1.524h18.285c0.421 0 0.762-0.341 0.762-0.762s-0.341-0.762-0.762-0.762v0h-18.285c-0.421 0-0.762 0.341-0.762 0.762s0.341 0.762 0.762 0.762v0z"></path></svg>
