<svg version="1.1" xmlns="http://www.w3.org/2000/svg" width="32" height="32" viewBox="0 0 32 32"><path fill="#e6522c" d="M16 0c-8.836 0-16 7.163-16 16 0 8.836 7.164 16 16 16s16-7.164 16-16c0-8.837-7.164-16-16-16zM16 29.947c-2.513 0-4.552-1.68-4.552-3.752h9.104c0 2.071-2.037 3.751-4.552 3.752zM23.52 24.953h-15.040v-2.728h15.040zM23.467 20.823h-14.945c-0.049-0.057-0.1-0.115-0.148-0.173-1.54-1.868-1.903-2.844-2.253-3.839-0.007-0.033 1.867 0.383 3.193 0.681 0 0 0.684 0.159 1.683 0.34-0.96-1.124-1.529-2.553-1.529-4.013 0-3.208 2.46-6.011 1.573-8.276 0.864 0.071 1.787 1.823 1.849 4.563 0.919-1.268 1.303-3.587 1.303-5.007 0-1.471 0.969-3.18 1.939-3.239-0.864 1.425 0.224 2.645 1.192 5.675 0.363 1.139 0.316 3.053 0.596 4.268 0.093-2.523 0.527-6.203 2.127-7.473-0.705 1.6 0.105 3.603 0.659 4.565 0.895 1.552 1.437 2.729 1.437 4.955-0.006 1.529-0.565 2.926-1.487 4.003l0.007-0.008c1.056-0.199 1.787-0.377 1.787-0.377l3.431-0.669c0 0-0.499 2.051-2.412 4.025z"></path></svg>
