<svg version="1.1" xmlns="http://www.w3.org/2000/svg" width="32" height="32" viewBox="0 0 32 32"><path fill="#f60" d="M29.6 12.985h-9.453c-0.756-0.091-1.332-0.756-1.332-1.54v-9.92c0.001-0.845-0.685-1.525-1.524-1.525h-3.308c-0.847 0-1.527 0.687-1.527 1.527v10.024c-0.041 0.756-0.665 1.365-1.415 1.435h-2.476c-0.728-0.089-1.291-0.7-1.339-1.436v-10.023c0-0.847-0.687-1.527-1.525-1.527h-3.309c-0.845 0-1.525 0.687-1.525 1.527v28.947c0 0.847 0.687 1.527 1.525 1.527h27.215c0.847 0 1.525-0.687 1.525-1.527v-15.961c-0.005-0.847-0.685-1.527-1.532-1.527zM25.245 23.932c0 0.847-0.687 1.527-1.525 1.527h-3.308c-0.847 0-1.525-0.687-1.525-1.527v-3.121c0-0.847 0.687-1.527 1.525-1.527h3.308c0.847 0 1.525 0.687 1.525 1.527z"></path></svg>
