<svg version="1.1" xmlns="http://www.w3.org/2000/svg" width="32" height="32" viewBox="0 0 32 32"><path fill="#c51a4a" d="M21.481 23.117c-1.143 1.319-1.779 3.72-0.945 4.495 0.795 0.599 2.935 0.521 4.513-1.64 1.147-1.44 0.759-3.857 0.108-4.496-0.973-0.74-2.371 0.219-3.676 1.657zM10.739 23.517c-1.211-1.387-2.784-2.211-3.801-1.599-0.68 0.509-0.807 2.247 0.164 3.956 1.437 2.032 3.461 2.239 4.295 1.743 0.879-0.651 0.4-2.849-0.657-4.1zM16.212 27.711c-1.471-0.035-3.731 0.585-3.701 1.376-0.024 0.537 1.775 2.096 3.607 2.017 1.768 0.040 3.599-1.519 3.576-2.199-0.005-0.697-1.997-1.236-3.476-1.179zM16.112 9.119c-1.7-0.043-3.336 1.244-3.336 1.991-0.005 0.907 1.344 1.835 3.347 1.859 2.057 0.013 3.357-0.745 3.376-1.68 0.021-1.059-1.859-2.185-3.357-2.169zM12.017 9.828c-2.847-0.46-5.217 1.2-5.123 4.256 0.093 1.179 6.173-4.055 5.124-4.236zM25.016 14.163c0.095-3.036-2.279-4.695-5.125-4.235-1.049 0.18 5.029 5.415 5.125 4.235zM25.501 15.261c-1.652-0.439-0.56 6.732 0.784 6.153 1.479-1.159 1.955-4.595-0.784-6.133zM5.637 21.495c1.343 0.6 2.436-6.572 0.785-6.133-2.737 1.537-2.264 4.973-0.785 6.153zM18.191 13.564c-1.528 1-1.805 3.237-0.615 4.995 1.188 1.757 3.391 2.417 4.921 1.437 1.528-0.977 1.804-3.216 0.616-4.995-1.189-1.777-3.393-2.417-4.923-1.417zM14.063 13.744c-1.528-0.979-3.732-0.339-4.919 1.419-1.189 1.779-0.915 4.016 0.615 5.015s3.732 0.359 4.921-1.419c1.18-1.757 0.9-3.996-0.62-4.993zM19.888 23.293c-0.012-1.857-1.669-3.357-3.708-3.336-2.036 0.021-3.681 1.519-3.672 3.376v0.039c0.013 1.859 1.672 3.356 3.711 3.336 2.036 0 3.675-1.517 3.656-3.356v-0.039zM24.167 3.116c-3.076 1.579-4.869 2.837-5.852 3.917 0.503 1.997 3.125 2.077 4.084 2.016-0.196-0.080-0.361-0.199-0.42-0.359 0.24-0.16 1.095-0.021 1.691-0.34-0.228-0.040-0.336-0.081-0.439-0.26 0.559-0.18 1.167-0.32 1.521-0.62-0.191 0-0.371 0.040-0.623-0.12 0.503-0.259 1.037-0.479 1.46-0.877-0.261 0-0.541 0-0.621-0.1 0.461-0.28 0.847-0.58 1.169-0.939-0.363 0.060-0.52 0.021-0.605-0.040 0.348-0.34 0.791-0.639 0.999-1.080-0.271 0.101-0.521 0.12-0.696 0 0.121-0.259 0.627-0.419 0.92-1.039-0.287 0.040-0.588 0.061-0.648 0 0.131-0.519 0.359-0.817 0.58-1.139-0.609 0-1.533 0-1.489-0.039l0.377-0.38c-0.597-0.16-1.205 0.020-1.648 0.16-0.199-0.14 0-0.34 0.247-0.54-0.52 0.081-0.977 0.18-1.379 0.341-0.219-0.2 0.14-0.38 0.32-0.581-0.799 0.16-1.119 0.36-1.459 0.56-0.24-0.22-0.020-0.419 0.139-0.599-0.599 0.219-0.899 0.499-1.219 0.757-0.12-0.139-0.279-0.239-0.080-0.599-0.419 0.24-0.739 0.52-0.979 0.839-0.259-0.179-0.159-0.399-0.159-0.599-0.44 0.36-0.72 0.72-1.059 1.081-0.081-0.041-0.14-0.2-0.18-0.461-1.039 1-2.519 3.497-0.38 4.475 1.799-1.459 3.975-2.537 6.372-3.337zM7.821 3.116c2.397 0.8 4.559 1.877 6.369 3.357 2.128-1 0.657-3.497-0.376-4.475-0.055 0.259-0.113 0.439-0.18 0.479-0.34-0.36-0.616-0.72-1.051-1.080 0 0.2 0.103 0.44-0.156 0.6-0.233-0.319-0.547-0.6-0.967-0.84 0.199 0.341 0.033 0.44-0.075 0.599-0.32-0.3-0.62-0.579-1.199-0.799 0.16 0.199 0.4 0.4 0.16 0.62-0.319-0.199-0.659-0.4-1.437-0.56 0.18 0.199 0.539 0.4 0.317 0.6-0.42-0.163-0.88-0.283-1.38-0.344 0.241 0.2 0.456 0.385 0.256 0.54-0.46-0.16-1.075-0.34-1.673-0.18l0.379 0.379c0.040 0.049-0.879 0.040-1.495 0.047 0.22 0.3 0.449 0.599 0.58 1.139-0.060 0.060-0.36 0.021-0.644 0 0.3 0.599 0.799 0.76 0.917 1.020-0.18 0.128-0.419 0.1-0.697 0 0.219 0.419 0.659 0.719 0.997 1.080-0.099 0.059-0.24 0.099-0.619 0.049 0.319 0.347 0.699 0.659 1.159 0.939-0.080 0.093-0.361 0.092-0.639 0.1 0.419 0.405 0.959 0.619 1.459 0.884-0.26 0.181-0.44 0.14-0.62 0.14 0.34 0.3 0.96 0.439 1.519 0.619-0.12 0.18-0.219 0.22-0.459 0.26 0.599 0.339 1.437 0.18 1.677 0.36-0.060 0.159-0.219 0.279-0.419 0.36 0.959 0.060 3.596-0.020 4.096-2.019-0.981-1.076-2.779-2.336-5.855-3.895zM10.133 0.137c0.315-0.009 0.581 0.18 0.869 0.268 0.705-0.227 0.867 0.084 1.213 0.212 0.769-0.16 1.003 0.188 1.372 0.559l0.429-0.012c1.159 0.676 1.74 2.048 1.943 2.753 0.203-0.705 0.779-2.079 1.943-2.753l0.428 0.009c0.369-0.377 0.604-0.719 1.372-0.557 0.348-0.14 0.507-0.44 1.215-0.221 0.44-0.139 0.827-0.5 1.409-0.060 0.491-0.199 0.968-0.26 1.393 0.12 0.66-0.080 0.871 0.081 1.032 0.28 0.144 0 1.079-0.139 1.509 0.48 1.080-0.12 1.419 0.619 1.032 1.317 0.22 0.34 0.449 0.659-0.067 1.3 0.2 0.359 0.083 0.737-0.36 1.217 0.121 0.499-0.099 0.84-0.499 1.119 0.080 0.68-0.64 1.080-0.839 1.219-0.081 0.4-0.241 0.779-1.060 0.979-0.119 0.599-0.619 0.697-1.099 0.819 1.58 0.9 2.917 2.077 2.917 4.975l0.241 0.399c1.799 1.079 3.416 4.536 0.899 7.352-0.159 0.879-0.439 1.499-0.681 2.197-0.359 2.817-2.776 4.135-3.415 4.295-0.919 0.7-1.917 1.36-3.256 1.817-1.256 1.281-2.635 1.781-3.992 1.781h-0.123c-1.377 0-2.751-0.5-4.016-1.78-1.343-0.459-2.339-1.117-3.263-1.817-0.639-0.16-3.044-1.476-3.416-4.295-0.249-0.699-0.525-1.339-0.691-2.216-2.525-2.817-0.908-6.273 0.888-7.353l0.229-0.4c0-2.896 1.34-4.076 2.917-4.973-0.479-0.12-0.96-0.22-1.097-0.82-0.82-0.2-0.98-0.579-1.060-0.979-0.2-0.14-0.919-0.539-0.839-1.237-0.4-0.281-0.62-0.62-0.5-1.139-0.419-0.461-0.539-0.86-0.36-1.22-0.52-0.639-0.279-0.977-0.060-1.299-0.38-0.7-0.040-1.459 1.039-1.339 0.419-0.62 1.36-0.479 1.497-0.479 0.161-0.2 0.38-0.38 1.039-0.3 0.419-0.38 0.9-0.32 1.399-0.136 0.201-0.16 0.381-0.219 0.541-0.219z"></path></svg>
