<svg version="1.1" xmlns="http://www.w3.org/2000/svg" width="32" height="32" viewBox="0 0 32 32"><path fill="#e00" d="M21.345 17.848c2.103 0 5.147-0.435 5.147-2.936 0.001-0.021 0.001-0.046 0.001-0.072 0-0.178-0.020-0.352-0.057-0.519l0.003 0.016-1.253-5.44c-0.288-1.197-0.541-1.74-2.643-2.791-1.631-0.833-5.184-2.211-6.235-2.211-0.977 0-1.263 1.261-2.429 1.261-1.123 0-1.956-0.941-3.007-0.941-1.009 0-1.667 0.687-2.173 2.101 0 0-1.413 3.987-1.596 4.565-0.024 0.085-0.038 0.183-0.038 0.285 0 0.015 0 0.030 0.001 0.044l-0-0.002c0 1.549 6.103 6.632 14.28 6.632zM26.813 15.928c0.291 1.376 0.291 1.52 0.291 1.703 0 2.353-2.645 3.66-6.124 3.66-7.86 0.005-14.747-4.601-14.747-7.645 0-0.002 0-0.004 0-0.006 0-0.444 0.093-0.866 0.261-1.248l-0.008 0.020c-2.825 0.141-6.487 0.647-6.487 3.877 0 5.292 12.54 11.815 22.468 11.815 7.613 0 9.532-3.443 9.532-6.16 0-2.14-1.849-4.567-5.183-6.016z"></path></svg>
