<svg version="1.1" xmlns="http://www.w3.org/2000/svg" width="32" height="32" viewBox="0 0 32 32"><path fill="#ec4a3f" d="M4.56 0c-0.272 0.001-0.492 0.221-0.492 0.493 0 0 0 0 0 0v0 26.021c0.769-1.984 2.076-4.823 4.184-8.707 7.6-13.973 8.596-15.383 12.555-15.383 2.080 0 4.179 0.939 5.536 2.607-1.875-2.997-5.137-4.975-8.865-5.032l-0.008-0zM21.52 3.392c-1.587 0.013-3.009 0.621-3.597 1.997-1.289 3.008 2.165 6.356 3.676 6.091 1.923-0.34-0.34-4.751-0.34-4.751 2.94 5.541 2.263 3.845-3.053 8.933s-10.744 15.831-11.536 16.281c-0.031 0.021-0.066 0.040-0.103 0.056l-0.004 0.002h20.849c0.272-0.003 0.491-0.225 0.491-0.497 0-0.080-0.019-0.156-0.053-0.223l0.001 0.003-5.451-10.789c-0.034-0.065-0.054-0.142-0.054-0.224 0-0.181 0.098-0.34 0.243-0.425l0.002-0.001c3.213-1.865 5.34-5.289 5.34-9.211 0-0.002 0-0.005 0-0.007v0c0-1.9-0.497-3.681-1.373-5.227-1.236-1.269-3.24-2.021-5.040-2.008z"></path></svg>
