<svg version="1.1" xmlns="http://www.w3.org/2000/svg" width="32" height="32" viewBox="0 0 32 32"><path fill="#fb4226" d="M31.551 28.763c0.599-0.997 0.599-1.995 0-2.992l-12.96-22.529c-0.596-0.996-1.593-1.397-2.591-1.397s-1.993 0.599-2.591 1.397l-4.188 7.376 0.997 0.599c3.191 1.795 5.781 4.385 7.576 7.576 1.596 2.792 2.592 5.781 2.792 8.973h-2.991c-0.199-2.593-0.997-5.185-2.392-7.579-1.396-2.791-3.589-4.984-6.38-6.58l-0.999-0.596-3.987 6.779 0.996 0.599c2.592 1.593 4.387 4.185 4.785 7.177h-6.58c-0.199 0-0.4-0.2-0.4-0.2s-0.197-0.2 0-0.399l1.797-3.191c-0.599-0.596-1.397-0.997-2.195-1.195l-1.795 3.191c-0.599 0.997-0.599 1.995 0 2.992 0.597 0.995 1.395 1.393 2.591 1.393h9.172v-1.195c0-2.193-0.599-4.188-1.595-6.183-0.799-1.593-1.995-2.791-3.389-3.787l1.396-2.593c1.796 1.395 3.391 2.991 4.585 4.985 1.396 2.391 1.995 4.984 1.995 7.576v1.195h7.775v-1.195c0-3.987-0.996-7.976-3.189-11.564-1.596-3.192-4.188-5.783-7.18-7.777l2.992-5.183c0.201-0.2 0.4-0.2 0.4-0.2 0.2 0 0.2 0 0.399 0.2l12.961 22.528c0.197 0.197 0 0.399 0 0.399s-0.2 0.2-0.4 0.2h-2.991v2.393h2.991c1.195 0.199 1.993-0.2 2.591-1.195z"></path></svg>
