<svg version="1.1" xmlns="http://www.w3.org/2000/svg" width="32" height="32" viewBox="0 0 32 32"><path d="M24 29.333q-1.667 0-2.833-1.167t-1.167-2.833q0-0.233 0.033-0.483t0.1-0.45l-9.4-5.467q-0.567 0.5-1.267 0.783t-1.467 0.283q-1.667 0-2.833-1.167t-1.167-2.833 1.167-2.833 2.833-1.167q0.767 0 1.467 0.283t1.267 0.783l9.4-5.467q-0.067-0.2-0.1-0.45t-0.033-0.483q0-1.667 1.167-2.833t2.833-1.167 2.833 1.167 1.167 2.833-1.167 2.833-2.833 1.167q-0.767 0-1.467-0.283t-1.267-0.783l-9.4 5.467q0.067 0.2 0.1 0.45t0.033 0.483-0.033 0.483-0.1 0.45l9.4 5.467q0.567-0.5 1.267-0.783t1.467-0.283q1.667 0 2.833 1.167t1.167 2.833-1.167 2.833-2.833 1.167zM24 8q0.567 0 0.95-0.383t0.383-0.95-0.383-0.95-0.95-0.383-0.95 0.383-0.383 0.95 0.383 0.95 0.95 0.383zM8 17.333q0.567 0 0.95-0.383t0.383-0.95-0.383-0.95-0.95-0.383-0.95 0.383-0.383 0.95 0.383 0.95 0.95 0.383zM24 26.667q0.567 0 0.95-0.383t0.383-0.95-0.383-0.95-0.95-0.383-0.95 0.383-0.383 0.95 0.383 0.95 0.95 0.383z"></path></svg>
