<svg version="1.1" xmlns="http://www.w3.org/2000/svg" width="32" height="32" viewBox="0 0 32 32"><path fill="#ff4785" d="M21.787 0.32l-0.16 3.613c-0 0.003-0 0.007-0 0.010 0 0.133 0.107 0.24 0.24 0.24 0.056 0 0.107-0.019 0.147-0.051l-0.001 0 1.413-1.067 1.2 0.933c0.038 0.025 0.084 0.041 0.134 0.041 0.128 0 0.233-0.1 0.24-0.227l0-0.001-0.133-3.68 1.773-0.133c0.032-0.002 0.069-0.004 0.107-0.004 0.884 0 1.6 0.716 1.6 1.6 0 0.001 0 0.002 0 0.004v-0 28.8c0 0.001 0 0.001 0 0.002 0 0.884-0.716 1.6-1.6 1.6-0.028 0-0.056-0.001-0.084-0.002l0.004 0-21.467-0.96c-0.837-0.036-1.505-0.709-1.533-1.544l-0-0.003-1-26.4c-0.002-0.029-0.003-0.062-0.003-0.096 0-0.852 0.666-1.548 1.505-1.597l0.004-0 17.6-1.107zM17.693 12.4c0 0.627 4.213 0.32 4.787-0.107 0-4.267-2.293-6.52-6.48-6.52-4.2 0-6.533 2.293-6.533 5.72 0 5.933 8 6.040 8 9.28 0 0.933-0.427 1.467-1.4 1.467-1.28 0-1.8-0.653-1.733-2.88 0-0.48-4.867-0.64-5.027 0-0.36 5.373 2.973 6.933 6.8 6.933 3.72 0 6.627-1.987 6.627-5.573 0-6.36-8.133-6.187-8.133-9.333 0-1.293 0.96-1.467 1.507-1.467 0.6 0 1.667 0.093 1.587 2.48z"></path></svg>
