<svg version="1.1" xmlns="http://www.w3.org/2000/svg" width="32" height="32" viewBox="0 0 32 32"><path d="M18.229 11.813c-0.595-0.472-2.264 0.319-2.736 1.491-0.593 1.489-1.473 3.663-2.336 4.615-0.911 1.001-1.001 0.228-0.911-0.349 0.211-1.36 1.537-4.509 2.263-5.397-0.269-0.399-2.027-0.341-3.248 1.555-0.456 0.716-1.497 3.101-2.653 4.981-0.253 0.407-0.571 0.123-0.325-0.829 0.276-1.1 1.091-4.119 2.14-6.496 2.752-0.545 5.673-0.928 7.912-0.936 0.301-0.081 0.504-0.351 0-0.367-1.929-0.065-4.827 0.163-7.537 0.505 0.521-1.043 1.083-1.872 1.652-2.223-0.619-0.391-1.872-0.236-2.588 0.823-0.313 0.468-0.624 1.012-0.899 1.577l-0.037 0.083c-1.987 0.309-3.688 0.659-4.551 0.985-0.895 0.341-0.797 1.424-0.252 1.22 1.132-0.423 2.661-0.863 4.363-1.253-1.083 2.443-1.929 5.324-2.132 6.496-0.505 2.849 1.261 2.832 2.124 1.709 0.936-1.229 2.889-5.552 3.191-6.007 0.089-0.155 0.212-0.073 0.147 0.064-2.181 4.355-1.995 6.040-0.228 5.665 0.797-0.171 2.173-1.537 2.532-2.247 0.073-0.171 0.228-0.155 0.195-0.081-1.384 3.591-3.141 6.496-4.321 7.408-1.075 0.821-1.873-0.961 1.928-3.517 0.563-0.381 0.301-0.903-0.333-0.724-1.961 0.309-7.577 2.092-10.044 3.801-0.188 0.131-0.359 0.236-0.351 0.505 0.008 0.155 0.277 0.097 0.408 0.016 3.191-1.913 5.803-2.661 8.799-3.289 0.040 0.017 0.089 0.025 0.129 0.009 0.139-0.033 0.131 0.040 0.041 0.097-0.12 0.072-0.27 0.151-0.423 0.222l-0.033 0.014c-2.019 0.789-3.24 2.531-2.808 3.419 0.367 0.765 2.344 0.488 3.28-0.016 2.296-1.245 3.964-3.688 5.104-7.057 0.993-2.988 2.247-6.373 2.54-6.472zM4.928 21.46c0.831-0.993 0.928-2.019 0.285-3.924-0.407-1.204-1.083-2.132-0.587-2.881 0.529-0.797 1.653-0.024 0.717 1.041l0.187 0.131c1.124 0.131 1.677-1.408 0.839-1.848-2.215-1.156-4.152 1.067-3.297 3.639 0.367 1.091 0.88 2.247 0.464 3.167-0.357 0.789-1.049 1.253-1.513 1.269-0.969 0.049-0.325-2.173 0.789-2.727 0.097-0.048 0.236-0.113 0.105-0.276-1.375-0.155-2.181 0.48-2.645 1.367-1.351 2.58 2.564 3.533 4.656 1.043zM31.569 18.708c-3.736-0.488-11.793 0.163-15.351 1.108-1.059 0.276-0.765 0.837-0.228 0.732 0.008 0 0.236-0.057 0.244-0.057 2.923-0.569 10.012-1.067 14.147-0.276 0.497 0.089 1.987-1.4 1.188-1.507zM19.271 18.269c1.041-0.521 2.588-3.745 3.605-5.511 0.073-0.131 0.204-0.025 0.131 0.064-2.572 4.428-1.481 4.941-0.464 4.876 1.36-0.081 2.613-2.035 2.889-2.475 0.115-0.171 0.18-0.032 0.115 0.091-0.065 0.203-0.301 0.561-0.521 1.049-0.309 0.692 0.016 0.96 0.285 1.083 0.423 0.204 1.579 0.073 1.757-0.635-1.155-0.024 1.612-5.479 1.897-5.812-0.773-0.448-1.969 0.041-2.516 1.115-1.163 2.304-2.14 4.16-2.751 4.192-1.188 0.065 1.368-5.136 1.783-5.299-0.252-0.367-1.872-0.212-2.776 1.188-0.325 0.505-2.311 4.021-2.8 4.6-0.863 1.025-0.928 0.147-0.684-0.88 0.081-0.349 0.22-0.797 0.4-1.293 0.569-1.287 1.18-1.693 1.555-2.109 2.515-2.791 3.956-5.055 3.385-5.941-0.504-0.789-2.189-0.44-3.272 1.188-1.995 2.988-3.833 7.081-4.069 8.955-0.228 1.872 1.131 2.009 2.051 1.555zM29.104 13.873c0.317 0.781 0.797 1.555 0.512 2.239-0.236 0.585-0.545 0.831-0.887 0.887-0.48 0.081-0.351-1.424 0.472-1.872 0.073-0.040 0.179-0.236 0.081-0.349-1.041-0.057-1.628 0.439-1.945 1.099-0.92 1.929 2.084 2.457 3.557 0.561 0.585-0.757 0.611-1.505 0.048-2.865-0.357-0.863-0.903-1.505-0.561-2.076 0.367-0.601 1.245-0.081 0.587 0.725l0.147 0.081c0.855 0.048 1.204-1.091 0.553-1.376-1.717-0.732-3.321 1.115-2.564 2.947zM20.329 12.791c0.089-0.204 0.147-0.26 0.301-0.603 0.895-1.969 2.019-4.045 2.792-5.013 0.48-0.505 1.155 0.179-0.065 2.051-0.737 1.135-1.534 2.123-2.42 3.022l0.002-0.002v0.008c-0.228 0.252-0.432 0.464-0.521 0.587-0.065 0.081-0.139 0.065-0.089-0.049z"></path></svg>
