<svg version="1.1" xmlns="http://www.w3.org/2000/svg" width="32" height="32" viewBox="0 0 32 32"><path fill="#ff3e00" d="M27.573 4.227c-1.779-2.559-4.705-4.213-8.016-4.213-1.867 0-3.611 0.526-5.093 1.437l0.042-0.024-7.467 4.747c-2.002 1.268-3.42 3.303-3.846 5.682l-0.008 0.051c-0.093 0.482-0.146 1.037-0.146 1.604 0 1.526 0.385 2.962 1.063 4.216l-0.023-0.047c-0.616 0.911-1.060 1.989-1.26 3.151l-0.007 0.049c-0.089 0.48-0.141 1.031-0.141 1.595 0 1.982 0.632 3.816 1.706 5.312l-0.019-0.027c1.787 2.562 4.721 4.218 8.041 4.218 1.856 0 3.591-0.517 5.069-1.416l-0.043 0.024 7.467-4.747c1.996-1.27 3.41-3.305 3.832-5.682l0.008-0.051c0.092-0.479 0.144-1.031 0.144-1.594 0-1.524-0.384-2.959-1.061-4.213l0.023 0.047c0.888-1.376 1.416-3.058 1.416-4.862 0-1.972-0.631-3.797-1.702-5.285l0.018 0.027zM13.76 28.173c-0.446 0.121-0.958 0.19-1.486 0.19-2.007 0-3.78-1.001-4.848-2.531l-0.013-0.019c-0.867-1.2-1.187-2.68-0.933-4.147l0.147-0.707 0.133-0.44 0.4 0.267c0.88 0.667 1.867 1.147 2.92 1.467l0.267 0.093-0.027 0.267c-0.027 0.373 0.080 0.787 0.293 1.107 0.44 0.627 1.2 0.933 1.933 0.733 0.16-0.053 0.32-0.107 0.453-0.187l7.44-4.747c0.373-0.24 0.613-0.6 0.707-1.027 0.080-0.44-0.027-0.893-0.267-1.253-0.44-0.613-1.2-0.893-1.933-0.707-0.16 0.053-0.333 0.12-0.467 0.2l-2.813 1.787c-0.862 0.521-1.904 0.829-3.017 0.829-2.001 0-3.769-0.995-4.837-2.516l-0.013-0.019c-0.637-0.883-1.020-1.986-1.020-3.179 0-0.342 0.031-0.677 0.091-1.001l-0.005 0.034c0.27-1.474 1.138-2.705 2.338-3.454l0.022-0.013 7.427-4.747c0.467-0.293 0.973-0.507 1.52-0.667 2.4-0.627 4.933 0.32 6.347 2.347 0.637 0.885 1.019 1.992 1.019 3.187 0 0.595-0.095 1.168-0.27 1.705l0.011-0.039-0.133 0.44-0.387-0.267c-0.839-0.618-1.814-1.118-2.863-1.448l-0.070-0.019-0.267-0.080 0.027-0.267c0.027-0.387-0.080-0.8-0.293-1.12-0.44-0.627-1.2-0.893-1.933-0.707-0.16 0.053-0.32 0.107-0.453 0.187l-7.453 4.787c-0.373 0.253-0.613 0.6-0.693 1.040-0.080 0.427 0.027 0.893 0.267 1.24 0.427 0.627 1.2 0.893 1.92 0.707 0.173-0.053 0.333-0.107 0.467-0.187l2.84-1.813c0.467-0.307 0.987-0.533 1.52-0.68 2.413-0.627 4.933 0.32 6.347 2.36 0.867 1.2 1.2 2.68 0.96 4.133-0.264 1.47-1.122 2.7-2.312 3.454l-0.021 0.012-7.44 4.733c-0.445 0.274-0.958 0.505-1.5 0.668l-0.046 0.012z"></path></svg>
