<svg version="1.1" xmlns="http://www.w3.org/2000/svg" width="32" height="32" viewBox="0 0 32 32"><path fill="#ffb13b" d="M16 0c-1.996 0-3.665 1.287-4.331 2.893-0.204 0.501-0.322 1.081-0.322 1.69 0 0.070 0.002 0.139 0.005 0.208l-0-0.010c-0.428-0.466-0.946-0.842-1.528-1.1l-0.029-0.012c-0.522-0.218-1.128-0.345-1.763-0.345-0.066 0-0.131 0.001-0.197 0.004l0.009-0c-1.235 0.040-2.343 0.552-3.156 1.36l0-0c-1.413 1.411-1.684 3.5-1.019 5.107 0.239 0.576 0.627 1.093 1.093 1.539-0.038-0.001-0.083-0.002-0.129-0.002-0.627 0-1.225 0.124-1.772 0.349l0.031-0.011c-1.607 0.665-2.893 2.333-2.893 4.331 0 1.996 1.287 3.665 2.893 4.331 0.583 0.241 1.232 0.333 1.885 0.315-0.476 0.451-0.867 0.976-1.109 1.56-0.665 1.607-0.393 3.696 1.019 5.107 1.411 1.413 3.5 1.684 5.107 1.019 0.583-0.241 1.107-0.635 1.557-1.109-0.019 0.653 0.076 1.303 0.317 1.885 0.665 1.607 2.333 2.893 4.331 2.893 1.996 0 3.665-1.287 4.331-2.893 0.203-0.501 0.322-1.081 0.322-1.69 0-0.070-0.002-0.139-0.005-0.208l0 0.010c0.451 0.475 0.973 0.871 1.557 1.112 1.607 0.665 3.696 0.393 5.107-1.019 1.413-1.411 1.684-3.5 1.019-5.107-0.27-0.611-0.646-1.129-1.109-1.554l-0.003-0.003c0.059 0.003 0.128 0.004 0.198 0.004 0.608 0 1.189-0.118 1.721-0.333l-0.031 0.011c1.607-0.665 2.893-2.333 2.893-4.331 0-1.996-1.287-3.665-2.893-4.331-0.499-0.202-1.078-0.319-1.685-0.319-0.071 0-0.141 0.002-0.211 0.005l0.010-0c0.476-0.451 0.867-0.976 1.109-1.56 0.665-1.607 0.393-3.696-1.019-5.107-0.813-0.808-1.921-1.32-3.149-1.36l-0.007-0c-0.056-0.002-0.122-0.004-0.187-0.004-0.636 0-1.242 0.127-1.794 0.357l0.031-0.011c-0.583 0.241-1.107 0.633-1.557 1.109 0.003-0.058 0.004-0.127 0.004-0.196 0-0.608-0.118-1.189-0.332-1.72l0.011 0.031c-0.665-1.607-2.333-2.893-4.331-2.893zM15.945 2.151c0.017-0 0.036-0.001 0.055-0.001 1.401 0 2.536 1.135 2.536 2.536 0 0.7-0.284 1.334-0.742 1.793v0 5.191l3.669-3.669c0-1.401 1.135-2.536 2.536-2.536s2.536 1.135 2.536 2.536c0 1.401-1.135 2.536-2.536 2.536v0l-3.669 3.669h5.191c0.459-0.458 1.092-0.741 1.792-0.741 1.401 0 2.536 1.135 2.536 2.536s-1.135 2.536-2.536 2.536c-0.7 0-1.333-0.283-1.792-0.741l0 0h-5.191l3.669 3.669c1.401 0 2.536 1.135 2.536 2.536s-1.135 2.536-2.536 2.536c-1.401 0-2.536-1.135-2.536-2.536v0l-3.669-3.669v5.191c0.458 0.459 0.741 1.092 0.741 1.792 0 1.401-1.135 2.536-2.536 2.536s-2.536-1.135-2.536-2.536c0-0.7 0.283-1.333 0.741-1.792l-0 0v-5.191l-3.669 3.669c0 1.401-1.135 2.536-2.536 2.536s-2.536-1.135-2.536-2.536c0-1.401 1.135-2.536 2.536-2.536v0l3.669-3.669h-5.191c-0.459 0.458-1.092 0.741-1.792 0.741-1.401 0-2.536-1.135-2.536-2.536s1.135-2.536 2.536-2.536c0.7 0 1.333 0.283 1.792 0.741l-0-0h5.191l-3.669-3.669c-1.401 0-2.536-1.135-2.536-2.536s1.135-2.536 2.536-2.536c1.401 0 2.536 1.135 2.536 2.536l3.669 3.669v-5.191c-0.459-0.459-0.742-1.093-0.742-1.793 0-1.382 1.105-2.505 2.479-2.535l0.003-0z"></path></svg>
