<svg version="1.1" xmlns="http://www.w3.org/2000/svg" width="32" height="32" viewBox="0 0 32 32"><path fill="#38b2ac" d="M16.001 6.4c-4.267 0-6.933 2.133-8 6.4 1.6-2.133 3.467-2.933 5.6-2.4 1.217 0.304 2.087 1.187 3.051 2.165 1.569 1.592 3.384 3.435 7.349 3.435 4.267 0 6.933-2.133 8-6.4-1.6 2.133-3.467 2.933-5.6 2.4-1.217-0.304-2.087-1.187-3.051-2.165-1.568-1.592-3.383-3.435-7.349-3.435zM8.001 16c-4.267 0-6.933 2.133-8 6.4 1.6-2.133 3.467-2.933 5.6-2.4 1.217 0.304 2.087 1.187 3.051 2.165 1.569 1.592 3.384 3.435 7.349 3.435 4.267 0 6.933-2.133 8-6.4-1.6 2.133-3.467 2.933-5.6 2.4-1.217-0.304-2.087-1.187-3.051-2.165-1.568-1.592-3.383-3.435-7.349-3.435z"></path></svg>
