<svg version="1.1" xmlns="http://www.w3.org/2000/svg" width="32" height="32" viewBox="0 0 32 32"><path fill="#3eaaaf" d="M26.76 12.387v-0.027c0.013-0.053 0.187-1.267-0.107-2.987-0.012-0.082-0.069-0.148-0.145-0.173l-0.002-0-0.467-0.133c-0.107-3.613-1.6-5.333-1.64-5.373 1.333 2.133 1.32 4.68 1.293 5.28l-2.893-0.84h-0.053c-0.008-0.001-0.017-0.001-0.027-0.001s-0.019 0.001-0.028 0.001l0.001-0h-0.040l-0.013 0.013-0.040 0.027-0.013 0.013-0.2 0.187c0.005-0.134 0.008-0.291 0.008-0.449 0-2.013-0.496-3.91-1.373-5.576l0.031 0.066c0.040 0.080 1.067 3.107 0.707 6.493-0.102 0.086-0.215 0.174-0.331 0.256l-0.015 0.010c-0.054 0.040-0.090 0.102-0.093 0.173l-0 0.001c-0.036 0.759-0.229 1.465-0.547 2.097l0.014-0.030c-1.067-0.077-2.312-0.122-3.567-0.122s-2.5 0.044-3.733 0.131l0.166-0.009-0.013-0.053c-0.288-0.584-0.471-1.266-0.506-1.988l-0-0.012c0-0.080-0.027-0.133-0.093-0.187-0.139-0.094-0.256-0.182-0.37-0.274l0.010 0.008c-0.347-3.387 0.68-6.413 0.707-6.493-0.838 1.595-1.329 3.485-1.329 5.489 0 0.165 0.003 0.33 0.010 0.494l-0.001-0.024-0.2-0.187-0.013-0.013-0.040-0.027-0.040-0.013h-0.107l-2.907 0.827c-0.004-0.109-0.007-0.238-0.007-0.367 0-1.807 0.482-3.501 1.326-4.961l-0.026 0.048c-0.040 0.053-1.533 1.76-1.64 5.373l-0.467 0.133c-0.077 0.025-0.135 0.091-0.147 0.172l-0 0.001c-0.293 1.733-0.133 2.933-0.12 2.987v0.027l-0.107 0.027c-0.491 0.149-0.915 0.33-1.314 0.551l0.034-0.017c0.213-0.080 0.427-0.133 0.667-0.2 0.981-0.239 2.143-0.419 3.332-0.503l0.068-0.004 1.36-0.107c1.84-0.107 3.667-0.133 5.507-0.133 0.087-0 0.19-0 0.294-0 2.318 0 4.615 0.087 6.889 0.259l-0.303-0.018c1.295 0.117 2.456 0.296 3.592 0.541l-0.192-0.035c0.227 0.053 0.44 0.12 0.667 0.2-0.369-0.206-0.798-0.387-1.247-0.521l-0.046-0.012zM11.68 11.6c-1.386 0.175-2.598 0.408-3.782 0.712l0.209-0.045c-0.027-0.2-0.133-1.253 0.093-2.693l3.28-0.933c-0.009 0.158-0.014 0.344-0.014 0.53 0 0.863 0.112 1.701 0.323 2.498l-0.015-0.068zM12.173 11.547v-0.107c-0.174-0.674-0.274-1.448-0.274-2.245 0-0.13 0.003-0.259 0.008-0.387l-0.001 0.018c0.213 0.2 0.507 0.453 0.8 0.667 0.027 0.293 0.107 1.16 0.493 1.96zM22.28 11.44v0.107c-0.181-0.023-0.535-0.056-0.89-0.085l-0.137-0.009c0.4-0.8 0.467-1.667 0.493-1.973 0.293-0.2 0.587-0.453 0.8-0.667 0.027 0.587 0 1.64-0.267 2.627zM26.347 12.267c-1.017-0.294-2.226-0.529-3.467-0.659l-0.093-0.008h-0.12l0.027-0.040c0.181-0.697 0.285-1.498 0.285-2.323 0-0.21-0.007-0.419-0.020-0.625l0.001 0.028 3.28 0.933c0.093 0.532 0.146 1.145 0.146 1.771 0 0.325-0.014 0.646-0.042 0.964l0.003-0.041zM22.4 20.32c0.933-0.027 1.427-0.307 1.893-0.080 0-0.027-0.147-0.467-0.8-0.387 0.065-0.151 0.102-0.327 0.102-0.512 0-0.054-0.003-0.108-0.010-0.161l0.001 0.006c-0.093-1.080-0.707-1.933-1.4-1.92-0.68 0.027-1.12 0.933-1.093 2 0.040 1.080 0.627 1.067 1.307 1.053zM22.133 17.96c0.195 0 0.353 0.158 0.353 0.353s-0.158 0.353-0.353 0.353v0c-0.195 0-0.353-0.158-0.353-0.353s0.158-0.353 0.353-0.353v0zM11.68 20.507h0.427c0.693 0 1.253 0.053 1.253-1.027-0.013-1.067-0.493-1.947-1.173-1.947-0.693 0-1.36 0.893-1.32 1.973 0.013 0.28 0.053 0.48 0.133 0.627-0.613 0.16-0.773 0.533-0.787 0.547 0.373-0.2 0.8-0.173 1.467-0.173zM12.28 18.213c0.002-0 0.004-0 0.007-0 0.195 0 0.353 0.158 0.353 0.353 0 0.193-0.154 0.35-0.346 0.353h-0c-0.002 0-0.004 0-0.007 0-0.195 0-0.353-0.158-0.353-0.353 0-0.193 0.154-0.35 0.346-0.353h0zM31.92 11.28c-0.018-0.15-0.037-0.268-0.059-0.385l0.006 0.038-0.080-0.36-0.027-0.080-0.067-0.053c-0.337-0.262-0.718-0.497-1.122-0.69l-0.038-0.016c-0.333-0.147-0.667-0.293-1.013-0.413-0.955-2.685-2.596-4.928-4.715-6.59l-0.031-0.024c-2.068-1.601-4.698-2.566-7.553-2.566s-5.486 0.965-7.582 2.587l0.029-0.021c-2.145 1.692-3.782 3.939-4.702 6.526l-0.031 0.101-1 0.413c-0.4 0.2-0.8 0.413-1.173 0.707l-0.067 0.053-0.027 0.080c-0.060 0.203-0.107 0.443-0.132 0.69l-0.001 0.017c-0.052 0.345-0.082 0.744-0.082 1.149 0 0.333 0.020 0.661 0.059 0.983l-0.004-0.039c0.109 0.881 0.329 1.683 0.649 2.432l-0.022-0.058 0.080 0.173 0.053 0.080 0.053 0.093 0.040 0.067 0.080 0.040c0.041 0.023 0.111 0.059 0.181 0.093l0.032 0.014 0.213 0.093 0.107 0.053c-0.933 0.867-1.96 2-2.853 3.4l-1.12 1.747 1.573-1.373c0.027-0.027 1.333-1.16 3.547-2.453l0.027 0.253c-0.133 0.067-0.84 0.427-1.040 0.6-0.347 0.28-0.36 0.72-0.267 1.547 0.040 0.413 0.2 1.227 0.413 1.973 0.373 1.293 0.64 1.52 0.867 1.573 0.107 0.027 0.253 0.040 0.4 0.040 0.427 0 0.96-0.093 1.32-0.187 0.4 1.28 1 2.44 1.707 3.467-0.040 0-0.067 0-0.107 0.027l-2.427-1.133-1.067-0.467 0.627 0.973c0.053 0.067 1.12 1.733 2 2.867 0.873 1.294 2.334 2.134 3.991 2.134 0.026 0 0.053-0 0.079-0.001l-0.004 0c0.267 0 0.533 0 0.8-0.040l1.467-0.173c1.040 0.403 2.243 0.636 3.5 0.636 1.965 0 3.797-0.57 5.34-1.553l-0.040 0.024c0.88-0.2 1.867-0.44 2.347-0.573l0.267-0.067c0.68-0.16 1.813-0.427 2.413-1.627l1.6-3.107 0.48-0.867-0.907 0.4c-0.053 0.013-1.2 0.52-1.787 0.827-0.027 0-0.040 0.027-0.067 0.040 0.48-0.987 0.72-1.773 0.8-2.080 0.347 0.080 0.84 0.067 1.2 0.067 0.173 0 0.36-0.027 0.48-0.053 0.227-0.067 0.413-0.227 0.76-1.547 0.2-0.773 0.347-1.613 0.373-2.040 0.080-0.853 0.053-1.293-0.28-1.587-0.173-0.133-0.667-0.4-0.933-0.533l0.013-0.093 0.2 0.040 0.24-0.867c0.162-0.079 0.387-0.173 0.615-0.259l0.065-0.021 0.213-0.093 0.293-0.147 0.040-0.067 0.067-0.093 0.040-0.080 0.080-0.173c0.143-0.283 0.27-0.616 0.364-0.962l0.009-0.038c0.199-0.678 0.314-1.458 0.314-2.264 0-0.424-0.032-0.841-0.093-1.248l0.006 0.046zM4.907 15.027c0.141-0.040 0.524-0.119 0.91-0.192l0.224-0.035c-0.347 0.227-0.667 0.48-1 0.733zM12.773 14.653c-0.48 0.333-1.013 0.76-1.533 1.28-1.16 0.12-2.307 0.267-3.453 0.453 1.467-0.68 3.16-1.307 4.987-1.733zM10.627 16.6c-0.173 0.2-0.32 0.4-0.48 0.627l-0.907 1.293 1.333-0.88c0 0 0.853-0.573 2.227-1.24 1.366-0.108 2.959-0.17 4.565-0.17 0.392 0 0.783 0.004 1.173 0.011l-0.059-0.001c-0.267 0.213-0.547 0.427-0.84 0.6l-0.973 0.587c-0.613 0.080-1.147 0.227-1.173 0.24-0.020 0.001-0.038 0.006-0.054 0.014l0.001-0c-0.046 0.031-0.079 0.078-0.093 0.132l-0 0.002-1 3.267-5.307 1.187-1.68-1.173-0.48-3.947c0.947-0.173 2.213-0.373 3.747-0.547zM17.827 17.4c0.093-0.013 1.933-0.24 4.107-0.987 2.427 0.187 4.4 0.48 5.747 0.72l-0.48 3.36-1.68 1.173-5.307-0.6-0.987-3.253c-0.021-0.071-0.076-0.126-0.145-0.146l-0.002-0c-0.040-0.013-0.693-0.2-1.387-0.267zM20.387 14.28c-0.307 0.4-0.733 0.893-1.253 1.373-0.507-0.015-1.104-0.023-1.703-0.023-1.085 0-2.163 0.028-3.234 0.083l0.15-0.006c1.804-0.776 3.897-1.352 6.084-1.628l0.116-0.012zM5.293 23.147c-0.267-0.267-0.747-2.067-0.853-3.027-0.080-0.773-0.027-0.947 0.053-1.013 0.093-0.080 0.44-0.267 0.733-0.44l0.4 3.28c0 0.053 0.040 0.12 0.093 0.147l0.827 0.587 0.107 0.333c-0.347 0.093-1.040 0.2-1.36 0.133zM18.68 29.36l-0.507 0.067h-0.36l0.307-0.68zM17.733 31.36c-0.136 0.008-0.296 0.013-0.456 0.013-0.778 0-1.53-0.112-2.24-0.321l0.056 0.014 0.187-0.027c0.080 0 1.64-0.213 2.347-1.253h0.24l0.333-0.013c0.267-0.027 0.52-0.067 0.773-0.12l0.080 0.080c0.533 0.533 1.2 0.827 1.907 0.88-1.027 0.413-2.133 0.667-3.227 0.747zM27.453 22.853c-0.307 1-0.667 1.867-1.080 2.667h-0.293c-0.32 0-0.64-0.027-1-0.053l-1.907-0.2-1.947-1.547-0.080-0.067c-0.145-0.148-0.348-0.241-0.572-0.241-0.010 0-0.020 0-0.030 0.001l0.001-0c-0.267 0-0.68 0.107-1.68 0.4 0.52-0.387 0.533-0.88 0.533-0.88s-0.747 0.68-1.92 0.827c-1.187 0.16-2.107-0.56-2.107-0.56 0.040 0.12 0.093 0.4 0.36 0.64-0.31-0.039-0.67-0.061-1.034-0.061-0.129 0-0.257 0.003-0.384 0.008l0.018-0.001c-0.72 0.040-1.733 1.147-2.467 2.253l-2.72 0.827c-1.2-1.64-1.787-3.333-1.84-3.507l-0.067-0.2 0.307 0.213 0.747 0.533 0.267 0.173c0.027 0.027 0.067 0.040 0.12 0.040h0.053l6.933-1.56c0.093 0 0.147-0.067 0.173-0.133l0.987-3.28c0.136-0.020 0.293-0.032 0.453-0.032s0.317 0.012 0.471 0.034l-0.018-0.002 1.013 3.373c0.027 0.080 0.107 0.133 0.2 0.147l6.987 0.8c0.053 0 0.107 0 0.16-0.040l0.653-0.453 0.6-0.427 0.227-0.16zM25.907 23.013l-6.773-0.773-1.013-3.347c-0.024-0.081-0.090-0.143-0.172-0.16l-0.001-0c-0.197-0.037-0.427-0.061-0.661-0.067l-0.006-0c-0.187 0-0.4 0.027-0.667 0.067-0.078 0.022-0.138 0.082-0.16 0.158l-0 0.002-1 3.267-6.72 1.493-2.667-1.867-0.533-4.24 0.347-0.2 0.56-0.107 0.493 4c0 0.067 0.040 0.133 0.093 0.16l1.84 1.28c0.027 0.027 0.080 0.040 0.12 0.040h0.053l5.533-1.227 0.053-0.027c0.052-0.028 0.091-0.075 0.106-0.132l0-0.002 1-3.28c0.267-0.067 0.933-0.227 1.547-0.227 0.6 0 1.28 0.16 1.56 0.227l0.987 3.28c0.027 0.093 0.107 0.147 0.187 0.16l5.533 0.627c0.053 0 0.107 0 0.16-0.040l1.827-1.28c0.048-0.034 0.082-0.086 0.093-0.145l0-0.001 0.493-3.44 0.92 0.2-0.547 3.787zM30 18.613c0.080 0.067 0.133 0.24 0.067 1.053-0.091 1.104-0.361 2.122-0.784 3.058l0.023-0.058c-0.28 0.053-0.88 0-1.24-0.093l0.133-0.627 0.627-0.44c0.049-0.033 0.084-0.085 0.093-0.145l0-0.001 0.453-3.12zM29.24 16.84c-0.973-0.213-3.107-0.64-6.027-0.933 0.96-0.4 1.933-0.907 2.8-1.533 1.733 0.24 3.013 0.507 3.707 0.667zM31.28 13.293c-0.115 0.812-0.316 1.545-0.596 2.236l0.023-0.063-0.093 0.187-0.093 0.053-0.2 0.080-0.2 0.093 0.347-1.293c-0.475-0.13-1.19-0.287-1.914-0.422l-0.206-0.032 0.133-0.027c0.438-0.113 0.82-0.259 1.179-0.442l-0.033 0.015c0.124-0.068 0.23-0.153 0.319-0.252l0.001-0.001c-1.28 0.427-3.947 0.227-6.307 0-1.925-0.226-4.18-0.366-6.463-0.386l-0.030-0c-2.187 0-4.347 0.16-6.507 0.373-2.36 0.253-5.013 0.44-6.307 0.013 0.093 0.107 0.213 0.187 0.333 0.253l0.36 0.187c0.302 0.123 0.659 0.229 1.029 0.301l0.038 0.006c-1.16 0.213-1.84 0.4-1.92 0.413l0.36 1.36-0.027 0.027-0.573-0.267-0.093-0.053-0.093-0.187c-0.289-0.634-0.492-1.371-0.571-2.143l-0.002-0.030c-0.048-0.359-0.075-0.774-0.075-1.196 0-0.458 0.032-0.908 0.094-1.348l-0.006 0.051c0.293-0.24 0.613-0.453 0.947-0.667 0.815-0.454 1.786-0.903 2.792-1.282l0.155-0.051 0.627-0.213c-0.808 0.129-1.518 0.306-2.203 0.535l0.097-0.028c1.772-4.837 6.287-8.247 11.613-8.36l0.014-0c5.067 0 9.693 3.293 11.627 8.36-0.569-0.188-1.273-0.363-1.994-0.492l-0.099-0.015c1.025 0.362 1.822 0.691 2.601 1.051l-0.188-0.078c0.387 0.173 0.773 0.373 1.133 0.587 0.347 0.187 0.667 0.4 0.96 0.653l0.040 0.227 0.027 0.32c0.017 0.213 0.026 0.461 0.026 0.712 0 0.435-0.029 0.864-0.085 1.284l0.005-0.049zM15.813 5.893h-1.92v-2.72h6.8v2.72h-1.933v-0.8h-0.44v3.68h0.667v2.053h-3.387v-2.053h0.667v-3.68h-0.44z"></path></svg>
