<svg version="1.1" xmlns="http://www.w3.org/2000/svg" width="32" height="32" viewBox="0 0 32 32"><path fill="#4b8bf5" d="M9.109 8c0-0.215 0.011-0.429 0.031-0.639 0.025-0.276 0.093-0.535 0.149-0.799l-0.925-1.836h-8.364l2.909 5.091h2.036l2.796 5.307c0.473-1.445 1.266-2.676 2.299-3.656l0.004-0.004c-0.587-0.988-0.935-2.178-0.935-3.449 0-0.005 0-0.011 0-0.016v0.001zM13.82 26.217l2.18 3.965 2.183-3.967c-0.713 0.184-1.439 0.312-2.183 0.312s-1.468-0.128-2.18-0.311zM23.637 4.727l-0.956 1.677c0.075 0.317 0.149 0.635 0.179 0.968 0.019 0.192 0.030 0.414 0.030 0.639 0 1.273-0.346 2.464-0.95 3.486l0.017-0.032c1.036 0.985 1.828 2.216 2.285 3.6l0.018 0.062 2.796-5.308h2.036l2.908-5.092zM23.795 16.009c-0.425-1.792-1.407-3.31-2.749-4.402l-0.015-0.012c0.719-0.998 1.15-2.245 1.15-3.592 0-3.415-2.766-6.183-6.18-6.187h-0c-0.001 0-0.002 0-0.003 0-3.413 0-6.18 2.767-6.18 6.18 0 0.001 0 0.002 0 0.003v-0c0 0.002 0 0.005 0 0.007 0 1.347 0.432 2.593 1.166 3.607l-0.012-0.018c-1.818 1.475-2.971 3.71-2.971 6.214 0 0.003 0 0.005 0 0.008v-0c0.001 3.37 2.083 6.254 5.031 7.437l0.054 0.019c0.863 0.346 1.864 0.547 2.912 0.547 1.051 0 2.056-0.202 2.976-0.57l-0.054 0.019c3.001-1.201 5.082-4.085 5.082-7.454 0-0.64-0.075-1.263-0.217-1.86l0.011 0.054zM16 5.636c1.505 0 2.728 1.223 2.728 2.727 0 1.507-1.221 2.728-2.728 2.728s-2.728-1.221-2.728-2.728v0c0-1.504 1.224-2.727 2.728-2.727zM16 20.911c-1.66-0.062-2.982-1.422-2.982-3.091s1.322-3.030 2.977-3.091l0.006-0c1.709 0 3.091 1.383 3.091 3.091s-1.381 3.092-3.091 3.092z"></path></svg>
