<svg version="1.1" xmlns="http://www.w3.org/2000/svg" width="32" height="32" viewBox="0 0 32 32"><path fill="#5c2d91" d="M23.44 0.093c-0.008-0-0.018-0-0.028-0-0.52 0-0.994 0.199-1.35 0.524l0.002-0.001c-0 0-0 0-0.001 0s-0 0-0.001 0h0c-0.024 0.020-0.046 0.040-0.067 0.060l0-0-10.623 11.747-6.2-5.084-0.543-0.467c-0.229-0.191-0.527-0.308-0.852-0.308-0.185 0-0.361 0.038-0.521 0.106l0.009-0.003c-0.014 0.005-0.019 0.008-0.025 0.010l0.009-0.003-2.421 1c-0.043 0.018-0.077 0.033-0.11 0.050l0.007-0.003c-0.027 0.015-0.048 0.028-0.068 0.041l0.005-0.003c-0.024 0.013-0.040 0.023-0.056 0.033l0.006-0.003c-0.026 0.017-0.047 0.032-0.067 0.048l0.003-0.002c-0.017 0.013-0.031 0.023-0.044 0.034l0.002-0.002c-0.022 0.017-0.040 0.033-0.059 0.049l0.001-0.001c-0.018 0.015-0.033 0.030-0.048 0.044l0-0c-0.014 0.014-0.028 0.030-0.041 0.045l-0.001 0.002c-0.014 0.015-0.028 0.032-0.042 0.048l-0.002 0.002c-0.014 0.017-0.029 0.036-0.044 0.055l-0.002 0.003c-0.008 0.011-0.019 0.026-0.029 0.041l-0.003 0.005c-0.012 0.017-0.026 0.039-0.039 0.062l-0.003 0.006c-0.006 0.009-0.015 0.024-0.023 0.039l-0.003 0.007c-0.008 0.014-0.018 0.036-0.029 0.058l-0.003 0.008c-0.006 0.012-0.015 0.031-0.023 0.051l-0.003 0.009c-0.005 0.010-0.012 0.030-0.019 0.049l-0.003 0.009c-0.005 0.011-0.012 0.032-0.019 0.053l-0.003 0.009c-0.005 0.015-0.012 0.039-0.018 0.064l-0.002 0.009c-0.003 0.008-0.007 0.026-0.012 0.044l-0.002 0.009c-0.003 0.016-0.007 0.041-0.010 0.066l-0.001 0.007c-0.002 0.015-0.005 0.038-0.008 0.061l-0 0.005c-0.003 0.033-0.005 0.071-0.005 0.11v14.212c0.003 0.548 0.337 1.017 0.811 1.219l0.009 0.003 2.421 1.017c0.151 0.065 0.328 0.102 0.512 0.102 0.332 0 0.635-0.121 0.868-0.321l-0.002 0.002 0.544-0.467 6.2-5.084 10.624 11.747c0.030 0.029 0.061 0.057 0.093 0.084l0.003 0.002c0.023 0.021 0.048 0.043 0.073 0.064l0.003 0.003c0.020 0.015 0.045 0.034 0.071 0.052l0.007 0.004c0.021 0.016 0.049 0.035 0.077 0.054l0.007 0.005c0.020 0.013 0.048 0.029 0.077 0.045l0.010 0.005c0.019 0.012 0.047 0.027 0.076 0.043l0.011 0.005c0.018 0.009 0.048 0.023 0.078 0.036l0.013 0.005c0.018 0.009 0.049 0.023 0.080 0.035l0.013 0.005c0.018 0.008 0.050 0.019 0.083 0.029l0.014 0.004c0.015 0.006 0.044 0.015 0.074 0.023l0.014 0.003c0.021 0.007 0.057 0.016 0.093 0.024l0.013 0.003c0.017 0.004 0.047 0.011 0.078 0.017l0.012 0.002c0.022 0.004 0.057 0.009 0.091 0.013l0.009 0.001c0.025 0.003 0.059 0.007 0.094 0.009l0.006 0c0.028 0.002 0.061 0.003 0.096 0.004l0.002 0c0.015 0 0.033 0.001 0.051 0.001s0.036-0 0.054-0.001l-0.003 0c0.040-0.002 0.076-0.004 0.112-0.007l-0.008 0.001c0.038-0.003 0.069-0.006 0.099-0.010l-0.010 0.001c0.050-0.006 0.090-0.013 0.129-0.021l-0.013 0.002c0.040-0.007 0.067-0.012 0.093-0.019l-0.013 0.003c0.050-0.012 0.086-0.022 0.121-0.033l-0.014 0.004c0.045-0.012 0.075-0.021 0.105-0.031l-0.014 0.004c0.045-0.016 0.076-0.029 0.106-0.042l-0.013 0.005c0.053-0.020 0.093-0.037 0.131-0.054l-0.012 0.005 6.589-3.168c0.249-0.122 0.459-0.284 0.631-0.48l0.002-0.002c0.040-0.045 0.079-0.093 0.116-0.144l0.004-0.006c-0.003 0.006-0.002 0.003 0 0l0.005-0.010c0.034-0.047 0.069-0.101 0.102-0.157l0.005-0.010c0.025-0.042 0.052-0.094 0.078-0.148l0.005-0.012c-0.001 0.003 0.003-0.004 0.007-0.012l0.005-0.011c0.015-0.033 0.034-0.081 0.050-0.129l0.004-0.014c0.002-0.003 0.008-0.019 0.014-0.035l0.005-0.014c0.011-0.033 0.025-0.081 0.037-0.129l0.003-0.014c0.001-0.003 0.005-0.019 0.009-0.036l0.003-0.014c0.007-0.032 0.015-0.077 0.021-0.123l0.001-0.011c0.002-0.010 0.006-0.033 0.009-0.056l0.001-0.011c0.003-0.033 0.006-0.075 0.008-0.118l0-0.004c0.002-0.029 0.004-0.066 0.005-0.103l0-0.003v-21.481c0-0 0-0.001 0-0.001s0-0.001 0-0.001v0c0-0.006 0-0.014 0-0.021s-0-0.015-0-0.022v0.001c-0.001-0.072-0.006-0.141-0.014-0.21l0.001 0.010c-0.087-0.691-0.515-1.265-1.108-1.555l-0.012-0.005-6.587-3.167c-0.243-0.119-0.528-0.191-0.829-0.196l-0.002-0zM23.996 9.229v13.543l-8.26-6.771zM4.007 11.435l4.129 4.567-4.129 4.565z"></path></svg>
