<svg version="1.1" xmlns="http://www.w3.org/2000/svg" width="32" height="32" viewBox="0 0 32 32"><path fill="#005a9c" d="M31.523 7.469l-1.241 2.477c0 0-0.533-0.984-1.060-1.435-0.503-0.429-1.152-0.827-1.973-0.741-0.796 0.083-1.693 0.783-2.296 1.947-0.684 1.325-0.917 2.668-0.923 4.149-0.007 2.075 0.76 3.491 0.76 3.491s-0.176-0.659-0.147-1.773c0.019-0.693 0.023-1.452 0.547-3.015 0.44-1.307 1.445-2.367 2.333-2.549 0.689-0.143 1.129-0.040 1.808 0.439 0.804 0.567 1.288 1.591 1.288 1.591l1.261-2.413zM0 7.565l5.027 16.964h0.208l3.141-10.515 3.143 10.515h0.209l4.304-14.527 0.203-0.344h3.54l-2.933 5.069v1.005h0.839c1.075 0 1.864 0.328 2.367 0.984 0.432 0.56 0.649 1.348 0.649 2.368 0 0.921-0.203 1.711-0.607 2.367-0.405 0.656-0.901 0.984-1.488 0.984-0.559 0-1.044-0.184-1.456-0.555-0.411-0.369-0.743-0.876-0.995-1.519l-1.717 0.712c0.348 1.061 0.887 1.903 1.613 2.524 0.725 0.621 1.577 0.932 2.555 0.932 1.299 0 2.356-0.524 3.173-1.571s1.225-2.339 1.225-3.875c0-1.243-0.28-2.324-0.837-3.247-0.56-0.92-1.383-1.556-2.472-1.907l3.101-5.341v-1.027h-8.236l-3.036 10.328-3.037-10.327h-2.2l1.005 3.372-2.053 6.953-3.035-10.325zM23.253 19.405c0 0 0.311 1.007 0.505 1.435 0.112 0.247 0.456 1 0.944 1.653 0.455 0.613 1.339 1.664 2.681 1.901 1.344 0.237 2.267-0.365 2.495-0.512 0.229-0.147 0.711-0.549 1.015-0.876 0.319-0.34 0.62-0.773 0.787-1.033 0.121-0.191 0.32-0.576 0.32-0.576l-0.321-1.673c0 0-0.557 0.997-0.904 1.381-0.348 0.384-0.969 1.059-1.736 1.397-0.768 0.337-1.169 0.403-1.928 0.329-0.759-0.072-1.463-0.511-1.709-0.693-0.247-0.184-0.877-0.723-1.233-1.227-0.357-0.501-0.915-1.507-0.915-1.507z"></path></svg>
